%TF.GenerationSoftware,KiCad,Pcbnew,(5.1.10)-1*%
%TF.CreationDate,2023-08-20T09:02:56-05:00*%
%TF.ProjectId,multiplexer cell tester,6d756c74-6970-46c6-9578-65722063656c,B*%
%TF.SameCoordinates,Original*%
%TF.FileFunction,Soldermask,Bot*%
%TF.FilePolarity,Negative*%
%FSLAX46Y46*%
G04 Gerber Fmt 4.6, Leading zero omitted, Abs format (unit mm)*
G04 Created by KiCad (PCBNEW (5.1.10)-1) date 2023-08-20 09:02:56*
%MOMM*%
%LPD*%
G01*
G04 APERTURE LIST*
%ADD10C,11.000000*%
%ADD11C,1.400000*%
%ADD12R,1.700000X1.700000*%
%ADD13O,1.700000X1.700000*%
G04 APERTURE END LIST*
D10*
%TO.C,REF\u002A\u002A*%
X86360000Y-42240000D03*
%TD*%
%TO.C,REF\u002A\u002A*%
X211360000Y-42240000D03*
%TD*%
%TO.C,REF\u002A\u002A*%
X211360000Y-142240000D03*
%TD*%
%TO.C,REF\u002A\u002A*%
X86360000Y-142240000D03*
%TD*%
D11*
%TO.C,TP17*%
X144665700Y-82092800D03*
X147205700Y-82092800D03*
%TD*%
%TO.C,TP16*%
X144665700Y-82092800D03*
X142125700Y-82092800D03*
%TD*%
%TO.C,TP15*%
X120713500Y-137477500D03*
X118173500Y-137477500D03*
%TD*%
D12*
%TO.C,J17*%
X120713500Y-140652500D03*
%TD*%
D11*
%TO.C,TP5*%
X159702500Y-77216000D03*
X157162500Y-77216000D03*
%TD*%
%TO.C,TP4*%
X154622500Y-77216000D03*
X157162500Y-77216000D03*
%TD*%
D12*
%TO.C,TP3*%
X139065000Y-70866000D03*
%TD*%
%TO.C,TP2*%
X144145000Y-70866000D03*
%TD*%
D11*
%TO.C,TP1*%
X160528000Y-68199000D03*
X163068000Y-68199000D03*
%TD*%
D13*
%TO.C,J7*%
X197548500Y-80632300D03*
X200088500Y-80632300D03*
D12*
X202628500Y-80632300D03*
%TD*%
D13*
%TO.C,J6*%
X197548500Y-85077300D03*
X200088500Y-85077300D03*
D12*
X202628500Y-85077300D03*
%TD*%
D13*
%TO.C,J5*%
X197548500Y-89522300D03*
X200088500Y-89522300D03*
D12*
X202628500Y-89522300D03*
%TD*%
D13*
%TO.C,J4*%
X206666000Y-103501500D03*
X206666000Y-100961500D03*
X206666000Y-98421500D03*
X206666000Y-95881500D03*
X206666000Y-93341500D03*
X206666000Y-90801500D03*
X206666000Y-88261500D03*
X206666000Y-85721500D03*
X206666000Y-83181500D03*
D12*
X206666000Y-80641500D03*
%TD*%
D13*
%TO.C,J3*%
X165166000Y-103501500D03*
X165166000Y-100961500D03*
X165166000Y-98421500D03*
X165166000Y-95881500D03*
X165166000Y-93341500D03*
X165166000Y-90801500D03*
X165166000Y-88261500D03*
X165166000Y-85721500D03*
X165166000Y-83181500D03*
D12*
X165166000Y-80641500D03*
%TD*%
D13*
%TO.C,J2*%
X146718200Y-123498600D03*
X146718200Y-120958600D03*
X146718200Y-118418600D03*
X146718200Y-115878600D03*
X146718200Y-113338600D03*
X146718200Y-110798600D03*
X146718200Y-108258600D03*
X146718200Y-105718600D03*
X146718200Y-103178600D03*
D12*
X146718200Y-100638600D03*
%TD*%
D13*
%TO.C,J1*%
X100218200Y-123498600D03*
X100218200Y-120958600D03*
X100218200Y-118418600D03*
X100218200Y-115878600D03*
X100218200Y-113338600D03*
X100218200Y-110798600D03*
X100218200Y-108258600D03*
X100218200Y-105718600D03*
X100218200Y-103178600D03*
D12*
X100218200Y-100638600D03*
%TD*%
M02*
