M48
; DRILL file {KiCad (5.1.10)-1} date 09/09/23 18:46:02
; FORMAT={-:-/ absolute / inch / decimal}
; #@! TF.CreationDate,2023-09-09T18:46:02-05:00
; #@! TF.GenerationSoftware,Kicad,Pcbnew,(5.1.10)-1
; #@! TF.FileFunction,Plated,1,2,PTH
FMAT,2
INCH
T1C0.0100
T2C0.0315
T3C0.0394
T4C0.2520
%
G90
G05
T1
X3.6525Y-2.06
X3.6525Y-2.089
X3.6525Y-2.115
X4.27Y-2.685
X4.29Y-2.38
X4.36Y-1.89
X4.36Y-2.09
X4.38Y-2.63
X4.385Y-2.115
X4.41Y-5.4
X4.43Y-2.38
X4.44Y-5.555
X4.462Y-1.89
X4.462Y-2.224
X4.4925Y-2.06
X4.515Y-2.225
X4.52Y-2.63
X4.538Y-1.89
X4.5625Y-2.0275
X4.57Y-2.38
X4.66Y-2.63
X4.6925Y-2.134
X4.705Y-2.38
X4.765Y-2.22
X4.792Y-1.89
X4.8Y-2.63
X4.82Y-2.255
X4.85Y-2.38
X4.894Y-1.89
X4.894Y-2.226
X4.94Y-2.63
X4.985Y-2.38
X5.08Y-2.63
X5.13Y-2.38
X5.145Y-2.09
X5.146Y-1.888
X5.175Y-2.115
X5.22Y-2.63
X5.224Y-2.224
X5.25Y-1.888
X5.27Y-2.38
X5.3Y-2.255
X5.326Y-1.888
X5.36Y-2.63
X5.3975Y-1.985
X5.4Y-2.975
X5.4Y-3.15
X5.72Y-3.1
X5.775Y-2.895
X5.84Y-2.87
X5.84Y-3.15
X5.975Y-2.975
X6.07Y-2.765
X6.125Y-3.295
X6.225Y-3.275
X6.245Y-2.885
X6.285Y-2.96
X6.405Y-2.995
X6.445Y-2.775
X6.48Y-1.62
X6.48Y-1.925
X6.53Y-1.74
X6.5725Y-1.64
X6.5725Y-1.7375
X6.585Y-2.955
X6.64Y-2.41
X6.72Y-1.8
X6.73Y-1.98
X6.78Y-1.66
X6.78Y-1.92
X6.85Y-1.59
X6.85Y-1.74
X6.85Y-2.54
X6.9425Y-2.955
X6.965Y-2.595
X7.0475Y-2.8975
X7.1275Y-2.955
X7.145Y-2.595
X7.22Y-2.8975
X7.3075Y-2.955
X7.325Y-2.595
X7.38Y-1.89
X7.4025Y-2.8975
X7.485Y-2.955
X7.505Y-2.595
X7.5825Y-2.8975
X7.6625Y-2.955
X7.685Y-2.595
X7.7675Y-2.8975
X7.79Y-2.955
X7.865Y-2.595
X7.9475Y-2.8975
X7.955Y-2.68
X8.175Y-3.01
T2
X4.6525Y-5.4125
X4.7525Y-5.4125
X5.5955Y-3.232
X5.6955Y-3.232
X5.6955Y-3.232
X5.7955Y-3.232
X6.0875Y-3.04
X6.1875Y-3.04
X6.1875Y-3.04
X6.2875Y-3.04
X6.32Y-2.685
X6.42Y-2.685
T3
X3.9456Y-3.9621
X3.9456Y-4.0621
X3.9456Y-4.1621
X3.9456Y-4.2621
X3.9456Y-4.3621
X3.9456Y-4.4621
X3.9456Y-4.5621
X3.9456Y-4.6621
X3.9456Y-4.7621
X3.9456Y-4.8621
X4.7525Y-5.5375
X5.475Y-2.79
X5.675Y-2.79
X5.7763Y-3.9621
X5.7763Y-4.0621
X5.7763Y-4.1621
X5.7763Y-4.2621
X5.7763Y-4.3621
X5.7763Y-4.4621
X5.7763Y-4.5621
X5.7763Y-4.6621
X5.7763Y-4.7621
X5.7763Y-4.8621
X6.5026Y-3.1749
X6.5026Y-3.2749
X6.5026Y-3.3749
X6.5026Y-3.4749
X6.5026Y-3.5749
X6.5026Y-3.6749
X6.5026Y-3.7749
X6.5026Y-3.8749
X6.5026Y-3.9749
X6.5026Y-4.0749
X7.7775Y-3.1745
X7.7775Y-3.3495
X7.7775Y-3.5245
X7.8775Y-3.1745
X7.8775Y-3.3495
X7.8775Y-3.5245
X7.9775Y-3.1745
X7.9775Y-3.3495
X7.9775Y-3.5245
X8.1365Y-3.1749
X8.1365Y-3.2749
X8.1365Y-3.3749
X8.1365Y-3.4749
X8.1365Y-3.5749
X8.1365Y-3.6749
X8.1365Y-3.7749
X8.1365Y-3.8749
X8.1365Y-3.9749
X8.1365Y-4.0749
T4
X3.4Y-1.663
X3.4Y-5.6
X8.3213Y-1.663
X8.3213Y-5.6
T0
M30
