%TF.GenerationSoftware,KiCad,Pcbnew,(5.1.10)-1*%
%TF.CreationDate,2023-09-09T18:46:01-05:00*%
%TF.ProjectId,multiplexer cell tester,6d756c74-6970-46c6-9578-65722063656c,B*%
%TF.SameCoordinates,Original*%
%TF.FileFunction,Soldermask,Top*%
%TF.FilePolarity,Negative*%
%FSLAX46Y46*%
G04 Gerber Fmt 4.6, Leading zero omitted, Abs format (unit mm)*
G04 Created by KiCad (PCBNEW (5.1.10)-1) date 2023-09-09 18:46:01*
%MOMM*%
%LPD*%
G01*
G04 APERTURE LIST*
%ADD10C,11.000000*%
%ADD11R,0.650000X1.060000*%
%ADD12R,1.450000X0.450000*%
%ADD13C,1.400000*%
%ADD14R,0.876300X0.508000*%
%ADD15R,0.508000X0.876300*%
%ADD16R,1.700000X1.700000*%
%ADD17R,0.457200X1.003300*%
%ADD18R,0.355600X0.876300*%
%ADD19R,2.311400X0.558800*%
%ADD20R,2.184400X0.558800*%
%ADD21O,1.700000X1.700000*%
G04 APERTURE END LIST*
%TO.C,R35*%
G36*
G01*
X96945000Y-123782500D02*
X96945000Y-123232500D01*
G75*
G02*
X97145000Y-123032500I200000J0D01*
G01*
X97545000Y-123032500D01*
G75*
G02*
X97745000Y-123232500I0J-200000D01*
G01*
X97745000Y-123782500D01*
G75*
G02*
X97545000Y-123982500I-200000J0D01*
G01*
X97145000Y-123982500D01*
G75*
G02*
X96945000Y-123782500I0J200000D01*
G01*
G37*
G36*
G01*
X95295000Y-123782500D02*
X95295000Y-123232500D01*
G75*
G02*
X95495000Y-123032500I200000J0D01*
G01*
X95895000Y-123032500D01*
G75*
G02*
X96095000Y-123232500I0J-200000D01*
G01*
X96095000Y-123782500D01*
G75*
G02*
X95895000Y-123982500I-200000J0D01*
G01*
X95495000Y-123982500D01*
G75*
G02*
X95295000Y-123782500I0J200000D01*
G01*
G37*
%TD*%
%TO.C,R34*%
G36*
G01*
X96945000Y-121242500D02*
X96945000Y-120692500D01*
G75*
G02*
X97145000Y-120492500I200000J0D01*
G01*
X97545000Y-120492500D01*
G75*
G02*
X97745000Y-120692500I0J-200000D01*
G01*
X97745000Y-121242500D01*
G75*
G02*
X97545000Y-121442500I-200000J0D01*
G01*
X97145000Y-121442500D01*
G75*
G02*
X96945000Y-121242500I0J200000D01*
G01*
G37*
G36*
G01*
X95295000Y-121242500D02*
X95295000Y-120692500D01*
G75*
G02*
X95495000Y-120492500I200000J0D01*
G01*
X95895000Y-120492500D01*
G75*
G02*
X96095000Y-120692500I0J-200000D01*
G01*
X96095000Y-121242500D01*
G75*
G02*
X95895000Y-121442500I-200000J0D01*
G01*
X95495000Y-121442500D01*
G75*
G02*
X95295000Y-121242500I0J200000D01*
G01*
G37*
%TD*%
%TO.C,R33*%
G36*
G01*
X96095000Y-113072500D02*
X96095000Y-113622500D01*
G75*
G02*
X95895000Y-113822500I-200000J0D01*
G01*
X95495000Y-113822500D01*
G75*
G02*
X95295000Y-113622500I0J200000D01*
G01*
X95295000Y-113072500D01*
G75*
G02*
X95495000Y-112872500I200000J0D01*
G01*
X95895000Y-112872500D01*
G75*
G02*
X96095000Y-113072500I0J-200000D01*
G01*
G37*
G36*
G01*
X97745000Y-113072500D02*
X97745000Y-113622500D01*
G75*
G02*
X97545000Y-113822500I-200000J0D01*
G01*
X97145000Y-113822500D01*
G75*
G02*
X96945000Y-113622500I0J200000D01*
G01*
X96945000Y-113072500D01*
G75*
G02*
X97145000Y-112872500I200000J0D01*
G01*
X97545000Y-112872500D01*
G75*
G02*
X97745000Y-113072500I0J-200000D01*
G01*
G37*
%TD*%
%TO.C,U13*%
G36*
G01*
X135174500Y-48660500D02*
X135374500Y-48660500D01*
G75*
G02*
X135474500Y-48760500I0J-100000D01*
G01*
X135474500Y-50035500D01*
G75*
G02*
X135374500Y-50135500I-100000J0D01*
G01*
X135174500Y-50135500D01*
G75*
G02*
X135074500Y-50035500I0J100000D01*
G01*
X135074500Y-48760500D01*
G75*
G02*
X135174500Y-48660500I100000J0D01*
G01*
G37*
G36*
G01*
X134524500Y-48660500D02*
X134724500Y-48660500D01*
G75*
G02*
X134824500Y-48760500I0J-100000D01*
G01*
X134824500Y-50035500D01*
G75*
G02*
X134724500Y-50135500I-100000J0D01*
G01*
X134524500Y-50135500D01*
G75*
G02*
X134424500Y-50035500I0J100000D01*
G01*
X134424500Y-48760500D01*
G75*
G02*
X134524500Y-48660500I100000J0D01*
G01*
G37*
G36*
G01*
X133874500Y-48660500D02*
X134074500Y-48660500D01*
G75*
G02*
X134174500Y-48760500I0J-100000D01*
G01*
X134174500Y-50035500D01*
G75*
G02*
X134074500Y-50135500I-100000J0D01*
G01*
X133874500Y-50135500D01*
G75*
G02*
X133774500Y-50035500I0J100000D01*
G01*
X133774500Y-48760500D01*
G75*
G02*
X133874500Y-48660500I100000J0D01*
G01*
G37*
G36*
G01*
X133224500Y-48660500D02*
X133424500Y-48660500D01*
G75*
G02*
X133524500Y-48760500I0J-100000D01*
G01*
X133524500Y-50035500D01*
G75*
G02*
X133424500Y-50135500I-100000J0D01*
G01*
X133224500Y-50135500D01*
G75*
G02*
X133124500Y-50035500I0J100000D01*
G01*
X133124500Y-48760500D01*
G75*
G02*
X133224500Y-48660500I100000J0D01*
G01*
G37*
G36*
G01*
X132574500Y-48660500D02*
X132774500Y-48660500D01*
G75*
G02*
X132874500Y-48760500I0J-100000D01*
G01*
X132874500Y-50035500D01*
G75*
G02*
X132774500Y-50135500I-100000J0D01*
G01*
X132574500Y-50135500D01*
G75*
G02*
X132474500Y-50035500I0J100000D01*
G01*
X132474500Y-48760500D01*
G75*
G02*
X132574500Y-48660500I100000J0D01*
G01*
G37*
G36*
G01*
X131924500Y-48660500D02*
X132124500Y-48660500D01*
G75*
G02*
X132224500Y-48760500I0J-100000D01*
G01*
X132224500Y-50035500D01*
G75*
G02*
X132124500Y-50135500I-100000J0D01*
G01*
X131924500Y-50135500D01*
G75*
G02*
X131824500Y-50035500I0J100000D01*
G01*
X131824500Y-48760500D01*
G75*
G02*
X131924500Y-48660500I100000J0D01*
G01*
G37*
G36*
G01*
X131274500Y-48660500D02*
X131474500Y-48660500D01*
G75*
G02*
X131574500Y-48760500I0J-100000D01*
G01*
X131574500Y-50035500D01*
G75*
G02*
X131474500Y-50135500I-100000J0D01*
G01*
X131274500Y-50135500D01*
G75*
G02*
X131174500Y-50035500I0J100000D01*
G01*
X131174500Y-48760500D01*
G75*
G02*
X131274500Y-48660500I100000J0D01*
G01*
G37*
G36*
G01*
X130624500Y-48660500D02*
X130824500Y-48660500D01*
G75*
G02*
X130924500Y-48760500I0J-100000D01*
G01*
X130924500Y-50035500D01*
G75*
G02*
X130824500Y-50135500I-100000J0D01*
G01*
X130624500Y-50135500D01*
G75*
G02*
X130524500Y-50035500I0J100000D01*
G01*
X130524500Y-48760500D01*
G75*
G02*
X130624500Y-48660500I100000J0D01*
G01*
G37*
G36*
G01*
X130624500Y-54385500D02*
X130824500Y-54385500D01*
G75*
G02*
X130924500Y-54485500I0J-100000D01*
G01*
X130924500Y-55760500D01*
G75*
G02*
X130824500Y-55860500I-100000J0D01*
G01*
X130624500Y-55860500D01*
G75*
G02*
X130524500Y-55760500I0J100000D01*
G01*
X130524500Y-54485500D01*
G75*
G02*
X130624500Y-54385500I100000J0D01*
G01*
G37*
G36*
G01*
X131274500Y-54385500D02*
X131474500Y-54385500D01*
G75*
G02*
X131574500Y-54485500I0J-100000D01*
G01*
X131574500Y-55760500D01*
G75*
G02*
X131474500Y-55860500I-100000J0D01*
G01*
X131274500Y-55860500D01*
G75*
G02*
X131174500Y-55760500I0J100000D01*
G01*
X131174500Y-54485500D01*
G75*
G02*
X131274500Y-54385500I100000J0D01*
G01*
G37*
G36*
G01*
X131924500Y-54385500D02*
X132124500Y-54385500D01*
G75*
G02*
X132224500Y-54485500I0J-100000D01*
G01*
X132224500Y-55760500D01*
G75*
G02*
X132124500Y-55860500I-100000J0D01*
G01*
X131924500Y-55860500D01*
G75*
G02*
X131824500Y-55760500I0J100000D01*
G01*
X131824500Y-54485500D01*
G75*
G02*
X131924500Y-54385500I100000J0D01*
G01*
G37*
G36*
G01*
X132574500Y-54385500D02*
X132774500Y-54385500D01*
G75*
G02*
X132874500Y-54485500I0J-100000D01*
G01*
X132874500Y-55760500D01*
G75*
G02*
X132774500Y-55860500I-100000J0D01*
G01*
X132574500Y-55860500D01*
G75*
G02*
X132474500Y-55760500I0J100000D01*
G01*
X132474500Y-54485500D01*
G75*
G02*
X132574500Y-54385500I100000J0D01*
G01*
G37*
G36*
G01*
X133224500Y-54385500D02*
X133424500Y-54385500D01*
G75*
G02*
X133524500Y-54485500I0J-100000D01*
G01*
X133524500Y-55760500D01*
G75*
G02*
X133424500Y-55860500I-100000J0D01*
G01*
X133224500Y-55860500D01*
G75*
G02*
X133124500Y-55760500I0J100000D01*
G01*
X133124500Y-54485500D01*
G75*
G02*
X133224500Y-54385500I100000J0D01*
G01*
G37*
G36*
G01*
X133874500Y-54385500D02*
X134074500Y-54385500D01*
G75*
G02*
X134174500Y-54485500I0J-100000D01*
G01*
X134174500Y-55760500D01*
G75*
G02*
X134074500Y-55860500I-100000J0D01*
G01*
X133874500Y-55860500D01*
G75*
G02*
X133774500Y-55760500I0J100000D01*
G01*
X133774500Y-54485500D01*
G75*
G02*
X133874500Y-54385500I100000J0D01*
G01*
G37*
G36*
G01*
X134524500Y-54385500D02*
X134724500Y-54385500D01*
G75*
G02*
X134824500Y-54485500I0J-100000D01*
G01*
X134824500Y-55760500D01*
G75*
G02*
X134724500Y-55860500I-100000J0D01*
G01*
X134524500Y-55860500D01*
G75*
G02*
X134424500Y-55760500I0J100000D01*
G01*
X134424500Y-54485500D01*
G75*
G02*
X134524500Y-54385500I100000J0D01*
G01*
G37*
G36*
G01*
X135174500Y-54385500D02*
X135374500Y-54385500D01*
G75*
G02*
X135474500Y-54485500I0J-100000D01*
G01*
X135474500Y-55760500D01*
G75*
G02*
X135374500Y-55860500I-100000J0D01*
G01*
X135174500Y-55860500D01*
G75*
G02*
X135074500Y-55760500I0J100000D01*
G01*
X135074500Y-54485500D01*
G75*
G02*
X135174500Y-54385500I100000J0D01*
G01*
G37*
%TD*%
%TO.C,U12*%
G36*
G01*
X121149500Y-50135500D02*
X120949500Y-50135500D01*
G75*
G02*
X120849500Y-50035500I0J100000D01*
G01*
X120849500Y-48760500D01*
G75*
G02*
X120949500Y-48660500I100000J0D01*
G01*
X121149500Y-48660500D01*
G75*
G02*
X121249500Y-48760500I0J-100000D01*
G01*
X121249500Y-50035500D01*
G75*
G02*
X121149500Y-50135500I-100000J0D01*
G01*
G37*
G36*
G01*
X121799500Y-50135500D02*
X121599500Y-50135500D01*
G75*
G02*
X121499500Y-50035500I0J100000D01*
G01*
X121499500Y-48760500D01*
G75*
G02*
X121599500Y-48660500I100000J0D01*
G01*
X121799500Y-48660500D01*
G75*
G02*
X121899500Y-48760500I0J-100000D01*
G01*
X121899500Y-50035500D01*
G75*
G02*
X121799500Y-50135500I-100000J0D01*
G01*
G37*
G36*
G01*
X122449500Y-50135500D02*
X122249500Y-50135500D01*
G75*
G02*
X122149500Y-50035500I0J100000D01*
G01*
X122149500Y-48760500D01*
G75*
G02*
X122249500Y-48660500I100000J0D01*
G01*
X122449500Y-48660500D01*
G75*
G02*
X122549500Y-48760500I0J-100000D01*
G01*
X122549500Y-50035500D01*
G75*
G02*
X122449500Y-50135500I-100000J0D01*
G01*
G37*
G36*
G01*
X123099500Y-50135500D02*
X122899500Y-50135500D01*
G75*
G02*
X122799500Y-50035500I0J100000D01*
G01*
X122799500Y-48760500D01*
G75*
G02*
X122899500Y-48660500I100000J0D01*
G01*
X123099500Y-48660500D01*
G75*
G02*
X123199500Y-48760500I0J-100000D01*
G01*
X123199500Y-50035500D01*
G75*
G02*
X123099500Y-50135500I-100000J0D01*
G01*
G37*
G36*
G01*
X123749500Y-50135500D02*
X123549500Y-50135500D01*
G75*
G02*
X123449500Y-50035500I0J100000D01*
G01*
X123449500Y-48760500D01*
G75*
G02*
X123549500Y-48660500I100000J0D01*
G01*
X123749500Y-48660500D01*
G75*
G02*
X123849500Y-48760500I0J-100000D01*
G01*
X123849500Y-50035500D01*
G75*
G02*
X123749500Y-50135500I-100000J0D01*
G01*
G37*
G36*
G01*
X124399500Y-50135500D02*
X124199500Y-50135500D01*
G75*
G02*
X124099500Y-50035500I0J100000D01*
G01*
X124099500Y-48760500D01*
G75*
G02*
X124199500Y-48660500I100000J0D01*
G01*
X124399500Y-48660500D01*
G75*
G02*
X124499500Y-48760500I0J-100000D01*
G01*
X124499500Y-50035500D01*
G75*
G02*
X124399500Y-50135500I-100000J0D01*
G01*
G37*
G36*
G01*
X125049500Y-50135500D02*
X124849500Y-50135500D01*
G75*
G02*
X124749500Y-50035500I0J100000D01*
G01*
X124749500Y-48760500D01*
G75*
G02*
X124849500Y-48660500I100000J0D01*
G01*
X125049500Y-48660500D01*
G75*
G02*
X125149500Y-48760500I0J-100000D01*
G01*
X125149500Y-50035500D01*
G75*
G02*
X125049500Y-50135500I-100000J0D01*
G01*
G37*
G36*
G01*
X125049500Y-55860500D02*
X124849500Y-55860500D01*
G75*
G02*
X124749500Y-55760500I0J100000D01*
G01*
X124749500Y-54485500D01*
G75*
G02*
X124849500Y-54385500I100000J0D01*
G01*
X125049500Y-54385500D01*
G75*
G02*
X125149500Y-54485500I0J-100000D01*
G01*
X125149500Y-55760500D01*
G75*
G02*
X125049500Y-55860500I-100000J0D01*
G01*
G37*
G36*
G01*
X124399500Y-55860500D02*
X124199500Y-55860500D01*
G75*
G02*
X124099500Y-55760500I0J100000D01*
G01*
X124099500Y-54485500D01*
G75*
G02*
X124199500Y-54385500I100000J0D01*
G01*
X124399500Y-54385500D01*
G75*
G02*
X124499500Y-54485500I0J-100000D01*
G01*
X124499500Y-55760500D01*
G75*
G02*
X124399500Y-55860500I-100000J0D01*
G01*
G37*
G36*
G01*
X123749500Y-55860500D02*
X123549500Y-55860500D01*
G75*
G02*
X123449500Y-55760500I0J100000D01*
G01*
X123449500Y-54485500D01*
G75*
G02*
X123549500Y-54385500I100000J0D01*
G01*
X123749500Y-54385500D01*
G75*
G02*
X123849500Y-54485500I0J-100000D01*
G01*
X123849500Y-55760500D01*
G75*
G02*
X123749500Y-55860500I-100000J0D01*
G01*
G37*
G36*
G01*
X123099500Y-55860500D02*
X122899500Y-55860500D01*
G75*
G02*
X122799500Y-55760500I0J100000D01*
G01*
X122799500Y-54485500D01*
G75*
G02*
X122899500Y-54385500I100000J0D01*
G01*
X123099500Y-54385500D01*
G75*
G02*
X123199500Y-54485500I0J-100000D01*
G01*
X123199500Y-55760500D01*
G75*
G02*
X123099500Y-55860500I-100000J0D01*
G01*
G37*
G36*
G01*
X122449500Y-55860500D02*
X122249500Y-55860500D01*
G75*
G02*
X122149500Y-55760500I0J100000D01*
G01*
X122149500Y-54485500D01*
G75*
G02*
X122249500Y-54385500I100000J0D01*
G01*
X122449500Y-54385500D01*
G75*
G02*
X122549500Y-54485500I0J-100000D01*
G01*
X122549500Y-55760500D01*
G75*
G02*
X122449500Y-55860500I-100000J0D01*
G01*
G37*
G36*
G01*
X121799500Y-55860500D02*
X121599500Y-55860500D01*
G75*
G02*
X121499500Y-55760500I0J100000D01*
G01*
X121499500Y-54485500D01*
G75*
G02*
X121599500Y-54385500I100000J0D01*
G01*
X121799500Y-54385500D01*
G75*
G02*
X121899500Y-54485500I0J-100000D01*
G01*
X121899500Y-55760500D01*
G75*
G02*
X121799500Y-55860500I-100000J0D01*
G01*
G37*
G36*
G01*
X121149500Y-55860500D02*
X120949500Y-55860500D01*
G75*
G02*
X120849500Y-55760500I0J100000D01*
G01*
X120849500Y-54485500D01*
G75*
G02*
X120949500Y-54385500I100000J0D01*
G01*
X121149500Y-54385500D01*
G75*
G02*
X121249500Y-54485500I0J-100000D01*
G01*
X121249500Y-55760500D01*
G75*
G02*
X121149500Y-55860500I-100000J0D01*
G01*
G37*
%TD*%
%TO.C,U11*%
G36*
G01*
X115174500Y-54385500D02*
X115374500Y-54385500D01*
G75*
G02*
X115474500Y-54485500I0J-100000D01*
G01*
X115474500Y-55760500D01*
G75*
G02*
X115374500Y-55860500I-100000J0D01*
G01*
X115174500Y-55860500D01*
G75*
G02*
X115074500Y-55760500I0J100000D01*
G01*
X115074500Y-54485500D01*
G75*
G02*
X115174500Y-54385500I100000J0D01*
G01*
G37*
G36*
G01*
X114524500Y-54385500D02*
X114724500Y-54385500D01*
G75*
G02*
X114824500Y-54485500I0J-100000D01*
G01*
X114824500Y-55760500D01*
G75*
G02*
X114724500Y-55860500I-100000J0D01*
G01*
X114524500Y-55860500D01*
G75*
G02*
X114424500Y-55760500I0J100000D01*
G01*
X114424500Y-54485500D01*
G75*
G02*
X114524500Y-54385500I100000J0D01*
G01*
G37*
G36*
G01*
X113874500Y-54385500D02*
X114074500Y-54385500D01*
G75*
G02*
X114174500Y-54485500I0J-100000D01*
G01*
X114174500Y-55760500D01*
G75*
G02*
X114074500Y-55860500I-100000J0D01*
G01*
X113874500Y-55860500D01*
G75*
G02*
X113774500Y-55760500I0J100000D01*
G01*
X113774500Y-54485500D01*
G75*
G02*
X113874500Y-54385500I100000J0D01*
G01*
G37*
G36*
G01*
X113224500Y-54385500D02*
X113424500Y-54385500D01*
G75*
G02*
X113524500Y-54485500I0J-100000D01*
G01*
X113524500Y-55760500D01*
G75*
G02*
X113424500Y-55860500I-100000J0D01*
G01*
X113224500Y-55860500D01*
G75*
G02*
X113124500Y-55760500I0J100000D01*
G01*
X113124500Y-54485500D01*
G75*
G02*
X113224500Y-54385500I100000J0D01*
G01*
G37*
G36*
G01*
X112574500Y-54385500D02*
X112774500Y-54385500D01*
G75*
G02*
X112874500Y-54485500I0J-100000D01*
G01*
X112874500Y-55760500D01*
G75*
G02*
X112774500Y-55860500I-100000J0D01*
G01*
X112574500Y-55860500D01*
G75*
G02*
X112474500Y-55760500I0J100000D01*
G01*
X112474500Y-54485500D01*
G75*
G02*
X112574500Y-54385500I100000J0D01*
G01*
G37*
G36*
G01*
X111924500Y-54385500D02*
X112124500Y-54385500D01*
G75*
G02*
X112224500Y-54485500I0J-100000D01*
G01*
X112224500Y-55760500D01*
G75*
G02*
X112124500Y-55860500I-100000J0D01*
G01*
X111924500Y-55860500D01*
G75*
G02*
X111824500Y-55760500I0J100000D01*
G01*
X111824500Y-54485500D01*
G75*
G02*
X111924500Y-54385500I100000J0D01*
G01*
G37*
G36*
G01*
X111274500Y-54385500D02*
X111474500Y-54385500D01*
G75*
G02*
X111574500Y-54485500I0J-100000D01*
G01*
X111574500Y-55760500D01*
G75*
G02*
X111474500Y-55860500I-100000J0D01*
G01*
X111274500Y-55860500D01*
G75*
G02*
X111174500Y-55760500I0J100000D01*
G01*
X111174500Y-54485500D01*
G75*
G02*
X111274500Y-54385500I100000J0D01*
G01*
G37*
G36*
G01*
X110624500Y-54385500D02*
X110824500Y-54385500D01*
G75*
G02*
X110924500Y-54485500I0J-100000D01*
G01*
X110924500Y-55760500D01*
G75*
G02*
X110824500Y-55860500I-100000J0D01*
G01*
X110624500Y-55860500D01*
G75*
G02*
X110524500Y-55760500I0J100000D01*
G01*
X110524500Y-54485500D01*
G75*
G02*
X110624500Y-54385500I100000J0D01*
G01*
G37*
G36*
G01*
X110624500Y-48660500D02*
X110824500Y-48660500D01*
G75*
G02*
X110924500Y-48760500I0J-100000D01*
G01*
X110924500Y-50035500D01*
G75*
G02*
X110824500Y-50135500I-100000J0D01*
G01*
X110624500Y-50135500D01*
G75*
G02*
X110524500Y-50035500I0J100000D01*
G01*
X110524500Y-48760500D01*
G75*
G02*
X110624500Y-48660500I100000J0D01*
G01*
G37*
G36*
G01*
X111274500Y-48660500D02*
X111474500Y-48660500D01*
G75*
G02*
X111574500Y-48760500I0J-100000D01*
G01*
X111574500Y-50035500D01*
G75*
G02*
X111474500Y-50135500I-100000J0D01*
G01*
X111274500Y-50135500D01*
G75*
G02*
X111174500Y-50035500I0J100000D01*
G01*
X111174500Y-48760500D01*
G75*
G02*
X111274500Y-48660500I100000J0D01*
G01*
G37*
G36*
G01*
X111924500Y-48660500D02*
X112124500Y-48660500D01*
G75*
G02*
X112224500Y-48760500I0J-100000D01*
G01*
X112224500Y-50035500D01*
G75*
G02*
X112124500Y-50135500I-100000J0D01*
G01*
X111924500Y-50135500D01*
G75*
G02*
X111824500Y-50035500I0J100000D01*
G01*
X111824500Y-48760500D01*
G75*
G02*
X111924500Y-48660500I100000J0D01*
G01*
G37*
G36*
G01*
X112574500Y-48660500D02*
X112774500Y-48660500D01*
G75*
G02*
X112874500Y-48760500I0J-100000D01*
G01*
X112874500Y-50035500D01*
G75*
G02*
X112774500Y-50135500I-100000J0D01*
G01*
X112574500Y-50135500D01*
G75*
G02*
X112474500Y-50035500I0J100000D01*
G01*
X112474500Y-48760500D01*
G75*
G02*
X112574500Y-48660500I100000J0D01*
G01*
G37*
G36*
G01*
X113224500Y-48660500D02*
X113424500Y-48660500D01*
G75*
G02*
X113524500Y-48760500I0J-100000D01*
G01*
X113524500Y-50035500D01*
G75*
G02*
X113424500Y-50135500I-100000J0D01*
G01*
X113224500Y-50135500D01*
G75*
G02*
X113124500Y-50035500I0J100000D01*
G01*
X113124500Y-48760500D01*
G75*
G02*
X113224500Y-48660500I100000J0D01*
G01*
G37*
G36*
G01*
X113874500Y-48660500D02*
X114074500Y-48660500D01*
G75*
G02*
X114174500Y-48760500I0J-100000D01*
G01*
X114174500Y-50035500D01*
G75*
G02*
X114074500Y-50135500I-100000J0D01*
G01*
X113874500Y-50135500D01*
G75*
G02*
X113774500Y-50035500I0J100000D01*
G01*
X113774500Y-48760500D01*
G75*
G02*
X113874500Y-48660500I100000J0D01*
G01*
G37*
G36*
G01*
X114524500Y-48660500D02*
X114724500Y-48660500D01*
G75*
G02*
X114824500Y-48760500I0J-100000D01*
G01*
X114824500Y-50035500D01*
G75*
G02*
X114724500Y-50135500I-100000J0D01*
G01*
X114524500Y-50135500D01*
G75*
G02*
X114424500Y-50035500I0J100000D01*
G01*
X114424500Y-48760500D01*
G75*
G02*
X114524500Y-48660500I100000J0D01*
G01*
G37*
G36*
G01*
X115174500Y-48660500D02*
X115374500Y-48660500D01*
G75*
G02*
X115474500Y-48760500I0J-100000D01*
G01*
X115474500Y-50035500D01*
G75*
G02*
X115374500Y-50135500I-100000J0D01*
G01*
X115174500Y-50135500D01*
G75*
G02*
X115074500Y-50035500I0J100000D01*
G01*
X115074500Y-48760500D01*
G75*
G02*
X115174500Y-48660500I100000J0D01*
G01*
G37*
%TD*%
%TO.C,R32*%
G36*
G01*
X199601500Y-71457000D02*
X199051500Y-71457000D01*
G75*
G02*
X198851500Y-71257000I0J200000D01*
G01*
X198851500Y-70857000D01*
G75*
G02*
X199051500Y-70657000I200000J0D01*
G01*
X199601500Y-70657000D01*
G75*
G02*
X199801500Y-70857000I0J-200000D01*
G01*
X199801500Y-71257000D01*
G75*
G02*
X199601500Y-71457000I-200000J0D01*
G01*
G37*
G36*
G01*
X199601500Y-73107000D02*
X199051500Y-73107000D01*
G75*
G02*
X198851500Y-72907000I0J200000D01*
G01*
X198851500Y-72507000D01*
G75*
G02*
X199051500Y-72307000I200000J0D01*
G01*
X199601500Y-72307000D01*
G75*
G02*
X199801500Y-72507000I0J-200000D01*
G01*
X199801500Y-72907000D01*
G75*
G02*
X199601500Y-73107000I-200000J0D01*
G01*
G37*
%TD*%
%TO.C,R31*%
G36*
G01*
X194902500Y-71457000D02*
X194352500Y-71457000D01*
G75*
G02*
X194152500Y-71257000I0J200000D01*
G01*
X194152500Y-70857000D01*
G75*
G02*
X194352500Y-70657000I200000J0D01*
G01*
X194902500Y-70657000D01*
G75*
G02*
X195102500Y-70857000I0J-200000D01*
G01*
X195102500Y-71257000D01*
G75*
G02*
X194902500Y-71457000I-200000J0D01*
G01*
G37*
G36*
G01*
X194902500Y-73107000D02*
X194352500Y-73107000D01*
G75*
G02*
X194152500Y-72907000I0J200000D01*
G01*
X194152500Y-72507000D01*
G75*
G02*
X194352500Y-72307000I200000J0D01*
G01*
X194902500Y-72307000D01*
G75*
G02*
X195102500Y-72507000I0J-200000D01*
G01*
X195102500Y-72907000D01*
G75*
G02*
X194902500Y-73107000I-200000J0D01*
G01*
G37*
%TD*%
%TO.C,R30*%
G36*
G01*
X190394000Y-71457000D02*
X189844000Y-71457000D01*
G75*
G02*
X189644000Y-71257000I0J200000D01*
G01*
X189644000Y-70857000D01*
G75*
G02*
X189844000Y-70657000I200000J0D01*
G01*
X190394000Y-70657000D01*
G75*
G02*
X190594000Y-70857000I0J-200000D01*
G01*
X190594000Y-71257000D01*
G75*
G02*
X190394000Y-71457000I-200000J0D01*
G01*
G37*
G36*
G01*
X190394000Y-73107000D02*
X189844000Y-73107000D01*
G75*
G02*
X189644000Y-72907000I0J200000D01*
G01*
X189644000Y-72507000D01*
G75*
G02*
X189844000Y-72307000I200000J0D01*
G01*
X190394000Y-72307000D01*
G75*
G02*
X190594000Y-72507000I0J-200000D01*
G01*
X190594000Y-72907000D01*
G75*
G02*
X190394000Y-73107000I-200000J0D01*
G01*
G37*
%TD*%
%TO.C,R29*%
G36*
G01*
X185822000Y-71457000D02*
X185272000Y-71457000D01*
G75*
G02*
X185072000Y-71257000I0J200000D01*
G01*
X185072000Y-70857000D01*
G75*
G02*
X185272000Y-70657000I200000J0D01*
G01*
X185822000Y-70657000D01*
G75*
G02*
X186022000Y-70857000I0J-200000D01*
G01*
X186022000Y-71257000D01*
G75*
G02*
X185822000Y-71457000I-200000J0D01*
G01*
G37*
G36*
G01*
X185822000Y-73107000D02*
X185272000Y-73107000D01*
G75*
G02*
X185072000Y-72907000I0J200000D01*
G01*
X185072000Y-72507000D01*
G75*
G02*
X185272000Y-72307000I200000J0D01*
G01*
X185822000Y-72307000D01*
G75*
G02*
X186022000Y-72507000I0J-200000D01*
G01*
X186022000Y-72907000D01*
G75*
G02*
X185822000Y-73107000I-200000J0D01*
G01*
G37*
%TD*%
%TO.C,R27*%
G36*
G01*
X176614500Y-71457000D02*
X176064500Y-71457000D01*
G75*
G02*
X175864500Y-71257000I0J200000D01*
G01*
X175864500Y-70857000D01*
G75*
G02*
X176064500Y-70657000I200000J0D01*
G01*
X176614500Y-70657000D01*
G75*
G02*
X176814500Y-70857000I0J-200000D01*
G01*
X176814500Y-71257000D01*
G75*
G02*
X176614500Y-71457000I-200000J0D01*
G01*
G37*
G36*
G01*
X176614500Y-73107000D02*
X176064500Y-73107000D01*
G75*
G02*
X175864500Y-72907000I0J200000D01*
G01*
X175864500Y-72507000D01*
G75*
G02*
X176064500Y-72307000I200000J0D01*
G01*
X176614500Y-72307000D01*
G75*
G02*
X176814500Y-72507000I0J-200000D01*
G01*
X176814500Y-72907000D01*
G75*
G02*
X176614500Y-73107000I-200000J0D01*
G01*
G37*
%TD*%
%TO.C,C12*%
G36*
G01*
X117153500Y-51935500D02*
X116653500Y-51935500D01*
G75*
G02*
X116428500Y-51710500I0J225000D01*
G01*
X116428500Y-51260500D01*
G75*
G02*
X116653500Y-51035500I225000J0D01*
G01*
X117153500Y-51035500D01*
G75*
G02*
X117378500Y-51260500I0J-225000D01*
G01*
X117378500Y-51710500D01*
G75*
G02*
X117153500Y-51935500I-225000J0D01*
G01*
G37*
G36*
G01*
X117153500Y-53485500D02*
X116653500Y-53485500D01*
G75*
G02*
X116428500Y-53260500I0J225000D01*
G01*
X116428500Y-52810500D01*
G75*
G02*
X116653500Y-52585500I225000J0D01*
G01*
X117153500Y-52585500D01*
G75*
G02*
X117378500Y-52810500I0J-225000D01*
G01*
X117378500Y-53260500D01*
G75*
G02*
X117153500Y-53485500I-225000J0D01*
G01*
G37*
%TD*%
%TO.C,R8*%
G36*
G01*
X181313500Y-71457000D02*
X180763500Y-71457000D01*
G75*
G02*
X180563500Y-71257000I0J200000D01*
G01*
X180563500Y-70857000D01*
G75*
G02*
X180763500Y-70657000I200000J0D01*
G01*
X181313500Y-70657000D01*
G75*
G02*
X181513500Y-70857000I0J-200000D01*
G01*
X181513500Y-71257000D01*
G75*
G02*
X181313500Y-71457000I-200000J0D01*
G01*
G37*
G36*
G01*
X181313500Y-73107000D02*
X180763500Y-73107000D01*
G75*
G02*
X180563500Y-72907000I0J200000D01*
G01*
X180563500Y-72507000D01*
G75*
G02*
X180763500Y-72307000I200000J0D01*
G01*
X181313500Y-72307000D01*
G75*
G02*
X181513500Y-72507000I0J-200000D01*
G01*
X181513500Y-72907000D01*
G75*
G02*
X181313500Y-73107000I-200000J0D01*
G01*
G37*
%TD*%
D10*
%TO.C,REF\u002A\u002A*%
X86360000Y-42240000D03*
%TD*%
%TO.C,REF\u002A\u002A*%
X211360000Y-42240000D03*
%TD*%
%TO.C,REF\u002A\u002A*%
X211360000Y-142240000D03*
%TD*%
%TO.C,REF\u002A\u002A*%
X86360000Y-142240000D03*
%TD*%
%TO.C,C10*%
G36*
G01*
X137346500Y-51935500D02*
X136846500Y-51935500D01*
G75*
G02*
X136621500Y-51710500I0J225000D01*
G01*
X136621500Y-51260500D01*
G75*
G02*
X136846500Y-51035500I225000J0D01*
G01*
X137346500Y-51035500D01*
G75*
G02*
X137571500Y-51260500I0J-225000D01*
G01*
X137571500Y-51710500D01*
G75*
G02*
X137346500Y-51935500I-225000J0D01*
G01*
G37*
G36*
G01*
X137346500Y-53485500D02*
X136846500Y-53485500D01*
G75*
G02*
X136621500Y-53260500I0J225000D01*
G01*
X136621500Y-52810500D01*
G75*
G02*
X136846500Y-52585500I225000J0D01*
G01*
X137346500Y-52585500D01*
G75*
G02*
X137571500Y-52810500I0J-225000D01*
G01*
X137571500Y-53260500D01*
G75*
G02*
X137346500Y-53485500I-225000J0D01*
G01*
G37*
%TD*%
D11*
%TO.C,U2*%
X167866100Y-47556600D03*
X165966100Y-47556600D03*
X165966100Y-45356600D03*
X166916100Y-45356600D03*
X167866100Y-45356600D03*
%TD*%
D12*
%TO.C,U23*%
X142262500Y-76159000D03*
X142262500Y-75509000D03*
X142262500Y-74859000D03*
X142262500Y-74209000D03*
X146662500Y-74209000D03*
X146662500Y-74859000D03*
X146662500Y-75509000D03*
X146662500Y-76159000D03*
%TD*%
D13*
%TO.C,TP17*%
X144665700Y-82092800D03*
X147205700Y-82092800D03*
%TD*%
%TO.C,TP16*%
X144665700Y-82092800D03*
X142125700Y-82092800D03*
%TD*%
%TO.C,R28*%
G36*
G01*
X141880000Y-68599500D02*
X141330000Y-68599500D01*
G75*
G02*
X141130000Y-68399500I0J200000D01*
G01*
X141130000Y-67999500D01*
G75*
G02*
X141330000Y-67799500I200000J0D01*
G01*
X141880000Y-67799500D01*
G75*
G02*
X142080000Y-67999500I0J-200000D01*
G01*
X142080000Y-68399500D01*
G75*
G02*
X141880000Y-68599500I-200000J0D01*
G01*
G37*
G36*
G01*
X141880000Y-70249500D02*
X141330000Y-70249500D01*
G75*
G02*
X141130000Y-70049500I0J200000D01*
G01*
X141130000Y-69649500D01*
G75*
G02*
X141330000Y-69449500I200000J0D01*
G01*
X141880000Y-69449500D01*
G75*
G02*
X142080000Y-69649500I0J-200000D01*
G01*
X142080000Y-70049500D01*
G75*
G02*
X141880000Y-70249500I-200000J0D01*
G01*
G37*
%TD*%
%TO.C,R20*%
G36*
G01*
X139975000Y-75902000D02*
X139425000Y-75902000D01*
G75*
G02*
X139225000Y-75702000I0J200000D01*
G01*
X139225000Y-75302000D01*
G75*
G02*
X139425000Y-75102000I200000J0D01*
G01*
X139975000Y-75102000D01*
G75*
G02*
X140175000Y-75302000I0J-200000D01*
G01*
X140175000Y-75702000D01*
G75*
G02*
X139975000Y-75902000I-200000J0D01*
G01*
G37*
G36*
G01*
X139975000Y-77552000D02*
X139425000Y-77552000D01*
G75*
G02*
X139225000Y-77352000I0J200000D01*
G01*
X139225000Y-76952000D01*
G75*
G02*
X139425000Y-76752000I200000J0D01*
G01*
X139975000Y-76752000D01*
G75*
G02*
X140175000Y-76952000I0J-200000D01*
G01*
X140175000Y-77352000D01*
G75*
G02*
X139975000Y-77552000I-200000J0D01*
G01*
G37*
%TD*%
%TO.C,R18*%
G36*
G01*
X138551100Y-78274500D02*
X138551100Y-78824500D01*
G75*
G02*
X138351100Y-79024500I-200000J0D01*
G01*
X137951100Y-79024500D01*
G75*
G02*
X137751100Y-78824500I0J200000D01*
G01*
X137751100Y-78274500D01*
G75*
G02*
X137951100Y-78074500I200000J0D01*
G01*
X138351100Y-78074500D01*
G75*
G02*
X138551100Y-78274500I0J-200000D01*
G01*
G37*
G36*
G01*
X140201100Y-78274500D02*
X140201100Y-78824500D01*
G75*
G02*
X140001100Y-79024500I-200000J0D01*
G01*
X139601100Y-79024500D01*
G75*
G02*
X139401100Y-78824500I0J200000D01*
G01*
X139401100Y-78274500D01*
G75*
G02*
X139601100Y-78074500I200000J0D01*
G01*
X140001100Y-78074500D01*
G75*
G02*
X140201100Y-78274500I0J-200000D01*
G01*
G37*
%TD*%
%TO.C,C30*%
G36*
G01*
X138489500Y-76002000D02*
X137989500Y-76002000D01*
G75*
G02*
X137764500Y-75777000I0J225000D01*
G01*
X137764500Y-75327000D01*
G75*
G02*
X137989500Y-75102000I225000J0D01*
G01*
X138489500Y-75102000D01*
G75*
G02*
X138714500Y-75327000I0J-225000D01*
G01*
X138714500Y-75777000D01*
G75*
G02*
X138489500Y-76002000I-225000J0D01*
G01*
G37*
G36*
G01*
X138489500Y-77552000D02*
X137989500Y-77552000D01*
G75*
G02*
X137764500Y-77327000I0J225000D01*
G01*
X137764500Y-76877000D01*
G75*
G02*
X137989500Y-76652000I225000J0D01*
G01*
X138489500Y-76652000D01*
G75*
G02*
X138714500Y-76877000I0J-225000D01*
G01*
X138714500Y-77327000D01*
G75*
G02*
X138489500Y-77552000I-225000J0D01*
G01*
G37*
%TD*%
%TO.C,C28*%
G36*
G01*
X138651100Y-79760000D02*
X138651100Y-80260000D01*
G75*
G02*
X138426100Y-80485000I-225000J0D01*
G01*
X137976100Y-80485000D01*
G75*
G02*
X137751100Y-80260000I0J225000D01*
G01*
X137751100Y-79760000D01*
G75*
G02*
X137976100Y-79535000I225000J0D01*
G01*
X138426100Y-79535000D01*
G75*
G02*
X138651100Y-79760000I0J-225000D01*
G01*
G37*
G36*
G01*
X140201100Y-79760000D02*
X140201100Y-80260000D01*
G75*
G02*
X139976100Y-80485000I-225000J0D01*
G01*
X139526100Y-80485000D01*
G75*
G02*
X139301100Y-80260000I0J225000D01*
G01*
X139301100Y-79760000D01*
G75*
G02*
X139526100Y-79535000I225000J0D01*
G01*
X139976100Y-79535000D01*
G75*
G02*
X140201100Y-79760000I0J-225000D01*
G01*
G37*
%TD*%
D14*
%TO.C,U28*%
X115804950Y-137479999D03*
X115804950Y-138430000D03*
X115804950Y-139380001D03*
X113176050Y-139380001D03*
X113176050Y-138430000D03*
X113176050Y-137479999D03*
%TD*%
D15*
%TO.C,U27*%
X154624999Y-80219550D03*
X155575000Y-80219550D03*
X156525001Y-80219550D03*
X156525001Y-82848450D03*
X155575000Y-82848450D03*
X154624999Y-82848450D03*
%TD*%
D13*
%TO.C,TP15*%
X120713500Y-137477500D03*
X118173500Y-137477500D03*
%TD*%
D16*
%TO.C,J17*%
X120713500Y-140652500D03*
%TD*%
%TO.C,C51*%
G36*
G01*
X114165500Y-140910500D02*
X114165500Y-141410500D01*
G75*
G02*
X113940500Y-141635500I-225000J0D01*
G01*
X113490500Y-141635500D01*
G75*
G02*
X113265500Y-141410500I0J225000D01*
G01*
X113265500Y-140910500D01*
G75*
G02*
X113490500Y-140685500I225000J0D01*
G01*
X113940500Y-140685500D01*
G75*
G02*
X114165500Y-140910500I0J-225000D01*
G01*
G37*
G36*
G01*
X115715500Y-140910500D02*
X115715500Y-141410500D01*
G75*
G02*
X115490500Y-141635500I-225000J0D01*
G01*
X115040500Y-141635500D01*
G75*
G02*
X114815500Y-141410500I0J225000D01*
G01*
X114815500Y-140910500D01*
G75*
G02*
X115040500Y-140685500I225000J0D01*
G01*
X115490500Y-140685500D01*
G75*
G02*
X115715500Y-140910500I0J-225000D01*
G01*
G37*
%TD*%
D17*
%TO.C,U22*%
X155870001Y-70618350D03*
X156519999Y-70618350D03*
X157170001Y-70618350D03*
X157819999Y-70618350D03*
X157819999Y-73272650D03*
X157170001Y-73272650D03*
X156519999Y-73272650D03*
X155870001Y-73272650D03*
%TD*%
D18*
%TO.C,U21*%
X134795501Y-63722250D03*
X135445500Y-63722250D03*
X136095499Y-63722250D03*
X136095499Y-65944750D03*
X135445500Y-65944750D03*
X134795501Y-65944750D03*
%TD*%
%TO.C,U20*%
X131239501Y-63722250D03*
X131889500Y-63722250D03*
X132539499Y-63722250D03*
X132539499Y-65944750D03*
X131889500Y-65944750D03*
X131239501Y-65944750D03*
%TD*%
%TO.C,U19*%
X127683501Y-63722250D03*
X128333500Y-63722250D03*
X128983499Y-63722250D03*
X128983499Y-65944750D03*
X128333500Y-65944750D03*
X127683501Y-65944750D03*
%TD*%
%TO.C,U18*%
X124127501Y-63722250D03*
X124777500Y-63722250D03*
X125427499Y-63722250D03*
X125427499Y-65944750D03*
X124777500Y-65944750D03*
X124127501Y-65944750D03*
%TD*%
%TO.C,U17*%
X120571501Y-63722250D03*
X121221500Y-63722250D03*
X121871499Y-63722250D03*
X121871499Y-65944750D03*
X121221500Y-65944750D03*
X120571501Y-65944750D03*
%TD*%
%TO.C,U16*%
X117015501Y-63722250D03*
X117665500Y-63722250D03*
X118315499Y-63722250D03*
X118315499Y-65944750D03*
X117665500Y-65944750D03*
X117015501Y-65944750D03*
%TD*%
%TO.C,U15*%
X113459501Y-63722250D03*
X114109500Y-63722250D03*
X114759499Y-63722250D03*
X114759499Y-65944750D03*
X114109500Y-65944750D03*
X113459501Y-65944750D03*
%TD*%
%TO.C,U14*%
X109903501Y-63722250D03*
X110553500Y-63722250D03*
X111203499Y-63722250D03*
X111203499Y-65944750D03*
X110553500Y-65944750D03*
X109903501Y-65944750D03*
%TD*%
%TO.C,U10*%
X201094099Y-69157850D03*
X200444100Y-69157850D03*
X199794101Y-69157850D03*
X199794101Y-66935350D03*
X200444100Y-66935350D03*
X201094099Y-66935350D03*
%TD*%
%TO.C,U9*%
X196522099Y-69157850D03*
X195872100Y-69157850D03*
X195222101Y-69157850D03*
X195222101Y-66935350D03*
X195872100Y-66935350D03*
X196522099Y-66935350D03*
%TD*%
%TO.C,U8*%
X191950099Y-69157850D03*
X191300100Y-69157850D03*
X190650101Y-69157850D03*
X190650101Y-66935350D03*
X191300100Y-66935350D03*
X191950099Y-66935350D03*
%TD*%
%TO.C,U7*%
X182806099Y-69157850D03*
X182156100Y-69157850D03*
X181506101Y-69157850D03*
X181506101Y-66935350D03*
X182156100Y-66935350D03*
X182806099Y-66935350D03*
%TD*%
%TO.C,U6*%
X187378099Y-69157850D03*
X186728100Y-69157850D03*
X186078101Y-69157850D03*
X186078101Y-66935350D03*
X186728100Y-66935350D03*
X187378099Y-66935350D03*
%TD*%
%TO.C,U5*%
X178234099Y-69157850D03*
X177584100Y-69157850D03*
X176934101Y-69157850D03*
X176934101Y-66935350D03*
X177584100Y-66935350D03*
X178234099Y-66935350D03*
%TD*%
D19*
%TO.C,U4*%
X176618900Y-61823600D03*
X176618900Y-60553600D03*
X176618900Y-59283600D03*
X176618900Y-58013600D03*
X176618900Y-56743600D03*
X176618900Y-55473600D03*
X176618900Y-54203600D03*
X176618900Y-52933600D03*
X176618900Y-51663600D03*
X176618900Y-50393600D03*
X176618900Y-49123600D03*
X176618900Y-47853600D03*
X185661300Y-47853600D03*
X185661300Y-49123600D03*
X185661300Y-50393600D03*
X185661300Y-51663600D03*
X185661300Y-52933600D03*
X185661300Y-54203600D03*
X185661300Y-55473600D03*
X185661300Y-56743600D03*
X185661300Y-58013600D03*
X185661300Y-59283600D03*
X185661300Y-60553600D03*
X185661300Y-61823600D03*
%TD*%
D20*
%TO.C,U3*%
X164553900Y-59283600D03*
X164553900Y-58013600D03*
X164553900Y-56743600D03*
X164553900Y-55473600D03*
X164553900Y-54203600D03*
X164553900Y-52933600D03*
X164553900Y-51663600D03*
X164553900Y-50393600D03*
X169278300Y-50393600D03*
X169278300Y-51663600D03*
X169278300Y-52933600D03*
X169278300Y-54203600D03*
X169278300Y-55473600D03*
X169278300Y-56743600D03*
X169278300Y-58013600D03*
X169278300Y-59283600D03*
%TD*%
D13*
%TO.C,TP5*%
X159702500Y-77216000D03*
X157162500Y-77216000D03*
%TD*%
%TO.C,TP4*%
X154622500Y-77216000D03*
X157162500Y-77216000D03*
%TD*%
D16*
%TO.C,TP3*%
X139065000Y-70866000D03*
%TD*%
%TO.C,TP2*%
X144145000Y-70866000D03*
%TD*%
D13*
%TO.C,TP1*%
X160528000Y-68199000D03*
X163068000Y-68199000D03*
%TD*%
%TO.C,R26*%
G36*
G01*
X149563500Y-71647500D02*
X149013500Y-71647500D01*
G75*
G02*
X148813500Y-71447500I0J200000D01*
G01*
X148813500Y-71047500D01*
G75*
G02*
X149013500Y-70847500I200000J0D01*
G01*
X149563500Y-70847500D01*
G75*
G02*
X149763500Y-71047500I0J-200000D01*
G01*
X149763500Y-71447500D01*
G75*
G02*
X149563500Y-71647500I-200000J0D01*
G01*
G37*
G36*
G01*
X149563500Y-73297500D02*
X149013500Y-73297500D01*
G75*
G02*
X148813500Y-73097500I0J200000D01*
G01*
X148813500Y-72697500D01*
G75*
G02*
X149013500Y-72497500I200000J0D01*
G01*
X149563500Y-72497500D01*
G75*
G02*
X149763500Y-72697500I0J-200000D01*
G01*
X149763500Y-73097500D01*
G75*
G02*
X149563500Y-73297500I-200000J0D01*
G01*
G37*
%TD*%
%TO.C,R25*%
G36*
G01*
X149563500Y-68599500D02*
X149013500Y-68599500D01*
G75*
G02*
X148813500Y-68399500I0J200000D01*
G01*
X148813500Y-67999500D01*
G75*
G02*
X149013500Y-67799500I200000J0D01*
G01*
X149563500Y-67799500D01*
G75*
G02*
X149763500Y-67999500I0J-200000D01*
G01*
X149763500Y-68399500D01*
G75*
G02*
X149563500Y-68599500I-200000J0D01*
G01*
G37*
G36*
G01*
X149563500Y-70249500D02*
X149013500Y-70249500D01*
G75*
G02*
X148813500Y-70049500I0J200000D01*
G01*
X148813500Y-69649500D01*
G75*
G02*
X149013500Y-69449500I200000J0D01*
G01*
X149563500Y-69449500D01*
G75*
G02*
X149763500Y-69649500I0J-200000D01*
G01*
X149763500Y-70049500D01*
G75*
G02*
X149563500Y-70249500I-200000J0D01*
G01*
G37*
%TD*%
%TO.C,R24*%
G36*
G01*
X146960000Y-70441000D02*
X146410000Y-70441000D01*
G75*
G02*
X146210000Y-70241000I0J200000D01*
G01*
X146210000Y-69841000D01*
G75*
G02*
X146410000Y-69641000I200000J0D01*
G01*
X146960000Y-69641000D01*
G75*
G02*
X147160000Y-69841000I0J-200000D01*
G01*
X147160000Y-70241000D01*
G75*
G02*
X146960000Y-70441000I-200000J0D01*
G01*
G37*
G36*
G01*
X146960000Y-72091000D02*
X146410000Y-72091000D01*
G75*
G02*
X146210000Y-71891000I0J200000D01*
G01*
X146210000Y-71491000D01*
G75*
G02*
X146410000Y-71291000I200000J0D01*
G01*
X146960000Y-71291000D01*
G75*
G02*
X147160000Y-71491000I0J-200000D01*
G01*
X147160000Y-71891000D01*
G75*
G02*
X146960000Y-72091000I-200000J0D01*
G01*
G37*
%TD*%
%TO.C,R23*%
G36*
G01*
X157110000Y-68824003D02*
X157110000Y-67573997D01*
G75*
G02*
X157359997Y-67324000I249997J0D01*
G01*
X157985003Y-67324000D01*
G75*
G02*
X158235000Y-67573997I0J-249997D01*
G01*
X158235000Y-68824003D01*
G75*
G02*
X157985003Y-69074000I-249997J0D01*
G01*
X157359997Y-69074000D01*
G75*
G02*
X157110000Y-68824003I0J249997D01*
G01*
G37*
G36*
G01*
X154185000Y-68824003D02*
X154185000Y-67573997D01*
G75*
G02*
X154434997Y-67324000I249997J0D01*
G01*
X155060003Y-67324000D01*
G75*
G02*
X155310000Y-67573997I0J-249997D01*
G01*
X155310000Y-68824003D01*
G75*
G02*
X155060003Y-69074000I-249997J0D01*
G01*
X154434997Y-69074000D01*
G75*
G02*
X154185000Y-68824003I0J249997D01*
G01*
G37*
%TD*%
%TO.C,R22*%
G36*
G01*
X149500000Y-75902000D02*
X148950000Y-75902000D01*
G75*
G02*
X148750000Y-75702000I0J200000D01*
G01*
X148750000Y-75302000D01*
G75*
G02*
X148950000Y-75102000I200000J0D01*
G01*
X149500000Y-75102000D01*
G75*
G02*
X149700000Y-75302000I0J-200000D01*
G01*
X149700000Y-75702000D01*
G75*
G02*
X149500000Y-75902000I-200000J0D01*
G01*
G37*
G36*
G01*
X149500000Y-77552000D02*
X148950000Y-77552000D01*
G75*
G02*
X148750000Y-77352000I0J200000D01*
G01*
X148750000Y-76952000D01*
G75*
G02*
X148950000Y-76752000I200000J0D01*
G01*
X149500000Y-76752000D01*
G75*
G02*
X149700000Y-76952000I0J-200000D01*
G01*
X149700000Y-77352000D01*
G75*
G02*
X149500000Y-77552000I-200000J0D01*
G01*
G37*
%TD*%
%TO.C,R21*%
G36*
G01*
X161501500Y-71012000D02*
X160951500Y-71012000D01*
G75*
G02*
X160751500Y-70812000I0J200000D01*
G01*
X160751500Y-70412000D01*
G75*
G02*
X160951500Y-70212000I200000J0D01*
G01*
X161501500Y-70212000D01*
G75*
G02*
X161701500Y-70412000I0J-200000D01*
G01*
X161701500Y-70812000D01*
G75*
G02*
X161501500Y-71012000I-200000J0D01*
G01*
G37*
G36*
G01*
X161501500Y-72662000D02*
X160951500Y-72662000D01*
G75*
G02*
X160751500Y-72462000I0J200000D01*
G01*
X160751500Y-72062000D01*
G75*
G02*
X160951500Y-71862000I200000J0D01*
G01*
X161501500Y-71862000D01*
G75*
G02*
X161701500Y-72062000I0J-200000D01*
G01*
X161701500Y-72462000D01*
G75*
G02*
X161501500Y-72662000I-200000J0D01*
G01*
G37*
%TD*%
%TO.C,R19*%
G36*
G01*
X149523900Y-78287200D02*
X149523900Y-78837200D01*
G75*
G02*
X149323900Y-79037200I-200000J0D01*
G01*
X148923900Y-79037200D01*
G75*
G02*
X148723900Y-78837200I0J200000D01*
G01*
X148723900Y-78287200D01*
G75*
G02*
X148923900Y-78087200I200000J0D01*
G01*
X149323900Y-78087200D01*
G75*
G02*
X149523900Y-78287200I0J-200000D01*
G01*
G37*
G36*
G01*
X151173900Y-78287200D02*
X151173900Y-78837200D01*
G75*
G02*
X150973900Y-79037200I-200000J0D01*
G01*
X150573900Y-79037200D01*
G75*
G02*
X150373900Y-78837200I0J200000D01*
G01*
X150373900Y-78287200D01*
G75*
G02*
X150573900Y-78087200I200000J0D01*
G01*
X150973900Y-78087200D01*
G75*
G02*
X151173900Y-78287200I0J-200000D01*
G01*
G37*
%TD*%
%TO.C,R17*%
G36*
G01*
X163024000Y-73385000D02*
X163024000Y-73935000D01*
G75*
G02*
X162824000Y-74135000I-200000J0D01*
G01*
X162424000Y-74135000D01*
G75*
G02*
X162224000Y-73935000I0J200000D01*
G01*
X162224000Y-73385000D01*
G75*
G02*
X162424000Y-73185000I200000J0D01*
G01*
X162824000Y-73185000D01*
G75*
G02*
X163024000Y-73385000I0J-200000D01*
G01*
G37*
G36*
G01*
X164674000Y-73385000D02*
X164674000Y-73935000D01*
G75*
G02*
X164474000Y-74135000I-200000J0D01*
G01*
X164074000Y-74135000D01*
G75*
G02*
X163874000Y-73935000I0J200000D01*
G01*
X163874000Y-73385000D01*
G75*
G02*
X164074000Y-73185000I200000J0D01*
G01*
X164474000Y-73185000D01*
G75*
G02*
X164674000Y-73385000I0J-200000D01*
G01*
G37*
%TD*%
%TO.C,R16*%
G36*
G01*
X134703000Y-67924000D02*
X134703000Y-68474000D01*
G75*
G02*
X134503000Y-68674000I-200000J0D01*
G01*
X134103000Y-68674000D01*
G75*
G02*
X133903000Y-68474000I0J200000D01*
G01*
X133903000Y-67924000D01*
G75*
G02*
X134103000Y-67724000I200000J0D01*
G01*
X134503000Y-67724000D01*
G75*
G02*
X134703000Y-67924000I0J-200000D01*
G01*
G37*
G36*
G01*
X136353000Y-67924000D02*
X136353000Y-68474000D01*
G75*
G02*
X136153000Y-68674000I-200000J0D01*
G01*
X135753000Y-68674000D01*
G75*
G02*
X135553000Y-68474000I0J200000D01*
G01*
X135553000Y-67924000D01*
G75*
G02*
X135753000Y-67724000I200000J0D01*
G01*
X136153000Y-67724000D01*
G75*
G02*
X136353000Y-67924000I0J-200000D01*
G01*
G37*
%TD*%
%TO.C,R15*%
G36*
G01*
X131147000Y-67924000D02*
X131147000Y-68474000D01*
G75*
G02*
X130947000Y-68674000I-200000J0D01*
G01*
X130547000Y-68674000D01*
G75*
G02*
X130347000Y-68474000I0J200000D01*
G01*
X130347000Y-67924000D01*
G75*
G02*
X130547000Y-67724000I200000J0D01*
G01*
X130947000Y-67724000D01*
G75*
G02*
X131147000Y-67924000I0J-200000D01*
G01*
G37*
G36*
G01*
X132797000Y-67924000D02*
X132797000Y-68474000D01*
G75*
G02*
X132597000Y-68674000I-200000J0D01*
G01*
X132197000Y-68674000D01*
G75*
G02*
X131997000Y-68474000I0J200000D01*
G01*
X131997000Y-67924000D01*
G75*
G02*
X132197000Y-67724000I200000J0D01*
G01*
X132597000Y-67724000D01*
G75*
G02*
X132797000Y-67924000I0J-200000D01*
G01*
G37*
%TD*%
%TO.C,R14*%
G36*
G01*
X127591000Y-67924000D02*
X127591000Y-68474000D01*
G75*
G02*
X127391000Y-68674000I-200000J0D01*
G01*
X126991000Y-68674000D01*
G75*
G02*
X126791000Y-68474000I0J200000D01*
G01*
X126791000Y-67924000D01*
G75*
G02*
X126991000Y-67724000I200000J0D01*
G01*
X127391000Y-67724000D01*
G75*
G02*
X127591000Y-67924000I0J-200000D01*
G01*
G37*
G36*
G01*
X129241000Y-67924000D02*
X129241000Y-68474000D01*
G75*
G02*
X129041000Y-68674000I-200000J0D01*
G01*
X128641000Y-68674000D01*
G75*
G02*
X128441000Y-68474000I0J200000D01*
G01*
X128441000Y-67924000D01*
G75*
G02*
X128641000Y-67724000I200000J0D01*
G01*
X129041000Y-67724000D01*
G75*
G02*
X129241000Y-67924000I0J-200000D01*
G01*
G37*
%TD*%
%TO.C,R13*%
G36*
G01*
X124035000Y-67924000D02*
X124035000Y-68474000D01*
G75*
G02*
X123835000Y-68674000I-200000J0D01*
G01*
X123435000Y-68674000D01*
G75*
G02*
X123235000Y-68474000I0J200000D01*
G01*
X123235000Y-67924000D01*
G75*
G02*
X123435000Y-67724000I200000J0D01*
G01*
X123835000Y-67724000D01*
G75*
G02*
X124035000Y-67924000I0J-200000D01*
G01*
G37*
G36*
G01*
X125685000Y-67924000D02*
X125685000Y-68474000D01*
G75*
G02*
X125485000Y-68674000I-200000J0D01*
G01*
X125085000Y-68674000D01*
G75*
G02*
X124885000Y-68474000I0J200000D01*
G01*
X124885000Y-67924000D01*
G75*
G02*
X125085000Y-67724000I200000J0D01*
G01*
X125485000Y-67724000D01*
G75*
G02*
X125685000Y-67924000I0J-200000D01*
G01*
G37*
%TD*%
%TO.C,R12*%
G36*
G01*
X120479000Y-67924000D02*
X120479000Y-68474000D01*
G75*
G02*
X120279000Y-68674000I-200000J0D01*
G01*
X119879000Y-68674000D01*
G75*
G02*
X119679000Y-68474000I0J200000D01*
G01*
X119679000Y-67924000D01*
G75*
G02*
X119879000Y-67724000I200000J0D01*
G01*
X120279000Y-67724000D01*
G75*
G02*
X120479000Y-67924000I0J-200000D01*
G01*
G37*
G36*
G01*
X122129000Y-67924000D02*
X122129000Y-68474000D01*
G75*
G02*
X121929000Y-68674000I-200000J0D01*
G01*
X121529000Y-68674000D01*
G75*
G02*
X121329000Y-68474000I0J200000D01*
G01*
X121329000Y-67924000D01*
G75*
G02*
X121529000Y-67724000I200000J0D01*
G01*
X121929000Y-67724000D01*
G75*
G02*
X122129000Y-67924000I0J-200000D01*
G01*
G37*
%TD*%
%TO.C,R11*%
G36*
G01*
X116923000Y-67924000D02*
X116923000Y-68474000D01*
G75*
G02*
X116723000Y-68674000I-200000J0D01*
G01*
X116323000Y-68674000D01*
G75*
G02*
X116123000Y-68474000I0J200000D01*
G01*
X116123000Y-67924000D01*
G75*
G02*
X116323000Y-67724000I200000J0D01*
G01*
X116723000Y-67724000D01*
G75*
G02*
X116923000Y-67924000I0J-200000D01*
G01*
G37*
G36*
G01*
X118573000Y-67924000D02*
X118573000Y-68474000D01*
G75*
G02*
X118373000Y-68674000I-200000J0D01*
G01*
X117973000Y-68674000D01*
G75*
G02*
X117773000Y-68474000I0J200000D01*
G01*
X117773000Y-67924000D01*
G75*
G02*
X117973000Y-67724000I200000J0D01*
G01*
X118373000Y-67724000D01*
G75*
G02*
X118573000Y-67924000I0J-200000D01*
G01*
G37*
%TD*%
%TO.C,R10*%
G36*
G01*
X113367000Y-67924000D02*
X113367000Y-68474000D01*
G75*
G02*
X113167000Y-68674000I-200000J0D01*
G01*
X112767000Y-68674000D01*
G75*
G02*
X112567000Y-68474000I0J200000D01*
G01*
X112567000Y-67924000D01*
G75*
G02*
X112767000Y-67724000I200000J0D01*
G01*
X113167000Y-67724000D01*
G75*
G02*
X113367000Y-67924000I0J-200000D01*
G01*
G37*
G36*
G01*
X115017000Y-67924000D02*
X115017000Y-68474000D01*
G75*
G02*
X114817000Y-68674000I-200000J0D01*
G01*
X114417000Y-68674000D01*
G75*
G02*
X114217000Y-68474000I0J200000D01*
G01*
X114217000Y-67924000D01*
G75*
G02*
X114417000Y-67724000I200000J0D01*
G01*
X114817000Y-67724000D01*
G75*
G02*
X115017000Y-67924000I0J-200000D01*
G01*
G37*
%TD*%
%TO.C,R9*%
G36*
G01*
X109811000Y-67924000D02*
X109811000Y-68474000D01*
G75*
G02*
X109611000Y-68674000I-200000J0D01*
G01*
X109211000Y-68674000D01*
G75*
G02*
X109011000Y-68474000I0J200000D01*
G01*
X109011000Y-67924000D01*
G75*
G02*
X109211000Y-67724000I200000J0D01*
G01*
X109611000Y-67724000D01*
G75*
G02*
X109811000Y-67924000I0J-200000D01*
G01*
G37*
G36*
G01*
X111461000Y-67924000D02*
X111461000Y-68474000D01*
G75*
G02*
X111261000Y-68674000I-200000J0D01*
G01*
X110861000Y-68674000D01*
G75*
G02*
X110661000Y-68474000I0J200000D01*
G01*
X110661000Y-67924000D01*
G75*
G02*
X110861000Y-67724000I200000J0D01*
G01*
X111261000Y-67724000D01*
G75*
G02*
X111461000Y-67924000I0J-200000D01*
G01*
G37*
%TD*%
%TO.C,R6*%
G36*
G01*
X149816000Y-115549000D02*
X149816000Y-116099000D01*
G75*
G02*
X149616000Y-116299000I-200000J0D01*
G01*
X149216000Y-116299000D01*
G75*
G02*
X149016000Y-116099000I0J200000D01*
G01*
X149016000Y-115549000D01*
G75*
G02*
X149216000Y-115349000I200000J0D01*
G01*
X149616000Y-115349000D01*
G75*
G02*
X149816000Y-115549000I0J-200000D01*
G01*
G37*
G36*
G01*
X151466000Y-115549000D02*
X151466000Y-116099000D01*
G75*
G02*
X151266000Y-116299000I-200000J0D01*
G01*
X150866000Y-116299000D01*
G75*
G02*
X150666000Y-116099000I0J200000D01*
G01*
X150666000Y-115549000D01*
G75*
G02*
X150866000Y-115349000I200000J0D01*
G01*
X151266000Y-115349000D01*
G75*
G02*
X151466000Y-115549000I0J-200000D01*
G01*
G37*
%TD*%
%TO.C,R5*%
G36*
G01*
X149816000Y-118089000D02*
X149816000Y-118639000D01*
G75*
G02*
X149616000Y-118839000I-200000J0D01*
G01*
X149216000Y-118839000D01*
G75*
G02*
X149016000Y-118639000I0J200000D01*
G01*
X149016000Y-118089000D01*
G75*
G02*
X149216000Y-117889000I200000J0D01*
G01*
X149616000Y-117889000D01*
G75*
G02*
X149816000Y-118089000I0J-200000D01*
G01*
G37*
G36*
G01*
X151466000Y-118089000D02*
X151466000Y-118639000D01*
G75*
G02*
X151266000Y-118839000I-200000J0D01*
G01*
X150866000Y-118839000D01*
G75*
G02*
X150666000Y-118639000I0J200000D01*
G01*
X150666000Y-118089000D01*
G75*
G02*
X150866000Y-117889000I200000J0D01*
G01*
X151266000Y-117889000D01*
G75*
G02*
X151466000Y-118089000I0J-200000D01*
G01*
G37*
%TD*%
%TO.C,R4*%
G36*
G01*
X150666000Y-121179000D02*
X150666000Y-120629000D01*
G75*
G02*
X150866000Y-120429000I200000J0D01*
G01*
X151266000Y-120429000D01*
G75*
G02*
X151466000Y-120629000I0J-200000D01*
G01*
X151466000Y-121179000D01*
G75*
G02*
X151266000Y-121379000I-200000J0D01*
G01*
X150866000Y-121379000D01*
G75*
G02*
X150666000Y-121179000I0J200000D01*
G01*
G37*
G36*
G01*
X149016000Y-121179000D02*
X149016000Y-120629000D01*
G75*
G02*
X149216000Y-120429000I200000J0D01*
G01*
X149616000Y-120429000D01*
G75*
G02*
X149816000Y-120629000I0J-200000D01*
G01*
X149816000Y-121179000D01*
G75*
G02*
X149616000Y-121379000I-200000J0D01*
G01*
X149216000Y-121379000D01*
G75*
G02*
X149016000Y-121179000I0J200000D01*
G01*
G37*
%TD*%
%TO.C,R2*%
G36*
G01*
X96095000Y-118089000D02*
X96095000Y-118639000D01*
G75*
G02*
X95895000Y-118839000I-200000J0D01*
G01*
X95495000Y-118839000D01*
G75*
G02*
X95295000Y-118639000I0J200000D01*
G01*
X95295000Y-118089000D01*
G75*
G02*
X95495000Y-117889000I200000J0D01*
G01*
X95895000Y-117889000D01*
G75*
G02*
X96095000Y-118089000I0J-200000D01*
G01*
G37*
G36*
G01*
X97745000Y-118089000D02*
X97745000Y-118639000D01*
G75*
G02*
X97545000Y-118839000I-200000J0D01*
G01*
X97145000Y-118839000D01*
G75*
G02*
X96945000Y-118639000I0J200000D01*
G01*
X96945000Y-118089000D01*
G75*
G02*
X97145000Y-117889000I200000J0D01*
G01*
X97545000Y-117889000D01*
G75*
G02*
X97745000Y-118089000I0J-200000D01*
G01*
G37*
%TD*%
%TO.C,R1*%
G36*
G01*
X96095000Y-115549000D02*
X96095000Y-116099000D01*
G75*
G02*
X95895000Y-116299000I-200000J0D01*
G01*
X95495000Y-116299000D01*
G75*
G02*
X95295000Y-116099000I0J200000D01*
G01*
X95295000Y-115549000D01*
G75*
G02*
X95495000Y-115349000I200000J0D01*
G01*
X95895000Y-115349000D01*
G75*
G02*
X96095000Y-115549000I0J-200000D01*
G01*
G37*
G36*
G01*
X97745000Y-115549000D02*
X97745000Y-116099000D01*
G75*
G02*
X97545000Y-116299000I-200000J0D01*
G01*
X97145000Y-116299000D01*
G75*
G02*
X96945000Y-116099000I0J200000D01*
G01*
X96945000Y-115549000D01*
G75*
G02*
X97145000Y-115349000I200000J0D01*
G01*
X97545000Y-115349000D01*
G75*
G02*
X97745000Y-115549000I0J-200000D01*
G01*
G37*
%TD*%
D21*
%TO.C,J7*%
X197548500Y-80632300D03*
X200088500Y-80632300D03*
D16*
X202628500Y-80632300D03*
%TD*%
D21*
%TO.C,J6*%
X197548500Y-85077300D03*
X200088500Y-85077300D03*
D16*
X202628500Y-85077300D03*
%TD*%
D21*
%TO.C,J5*%
X197548500Y-89522300D03*
X200088500Y-89522300D03*
D16*
X202628500Y-89522300D03*
%TD*%
D21*
%TO.C,J4*%
X206666000Y-103501500D03*
X206666000Y-100961500D03*
X206666000Y-98421500D03*
X206666000Y-95881500D03*
X206666000Y-93341500D03*
X206666000Y-90801500D03*
X206666000Y-88261500D03*
X206666000Y-85721500D03*
X206666000Y-83181500D03*
D16*
X206666000Y-80641500D03*
%TD*%
D21*
%TO.C,J3*%
X165166000Y-103501500D03*
X165166000Y-100961500D03*
X165166000Y-98421500D03*
X165166000Y-95881500D03*
X165166000Y-93341500D03*
X165166000Y-90801500D03*
X165166000Y-88261500D03*
X165166000Y-85721500D03*
X165166000Y-83181500D03*
D16*
X165166000Y-80641500D03*
%TD*%
D21*
%TO.C,J2*%
X146718200Y-123498600D03*
X146718200Y-120958600D03*
X146718200Y-118418600D03*
X146718200Y-115878600D03*
X146718200Y-113338600D03*
X146718200Y-110798600D03*
X146718200Y-108258600D03*
X146718200Y-105718600D03*
X146718200Y-103178600D03*
D16*
X146718200Y-100638600D03*
%TD*%
D21*
%TO.C,J1*%
X100218200Y-123498600D03*
X100218200Y-120958600D03*
X100218200Y-118418600D03*
X100218200Y-115878600D03*
X100218200Y-113338600D03*
X100218200Y-110798600D03*
X100218200Y-108258600D03*
X100218200Y-105718600D03*
X100218200Y-103178600D03*
D16*
X100218200Y-100638600D03*
%TD*%
%TO.C,FB1*%
G36*
G01*
X96870000Y-100840250D02*
X96870000Y-100327750D01*
G75*
G02*
X97088750Y-100109000I218750J0D01*
G01*
X97526250Y-100109000D01*
G75*
G02*
X97745000Y-100327750I0J-218750D01*
G01*
X97745000Y-100840250D01*
G75*
G02*
X97526250Y-101059000I-218750J0D01*
G01*
X97088750Y-101059000D01*
G75*
G02*
X96870000Y-100840250I0J218750D01*
G01*
G37*
G36*
G01*
X95295000Y-100840250D02*
X95295000Y-100327750D01*
G75*
G02*
X95513750Y-100109000I218750J0D01*
G01*
X95951250Y-100109000D01*
G75*
G02*
X96170000Y-100327750I0J-218750D01*
G01*
X96170000Y-100840250D01*
G75*
G02*
X95951250Y-101059000I-218750J0D01*
G01*
X95513750Y-101059000D01*
G75*
G02*
X95295000Y-100840250I0J218750D01*
G01*
G37*
%TD*%
%TO.C,C33*%
G36*
G01*
X158313000Y-75370500D02*
X158313000Y-74870500D01*
G75*
G02*
X158538000Y-74645500I225000J0D01*
G01*
X158988000Y-74645500D01*
G75*
G02*
X159213000Y-74870500I0J-225000D01*
G01*
X159213000Y-75370500D01*
G75*
G02*
X158988000Y-75595500I-225000J0D01*
G01*
X158538000Y-75595500D01*
G75*
G02*
X158313000Y-75370500I0J225000D01*
G01*
G37*
G36*
G01*
X156763000Y-75370500D02*
X156763000Y-74870500D01*
G75*
G02*
X156988000Y-74645500I225000J0D01*
G01*
X157438000Y-74645500D01*
G75*
G02*
X157663000Y-74870500I0J-225000D01*
G01*
X157663000Y-75370500D01*
G75*
G02*
X157438000Y-75595500I-225000J0D01*
G01*
X156988000Y-75595500D01*
G75*
G02*
X156763000Y-75370500I0J225000D01*
G01*
G37*
%TD*%
%TO.C,C32*%
G36*
G01*
X150935500Y-76002000D02*
X150435500Y-76002000D01*
G75*
G02*
X150210500Y-75777000I0J225000D01*
G01*
X150210500Y-75327000D01*
G75*
G02*
X150435500Y-75102000I225000J0D01*
G01*
X150935500Y-75102000D01*
G75*
G02*
X151160500Y-75327000I0J-225000D01*
G01*
X151160500Y-75777000D01*
G75*
G02*
X150935500Y-76002000I-225000J0D01*
G01*
G37*
G36*
G01*
X150935500Y-77552000D02*
X150435500Y-77552000D01*
G75*
G02*
X150210500Y-77327000I0J225000D01*
G01*
X150210500Y-76877000D01*
G75*
G02*
X150435500Y-76652000I225000J0D01*
G01*
X150935500Y-76652000D01*
G75*
G02*
X151160500Y-76877000I0J-225000D01*
G01*
X151160500Y-77327000D01*
G75*
G02*
X150935500Y-77552000I-225000J0D01*
G01*
G37*
%TD*%
%TO.C,C31*%
G36*
G01*
X162937000Y-71112500D02*
X162437000Y-71112500D01*
G75*
G02*
X162212000Y-70887500I0J225000D01*
G01*
X162212000Y-70437500D01*
G75*
G02*
X162437000Y-70212500I225000J0D01*
G01*
X162937000Y-70212500D01*
G75*
G02*
X163162000Y-70437500I0J-225000D01*
G01*
X163162000Y-70887500D01*
G75*
G02*
X162937000Y-71112500I-225000J0D01*
G01*
G37*
G36*
G01*
X162937000Y-72662500D02*
X162437000Y-72662500D01*
G75*
G02*
X162212000Y-72437500I0J225000D01*
G01*
X162212000Y-71987500D01*
G75*
G02*
X162437000Y-71762500I225000J0D01*
G01*
X162937000Y-71762500D01*
G75*
G02*
X163162000Y-71987500I0J-225000D01*
G01*
X163162000Y-72437500D01*
G75*
G02*
X162937000Y-72662500I-225000J0D01*
G01*
G37*
%TD*%
%TO.C,C29*%
G36*
G01*
X149623900Y-79785400D02*
X149623900Y-80285400D01*
G75*
G02*
X149398900Y-80510400I-225000J0D01*
G01*
X148948900Y-80510400D01*
G75*
G02*
X148723900Y-80285400I0J225000D01*
G01*
X148723900Y-79785400D01*
G75*
G02*
X148948900Y-79560400I225000J0D01*
G01*
X149398900Y-79560400D01*
G75*
G02*
X149623900Y-79785400I0J-225000D01*
G01*
G37*
G36*
G01*
X151173900Y-79785400D02*
X151173900Y-80285400D01*
G75*
G02*
X150948900Y-80510400I-225000J0D01*
G01*
X150498900Y-80510400D01*
G75*
G02*
X150273900Y-80285400I0J225000D01*
G01*
X150273900Y-79785400D01*
G75*
G02*
X150498900Y-79560400I225000J0D01*
G01*
X150948900Y-79560400D01*
G75*
G02*
X151173900Y-79785400I0J-225000D01*
G01*
G37*
%TD*%
%TO.C,C27*%
G36*
G01*
X163124000Y-74870500D02*
X163124000Y-75370500D01*
G75*
G02*
X162899000Y-75595500I-225000J0D01*
G01*
X162449000Y-75595500D01*
G75*
G02*
X162224000Y-75370500I0J225000D01*
G01*
X162224000Y-74870500D01*
G75*
G02*
X162449000Y-74645500I225000J0D01*
G01*
X162899000Y-74645500D01*
G75*
G02*
X163124000Y-74870500I0J-225000D01*
G01*
G37*
G36*
G01*
X164674000Y-74870500D02*
X164674000Y-75370500D01*
G75*
G02*
X164449000Y-75595500I-225000J0D01*
G01*
X163999000Y-75595500D01*
G75*
G02*
X163774000Y-75370500I0J225000D01*
G01*
X163774000Y-74870500D01*
G75*
G02*
X163999000Y-74645500I225000J0D01*
G01*
X164449000Y-74645500D01*
G75*
G02*
X164674000Y-74870500I0J-225000D01*
G01*
G37*
%TD*%
%TO.C,C26*%
G36*
G01*
X144787500Y-78101000D02*
X144787500Y-77601000D01*
G75*
G02*
X145012500Y-77376000I225000J0D01*
G01*
X145462500Y-77376000D01*
G75*
G02*
X145687500Y-77601000I0J-225000D01*
G01*
X145687500Y-78101000D01*
G75*
G02*
X145462500Y-78326000I-225000J0D01*
G01*
X145012500Y-78326000D01*
G75*
G02*
X144787500Y-78101000I0J225000D01*
G01*
G37*
G36*
G01*
X143237500Y-78101000D02*
X143237500Y-77601000D01*
G75*
G02*
X143462500Y-77376000I225000J0D01*
G01*
X143912500Y-77376000D01*
G75*
G02*
X144137500Y-77601000I0J-225000D01*
G01*
X144137500Y-78101000D01*
G75*
G02*
X143912500Y-78326000I-225000J0D01*
G01*
X143462500Y-78326000D01*
G75*
G02*
X143237500Y-78101000I0J225000D01*
G01*
G37*
%TD*%
%TO.C,C25*%
G36*
G01*
X157865000Y-81859000D02*
X158365000Y-81859000D01*
G75*
G02*
X158590000Y-82084000I0J-225000D01*
G01*
X158590000Y-82534000D01*
G75*
G02*
X158365000Y-82759000I-225000J0D01*
G01*
X157865000Y-82759000D01*
G75*
G02*
X157640000Y-82534000I0J225000D01*
G01*
X157640000Y-82084000D01*
G75*
G02*
X157865000Y-81859000I225000J0D01*
G01*
G37*
G36*
G01*
X157865000Y-80309000D02*
X158365000Y-80309000D01*
G75*
G02*
X158590000Y-80534000I0J-225000D01*
G01*
X158590000Y-80984000D01*
G75*
G02*
X158365000Y-81209000I-225000J0D01*
G01*
X157865000Y-81209000D01*
G75*
G02*
X157640000Y-80984000I0J225000D01*
G01*
X157640000Y-80534000D01*
G75*
G02*
X157865000Y-80309000I225000J0D01*
G01*
G37*
%TD*%
%TO.C,C24*%
G36*
G01*
X154428000Y-71620500D02*
X153928000Y-71620500D01*
G75*
G02*
X153703000Y-71395500I0J225000D01*
G01*
X153703000Y-70945500D01*
G75*
G02*
X153928000Y-70720500I225000J0D01*
G01*
X154428000Y-70720500D01*
G75*
G02*
X154653000Y-70945500I0J-225000D01*
G01*
X154653000Y-71395500D01*
G75*
G02*
X154428000Y-71620500I-225000J0D01*
G01*
G37*
G36*
G01*
X154428000Y-73170500D02*
X153928000Y-73170500D01*
G75*
G02*
X153703000Y-72945500I0J225000D01*
G01*
X153703000Y-72495500D01*
G75*
G02*
X153928000Y-72270500I225000J0D01*
G01*
X154428000Y-72270500D01*
G75*
G02*
X154653000Y-72495500I0J-225000D01*
G01*
X154653000Y-72945500D01*
G75*
G02*
X154428000Y-73170500I-225000J0D01*
G01*
G37*
%TD*%
%TO.C,C23*%
G36*
G01*
X135060500Y-60952500D02*
X134560500Y-60952500D01*
G75*
G02*
X134335500Y-60727500I0J225000D01*
G01*
X134335500Y-60277500D01*
G75*
G02*
X134560500Y-60052500I225000J0D01*
G01*
X135060500Y-60052500D01*
G75*
G02*
X135285500Y-60277500I0J-225000D01*
G01*
X135285500Y-60727500D01*
G75*
G02*
X135060500Y-60952500I-225000J0D01*
G01*
G37*
G36*
G01*
X135060500Y-62502500D02*
X134560500Y-62502500D01*
G75*
G02*
X134335500Y-62277500I0J225000D01*
G01*
X134335500Y-61827500D01*
G75*
G02*
X134560500Y-61602500I225000J0D01*
G01*
X135060500Y-61602500D01*
G75*
G02*
X135285500Y-61827500I0J-225000D01*
G01*
X135285500Y-62277500D01*
G75*
G02*
X135060500Y-62502500I-225000J0D01*
G01*
G37*
%TD*%
%TO.C,C22*%
G36*
G01*
X131504500Y-60952500D02*
X131004500Y-60952500D01*
G75*
G02*
X130779500Y-60727500I0J225000D01*
G01*
X130779500Y-60277500D01*
G75*
G02*
X131004500Y-60052500I225000J0D01*
G01*
X131504500Y-60052500D01*
G75*
G02*
X131729500Y-60277500I0J-225000D01*
G01*
X131729500Y-60727500D01*
G75*
G02*
X131504500Y-60952500I-225000J0D01*
G01*
G37*
G36*
G01*
X131504500Y-62502500D02*
X131004500Y-62502500D01*
G75*
G02*
X130779500Y-62277500I0J225000D01*
G01*
X130779500Y-61827500D01*
G75*
G02*
X131004500Y-61602500I225000J0D01*
G01*
X131504500Y-61602500D01*
G75*
G02*
X131729500Y-61827500I0J-225000D01*
G01*
X131729500Y-62277500D01*
G75*
G02*
X131504500Y-62502500I-225000J0D01*
G01*
G37*
%TD*%
%TO.C,C21*%
G36*
G01*
X127948500Y-60939500D02*
X127448500Y-60939500D01*
G75*
G02*
X127223500Y-60714500I0J225000D01*
G01*
X127223500Y-60264500D01*
G75*
G02*
X127448500Y-60039500I225000J0D01*
G01*
X127948500Y-60039500D01*
G75*
G02*
X128173500Y-60264500I0J-225000D01*
G01*
X128173500Y-60714500D01*
G75*
G02*
X127948500Y-60939500I-225000J0D01*
G01*
G37*
G36*
G01*
X127948500Y-62489500D02*
X127448500Y-62489500D01*
G75*
G02*
X127223500Y-62264500I0J225000D01*
G01*
X127223500Y-61814500D01*
G75*
G02*
X127448500Y-61589500I225000J0D01*
G01*
X127948500Y-61589500D01*
G75*
G02*
X128173500Y-61814500I0J-225000D01*
G01*
X128173500Y-62264500D01*
G75*
G02*
X127948500Y-62489500I-225000J0D01*
G01*
G37*
%TD*%
%TO.C,C20*%
G36*
G01*
X124392500Y-60939500D02*
X123892500Y-60939500D01*
G75*
G02*
X123667500Y-60714500I0J225000D01*
G01*
X123667500Y-60264500D01*
G75*
G02*
X123892500Y-60039500I225000J0D01*
G01*
X124392500Y-60039500D01*
G75*
G02*
X124617500Y-60264500I0J-225000D01*
G01*
X124617500Y-60714500D01*
G75*
G02*
X124392500Y-60939500I-225000J0D01*
G01*
G37*
G36*
G01*
X124392500Y-62489500D02*
X123892500Y-62489500D01*
G75*
G02*
X123667500Y-62264500I0J225000D01*
G01*
X123667500Y-61814500D01*
G75*
G02*
X123892500Y-61589500I225000J0D01*
G01*
X124392500Y-61589500D01*
G75*
G02*
X124617500Y-61814500I0J-225000D01*
G01*
X124617500Y-62264500D01*
G75*
G02*
X124392500Y-62489500I-225000J0D01*
G01*
G37*
%TD*%
%TO.C,C19*%
G36*
G01*
X120836500Y-60939500D02*
X120336500Y-60939500D01*
G75*
G02*
X120111500Y-60714500I0J225000D01*
G01*
X120111500Y-60264500D01*
G75*
G02*
X120336500Y-60039500I225000J0D01*
G01*
X120836500Y-60039500D01*
G75*
G02*
X121061500Y-60264500I0J-225000D01*
G01*
X121061500Y-60714500D01*
G75*
G02*
X120836500Y-60939500I-225000J0D01*
G01*
G37*
G36*
G01*
X120836500Y-62489500D02*
X120336500Y-62489500D01*
G75*
G02*
X120111500Y-62264500I0J225000D01*
G01*
X120111500Y-61814500D01*
G75*
G02*
X120336500Y-61589500I225000J0D01*
G01*
X120836500Y-61589500D01*
G75*
G02*
X121061500Y-61814500I0J-225000D01*
G01*
X121061500Y-62264500D01*
G75*
G02*
X120836500Y-62489500I-225000J0D01*
G01*
G37*
%TD*%
%TO.C,C18*%
G36*
G01*
X117280500Y-60939500D02*
X116780500Y-60939500D01*
G75*
G02*
X116555500Y-60714500I0J225000D01*
G01*
X116555500Y-60264500D01*
G75*
G02*
X116780500Y-60039500I225000J0D01*
G01*
X117280500Y-60039500D01*
G75*
G02*
X117505500Y-60264500I0J-225000D01*
G01*
X117505500Y-60714500D01*
G75*
G02*
X117280500Y-60939500I-225000J0D01*
G01*
G37*
G36*
G01*
X117280500Y-62489500D02*
X116780500Y-62489500D01*
G75*
G02*
X116555500Y-62264500I0J225000D01*
G01*
X116555500Y-61814500D01*
G75*
G02*
X116780500Y-61589500I225000J0D01*
G01*
X117280500Y-61589500D01*
G75*
G02*
X117505500Y-61814500I0J-225000D01*
G01*
X117505500Y-62264500D01*
G75*
G02*
X117280500Y-62489500I-225000J0D01*
G01*
G37*
%TD*%
%TO.C,C17*%
G36*
G01*
X113724500Y-60939500D02*
X113224500Y-60939500D01*
G75*
G02*
X112999500Y-60714500I0J225000D01*
G01*
X112999500Y-60264500D01*
G75*
G02*
X113224500Y-60039500I225000J0D01*
G01*
X113724500Y-60039500D01*
G75*
G02*
X113949500Y-60264500I0J-225000D01*
G01*
X113949500Y-60714500D01*
G75*
G02*
X113724500Y-60939500I-225000J0D01*
G01*
G37*
G36*
G01*
X113724500Y-62489500D02*
X113224500Y-62489500D01*
G75*
G02*
X112999500Y-62264500I0J225000D01*
G01*
X112999500Y-61814500D01*
G75*
G02*
X113224500Y-61589500I225000J0D01*
G01*
X113724500Y-61589500D01*
G75*
G02*
X113949500Y-61814500I0J-225000D01*
G01*
X113949500Y-62264500D01*
G75*
G02*
X113724500Y-62489500I-225000J0D01*
G01*
G37*
%TD*%
%TO.C,C16*%
G36*
G01*
X110168500Y-60939500D02*
X109668500Y-60939500D01*
G75*
G02*
X109443500Y-60714500I0J225000D01*
G01*
X109443500Y-60264500D01*
G75*
G02*
X109668500Y-60039500I225000J0D01*
G01*
X110168500Y-60039500D01*
G75*
G02*
X110393500Y-60264500I0J-225000D01*
G01*
X110393500Y-60714500D01*
G75*
G02*
X110168500Y-60939500I-225000J0D01*
G01*
G37*
G36*
G01*
X110168500Y-62489500D02*
X109668500Y-62489500D01*
G75*
G02*
X109443500Y-62264500I0J225000D01*
G01*
X109443500Y-61814500D01*
G75*
G02*
X109668500Y-61589500I225000J0D01*
G01*
X110168500Y-61589500D01*
G75*
G02*
X110393500Y-61814500I0J-225000D01*
G01*
X110393500Y-62264500D01*
G75*
G02*
X110168500Y-62489500I-225000J0D01*
G01*
G37*
%TD*%
%TO.C,C15*%
G36*
G01*
X118939500Y-52585500D02*
X119439500Y-52585500D01*
G75*
G02*
X119664500Y-52810500I0J-225000D01*
G01*
X119664500Y-53260500D01*
G75*
G02*
X119439500Y-53485500I-225000J0D01*
G01*
X118939500Y-53485500D01*
G75*
G02*
X118714500Y-53260500I0J225000D01*
G01*
X118714500Y-52810500D01*
G75*
G02*
X118939500Y-52585500I225000J0D01*
G01*
G37*
G36*
G01*
X118939500Y-51035500D02*
X119439500Y-51035500D01*
G75*
G02*
X119664500Y-51260500I0J-225000D01*
G01*
X119664500Y-51710500D01*
G75*
G02*
X119439500Y-51935500I-225000J0D01*
G01*
X118939500Y-51935500D01*
G75*
G02*
X118714500Y-51710500I0J225000D01*
G01*
X118714500Y-51260500D01*
G75*
G02*
X118939500Y-51035500I225000J0D01*
G01*
G37*
%TD*%
%TO.C,C14*%
G36*
G01*
X206942500Y-76954500D02*
X206442500Y-76954500D01*
G75*
G02*
X206217500Y-76729500I0J225000D01*
G01*
X206217500Y-76279500D01*
G75*
G02*
X206442500Y-76054500I225000J0D01*
G01*
X206942500Y-76054500D01*
G75*
G02*
X207167500Y-76279500I0J-225000D01*
G01*
X207167500Y-76729500D01*
G75*
G02*
X206942500Y-76954500I-225000J0D01*
G01*
G37*
G36*
G01*
X206942500Y-78504500D02*
X206442500Y-78504500D01*
G75*
G02*
X206217500Y-78279500I0J225000D01*
G01*
X206217500Y-77829500D01*
G75*
G02*
X206442500Y-77604500I225000J0D01*
G01*
X206942500Y-77604500D01*
G75*
G02*
X207167500Y-77829500I0J-225000D01*
G01*
X207167500Y-78279500D01*
G75*
G02*
X206942500Y-78504500I-225000J0D01*
G01*
G37*
%TD*%
%TO.C,C13*%
G36*
G01*
X173740000Y-63063000D02*
X174240000Y-63063000D01*
G75*
G02*
X174465000Y-63288000I0J-225000D01*
G01*
X174465000Y-63738000D01*
G75*
G02*
X174240000Y-63963000I-225000J0D01*
G01*
X173740000Y-63963000D01*
G75*
G02*
X173515000Y-63738000I0J225000D01*
G01*
X173515000Y-63288000D01*
G75*
G02*
X173740000Y-63063000I225000J0D01*
G01*
G37*
G36*
G01*
X173740000Y-61513000D02*
X174240000Y-61513000D01*
G75*
G02*
X174465000Y-61738000I0J-225000D01*
G01*
X174465000Y-62188000D01*
G75*
G02*
X174240000Y-62413000I-225000J0D01*
G01*
X173740000Y-62413000D01*
G75*
G02*
X173515000Y-62188000I0J225000D01*
G01*
X173515000Y-61738000D01*
G75*
G02*
X173740000Y-61513000I225000J0D01*
G01*
G37*
%TD*%
%TO.C,C11*%
G36*
G01*
X167241100Y-61565600D02*
X167241100Y-61065600D01*
G75*
G02*
X167466100Y-60840600I225000J0D01*
G01*
X167916100Y-60840600D01*
G75*
G02*
X168141100Y-61065600I0J-225000D01*
G01*
X168141100Y-61565600D01*
G75*
G02*
X167916100Y-61790600I-225000J0D01*
G01*
X167466100Y-61790600D01*
G75*
G02*
X167241100Y-61565600I0J225000D01*
G01*
G37*
G36*
G01*
X165691100Y-61565600D02*
X165691100Y-61065600D01*
G75*
G02*
X165916100Y-60840600I225000J0D01*
G01*
X166366100Y-60840600D01*
G75*
G02*
X166591100Y-61065600I0J-225000D01*
G01*
X166591100Y-61565600D01*
G75*
G02*
X166366100Y-61790600I-225000J0D01*
G01*
X165916100Y-61790600D01*
G75*
G02*
X165691100Y-61565600I0J225000D01*
G01*
G37*
%TD*%
%TO.C,C9*%
G36*
G01*
X169960100Y-46131600D02*
X169460100Y-46131600D01*
G75*
G02*
X169235100Y-45906600I0J225000D01*
G01*
X169235100Y-45456600D01*
G75*
G02*
X169460100Y-45231600I225000J0D01*
G01*
X169960100Y-45231600D01*
G75*
G02*
X170185100Y-45456600I0J-225000D01*
G01*
X170185100Y-45906600D01*
G75*
G02*
X169960100Y-46131600I-225000J0D01*
G01*
G37*
G36*
G01*
X169960100Y-47681600D02*
X169460100Y-47681600D01*
G75*
G02*
X169235100Y-47456600I0J225000D01*
G01*
X169235100Y-47006600D01*
G75*
G02*
X169460100Y-46781600I225000J0D01*
G01*
X169960100Y-46781600D01*
G75*
G02*
X170185100Y-47006600I0J-225000D01*
G01*
X170185100Y-47456600D01*
G75*
G02*
X169960100Y-47681600I-225000J0D01*
G01*
G37*
%TD*%
%TO.C,C6*%
G36*
G01*
X178731100Y-72181600D02*
X179231100Y-72181600D01*
G75*
G02*
X179456100Y-72406600I0J-225000D01*
G01*
X179456100Y-72856600D01*
G75*
G02*
X179231100Y-73081600I-225000J0D01*
G01*
X178731100Y-73081600D01*
G75*
G02*
X178506100Y-72856600I0J225000D01*
G01*
X178506100Y-72406600D01*
G75*
G02*
X178731100Y-72181600I225000J0D01*
G01*
G37*
G36*
G01*
X178731100Y-70631600D02*
X179231100Y-70631600D01*
G75*
G02*
X179456100Y-70856600I0J-225000D01*
G01*
X179456100Y-71306600D01*
G75*
G02*
X179231100Y-71531600I-225000J0D01*
G01*
X178731100Y-71531600D01*
G75*
G02*
X178506100Y-71306600I0J225000D01*
G01*
X178506100Y-70856600D01*
G75*
G02*
X178731100Y-70631600I225000J0D01*
G01*
G37*
%TD*%
%TO.C,C5*%
G36*
G01*
X183176100Y-72181600D02*
X183676100Y-72181600D01*
G75*
G02*
X183901100Y-72406600I0J-225000D01*
G01*
X183901100Y-72856600D01*
G75*
G02*
X183676100Y-73081600I-225000J0D01*
G01*
X183176100Y-73081600D01*
G75*
G02*
X182951100Y-72856600I0J225000D01*
G01*
X182951100Y-72406600D01*
G75*
G02*
X183176100Y-72181600I225000J0D01*
G01*
G37*
G36*
G01*
X183176100Y-70631600D02*
X183676100Y-70631600D01*
G75*
G02*
X183901100Y-70856600I0J-225000D01*
G01*
X183901100Y-71306600D01*
G75*
G02*
X183676100Y-71531600I-225000J0D01*
G01*
X183176100Y-71531600D01*
G75*
G02*
X182951100Y-71306600I0J225000D01*
G01*
X182951100Y-70856600D01*
G75*
G02*
X183176100Y-70631600I225000J0D01*
G01*
G37*
%TD*%
%TO.C,C4*%
G36*
G01*
X187748100Y-72181600D02*
X188248100Y-72181600D01*
G75*
G02*
X188473100Y-72406600I0J-225000D01*
G01*
X188473100Y-72856600D01*
G75*
G02*
X188248100Y-73081600I-225000J0D01*
G01*
X187748100Y-73081600D01*
G75*
G02*
X187523100Y-72856600I0J225000D01*
G01*
X187523100Y-72406600D01*
G75*
G02*
X187748100Y-72181600I225000J0D01*
G01*
G37*
G36*
G01*
X187748100Y-70631600D02*
X188248100Y-70631600D01*
G75*
G02*
X188473100Y-70856600I0J-225000D01*
G01*
X188473100Y-71306600D01*
G75*
G02*
X188248100Y-71531600I-225000J0D01*
G01*
X187748100Y-71531600D01*
G75*
G02*
X187523100Y-71306600I0J225000D01*
G01*
X187523100Y-70856600D01*
G75*
G02*
X187748100Y-70631600I225000J0D01*
G01*
G37*
%TD*%
%TO.C,C3*%
G36*
G01*
X192320100Y-72181600D02*
X192820100Y-72181600D01*
G75*
G02*
X193045100Y-72406600I0J-225000D01*
G01*
X193045100Y-72856600D01*
G75*
G02*
X192820100Y-73081600I-225000J0D01*
G01*
X192320100Y-73081600D01*
G75*
G02*
X192095100Y-72856600I0J225000D01*
G01*
X192095100Y-72406600D01*
G75*
G02*
X192320100Y-72181600I225000J0D01*
G01*
G37*
G36*
G01*
X192320100Y-70631600D02*
X192820100Y-70631600D01*
G75*
G02*
X193045100Y-70856600I0J-225000D01*
G01*
X193045100Y-71306600D01*
G75*
G02*
X192820100Y-71531600I-225000J0D01*
G01*
X192320100Y-71531600D01*
G75*
G02*
X192095100Y-71306600I0J225000D01*
G01*
X192095100Y-70856600D01*
G75*
G02*
X192320100Y-70631600I225000J0D01*
G01*
G37*
%TD*%
%TO.C,C2*%
G36*
G01*
X197019100Y-72181600D02*
X197519100Y-72181600D01*
G75*
G02*
X197744100Y-72406600I0J-225000D01*
G01*
X197744100Y-72856600D01*
G75*
G02*
X197519100Y-73081600I-225000J0D01*
G01*
X197019100Y-73081600D01*
G75*
G02*
X196794100Y-72856600I0J225000D01*
G01*
X196794100Y-72406600D01*
G75*
G02*
X197019100Y-72181600I225000J0D01*
G01*
G37*
G36*
G01*
X197019100Y-70631600D02*
X197519100Y-70631600D01*
G75*
G02*
X197744100Y-70856600I0J-225000D01*
G01*
X197744100Y-71306600D01*
G75*
G02*
X197519100Y-71531600I-225000J0D01*
G01*
X197019100Y-71531600D01*
G75*
G02*
X196794100Y-71306600I0J225000D01*
G01*
X196794100Y-70856600D01*
G75*
G02*
X197019100Y-70631600I225000J0D01*
G01*
G37*
%TD*%
%TO.C,C1*%
G36*
G01*
X201591100Y-72181600D02*
X202091100Y-72181600D01*
G75*
G02*
X202316100Y-72406600I0J-225000D01*
G01*
X202316100Y-72856600D01*
G75*
G02*
X202091100Y-73081600I-225000J0D01*
G01*
X201591100Y-73081600D01*
G75*
G02*
X201366100Y-72856600I0J225000D01*
G01*
X201366100Y-72406600D01*
G75*
G02*
X201591100Y-72181600I225000J0D01*
G01*
G37*
G36*
G01*
X201591100Y-70631600D02*
X202091100Y-70631600D01*
G75*
G02*
X202316100Y-70856600I0J-225000D01*
G01*
X202316100Y-71306600D01*
G75*
G02*
X202091100Y-71531600I-225000J0D01*
G01*
X201591100Y-71531600D01*
G75*
G02*
X201366100Y-71306600I0J225000D01*
G01*
X201366100Y-70856600D01*
G75*
G02*
X201591100Y-70631600I225000J0D01*
G01*
G37*
%TD*%
M02*
