%TF.GenerationSoftware,KiCad,Pcbnew,(5.1.10)-1*%
%TF.CreationDate,2023-09-09T18:46:01-05:00*%
%TF.ProjectId,multiplexer cell tester,6d756c74-6970-46c6-9578-65722063656c,B*%
%TF.SameCoordinates,Original*%
%TF.FileFunction,Legend,Top*%
%TF.FilePolarity,Positive*%
%FSLAX46Y46*%
G04 Gerber Fmt 4.6, Leading zero omitted, Abs format (unit mm)*
G04 Created by KiCad (PCBNEW (5.1.10)-1) date 2023-09-09 18:46:01*
%MOMM*%
%LPD*%
G01*
G04 APERTURE LIST*
%ADD10C,0.250000*%
%ADD11C,0.300000*%
%ADD12C,0.120000*%
%ADD13C,0.150000*%
%ADD14C,0.152400*%
%ADD15C,0.100000*%
G04 APERTURE END LIST*
D10*
X170109423Y-122237500D02*
G75*
G03*
X170109423Y-122237500I-1135923J0D01*
G01*
D11*
X155809642Y-115090571D02*
X155809642Y-113590571D01*
X156309642Y-113590571D02*
X156809642Y-115090571D01*
X157309642Y-113590571D01*
X159809642Y-114947714D02*
X159738214Y-115019142D01*
X159523928Y-115090571D01*
X159381071Y-115090571D01*
X159166785Y-115019142D01*
X159023928Y-114876285D01*
X158952500Y-114733428D01*
X158881071Y-114447714D01*
X158881071Y-114233428D01*
X158952500Y-113947714D01*
X159023928Y-113804857D01*
X159166785Y-113662000D01*
X159381071Y-113590571D01*
X159523928Y-113590571D01*
X159738214Y-113662000D01*
X159809642Y-113733428D01*
X161095357Y-114090571D02*
X161095357Y-115090571D01*
X160452500Y-114090571D02*
X160452500Y-114876285D01*
X160523928Y-115019142D01*
X160666785Y-115090571D01*
X160881071Y-115090571D01*
X161023928Y-115019142D01*
X161095357Y-114947714D01*
X161809642Y-115090571D02*
X161809642Y-114090571D01*
X161809642Y-114376285D02*
X161881071Y-114233428D01*
X161952500Y-114162000D01*
X162095357Y-114090571D01*
X162238214Y-114090571D01*
X162595357Y-114090571D02*
X162952500Y-115090571D01*
X163309642Y-114090571D01*
X164452500Y-115019142D02*
X164309642Y-115090571D01*
X164023928Y-115090571D01*
X163881071Y-115019142D01*
X163809642Y-114876285D01*
X163809642Y-114304857D01*
X163881071Y-114162000D01*
X164023928Y-114090571D01*
X164309642Y-114090571D01*
X164452500Y-114162000D01*
X164523928Y-114304857D01*
X164523928Y-114447714D01*
X163809642Y-114590571D01*
X166095357Y-113590571D02*
X166952500Y-113590571D01*
X166523928Y-115090571D02*
X166523928Y-113590571D01*
X167452500Y-115090571D02*
X167452500Y-114090571D01*
X167452500Y-114376285D02*
X167523928Y-114233428D01*
X167595357Y-114162000D01*
X167738214Y-114090571D01*
X167881071Y-114090571D01*
X169023928Y-115090571D02*
X169023928Y-114304857D01*
X168952500Y-114162000D01*
X168809642Y-114090571D01*
X168523928Y-114090571D01*
X168381071Y-114162000D01*
X169023928Y-115019142D02*
X168881071Y-115090571D01*
X168523928Y-115090571D01*
X168381071Y-115019142D01*
X168309642Y-114876285D01*
X168309642Y-114733428D01*
X168381071Y-114590571D01*
X168523928Y-114519142D01*
X168881071Y-114519142D01*
X169023928Y-114447714D01*
X170381071Y-115019142D02*
X170238214Y-115090571D01*
X169952500Y-115090571D01*
X169809642Y-115019142D01*
X169738214Y-114947714D01*
X169666785Y-114804857D01*
X169666785Y-114376285D01*
X169738214Y-114233428D01*
X169809642Y-114162000D01*
X169952500Y-114090571D01*
X170238214Y-114090571D01*
X170381071Y-114162000D01*
X171595357Y-115019142D02*
X171452500Y-115090571D01*
X171166785Y-115090571D01*
X171023928Y-115019142D01*
X170952500Y-114876285D01*
X170952500Y-114304857D01*
X171023928Y-114162000D01*
X171166785Y-114090571D01*
X171452500Y-114090571D01*
X171595357Y-114162000D01*
X171666785Y-114304857D01*
X171666785Y-114447714D01*
X170952500Y-114590571D01*
X172309642Y-115090571D02*
X172309642Y-114090571D01*
X172309642Y-114376285D02*
X172381071Y-114233428D01*
X172452500Y-114162000D01*
X172595357Y-114090571D01*
X172738214Y-114090571D01*
X174166785Y-114090571D02*
X174738214Y-114090571D01*
X174381071Y-115090571D02*
X174381071Y-113804857D01*
X174452500Y-113662000D01*
X174595357Y-113590571D01*
X174738214Y-113590571D01*
X175452500Y-115090571D02*
X175309642Y-115019142D01*
X175238214Y-114947714D01*
X175166785Y-114804857D01*
X175166785Y-114376285D01*
X175238214Y-114233428D01*
X175309642Y-114162000D01*
X175452500Y-114090571D01*
X175666785Y-114090571D01*
X175809642Y-114162000D01*
X175881071Y-114233428D01*
X175952500Y-114376285D01*
X175952500Y-114804857D01*
X175881071Y-114947714D01*
X175809642Y-115019142D01*
X175666785Y-115090571D01*
X175452500Y-115090571D01*
X176595357Y-115090571D02*
X176595357Y-114090571D01*
X176595357Y-114376285D02*
X176666785Y-114233428D01*
X176738214Y-114162000D01*
X176881071Y-114090571D01*
X177023928Y-114090571D01*
X178952500Y-113590571D02*
X179238214Y-113590571D01*
X179381071Y-113662000D01*
X179523928Y-113804857D01*
X179595357Y-114090571D01*
X179595357Y-114590571D01*
X179523928Y-114876285D01*
X179381071Y-115019142D01*
X179238214Y-115090571D01*
X178952500Y-115090571D01*
X178809642Y-115019142D01*
X178666785Y-114876285D01*
X178595357Y-114590571D01*
X178595357Y-114090571D01*
X178666785Y-113804857D01*
X178809642Y-113662000D01*
X178952500Y-113590571D01*
X180166785Y-115019142D02*
X180309642Y-115090571D01*
X180595357Y-115090571D01*
X180738214Y-115019142D01*
X180809642Y-114876285D01*
X180809642Y-114804857D01*
X180738214Y-114662000D01*
X180595357Y-114590571D01*
X180381071Y-114590571D01*
X180238214Y-114519142D01*
X180166785Y-114376285D01*
X180166785Y-114304857D01*
X180238214Y-114162000D01*
X180381071Y-114090571D01*
X180595357Y-114090571D01*
X180738214Y-114162000D01*
X181381071Y-115019142D02*
X181523928Y-115090571D01*
X181809642Y-115090571D01*
X181952500Y-115019142D01*
X182023928Y-114876285D01*
X182023928Y-114804857D01*
X181952500Y-114662000D01*
X181809642Y-114590571D01*
X181595357Y-114590571D01*
X181452500Y-114519142D01*
X181381071Y-114376285D01*
X181381071Y-114304857D01*
X181452500Y-114162000D01*
X181595357Y-114090571D01*
X181809642Y-114090571D01*
X181952500Y-114162000D01*
X182666785Y-115090571D02*
X182666785Y-114090571D01*
X182666785Y-113590571D02*
X182595357Y-113662000D01*
X182666785Y-113733428D01*
X182738214Y-113662000D01*
X182666785Y-113590571D01*
X182666785Y-113733428D01*
X183595357Y-115090571D02*
X183452500Y-115019142D01*
X183381071Y-114876285D01*
X183381071Y-113590571D01*
X184809642Y-115090571D02*
X184809642Y-114304857D01*
X184738214Y-114162000D01*
X184595357Y-114090571D01*
X184309642Y-114090571D01*
X184166785Y-114162000D01*
X184809642Y-115019142D02*
X184666785Y-115090571D01*
X184309642Y-115090571D01*
X184166785Y-115019142D01*
X184095357Y-114876285D01*
X184095357Y-114733428D01*
X184166785Y-114590571D01*
X184309642Y-114519142D01*
X184666785Y-114519142D01*
X184809642Y-114447714D01*
X186595357Y-114662000D02*
X187309642Y-114662000D01*
X186452500Y-115090571D02*
X186952500Y-113590571D01*
X187452500Y-115090571D01*
X187952500Y-115090571D02*
X187952500Y-113590571D01*
X188452500Y-114662000D01*
X188952500Y-113590571D01*
X188952500Y-115090571D01*
X190452500Y-115090571D02*
X189595357Y-115090571D01*
X190023928Y-115090571D02*
X190023928Y-113590571D01*
X189881071Y-113804857D01*
X189738214Y-113947714D01*
X189595357Y-114019142D01*
X191095357Y-114947714D02*
X191166785Y-115019142D01*
X191095357Y-115090571D01*
X191023928Y-115019142D01*
X191095357Y-114947714D01*
X191095357Y-115090571D01*
X192523928Y-113590571D02*
X191809642Y-113590571D01*
X191738214Y-114304857D01*
X191809642Y-114233428D01*
X191952500Y-114162000D01*
X192309642Y-114162000D01*
X192452500Y-114233428D01*
X192523928Y-114304857D01*
X192595357Y-114447714D01*
X192595357Y-114804857D01*
X192523928Y-114947714D01*
X192452500Y-115019142D01*
X192309642Y-115090571D01*
X191952500Y-115090571D01*
X191809642Y-115019142D01*
X191738214Y-114947714D01*
X194309642Y-115019142D02*
X194523928Y-115090571D01*
X194881071Y-115090571D01*
X195023928Y-115019142D01*
X195095357Y-114947714D01*
X195166785Y-114804857D01*
X195166785Y-114662000D01*
X195095357Y-114519142D01*
X195023928Y-114447714D01*
X194881071Y-114376285D01*
X194595357Y-114304857D01*
X194452500Y-114233428D01*
X194381071Y-114162000D01*
X194309642Y-114019142D01*
X194309642Y-113876285D01*
X194381071Y-113733428D01*
X194452500Y-113662000D01*
X194595357Y-113590571D01*
X194952500Y-113590571D01*
X195166785Y-113662000D01*
X196023928Y-115090571D02*
X195881071Y-115019142D01*
X195809642Y-114947714D01*
X195738214Y-114804857D01*
X195738214Y-114376285D01*
X195809642Y-114233428D01*
X195881071Y-114162000D01*
X196023928Y-114090571D01*
X196238214Y-114090571D01*
X196381071Y-114162000D01*
X196452500Y-114233428D01*
X196523928Y-114376285D01*
X196523928Y-114804857D01*
X196452500Y-114947714D01*
X196381071Y-115019142D01*
X196238214Y-115090571D01*
X196023928Y-115090571D01*
X197381071Y-115090571D02*
X197238214Y-115019142D01*
X197166785Y-114876285D01*
X197166785Y-113590571D01*
X198595357Y-115090571D02*
X198595357Y-114304857D01*
X198523928Y-114162000D01*
X198381071Y-114090571D01*
X198095357Y-114090571D01*
X197952500Y-114162000D01*
X198595357Y-115019142D02*
X198452500Y-115090571D01*
X198095357Y-115090571D01*
X197952500Y-115019142D01*
X197881071Y-114876285D01*
X197881071Y-114733428D01*
X197952500Y-114590571D01*
X198095357Y-114519142D01*
X198452500Y-114519142D01*
X198595357Y-114447714D01*
X199309642Y-115090571D02*
X199309642Y-114090571D01*
X199309642Y-114376285D02*
X199381071Y-114233428D01*
X199452500Y-114162000D01*
X199595357Y-114090571D01*
X199738214Y-114090571D01*
X201309642Y-115019142D02*
X201523928Y-115090571D01*
X201881071Y-115090571D01*
X202023928Y-115019142D01*
X202095357Y-114947714D01*
X202166785Y-114804857D01*
X202166785Y-114662000D01*
X202095357Y-114519142D01*
X202023928Y-114447714D01*
X201881071Y-114376285D01*
X201595357Y-114304857D01*
X201452499Y-114233428D01*
X201381071Y-114162000D01*
X201309642Y-114019142D01*
X201309642Y-113876285D01*
X201381071Y-113733428D01*
X201452499Y-113662000D01*
X201595357Y-113590571D01*
X201952499Y-113590571D01*
X202166785Y-113662000D01*
X202809642Y-115090571D02*
X202809642Y-114090571D01*
X202809642Y-113590571D02*
X202738214Y-113662000D01*
X202809642Y-113733428D01*
X202881071Y-113662000D01*
X202809642Y-113590571D01*
X202809642Y-113733428D01*
X203523928Y-115090571D02*
X203523928Y-114090571D01*
X203523928Y-114233428D02*
X203595357Y-114162000D01*
X203738214Y-114090571D01*
X203952499Y-114090571D01*
X204095357Y-114162000D01*
X204166785Y-114304857D01*
X204166785Y-115090571D01*
X204166785Y-114304857D02*
X204238214Y-114162000D01*
X204381071Y-114090571D01*
X204595357Y-114090571D01*
X204738214Y-114162000D01*
X204809642Y-114304857D01*
X204809642Y-115090571D01*
X206166785Y-114090571D02*
X206166785Y-115090571D01*
X205523928Y-114090571D02*
X205523928Y-114876285D01*
X205595357Y-115019142D01*
X205738214Y-115090571D01*
X205952499Y-115090571D01*
X206095357Y-115019142D01*
X206166785Y-114947714D01*
X207095357Y-115090571D02*
X206952499Y-115019142D01*
X206881071Y-114876285D01*
X206881071Y-113590571D01*
X208309642Y-115090571D02*
X208309642Y-114304857D01*
X208238214Y-114162000D01*
X208095357Y-114090571D01*
X207809642Y-114090571D01*
X207666785Y-114162000D01*
X208309642Y-115019142D02*
X208166785Y-115090571D01*
X207809642Y-115090571D01*
X207666785Y-115019142D01*
X207595357Y-114876285D01*
X207595357Y-114733428D01*
X207666785Y-114590571D01*
X207809642Y-114519142D01*
X208166785Y-114519142D01*
X208309642Y-114447714D01*
X208809642Y-114090571D02*
X209381071Y-114090571D01*
X209023928Y-113590571D02*
X209023928Y-114876285D01*
X209095357Y-115019142D01*
X209238214Y-115090571D01*
X209381071Y-115090571D01*
X210095357Y-115090571D02*
X209952499Y-115019142D01*
X209881071Y-114947714D01*
X209809642Y-114804857D01*
X209809642Y-114376285D01*
X209881071Y-114233428D01*
X209952499Y-114162000D01*
X210095357Y-114090571D01*
X210309642Y-114090571D01*
X210452499Y-114162000D01*
X210523928Y-114233428D01*
X210595357Y-114376285D01*
X210595357Y-114804857D01*
X210523928Y-114947714D01*
X210452499Y-115019142D01*
X210309642Y-115090571D01*
X210095357Y-115090571D01*
X211238214Y-115090571D02*
X211238214Y-114090571D01*
X211238214Y-114376285D02*
X211309642Y-114233428D01*
X211381071Y-114162000D01*
X211523928Y-114090571D01*
X211666785Y-114090571D01*
X155738214Y-117212000D02*
X156452500Y-117212000D01*
X155595357Y-117640571D02*
X156095357Y-116140571D01*
X156595357Y-117640571D01*
X157666785Y-117569142D02*
X157523928Y-117640571D01*
X157238214Y-117640571D01*
X157095357Y-117569142D01*
X157023928Y-117426285D01*
X157023928Y-116854857D01*
X157095357Y-116712000D01*
X157238214Y-116640571D01*
X157523928Y-116640571D01*
X157666785Y-116712000D01*
X157738214Y-116854857D01*
X157738214Y-116997714D01*
X157023928Y-117140571D01*
X158381071Y-117640571D02*
X158381071Y-116640571D01*
X158381071Y-116926285D02*
X158452500Y-116783428D01*
X158523928Y-116712000D01*
X158666785Y-116640571D01*
X158809642Y-116640571D01*
X159523928Y-117640571D02*
X159381071Y-117569142D01*
X159309642Y-117497714D01*
X159238214Y-117354857D01*
X159238214Y-116926285D01*
X159309642Y-116783428D01*
X159381071Y-116712000D01*
X159523928Y-116640571D01*
X159738214Y-116640571D01*
X159881071Y-116712000D01*
X159952500Y-116783428D01*
X160023928Y-116926285D01*
X160023928Y-117354857D01*
X159952500Y-117497714D01*
X159881071Y-117569142D01*
X159738214Y-117640571D01*
X159523928Y-117640571D01*
X160595357Y-117569142D02*
X160738214Y-117640571D01*
X161023928Y-117640571D01*
X161166785Y-117569142D01*
X161238214Y-117426285D01*
X161238214Y-117354857D01*
X161166785Y-117212000D01*
X161023928Y-117140571D01*
X160809642Y-117140571D01*
X160666785Y-117069142D01*
X160595357Y-116926285D01*
X160595357Y-116854857D01*
X160666785Y-116712000D01*
X160809642Y-116640571D01*
X161023928Y-116640571D01*
X161166785Y-116712000D01*
X161881071Y-116640571D02*
X161881071Y-118140571D01*
X161881071Y-116712000D02*
X162023928Y-116640571D01*
X162309642Y-116640571D01*
X162452500Y-116712000D01*
X162523928Y-116783428D01*
X162595357Y-116926285D01*
X162595357Y-117354857D01*
X162523928Y-117497714D01*
X162452500Y-117569142D01*
X162309642Y-117640571D01*
X162023928Y-117640571D01*
X161881071Y-117569142D01*
X163881071Y-117640571D02*
X163881071Y-116854857D01*
X163809642Y-116712000D01*
X163666785Y-116640571D01*
X163381071Y-116640571D01*
X163238214Y-116712000D01*
X163881071Y-117569142D02*
X163738214Y-117640571D01*
X163381071Y-117640571D01*
X163238214Y-117569142D01*
X163166785Y-117426285D01*
X163166785Y-117283428D01*
X163238214Y-117140571D01*
X163381071Y-117069142D01*
X163738214Y-117069142D01*
X163881071Y-116997714D01*
X165238214Y-117569142D02*
X165095357Y-117640571D01*
X164809642Y-117640571D01*
X164666785Y-117569142D01*
X164595357Y-117497714D01*
X164523928Y-117354857D01*
X164523928Y-116926285D01*
X164595357Y-116783428D01*
X164666785Y-116712000D01*
X164809642Y-116640571D01*
X165095357Y-116640571D01*
X165238214Y-116712000D01*
X166452500Y-117569142D02*
X166309642Y-117640571D01*
X166023928Y-117640571D01*
X165881071Y-117569142D01*
X165809642Y-117426285D01*
X165809642Y-116854857D01*
X165881071Y-116712000D01*
X166023928Y-116640571D01*
X166309642Y-116640571D01*
X166452500Y-116712000D01*
X166523928Y-116854857D01*
X166523928Y-116997714D01*
X165809642Y-117140571D01*
X168881071Y-117569142D02*
X168738214Y-117640571D01*
X168452500Y-117640571D01*
X168309642Y-117569142D01*
X168238214Y-117426285D01*
X168238214Y-116854857D01*
X168309642Y-116712000D01*
X168452500Y-116640571D01*
X168738214Y-116640571D01*
X168881071Y-116712000D01*
X168952500Y-116854857D01*
X168952500Y-116997714D01*
X168238214Y-117140571D01*
X169452500Y-116140571D02*
X170452500Y-117640571D01*
X170452500Y-116140571D02*
X169452500Y-117640571D01*
X171023928Y-116640571D02*
X171023928Y-118140571D01*
X171023928Y-116712000D02*
X171166785Y-116640571D01*
X171452500Y-116640571D01*
X171595357Y-116712000D01*
X171666785Y-116783428D01*
X171738214Y-116926285D01*
X171738214Y-117354857D01*
X171666785Y-117497714D01*
X171595357Y-117569142D01*
X171452500Y-117640571D01*
X171166785Y-117640571D01*
X171023928Y-117569142D01*
X172952500Y-117569142D02*
X172809642Y-117640571D01*
X172523928Y-117640571D01*
X172381071Y-117569142D01*
X172309642Y-117426285D01*
X172309642Y-116854857D01*
X172381071Y-116712000D01*
X172523928Y-116640571D01*
X172809642Y-116640571D01*
X172952500Y-116712000D01*
X173023928Y-116854857D01*
X173023928Y-116997714D01*
X172309642Y-117140571D01*
X173666785Y-117640571D02*
X173666785Y-116640571D01*
X173666785Y-116926285D02*
X173738214Y-116783428D01*
X173809642Y-116712000D01*
X173952500Y-116640571D01*
X174095357Y-116640571D01*
X174595357Y-117640571D02*
X174595357Y-116640571D01*
X174595357Y-116140571D02*
X174523928Y-116212000D01*
X174595357Y-116283428D01*
X174666785Y-116212000D01*
X174595357Y-116140571D01*
X174595357Y-116283428D01*
X175309642Y-117640571D02*
X175309642Y-116640571D01*
X175309642Y-116783428D02*
X175381071Y-116712000D01*
X175523928Y-116640571D01*
X175738214Y-116640571D01*
X175881071Y-116712000D01*
X175952500Y-116854857D01*
X175952500Y-117640571D01*
X175952500Y-116854857D02*
X176023928Y-116712000D01*
X176166785Y-116640571D01*
X176381071Y-116640571D01*
X176523928Y-116712000D01*
X176595357Y-116854857D01*
X176595357Y-117640571D01*
X177881071Y-117569142D02*
X177738214Y-117640571D01*
X177452500Y-117640571D01*
X177309642Y-117569142D01*
X177238214Y-117426285D01*
X177238214Y-116854857D01*
X177309642Y-116712000D01*
X177452500Y-116640571D01*
X177738214Y-116640571D01*
X177881071Y-116712000D01*
X177952500Y-116854857D01*
X177952500Y-116997714D01*
X177238214Y-117140571D01*
X178595357Y-116640571D02*
X178595357Y-117640571D01*
X178595357Y-116783428D02*
X178666785Y-116712000D01*
X178809642Y-116640571D01*
X179023928Y-116640571D01*
X179166785Y-116712000D01*
X179238214Y-116854857D01*
X179238214Y-117640571D01*
X179738214Y-116640571D02*
X180309642Y-116640571D01*
X179952500Y-116140571D02*
X179952500Y-117426285D01*
X180023928Y-117569142D01*
X180166785Y-117640571D01*
X180309642Y-117640571D01*
X181452500Y-117640571D02*
X181452500Y-116854857D01*
X181381071Y-116712000D01*
X181238214Y-116640571D01*
X180952500Y-116640571D01*
X180809642Y-116712000D01*
X181452500Y-117569142D02*
X181309642Y-117640571D01*
X180952500Y-117640571D01*
X180809642Y-117569142D01*
X180738214Y-117426285D01*
X180738214Y-117283428D01*
X180809642Y-117140571D01*
X180952500Y-117069142D01*
X181309642Y-117069142D01*
X181452500Y-116997714D01*
X182381071Y-117640571D02*
X182238214Y-117569142D01*
X182166785Y-117426285D01*
X182166785Y-116140571D01*
X184095357Y-117640571D02*
X184095357Y-116140571D01*
X184666785Y-116140571D01*
X184809642Y-116212000D01*
X184881071Y-116283428D01*
X184952500Y-116426285D01*
X184952500Y-116640571D01*
X184881071Y-116783428D01*
X184809642Y-116854857D01*
X184666785Y-116926285D01*
X184095357Y-116926285D01*
X186238214Y-117640571D02*
X186238214Y-116854857D01*
X186166785Y-116712000D01*
X186023928Y-116640571D01*
X185738214Y-116640571D01*
X185595357Y-116712000D01*
X186238214Y-117569142D02*
X186095357Y-117640571D01*
X185738214Y-117640571D01*
X185595357Y-117569142D01*
X185523928Y-117426285D01*
X185523928Y-117283428D01*
X185595357Y-117140571D01*
X185738214Y-117069142D01*
X186095357Y-117069142D01*
X186238214Y-116997714D01*
X186809642Y-116640571D02*
X187166785Y-117640571D01*
X187523928Y-116640571D02*
X187166785Y-117640571D01*
X187023928Y-117997714D01*
X186952500Y-118069142D01*
X186809642Y-118140571D01*
X188309642Y-117640571D02*
X188166785Y-117569142D01*
X188095357Y-117426285D01*
X188095357Y-116140571D01*
X189095357Y-117640571D02*
X188952500Y-117569142D01*
X188881071Y-117497714D01*
X188809642Y-117354857D01*
X188809642Y-116926285D01*
X188881071Y-116783428D01*
X188952500Y-116712000D01*
X189095357Y-116640571D01*
X189309642Y-116640571D01*
X189452500Y-116712000D01*
X189523928Y-116783428D01*
X189595357Y-116926285D01*
X189595357Y-117354857D01*
X189523928Y-117497714D01*
X189452500Y-117569142D01*
X189309642Y-117640571D01*
X189095357Y-117640571D01*
X190881071Y-117640571D02*
X190881071Y-116854857D01*
X190809642Y-116712000D01*
X190666785Y-116640571D01*
X190381071Y-116640571D01*
X190238214Y-116712000D01*
X190881071Y-117569142D02*
X190738214Y-117640571D01*
X190381071Y-117640571D01*
X190238214Y-117569142D01*
X190166785Y-117426285D01*
X190166785Y-117283428D01*
X190238214Y-117140571D01*
X190381071Y-117069142D01*
X190738214Y-117069142D01*
X190881071Y-116997714D01*
X192238214Y-117640571D02*
X192238214Y-116140571D01*
X192238214Y-117569142D02*
X192095357Y-117640571D01*
X191809642Y-117640571D01*
X191666785Y-117569142D01*
X191595357Y-117497714D01*
X191523928Y-117354857D01*
X191523928Y-116926285D01*
X191595357Y-116783428D01*
X191666785Y-116712000D01*
X191809642Y-116640571D01*
X192095357Y-116640571D01*
X192238214Y-116712000D01*
X192881071Y-117569142D02*
X193023928Y-117640571D01*
X193309642Y-117640571D01*
X193452500Y-117569142D01*
X193523928Y-117426285D01*
X193523928Y-117354857D01*
X193452500Y-117212000D01*
X193309642Y-117140571D01*
X193095357Y-117140571D01*
X192952500Y-117069142D01*
X192881071Y-116926285D01*
X192881071Y-116854857D01*
X192952500Y-116712000D01*
X193095357Y-116640571D01*
X193309642Y-116640571D01*
X193452500Y-116712000D01*
X155809642Y-118690571D02*
X155809642Y-119904857D01*
X155881071Y-120047714D01*
X155952500Y-120119142D01*
X156095357Y-120190571D01*
X156381071Y-120190571D01*
X156523928Y-120119142D01*
X156595357Y-120047714D01*
X156666785Y-119904857D01*
X156666785Y-118690571D01*
X157381071Y-120190571D02*
X157381071Y-118690571D01*
X158238214Y-120190571D01*
X158238214Y-118690571D01*
X159666785Y-120190571D02*
X158952500Y-120190571D01*
X158952500Y-118690571D01*
X161238214Y-119762000D02*
X161952500Y-119762000D01*
X161095357Y-120190571D02*
X161595357Y-118690571D01*
X162095357Y-120190571D01*
X163166785Y-120119142D02*
X163023928Y-120190571D01*
X162738214Y-120190571D01*
X162595357Y-120119142D01*
X162523928Y-119976285D01*
X162523928Y-119404857D01*
X162595357Y-119262000D01*
X162738214Y-119190571D01*
X163023928Y-119190571D01*
X163166785Y-119262000D01*
X163238214Y-119404857D01*
X163238214Y-119547714D01*
X162523928Y-119690571D01*
X163881071Y-120190571D02*
X163881071Y-119190571D01*
X163881071Y-119476285D02*
X163952500Y-119333428D01*
X164023928Y-119262000D01*
X164166785Y-119190571D01*
X164309642Y-119190571D01*
X165023928Y-120190571D02*
X164881071Y-120119142D01*
X164809642Y-120047714D01*
X164738214Y-119904857D01*
X164738214Y-119476285D01*
X164809642Y-119333428D01*
X164881071Y-119262000D01*
X165023928Y-119190571D01*
X165238214Y-119190571D01*
X165381071Y-119262000D01*
X165452500Y-119333428D01*
X165523928Y-119476285D01*
X165523928Y-119904857D01*
X165452500Y-120047714D01*
X165381071Y-120119142D01*
X165238214Y-120190571D01*
X165023928Y-120190571D01*
X166095357Y-120119142D02*
X166238214Y-120190571D01*
X166523928Y-120190571D01*
X166666785Y-120119142D01*
X166738214Y-119976285D01*
X166738214Y-119904857D01*
X166666785Y-119762000D01*
X166523928Y-119690571D01*
X166309642Y-119690571D01*
X166166785Y-119619142D01*
X166095357Y-119476285D01*
X166095357Y-119404857D01*
X166166785Y-119262000D01*
X166309642Y-119190571D01*
X166523928Y-119190571D01*
X166666785Y-119262000D01*
X167381071Y-119190571D02*
X167381071Y-120690571D01*
X167381071Y-119262000D02*
X167523928Y-119190571D01*
X167809642Y-119190571D01*
X167952500Y-119262000D01*
X168023928Y-119333428D01*
X168095357Y-119476285D01*
X168095357Y-119904857D01*
X168023928Y-120047714D01*
X167952500Y-120119142D01*
X167809642Y-120190571D01*
X167523928Y-120190571D01*
X167381071Y-120119142D01*
X169381071Y-120190571D02*
X169381071Y-119404857D01*
X169309642Y-119262000D01*
X169166785Y-119190571D01*
X168881071Y-119190571D01*
X168738214Y-119262000D01*
X169381071Y-120119142D02*
X169238214Y-120190571D01*
X168881071Y-120190571D01*
X168738214Y-120119142D01*
X168666785Y-119976285D01*
X168666785Y-119833428D01*
X168738214Y-119690571D01*
X168881071Y-119619142D01*
X169238214Y-119619142D01*
X169381071Y-119547714D01*
X170738214Y-120119142D02*
X170595357Y-120190571D01*
X170309642Y-120190571D01*
X170166785Y-120119142D01*
X170095357Y-120047714D01*
X170023928Y-119904857D01*
X170023928Y-119476285D01*
X170095357Y-119333428D01*
X170166785Y-119262000D01*
X170309642Y-119190571D01*
X170595357Y-119190571D01*
X170738214Y-119262000D01*
X171952500Y-120119142D02*
X171809642Y-120190571D01*
X171523928Y-120190571D01*
X171381071Y-120119142D01*
X171309642Y-119976285D01*
X171309642Y-119404857D01*
X171381071Y-119262000D01*
X171523928Y-119190571D01*
X171809642Y-119190571D01*
X171952500Y-119262000D01*
X172023928Y-119404857D01*
X172023928Y-119547714D01*
X171309642Y-119690571D01*
X174666785Y-120047714D02*
X174595357Y-120119142D01*
X174381071Y-120190571D01*
X174238214Y-120190571D01*
X174023928Y-120119142D01*
X173881071Y-119976285D01*
X173809642Y-119833428D01*
X173738214Y-119547714D01*
X173738214Y-119333428D01*
X173809642Y-119047714D01*
X173881071Y-118904857D01*
X174023928Y-118762000D01*
X174238214Y-118690571D01*
X174381071Y-118690571D01*
X174595357Y-118762000D01*
X174666785Y-118833428D01*
X175523928Y-120190571D02*
X175381071Y-120119142D01*
X175309642Y-119976285D01*
X175309642Y-118690571D01*
X176738214Y-119190571D02*
X176738214Y-120190571D01*
X176095357Y-119190571D02*
X176095357Y-119976285D01*
X176166785Y-120119142D01*
X176309642Y-120190571D01*
X176523928Y-120190571D01*
X176666785Y-120119142D01*
X176738214Y-120047714D01*
X177452500Y-120190571D02*
X177452500Y-118690571D01*
X177452500Y-119262000D02*
X177595357Y-119190571D01*
X177881071Y-119190571D01*
X178023928Y-119262000D01*
X178095357Y-119333428D01*
X178166785Y-119476285D01*
X178166785Y-119904857D01*
X178095357Y-120047714D01*
X178023928Y-120119142D01*
X177881071Y-120190571D01*
X177595357Y-120190571D01*
X177452500Y-120119142D01*
X156666785Y-122597714D02*
X156595357Y-122669142D01*
X156381071Y-122740571D01*
X156238214Y-122740571D01*
X156023928Y-122669142D01*
X155881071Y-122526285D01*
X155809642Y-122383428D01*
X155738214Y-122097714D01*
X155738214Y-121883428D01*
X155809642Y-121597714D01*
X155881071Y-121454857D01*
X156023928Y-121312000D01*
X156238214Y-121240571D01*
X156381071Y-121240571D01*
X156595357Y-121312000D01*
X156666785Y-121383428D01*
X157523928Y-122740571D02*
X157381071Y-122669142D01*
X157309642Y-122597714D01*
X157238214Y-122454857D01*
X157238214Y-122026285D01*
X157309642Y-121883428D01*
X157381071Y-121812000D01*
X157523928Y-121740571D01*
X157738214Y-121740571D01*
X157881071Y-121812000D01*
X157952500Y-121883428D01*
X158023928Y-122026285D01*
X158023928Y-122454857D01*
X157952500Y-122597714D01*
X157881071Y-122669142D01*
X157738214Y-122740571D01*
X157523928Y-122740571D01*
X158666785Y-121740571D02*
X158666785Y-123240571D01*
X158666785Y-121812000D02*
X158809642Y-121740571D01*
X159095357Y-121740571D01*
X159238214Y-121812000D01*
X159309642Y-121883428D01*
X159381071Y-122026285D01*
X159381071Y-122454857D01*
X159309642Y-122597714D01*
X159238214Y-122669142D01*
X159095357Y-122740571D01*
X158809642Y-122740571D01*
X158666785Y-122669142D01*
X159881071Y-121740571D02*
X160238214Y-122740571D01*
X160595357Y-121740571D02*
X160238214Y-122740571D01*
X160095357Y-123097714D01*
X160023928Y-123169142D01*
X159881071Y-123240571D01*
X161166785Y-122740571D02*
X161166785Y-121740571D01*
X161166785Y-122026285D02*
X161238214Y-121883428D01*
X161309642Y-121812000D01*
X161452500Y-121740571D01*
X161595357Y-121740571D01*
X162095357Y-122740571D02*
X162095357Y-121740571D01*
X162095357Y-121240571D02*
X162023928Y-121312000D01*
X162095357Y-121383428D01*
X162166785Y-121312000D01*
X162095357Y-121240571D01*
X162095357Y-121383428D01*
X163452500Y-121740571D02*
X163452500Y-122954857D01*
X163381071Y-123097714D01*
X163309642Y-123169142D01*
X163166785Y-123240571D01*
X162952500Y-123240571D01*
X162809642Y-123169142D01*
X163452500Y-122669142D02*
X163309642Y-122740571D01*
X163023928Y-122740571D01*
X162881071Y-122669142D01*
X162809642Y-122597714D01*
X162738214Y-122454857D01*
X162738214Y-122026285D01*
X162809642Y-121883428D01*
X162881071Y-121812000D01*
X163023928Y-121740571D01*
X163309642Y-121740571D01*
X163452500Y-121812000D01*
X164166785Y-122740571D02*
X164166785Y-121240571D01*
X164809642Y-122740571D02*
X164809642Y-121954857D01*
X164738214Y-121812000D01*
X164595357Y-121740571D01*
X164381071Y-121740571D01*
X164238214Y-121812000D01*
X164166785Y-121883428D01*
X165309642Y-121740571D02*
X165881071Y-121740571D01*
X165523928Y-121240571D02*
X165523928Y-122526285D01*
X165595357Y-122669142D01*
X165738214Y-122740571D01*
X165881071Y-122740571D01*
X169309642Y-122669142D02*
X169166785Y-122740571D01*
X168881071Y-122740571D01*
X168738214Y-122669142D01*
X168666785Y-122597714D01*
X168595357Y-122454857D01*
X168595357Y-122026285D01*
X168666785Y-121883428D01*
X168738214Y-121812000D01*
X168881071Y-121740571D01*
X169166785Y-121740571D01*
X169309642Y-121812000D01*
X172166785Y-121383428D02*
X172238214Y-121312000D01*
X172381071Y-121240571D01*
X172738214Y-121240571D01*
X172881071Y-121312000D01*
X172952500Y-121383428D01*
X173023928Y-121526285D01*
X173023928Y-121669142D01*
X172952500Y-121883428D01*
X172095357Y-122740571D01*
X173023928Y-122740571D01*
X173952500Y-121240571D02*
X174095357Y-121240571D01*
X174238214Y-121312000D01*
X174309642Y-121383428D01*
X174381071Y-121526285D01*
X174452500Y-121812000D01*
X174452500Y-122169142D01*
X174381071Y-122454857D01*
X174309642Y-122597714D01*
X174238214Y-122669142D01*
X174095357Y-122740571D01*
X173952500Y-122740571D01*
X173809642Y-122669142D01*
X173738214Y-122597714D01*
X173666785Y-122454857D01*
X173595357Y-122169142D01*
X173595357Y-121812000D01*
X173666785Y-121526285D01*
X173738214Y-121383428D01*
X173809642Y-121312000D01*
X173952500Y-121240571D01*
X175023928Y-121383428D02*
X175095357Y-121312000D01*
X175238214Y-121240571D01*
X175595357Y-121240571D01*
X175738214Y-121312000D01*
X175809642Y-121383428D01*
X175881071Y-121526285D01*
X175881071Y-121669142D01*
X175809642Y-121883428D01*
X174952500Y-122740571D01*
X175881071Y-122740571D01*
X176381071Y-121240571D02*
X177309642Y-121240571D01*
X176809642Y-121812000D01*
X177023928Y-121812000D01*
X177166785Y-121883428D01*
X177238214Y-121954857D01*
X177309642Y-122097714D01*
X177309642Y-122454857D01*
X177238214Y-122597714D01*
X177166785Y-122669142D01*
X177023928Y-122740571D01*
X176595357Y-122740571D01*
X176452500Y-122669142D01*
X176381071Y-122597714D01*
D12*
%TO.C,R35*%
X96282742Y-124030000D02*
X96757258Y-124030000D01*
X96282742Y-122985000D02*
X96757258Y-122985000D01*
%TO.C,R34*%
X96282742Y-121490000D02*
X96757258Y-121490000D01*
X96282742Y-120445000D02*
X96757258Y-120445000D01*
%TO.C,R33*%
X96757258Y-112825000D02*
X96282742Y-112825000D01*
X96757258Y-113870000D02*
X96282742Y-113870000D01*
%TO.C,U13*%
X130264500Y-52260500D02*
X130264500Y-54460500D01*
X130264500Y-52260500D02*
X130264500Y-50060500D01*
X135734500Y-52260500D02*
X135734500Y-54460500D01*
X135734500Y-52260500D02*
X135734500Y-48660500D01*
%TO.C,U12*%
X120389500Y-52260500D02*
X120389500Y-55860500D01*
X120389500Y-52260500D02*
X120389500Y-50060500D01*
X125609500Y-52260500D02*
X125609500Y-54460500D01*
X125609500Y-52260500D02*
X125609500Y-50060500D01*
%TO.C,U11*%
X115734500Y-52260500D02*
X115734500Y-48660500D01*
X115734500Y-52260500D02*
X115734500Y-54460500D01*
X110264500Y-52260500D02*
X110264500Y-50060500D01*
X110264500Y-52260500D02*
X110264500Y-54460500D01*
%TO.C,R32*%
X199849000Y-72119258D02*
X199849000Y-71644742D01*
X198804000Y-72119258D02*
X198804000Y-71644742D01*
%TO.C,R31*%
X195150000Y-72119258D02*
X195150000Y-71644742D01*
X194105000Y-72119258D02*
X194105000Y-71644742D01*
%TO.C,R30*%
X190641500Y-72119258D02*
X190641500Y-71644742D01*
X189596500Y-72119258D02*
X189596500Y-71644742D01*
%TO.C,R29*%
X186069500Y-72119258D02*
X186069500Y-71644742D01*
X185024500Y-72119258D02*
X185024500Y-71644742D01*
%TO.C,R27*%
X176862000Y-72119258D02*
X176862000Y-71644742D01*
X175817000Y-72119258D02*
X175817000Y-71644742D01*
%TO.C,C12*%
X117413500Y-52401080D02*
X117413500Y-52119920D01*
X116393500Y-52401080D02*
X116393500Y-52119920D01*
%TO.C,R8*%
X180516000Y-72119258D02*
X180516000Y-71644742D01*
X181561000Y-72119258D02*
X181561000Y-71644742D01*
%TO.C,C10*%
X136586500Y-52401080D02*
X136586500Y-52119920D01*
X137606500Y-52401080D02*
X137606500Y-52119920D01*
%TO.C,U2*%
X165306100Y-45556600D02*
X165306100Y-47356600D01*
X168526100Y-47356600D02*
X168526100Y-44906600D01*
%TO.C,U23*%
X143462500Y-73564000D02*
X145462500Y-73564000D01*
X144462500Y-76804000D02*
X147462500Y-76804000D01*
D13*
%TO.C,TP17*%
X147735700Y-82992800D02*
X144135700Y-82992800D01*
X144135700Y-82992800D02*
X143635700Y-82492800D01*
X143635700Y-82492800D02*
X143635700Y-81692800D01*
X143635700Y-81692800D02*
X144135700Y-81192800D01*
X144135700Y-81192800D02*
X147735700Y-81192800D01*
X147735700Y-81192800D02*
X148235700Y-81692800D01*
X148235700Y-81692800D02*
X148235700Y-82492800D01*
X148235700Y-82492800D02*
X147735700Y-82992800D01*
%TO.C,TP16*%
X141595700Y-81192800D02*
X145195700Y-81192800D01*
X145195700Y-81192800D02*
X145695700Y-81692800D01*
X145695700Y-81692800D02*
X145695700Y-82492800D01*
X145695700Y-82492800D02*
X145195700Y-82992800D01*
X145195700Y-82992800D02*
X141595700Y-82992800D01*
X141595700Y-82992800D02*
X141095700Y-82492800D01*
X141095700Y-82492800D02*
X141095700Y-81692800D01*
X141095700Y-81692800D02*
X141595700Y-81192800D01*
D12*
%TO.C,R28*%
X141082500Y-69261758D02*
X141082500Y-68787242D01*
X142127500Y-69261758D02*
X142127500Y-68787242D01*
%TO.C,R20*%
X139177500Y-76564258D02*
X139177500Y-76089742D01*
X140222500Y-76564258D02*
X140222500Y-76089742D01*
%TO.C,R18*%
X139213358Y-79072000D02*
X138738842Y-79072000D01*
X139213358Y-78027000D02*
X138738842Y-78027000D01*
%TO.C,C30*%
X137729500Y-76467580D02*
X137729500Y-76186420D01*
X138749500Y-76467580D02*
X138749500Y-76186420D01*
%TO.C,C28*%
X139116680Y-80520000D02*
X138835520Y-80520000D01*
X139116680Y-79500000D02*
X138835520Y-79500000D01*
D14*
%TO.C,U28*%
X113487200Y-140004800D02*
X115493800Y-140004800D01*
X115493800Y-136855200D02*
X113487200Y-136855200D01*
D12*
%TO.C,U27*%
X154000200Y-80530700D02*
X154000200Y-83312000D01*
X157149800Y-82537300D02*
X157149800Y-80530700D01*
D13*
%TO.C,TP15*%
X117643500Y-136577500D02*
X121243500Y-136577500D01*
X121243500Y-136577500D02*
X121743500Y-137077500D01*
X121743500Y-137077500D02*
X121743500Y-137877500D01*
X121743500Y-137877500D02*
X121243500Y-138377500D01*
X121243500Y-138377500D02*
X117643500Y-138377500D01*
X117643500Y-138377500D02*
X117143500Y-137877500D01*
X117143500Y-137877500D02*
X117143500Y-137077500D01*
X117143500Y-137077500D02*
X117643500Y-136577500D01*
D12*
%TO.C,J17*%
X122043500Y-141982500D02*
X122043500Y-139322500D01*
X121983500Y-141982500D02*
X122043500Y-141982500D01*
X121983500Y-139322500D02*
X122043500Y-139322500D01*
X121983500Y-141982500D02*
X121983500Y-139322500D01*
X120713500Y-141982500D02*
X119383500Y-141982500D01*
X119383500Y-141982500D02*
X119383500Y-140652500D01*
%TO.C,C51*%
X114631080Y-141670500D02*
X114349920Y-141670500D01*
X114631080Y-140650500D02*
X114349920Y-140650500D01*
%TO.C,U22*%
X155243000Y-70993000D02*
X155243000Y-73723500D01*
X158447000Y-72898000D02*
X158447000Y-70993000D01*
%TO.C,U21*%
X134213600Y-64033400D02*
X134213600Y-65633600D01*
X136677400Y-65633600D02*
X136677400Y-64033400D01*
%TO.C,U20*%
X130657600Y-64033400D02*
X130657600Y-65633600D01*
X133121400Y-65633600D02*
X133121400Y-64033400D01*
%TO.C,U19*%
X127101600Y-64033400D02*
X127101600Y-65633600D01*
X129565400Y-65633600D02*
X129565400Y-64033400D01*
%TO.C,U18*%
X123545600Y-64033400D02*
X123545600Y-65633600D01*
X126009400Y-65633600D02*
X126009400Y-64033400D01*
%TO.C,U17*%
X119989600Y-64033400D02*
X119989600Y-65633600D01*
X122453400Y-65633600D02*
X122453400Y-64033400D01*
%TO.C,U16*%
X116433600Y-64033400D02*
X116433600Y-65633600D01*
X118897400Y-65633600D02*
X118897400Y-64033400D01*
%TO.C,U15*%
X112877600Y-64033400D02*
X112877600Y-65633600D01*
X115341400Y-65633600D02*
X115341400Y-64033400D01*
%TO.C,U14*%
X109321600Y-64033400D02*
X109321600Y-65633600D01*
X111785400Y-65633600D02*
X111785400Y-64033400D01*
%TO.C,U10*%
X199212200Y-67246500D02*
X199212200Y-68846700D01*
X201676000Y-68846700D02*
X201676000Y-66535300D01*
%TO.C,U9*%
X194640200Y-67246500D02*
X194640200Y-68846700D01*
X197104000Y-68846700D02*
X197104000Y-66535300D01*
%TO.C,U8*%
X190068200Y-67246500D02*
X190068200Y-68846700D01*
X192532000Y-68846700D02*
X192532000Y-66535300D01*
%TO.C,U7*%
X180924200Y-67246500D02*
X180924200Y-68846700D01*
X183388000Y-68846700D02*
X183388000Y-66535300D01*
%TO.C,U6*%
X185496200Y-67246500D02*
X185496200Y-68846700D01*
X187960000Y-68846700D02*
X187960000Y-66535300D01*
%TO.C,U5*%
X176352200Y-67246500D02*
X176352200Y-68846700D01*
X178816000Y-68846700D02*
X178816000Y-66535300D01*
%TO.C,U4*%
X184937400Y-47040800D02*
X177342800Y-47040800D01*
X177342800Y-62636400D02*
X184937400Y-62636400D01*
D15*
G36*
X187325000Y-50584100D02*
G01*
X187325000Y-50203100D01*
X187071000Y-50203100D01*
X187071000Y-50584100D01*
X187325000Y-50584100D01*
G37*
X187325000Y-50584100D02*
X187325000Y-50203100D01*
X187071000Y-50203100D01*
X187071000Y-50584100D01*
X187325000Y-50584100D01*
G36*
X174955200Y-56934100D02*
G01*
X174955200Y-56553100D01*
X175209200Y-56553100D01*
X175209200Y-56934100D01*
X174955200Y-56934100D01*
G37*
X174955200Y-56934100D02*
X174955200Y-56553100D01*
X175209200Y-56553100D01*
X175209200Y-56934100D01*
X174955200Y-56934100D01*
D12*
X180835300Y-62636400D02*
G75*
G02*
X181444900Y-62636400I304800J0D01*
G01*
%TO.C,U3*%
X168005403Y-49834800D02*
X165826797Y-49834800D01*
X165826797Y-59842400D02*
X168005403Y-59842400D01*
D15*
G36*
X162953700Y-51854100D02*
G01*
X162953700Y-51473100D01*
X163207700Y-51473100D01*
X163207700Y-51854100D01*
X162953700Y-51854100D01*
G37*
X162953700Y-51854100D02*
X162953700Y-51473100D01*
X163207700Y-51473100D01*
X163207700Y-51854100D01*
X162953700Y-51854100D01*
D12*
X166611300Y-59842400D02*
G75*
G02*
X167220900Y-59842400I304800J0D01*
G01*
D13*
%TO.C,TP5*%
X156632500Y-76316000D02*
X160232500Y-76316000D01*
X160232500Y-76316000D02*
X160732500Y-76816000D01*
X160732500Y-76816000D02*
X160732500Y-77616000D01*
X160732500Y-77616000D02*
X160232500Y-78116000D01*
X160232500Y-78116000D02*
X156632500Y-78116000D01*
X156632500Y-78116000D02*
X156132500Y-77616000D01*
X156132500Y-77616000D02*
X156132500Y-76816000D01*
X156132500Y-76816000D02*
X156632500Y-76316000D01*
%TO.C,TP4*%
X157692500Y-78116000D02*
X154092500Y-78116000D01*
X154092500Y-78116000D02*
X153592500Y-77616000D01*
X153592500Y-77616000D02*
X153592500Y-76816000D01*
X153592500Y-76816000D02*
X154092500Y-76316000D01*
X154092500Y-76316000D02*
X157692500Y-76316000D01*
X157692500Y-76316000D02*
X158192500Y-76816000D01*
X158192500Y-76816000D02*
X158192500Y-77616000D01*
X158192500Y-77616000D02*
X157692500Y-78116000D01*
D12*
%TO.C,TP3*%
X137735000Y-72196000D02*
X140395000Y-72196000D01*
X137735000Y-72136000D02*
X137735000Y-72196000D01*
X140395000Y-72136000D02*
X140395000Y-72196000D01*
X137735000Y-72136000D02*
X140395000Y-72136000D01*
X137735000Y-70866000D02*
X137735000Y-69536000D01*
X137735000Y-69536000D02*
X139065000Y-69536000D01*
%TO.C,TP2*%
X142815000Y-72196000D02*
X145475000Y-72196000D01*
X142815000Y-72136000D02*
X142815000Y-72196000D01*
X145475000Y-72136000D02*
X145475000Y-72196000D01*
X142815000Y-72136000D02*
X145475000Y-72136000D01*
X142815000Y-70866000D02*
X142815000Y-69536000D01*
X142815000Y-69536000D02*
X144145000Y-69536000D01*
D13*
%TO.C,TP1*%
X163598000Y-69099000D02*
X159998000Y-69099000D01*
X159998000Y-69099000D02*
X159498000Y-68599000D01*
X159498000Y-68599000D02*
X159498000Y-67799000D01*
X159498000Y-67799000D02*
X159998000Y-67299000D01*
X159998000Y-67299000D02*
X163598000Y-67299000D01*
X163598000Y-67299000D02*
X164098000Y-67799000D01*
X164098000Y-67799000D02*
X164098000Y-68599000D01*
X164098000Y-68599000D02*
X163598000Y-69099000D01*
D12*
%TO.C,R26*%
X148766000Y-72309758D02*
X148766000Y-71835242D01*
X149811000Y-72309758D02*
X149811000Y-71835242D01*
%TO.C,R25*%
X148766000Y-69261758D02*
X148766000Y-68787242D01*
X149811000Y-69261758D02*
X149811000Y-68787242D01*
%TO.C,R24*%
X146162500Y-71103258D02*
X146162500Y-70628742D01*
X147207500Y-71103258D02*
X147207500Y-70628742D01*
%TO.C,R23*%
X155482936Y-67289000D02*
X156937064Y-67289000D01*
X155482936Y-69109000D02*
X156937064Y-69109000D01*
%TO.C,R22*%
X148702500Y-76564258D02*
X148702500Y-76089742D01*
X149747500Y-76564258D02*
X149747500Y-76089742D01*
%TO.C,R21*%
X160704000Y-71674258D02*
X160704000Y-71199742D01*
X161749000Y-71674258D02*
X161749000Y-71199742D01*
%TO.C,R19*%
X150186158Y-79084700D02*
X149711642Y-79084700D01*
X150186158Y-78039700D02*
X149711642Y-78039700D01*
%TO.C,R17*%
X163686258Y-74182500D02*
X163211742Y-74182500D01*
X163686258Y-73137500D02*
X163211742Y-73137500D01*
%TO.C,R16*%
X135365258Y-68721500D02*
X134890742Y-68721500D01*
X135365258Y-67676500D02*
X134890742Y-67676500D01*
%TO.C,R15*%
X131809258Y-68721500D02*
X131334742Y-68721500D01*
X131809258Y-67676500D02*
X131334742Y-67676500D01*
%TO.C,R14*%
X128253258Y-68721500D02*
X127778742Y-68721500D01*
X128253258Y-67676500D02*
X127778742Y-67676500D01*
%TO.C,R13*%
X124697258Y-68721500D02*
X124222742Y-68721500D01*
X124697258Y-67676500D02*
X124222742Y-67676500D01*
%TO.C,R12*%
X121141258Y-68721500D02*
X120666742Y-68721500D01*
X121141258Y-67676500D02*
X120666742Y-67676500D01*
%TO.C,R11*%
X117585258Y-68721500D02*
X117110742Y-68721500D01*
X117585258Y-67676500D02*
X117110742Y-67676500D01*
%TO.C,R10*%
X114029258Y-68721500D02*
X113554742Y-68721500D01*
X114029258Y-67676500D02*
X113554742Y-67676500D01*
%TO.C,R9*%
X110473258Y-68721500D02*
X109998742Y-68721500D01*
X110473258Y-67676500D02*
X109998742Y-67676500D01*
%TO.C,R6*%
X150478258Y-116346500D02*
X150003742Y-116346500D01*
X150478258Y-115301500D02*
X150003742Y-115301500D01*
%TO.C,R5*%
X150478258Y-118886500D02*
X150003742Y-118886500D01*
X150478258Y-117841500D02*
X150003742Y-117841500D01*
%TO.C,R4*%
X150003742Y-120381500D02*
X150478258Y-120381500D01*
X150003742Y-121426500D02*
X150478258Y-121426500D01*
%TO.C,R2*%
X96757258Y-118886500D02*
X96282742Y-118886500D01*
X96757258Y-117841500D02*
X96282742Y-117841500D01*
%TO.C,R1*%
X96757258Y-116346500D02*
X96282742Y-116346500D01*
X96757258Y-115301500D02*
X96282742Y-115301500D01*
%TO.C,J7*%
X196218500Y-79302300D02*
X196218500Y-81962300D01*
X201358500Y-79302300D02*
X196218500Y-79302300D01*
X201358500Y-81962300D02*
X196218500Y-81962300D01*
X201358500Y-79302300D02*
X201358500Y-81962300D01*
X202628500Y-79302300D02*
X203958500Y-79302300D01*
X203958500Y-79302300D02*
X203958500Y-80632300D01*
%TO.C,J6*%
X196218500Y-83747300D02*
X196218500Y-86407300D01*
X201358500Y-83747300D02*
X196218500Y-83747300D01*
X201358500Y-86407300D02*
X196218500Y-86407300D01*
X201358500Y-83747300D02*
X201358500Y-86407300D01*
X202628500Y-83747300D02*
X203958500Y-83747300D01*
X203958500Y-83747300D02*
X203958500Y-85077300D01*
%TO.C,J5*%
X196218500Y-88192300D02*
X196218500Y-90852300D01*
X201358500Y-88192300D02*
X196218500Y-88192300D01*
X201358500Y-90852300D02*
X196218500Y-90852300D01*
X201358500Y-88192300D02*
X201358500Y-90852300D01*
X202628500Y-88192300D02*
X203958500Y-88192300D01*
X203958500Y-88192300D02*
X203958500Y-89522300D01*
%TO.C,J4*%
X205336000Y-104831500D02*
X207996000Y-104831500D01*
X205336000Y-81911500D02*
X205336000Y-104831500D01*
X207996000Y-81911500D02*
X207996000Y-104831500D01*
X205336000Y-81911500D02*
X207996000Y-81911500D01*
X205336000Y-80641500D02*
X205336000Y-79311500D01*
X205336000Y-79311500D02*
X206666000Y-79311500D01*
%TO.C,J3*%
X163836000Y-104831500D02*
X166496000Y-104831500D01*
X163836000Y-81911500D02*
X163836000Y-104831500D01*
X166496000Y-81911500D02*
X166496000Y-104831500D01*
X163836000Y-81911500D02*
X166496000Y-81911500D01*
X163836000Y-80641500D02*
X163836000Y-79311500D01*
X163836000Y-79311500D02*
X165166000Y-79311500D01*
%TO.C,J2*%
X145388200Y-124828600D02*
X148048200Y-124828600D01*
X145388200Y-101908600D02*
X145388200Y-124828600D01*
X148048200Y-101908600D02*
X148048200Y-124828600D01*
X145388200Y-101908600D02*
X148048200Y-101908600D01*
X145388200Y-100638600D02*
X145388200Y-99308600D01*
X145388200Y-99308600D02*
X146718200Y-99308600D01*
%TO.C,J1*%
X98888200Y-124828600D02*
X101548200Y-124828600D01*
X98888200Y-101908600D02*
X98888200Y-124828600D01*
X101548200Y-101908600D02*
X101548200Y-124828600D01*
X98888200Y-101908600D02*
X101548200Y-101908600D01*
X98888200Y-100638600D02*
X98888200Y-99308600D01*
X98888200Y-99308600D02*
X100218200Y-99308600D01*
%TO.C,FB1*%
X96357221Y-100074000D02*
X96682779Y-100074000D01*
X96357221Y-101094000D02*
X96682779Y-101094000D01*
%TO.C,C33*%
X157847420Y-74610500D02*
X158128580Y-74610500D01*
X157847420Y-75630500D02*
X158128580Y-75630500D01*
%TO.C,C32*%
X150175500Y-76467580D02*
X150175500Y-76186420D01*
X151195500Y-76467580D02*
X151195500Y-76186420D01*
%TO.C,C31*%
X162177000Y-71578080D02*
X162177000Y-71296920D01*
X163197000Y-71578080D02*
X163197000Y-71296920D01*
%TO.C,C29*%
X150089480Y-80545400D02*
X149808320Y-80545400D01*
X150089480Y-79525400D02*
X149808320Y-79525400D01*
%TO.C,C27*%
X163589580Y-75630500D02*
X163308420Y-75630500D01*
X163589580Y-74610500D02*
X163308420Y-74610500D01*
%TO.C,C26*%
X144321920Y-77341000D02*
X144603080Y-77341000D01*
X144321920Y-78361000D02*
X144603080Y-78361000D01*
%TO.C,C25*%
X158625000Y-81393420D02*
X158625000Y-81674580D01*
X157605000Y-81393420D02*
X157605000Y-81674580D01*
%TO.C,C24*%
X153668000Y-72086080D02*
X153668000Y-71804920D01*
X154688000Y-72086080D02*
X154688000Y-71804920D01*
%TO.C,C23*%
X134300500Y-61418080D02*
X134300500Y-61136920D01*
X135320500Y-61418080D02*
X135320500Y-61136920D01*
%TO.C,C22*%
X130744500Y-61418080D02*
X130744500Y-61136920D01*
X131764500Y-61418080D02*
X131764500Y-61136920D01*
%TO.C,C21*%
X127188500Y-61405080D02*
X127188500Y-61123920D01*
X128208500Y-61405080D02*
X128208500Y-61123920D01*
%TO.C,C20*%
X123632500Y-61405080D02*
X123632500Y-61123920D01*
X124652500Y-61405080D02*
X124652500Y-61123920D01*
%TO.C,C19*%
X120076500Y-61405080D02*
X120076500Y-61123920D01*
X121096500Y-61405080D02*
X121096500Y-61123920D01*
%TO.C,C18*%
X116520500Y-61405080D02*
X116520500Y-61123920D01*
X117540500Y-61405080D02*
X117540500Y-61123920D01*
%TO.C,C17*%
X112964500Y-61405080D02*
X112964500Y-61123920D01*
X113984500Y-61405080D02*
X113984500Y-61123920D01*
%TO.C,C16*%
X109408500Y-61405080D02*
X109408500Y-61123920D01*
X110428500Y-61405080D02*
X110428500Y-61123920D01*
%TO.C,C15*%
X119699500Y-52119920D02*
X119699500Y-52401080D01*
X118679500Y-52119920D02*
X118679500Y-52401080D01*
%TO.C,C14*%
X206182500Y-77420080D02*
X206182500Y-77138920D01*
X207202500Y-77420080D02*
X207202500Y-77138920D01*
%TO.C,C13*%
X174500000Y-62597420D02*
X174500000Y-62878580D01*
X173480000Y-62597420D02*
X173480000Y-62878580D01*
%TO.C,C11*%
X166775520Y-60805600D02*
X167056680Y-60805600D01*
X166775520Y-61825600D02*
X167056680Y-61825600D01*
%TO.C,C9*%
X169200100Y-46597180D02*
X169200100Y-46316020D01*
X170220100Y-46597180D02*
X170220100Y-46316020D01*
%TO.C,C6*%
X179491100Y-71716020D02*
X179491100Y-71997180D01*
X178471100Y-71716020D02*
X178471100Y-71997180D01*
%TO.C,C5*%
X183936100Y-71716020D02*
X183936100Y-71997180D01*
X182916100Y-71716020D02*
X182916100Y-71997180D01*
%TO.C,C4*%
X188508100Y-71716020D02*
X188508100Y-71997180D01*
X187488100Y-71716020D02*
X187488100Y-71997180D01*
%TO.C,C3*%
X193080100Y-71716020D02*
X193080100Y-71997180D01*
X192060100Y-71716020D02*
X192060100Y-71997180D01*
%TO.C,C2*%
X197779100Y-71716020D02*
X197779100Y-71997180D01*
X196759100Y-71716020D02*
X196759100Y-71997180D01*
%TO.C,C1*%
X202351100Y-71716020D02*
X202351100Y-71997180D01*
X201331100Y-71716020D02*
X201331100Y-71997180D01*
%TO.C,R35*%
D15*
X94968190Y-123828928D02*
X94730095Y-123995595D01*
X94968190Y-124114642D02*
X94468190Y-124114642D01*
X94468190Y-123924166D01*
X94492000Y-123876547D01*
X94515809Y-123852738D01*
X94563428Y-123828928D01*
X94634857Y-123828928D01*
X94682476Y-123852738D01*
X94706285Y-123876547D01*
X94730095Y-123924166D01*
X94730095Y-124114642D01*
X94468190Y-123662261D02*
X94468190Y-123352738D01*
X94658666Y-123519404D01*
X94658666Y-123447976D01*
X94682476Y-123400357D01*
X94706285Y-123376547D01*
X94753904Y-123352738D01*
X94872952Y-123352738D01*
X94920571Y-123376547D01*
X94944380Y-123400357D01*
X94968190Y-123447976D01*
X94968190Y-123590833D01*
X94944380Y-123638452D01*
X94920571Y-123662261D01*
X94468190Y-122900357D02*
X94468190Y-123138452D01*
X94706285Y-123162261D01*
X94682476Y-123138452D01*
X94658666Y-123090833D01*
X94658666Y-122971785D01*
X94682476Y-122924166D01*
X94706285Y-122900357D01*
X94753904Y-122876547D01*
X94872952Y-122876547D01*
X94920571Y-122900357D01*
X94944380Y-122924166D01*
X94968190Y-122971785D01*
X94968190Y-123090833D01*
X94944380Y-123138452D01*
X94920571Y-123162261D01*
%TO.C,R34*%
X94968190Y-121318928D02*
X94730095Y-121485595D01*
X94968190Y-121604642D02*
X94468190Y-121604642D01*
X94468190Y-121414166D01*
X94492000Y-121366547D01*
X94515809Y-121342738D01*
X94563428Y-121318928D01*
X94634857Y-121318928D01*
X94682476Y-121342738D01*
X94706285Y-121366547D01*
X94730095Y-121414166D01*
X94730095Y-121604642D01*
X94468190Y-121152261D02*
X94468190Y-120842738D01*
X94658666Y-121009404D01*
X94658666Y-120937976D01*
X94682476Y-120890357D01*
X94706285Y-120866547D01*
X94753904Y-120842738D01*
X94872952Y-120842738D01*
X94920571Y-120866547D01*
X94944380Y-120890357D01*
X94968190Y-120937976D01*
X94968190Y-121080833D01*
X94944380Y-121128452D01*
X94920571Y-121152261D01*
X94634857Y-120414166D02*
X94968190Y-120414166D01*
X94444380Y-120533214D02*
X94801523Y-120652261D01*
X94801523Y-120342738D01*
%TO.C,R33*%
X94904690Y-113668928D02*
X94666595Y-113835595D01*
X94904690Y-113954642D02*
X94404690Y-113954642D01*
X94404690Y-113764166D01*
X94428500Y-113716547D01*
X94452309Y-113692738D01*
X94499928Y-113668928D01*
X94571357Y-113668928D01*
X94618976Y-113692738D01*
X94642785Y-113716547D01*
X94666595Y-113764166D01*
X94666595Y-113954642D01*
X94404690Y-113502261D02*
X94404690Y-113192738D01*
X94595166Y-113359404D01*
X94595166Y-113287976D01*
X94618976Y-113240357D01*
X94642785Y-113216547D01*
X94690404Y-113192738D01*
X94809452Y-113192738D01*
X94857071Y-113216547D01*
X94880880Y-113240357D01*
X94904690Y-113287976D01*
X94904690Y-113430833D01*
X94880880Y-113478452D01*
X94857071Y-113502261D01*
X94404690Y-113026071D02*
X94404690Y-112716547D01*
X94595166Y-112883214D01*
X94595166Y-112811785D01*
X94618976Y-112764166D01*
X94642785Y-112740357D01*
X94690404Y-112716547D01*
X94809452Y-112716547D01*
X94857071Y-112740357D01*
X94880880Y-112764166D01*
X94904690Y-112811785D01*
X94904690Y-112954642D01*
X94880880Y-113002261D01*
X94857071Y-113026071D01*
%TO.C,U13*%
X129520190Y-52879547D02*
X129924952Y-52879547D01*
X129972571Y-52855738D01*
X129996380Y-52831928D01*
X130020190Y-52784309D01*
X130020190Y-52689071D01*
X129996380Y-52641452D01*
X129972571Y-52617642D01*
X129924952Y-52593833D01*
X129520190Y-52593833D01*
X130020190Y-52093833D02*
X130020190Y-52379547D01*
X130020190Y-52236690D02*
X129520190Y-52236690D01*
X129591619Y-52284309D01*
X129639238Y-52331928D01*
X129663047Y-52379547D01*
X129520190Y-51927166D02*
X129520190Y-51617642D01*
X129710666Y-51784309D01*
X129710666Y-51712880D01*
X129734476Y-51665261D01*
X129758285Y-51641452D01*
X129805904Y-51617642D01*
X129924952Y-51617642D01*
X129972571Y-51641452D01*
X129996380Y-51665261D01*
X130020190Y-51712880D01*
X130020190Y-51855738D01*
X129996380Y-51903357D01*
X129972571Y-51927166D01*
%TO.C,U12*%
X125837190Y-52879547D02*
X126241952Y-52879547D01*
X126289571Y-52855738D01*
X126313380Y-52831928D01*
X126337190Y-52784309D01*
X126337190Y-52689071D01*
X126313380Y-52641452D01*
X126289571Y-52617642D01*
X126241952Y-52593833D01*
X125837190Y-52593833D01*
X126337190Y-52093833D02*
X126337190Y-52379547D01*
X126337190Y-52236690D02*
X125837190Y-52236690D01*
X125908619Y-52284309D01*
X125956238Y-52331928D01*
X125980047Y-52379547D01*
X125884809Y-51903357D02*
X125861000Y-51879547D01*
X125837190Y-51831928D01*
X125837190Y-51712880D01*
X125861000Y-51665261D01*
X125884809Y-51641452D01*
X125932428Y-51617642D01*
X125980047Y-51617642D01*
X126051476Y-51641452D01*
X126337190Y-51927166D01*
X126337190Y-51617642D01*
%TO.C,U11*%
X109581190Y-52879547D02*
X109985952Y-52879547D01*
X110033571Y-52855738D01*
X110057380Y-52831928D01*
X110081190Y-52784309D01*
X110081190Y-52689071D01*
X110057380Y-52641452D01*
X110033571Y-52617642D01*
X109985952Y-52593833D01*
X109581190Y-52593833D01*
X110081190Y-52093833D02*
X110081190Y-52379547D01*
X110081190Y-52236690D02*
X109581190Y-52236690D01*
X109652619Y-52284309D01*
X109700238Y-52331928D01*
X109724047Y-52379547D01*
X110081190Y-51617642D02*
X110081190Y-51903357D01*
X110081190Y-51760500D02*
X109581190Y-51760500D01*
X109652619Y-51808119D01*
X109700238Y-51855738D01*
X109724047Y-51903357D01*
%TO.C,R32*%
X198536690Y-72203428D02*
X198298595Y-72370095D01*
X198536690Y-72489142D02*
X198036690Y-72489142D01*
X198036690Y-72298666D01*
X198060500Y-72251047D01*
X198084309Y-72227238D01*
X198131928Y-72203428D01*
X198203357Y-72203428D01*
X198250976Y-72227238D01*
X198274785Y-72251047D01*
X198298595Y-72298666D01*
X198298595Y-72489142D01*
X198036690Y-72036761D02*
X198036690Y-71727238D01*
X198227166Y-71893904D01*
X198227166Y-71822476D01*
X198250976Y-71774857D01*
X198274785Y-71751047D01*
X198322404Y-71727238D01*
X198441452Y-71727238D01*
X198489071Y-71751047D01*
X198512880Y-71774857D01*
X198536690Y-71822476D01*
X198536690Y-71965333D01*
X198512880Y-72012952D01*
X198489071Y-72036761D01*
X198084309Y-71536761D02*
X198060500Y-71512952D01*
X198036690Y-71465333D01*
X198036690Y-71346285D01*
X198060500Y-71298666D01*
X198084309Y-71274857D01*
X198131928Y-71251047D01*
X198179547Y-71251047D01*
X198250976Y-71274857D01*
X198536690Y-71560571D01*
X198536690Y-71251047D01*
%TO.C,R31*%
X193837690Y-72203428D02*
X193599595Y-72370095D01*
X193837690Y-72489142D02*
X193337690Y-72489142D01*
X193337690Y-72298666D01*
X193361500Y-72251047D01*
X193385309Y-72227238D01*
X193432928Y-72203428D01*
X193504357Y-72203428D01*
X193551976Y-72227238D01*
X193575785Y-72251047D01*
X193599595Y-72298666D01*
X193599595Y-72489142D01*
X193337690Y-72036761D02*
X193337690Y-71727238D01*
X193528166Y-71893904D01*
X193528166Y-71822476D01*
X193551976Y-71774857D01*
X193575785Y-71751047D01*
X193623404Y-71727238D01*
X193742452Y-71727238D01*
X193790071Y-71751047D01*
X193813880Y-71774857D01*
X193837690Y-71822476D01*
X193837690Y-71965333D01*
X193813880Y-72012952D01*
X193790071Y-72036761D01*
X193837690Y-71251047D02*
X193837690Y-71536761D01*
X193837690Y-71393904D02*
X193337690Y-71393904D01*
X193409119Y-71441523D01*
X193456738Y-71489142D01*
X193480547Y-71536761D01*
%TO.C,R30*%
X189329190Y-72203428D02*
X189091095Y-72370095D01*
X189329190Y-72489142D02*
X188829190Y-72489142D01*
X188829190Y-72298666D01*
X188853000Y-72251047D01*
X188876809Y-72227238D01*
X188924428Y-72203428D01*
X188995857Y-72203428D01*
X189043476Y-72227238D01*
X189067285Y-72251047D01*
X189091095Y-72298666D01*
X189091095Y-72489142D01*
X188829190Y-72036761D02*
X188829190Y-71727238D01*
X189019666Y-71893904D01*
X189019666Y-71822476D01*
X189043476Y-71774857D01*
X189067285Y-71751047D01*
X189114904Y-71727238D01*
X189233952Y-71727238D01*
X189281571Y-71751047D01*
X189305380Y-71774857D01*
X189329190Y-71822476D01*
X189329190Y-71965333D01*
X189305380Y-72012952D01*
X189281571Y-72036761D01*
X188829190Y-71417714D02*
X188829190Y-71370095D01*
X188853000Y-71322476D01*
X188876809Y-71298666D01*
X188924428Y-71274857D01*
X189019666Y-71251047D01*
X189138714Y-71251047D01*
X189233952Y-71274857D01*
X189281571Y-71298666D01*
X189305380Y-71322476D01*
X189329190Y-71370095D01*
X189329190Y-71417714D01*
X189305380Y-71465333D01*
X189281571Y-71489142D01*
X189233952Y-71512952D01*
X189138714Y-71536761D01*
X189019666Y-71536761D01*
X188924428Y-71512952D01*
X188876809Y-71489142D01*
X188853000Y-71465333D01*
X188829190Y-71417714D01*
%TO.C,R29*%
X184757190Y-72203428D02*
X184519095Y-72370095D01*
X184757190Y-72489142D02*
X184257190Y-72489142D01*
X184257190Y-72298666D01*
X184281000Y-72251047D01*
X184304809Y-72227238D01*
X184352428Y-72203428D01*
X184423857Y-72203428D01*
X184471476Y-72227238D01*
X184495285Y-72251047D01*
X184519095Y-72298666D01*
X184519095Y-72489142D01*
X184304809Y-72012952D02*
X184281000Y-71989142D01*
X184257190Y-71941523D01*
X184257190Y-71822476D01*
X184281000Y-71774857D01*
X184304809Y-71751047D01*
X184352428Y-71727238D01*
X184400047Y-71727238D01*
X184471476Y-71751047D01*
X184757190Y-72036761D01*
X184757190Y-71727238D01*
X184757190Y-71489142D02*
X184757190Y-71393904D01*
X184733380Y-71346285D01*
X184709571Y-71322476D01*
X184638142Y-71274857D01*
X184542904Y-71251047D01*
X184352428Y-71251047D01*
X184304809Y-71274857D01*
X184281000Y-71298666D01*
X184257190Y-71346285D01*
X184257190Y-71441523D01*
X184281000Y-71489142D01*
X184304809Y-71512952D01*
X184352428Y-71536761D01*
X184471476Y-71536761D01*
X184519095Y-71512952D01*
X184542904Y-71489142D01*
X184566714Y-71441523D01*
X184566714Y-71346285D01*
X184542904Y-71298666D01*
X184519095Y-71274857D01*
X184471476Y-71251047D01*
%TO.C,R27*%
X175422690Y-72203428D02*
X175184595Y-72370095D01*
X175422690Y-72489142D02*
X174922690Y-72489142D01*
X174922690Y-72298666D01*
X174946500Y-72251047D01*
X174970309Y-72227238D01*
X175017928Y-72203428D01*
X175089357Y-72203428D01*
X175136976Y-72227238D01*
X175160785Y-72251047D01*
X175184595Y-72298666D01*
X175184595Y-72489142D01*
X174970309Y-72012952D02*
X174946500Y-71989142D01*
X174922690Y-71941523D01*
X174922690Y-71822476D01*
X174946500Y-71774857D01*
X174970309Y-71751047D01*
X175017928Y-71727238D01*
X175065547Y-71727238D01*
X175136976Y-71751047D01*
X175422690Y-72036761D01*
X175422690Y-71727238D01*
X174922690Y-71560571D02*
X174922690Y-71227238D01*
X175422690Y-71441523D01*
%TO.C,C12*%
X116582071Y-50597571D02*
X116558261Y-50621380D01*
X116486833Y-50645190D01*
X116439214Y-50645190D01*
X116367785Y-50621380D01*
X116320166Y-50573761D01*
X116296357Y-50526142D01*
X116272547Y-50430904D01*
X116272547Y-50359476D01*
X116296357Y-50264238D01*
X116320166Y-50216619D01*
X116367785Y-50169000D01*
X116439214Y-50145190D01*
X116486833Y-50145190D01*
X116558261Y-50169000D01*
X116582071Y-50192809D01*
X117058261Y-50645190D02*
X116772547Y-50645190D01*
X116915404Y-50645190D02*
X116915404Y-50145190D01*
X116867785Y-50216619D01*
X116820166Y-50264238D01*
X116772547Y-50288047D01*
X117248738Y-50192809D02*
X117272547Y-50169000D01*
X117320166Y-50145190D01*
X117439214Y-50145190D01*
X117486833Y-50169000D01*
X117510642Y-50192809D01*
X117534452Y-50240428D01*
X117534452Y-50288047D01*
X117510642Y-50359476D01*
X117224928Y-50645190D01*
X117534452Y-50645190D01*
%TO.C,R8*%
X180248690Y-71965333D02*
X180010595Y-72132000D01*
X180248690Y-72251047D02*
X179748690Y-72251047D01*
X179748690Y-72060571D01*
X179772500Y-72012952D01*
X179796309Y-71989142D01*
X179843928Y-71965333D01*
X179915357Y-71965333D01*
X179962976Y-71989142D01*
X179986785Y-72012952D01*
X180010595Y-72060571D01*
X180010595Y-72251047D01*
X179962976Y-71679619D02*
X179939166Y-71727238D01*
X179915357Y-71751047D01*
X179867738Y-71774857D01*
X179843928Y-71774857D01*
X179796309Y-71751047D01*
X179772500Y-71727238D01*
X179748690Y-71679619D01*
X179748690Y-71584380D01*
X179772500Y-71536761D01*
X179796309Y-71512952D01*
X179843928Y-71489142D01*
X179867738Y-71489142D01*
X179915357Y-71512952D01*
X179939166Y-71536761D01*
X179962976Y-71584380D01*
X179962976Y-71679619D01*
X179986785Y-71727238D01*
X180010595Y-71751047D01*
X180058214Y-71774857D01*
X180153452Y-71774857D01*
X180201071Y-71751047D01*
X180224880Y-71727238D01*
X180248690Y-71679619D01*
X180248690Y-71584380D01*
X180224880Y-71536761D01*
X180201071Y-71512952D01*
X180153452Y-71489142D01*
X180058214Y-71489142D01*
X180010595Y-71512952D01*
X179986785Y-71536761D01*
X179962976Y-71584380D01*
%TO.C,C10*%
X136775071Y-54280571D02*
X136751261Y-54304380D01*
X136679833Y-54328190D01*
X136632214Y-54328190D01*
X136560785Y-54304380D01*
X136513166Y-54256761D01*
X136489357Y-54209142D01*
X136465547Y-54113904D01*
X136465547Y-54042476D01*
X136489357Y-53947238D01*
X136513166Y-53899619D01*
X136560785Y-53852000D01*
X136632214Y-53828190D01*
X136679833Y-53828190D01*
X136751261Y-53852000D01*
X136775071Y-53875809D01*
X137251261Y-54328190D02*
X136965547Y-54328190D01*
X137108404Y-54328190D02*
X137108404Y-53828190D01*
X137060785Y-53899619D01*
X137013166Y-53947238D01*
X136965547Y-53971047D01*
X137560785Y-53828190D02*
X137608404Y-53828190D01*
X137656023Y-53852000D01*
X137679833Y-53875809D01*
X137703642Y-53923428D01*
X137727452Y-54018666D01*
X137727452Y-54137714D01*
X137703642Y-54232952D01*
X137679833Y-54280571D01*
X137656023Y-54304380D01*
X137608404Y-54328190D01*
X137560785Y-54328190D01*
X137513166Y-54304380D01*
X137489357Y-54280571D01*
X137465547Y-54232952D01*
X137441738Y-54137714D01*
X137441738Y-54018666D01*
X137465547Y-53923428D01*
X137489357Y-53875809D01*
X137513166Y-53852000D01*
X137560785Y-53828190D01*
%TO.C,U2*%
X164356290Y-46837552D02*
X164761052Y-46837552D01*
X164808671Y-46813742D01*
X164832480Y-46789933D01*
X164856290Y-46742314D01*
X164856290Y-46647076D01*
X164832480Y-46599457D01*
X164808671Y-46575647D01*
X164761052Y-46551838D01*
X164356290Y-46551838D01*
X164403909Y-46337552D02*
X164380100Y-46313742D01*
X164356290Y-46266123D01*
X164356290Y-46147076D01*
X164380100Y-46099457D01*
X164403909Y-46075647D01*
X164451528Y-46051838D01*
X164499147Y-46051838D01*
X164570576Y-46075647D01*
X164856290Y-46361361D01*
X164856290Y-46051838D01*
%TO.C,U23*%
X143843452Y-72687690D02*
X143843452Y-73092452D01*
X143867261Y-73140071D01*
X143891071Y-73163880D01*
X143938690Y-73187690D01*
X144033928Y-73187690D01*
X144081547Y-73163880D01*
X144105357Y-73140071D01*
X144129166Y-73092452D01*
X144129166Y-72687690D01*
X144343452Y-72735309D02*
X144367261Y-72711500D01*
X144414880Y-72687690D01*
X144533928Y-72687690D01*
X144581547Y-72711500D01*
X144605357Y-72735309D01*
X144629166Y-72782928D01*
X144629166Y-72830547D01*
X144605357Y-72901976D01*
X144319642Y-73187690D01*
X144629166Y-73187690D01*
X144795833Y-72687690D02*
X145105357Y-72687690D01*
X144938690Y-72878166D01*
X145010119Y-72878166D01*
X145057738Y-72901976D01*
X145081547Y-72925785D01*
X145105357Y-72973404D01*
X145105357Y-73092452D01*
X145081547Y-73140071D01*
X145057738Y-73163880D01*
X145010119Y-73187690D01*
X144867261Y-73187690D01*
X144819642Y-73163880D01*
X144795833Y-73140071D01*
%TO.C,TP17*%
X145066652Y-83368390D02*
X145352366Y-83368390D01*
X145209509Y-83868390D02*
X145209509Y-83368390D01*
X145519033Y-83868390D02*
X145519033Y-83368390D01*
X145709509Y-83368390D01*
X145757128Y-83392200D01*
X145780938Y-83416009D01*
X145804747Y-83463628D01*
X145804747Y-83535057D01*
X145780938Y-83582676D01*
X145757128Y-83606485D01*
X145709509Y-83630295D01*
X145519033Y-83630295D01*
X146280938Y-83868390D02*
X145995223Y-83868390D01*
X146138080Y-83868390D02*
X146138080Y-83368390D01*
X146090461Y-83439819D01*
X146042842Y-83487438D01*
X145995223Y-83511247D01*
X146447604Y-83368390D02*
X146780938Y-83368390D01*
X146566652Y-83868390D01*
%TO.C,TP16*%
X142556652Y-83368390D02*
X142842366Y-83368390D01*
X142699509Y-83868390D02*
X142699509Y-83368390D01*
X143009033Y-83868390D02*
X143009033Y-83368390D01*
X143199509Y-83368390D01*
X143247128Y-83392200D01*
X143270938Y-83416009D01*
X143294747Y-83463628D01*
X143294747Y-83535057D01*
X143270938Y-83582676D01*
X143247128Y-83606485D01*
X143199509Y-83630295D01*
X143009033Y-83630295D01*
X143770938Y-83868390D02*
X143485223Y-83868390D01*
X143628080Y-83868390D02*
X143628080Y-83368390D01*
X143580461Y-83439819D01*
X143532842Y-83487438D01*
X143485223Y-83511247D01*
X144199509Y-83368390D02*
X144104271Y-83368390D01*
X144056652Y-83392200D01*
X144032842Y-83416009D01*
X143985223Y-83487438D01*
X143961414Y-83582676D01*
X143961414Y-83773152D01*
X143985223Y-83820771D01*
X144009033Y-83844580D01*
X144056652Y-83868390D01*
X144151890Y-83868390D01*
X144199509Y-83844580D01*
X144223319Y-83820771D01*
X144247128Y-83773152D01*
X144247128Y-83654104D01*
X144223319Y-83606485D01*
X144199509Y-83582676D01*
X144151890Y-83558866D01*
X144056652Y-83558866D01*
X144009033Y-83582676D01*
X143985223Y-83606485D01*
X143961414Y-83654104D01*
%TO.C,R28*%
X141283571Y-71092190D02*
X141116904Y-70854095D01*
X140997857Y-71092190D02*
X140997857Y-70592190D01*
X141188333Y-70592190D01*
X141235952Y-70616000D01*
X141259761Y-70639809D01*
X141283571Y-70687428D01*
X141283571Y-70758857D01*
X141259761Y-70806476D01*
X141235952Y-70830285D01*
X141188333Y-70854095D01*
X140997857Y-70854095D01*
X141474047Y-70639809D02*
X141497857Y-70616000D01*
X141545476Y-70592190D01*
X141664523Y-70592190D01*
X141712142Y-70616000D01*
X141735952Y-70639809D01*
X141759761Y-70687428D01*
X141759761Y-70735047D01*
X141735952Y-70806476D01*
X141450238Y-71092190D01*
X141759761Y-71092190D01*
X142045476Y-70806476D02*
X141997857Y-70782666D01*
X141974047Y-70758857D01*
X141950238Y-70711238D01*
X141950238Y-70687428D01*
X141974047Y-70639809D01*
X141997857Y-70616000D01*
X142045476Y-70592190D01*
X142140714Y-70592190D01*
X142188333Y-70616000D01*
X142212142Y-70639809D01*
X142235952Y-70687428D01*
X142235952Y-70711238D01*
X142212142Y-70758857D01*
X142188333Y-70782666D01*
X142140714Y-70806476D01*
X142045476Y-70806476D01*
X141997857Y-70830285D01*
X141974047Y-70854095D01*
X141950238Y-70901714D01*
X141950238Y-70996952D01*
X141974047Y-71044571D01*
X141997857Y-71068380D01*
X142045476Y-71092190D01*
X142140714Y-71092190D01*
X142188333Y-71068380D01*
X142212142Y-71044571D01*
X142235952Y-70996952D01*
X142235952Y-70901714D01*
X142212142Y-70854095D01*
X142188333Y-70830285D01*
X142140714Y-70806476D01*
%TO.C,R20*%
X139378571Y-74648190D02*
X139211904Y-74410095D01*
X139092857Y-74648190D02*
X139092857Y-74148190D01*
X139283333Y-74148190D01*
X139330952Y-74172000D01*
X139354761Y-74195809D01*
X139378571Y-74243428D01*
X139378571Y-74314857D01*
X139354761Y-74362476D01*
X139330952Y-74386285D01*
X139283333Y-74410095D01*
X139092857Y-74410095D01*
X139569047Y-74195809D02*
X139592857Y-74172000D01*
X139640476Y-74148190D01*
X139759523Y-74148190D01*
X139807142Y-74172000D01*
X139830952Y-74195809D01*
X139854761Y-74243428D01*
X139854761Y-74291047D01*
X139830952Y-74362476D01*
X139545238Y-74648190D01*
X139854761Y-74648190D01*
X140164285Y-74148190D02*
X140211904Y-74148190D01*
X140259523Y-74172000D01*
X140283333Y-74195809D01*
X140307142Y-74243428D01*
X140330952Y-74338666D01*
X140330952Y-74457714D01*
X140307142Y-74552952D01*
X140283333Y-74600571D01*
X140259523Y-74624380D01*
X140211904Y-74648190D01*
X140164285Y-74648190D01*
X140116666Y-74624380D01*
X140092857Y-74600571D01*
X140069047Y-74552952D01*
X140045238Y-74457714D01*
X140045238Y-74338666D01*
X140069047Y-74243428D01*
X140092857Y-74195809D01*
X140116666Y-74172000D01*
X140164285Y-74148190D01*
%TO.C,R18*%
X141107290Y-78870928D02*
X140869195Y-79037595D01*
X141107290Y-79156642D02*
X140607290Y-79156642D01*
X140607290Y-78966166D01*
X140631100Y-78918547D01*
X140654909Y-78894738D01*
X140702528Y-78870928D01*
X140773957Y-78870928D01*
X140821576Y-78894738D01*
X140845385Y-78918547D01*
X140869195Y-78966166D01*
X140869195Y-79156642D01*
X141107290Y-78394738D02*
X141107290Y-78680452D01*
X141107290Y-78537595D02*
X140607290Y-78537595D01*
X140678719Y-78585214D01*
X140726338Y-78632833D01*
X140750147Y-78680452D01*
X140821576Y-78109023D02*
X140797766Y-78156642D01*
X140773957Y-78180452D01*
X140726338Y-78204261D01*
X140702528Y-78204261D01*
X140654909Y-78180452D01*
X140631100Y-78156642D01*
X140607290Y-78109023D01*
X140607290Y-78013785D01*
X140631100Y-77966166D01*
X140654909Y-77942357D01*
X140702528Y-77918547D01*
X140726338Y-77918547D01*
X140773957Y-77942357D01*
X140797766Y-77966166D01*
X140821576Y-78013785D01*
X140821576Y-78109023D01*
X140845385Y-78156642D01*
X140869195Y-78180452D01*
X140916814Y-78204261D01*
X141012052Y-78204261D01*
X141059671Y-78180452D01*
X141083480Y-78156642D01*
X141107290Y-78109023D01*
X141107290Y-78013785D01*
X141083480Y-77966166D01*
X141059671Y-77942357D01*
X141012052Y-77918547D01*
X140916814Y-77918547D01*
X140869195Y-77942357D01*
X140845385Y-77966166D01*
X140821576Y-78013785D01*
%TO.C,C30*%
X137854571Y-74600571D02*
X137830761Y-74624380D01*
X137759333Y-74648190D01*
X137711714Y-74648190D01*
X137640285Y-74624380D01*
X137592666Y-74576761D01*
X137568857Y-74529142D01*
X137545047Y-74433904D01*
X137545047Y-74362476D01*
X137568857Y-74267238D01*
X137592666Y-74219619D01*
X137640285Y-74172000D01*
X137711714Y-74148190D01*
X137759333Y-74148190D01*
X137830761Y-74172000D01*
X137854571Y-74195809D01*
X138021238Y-74148190D02*
X138330761Y-74148190D01*
X138164095Y-74338666D01*
X138235523Y-74338666D01*
X138283142Y-74362476D01*
X138306952Y-74386285D01*
X138330761Y-74433904D01*
X138330761Y-74552952D01*
X138306952Y-74600571D01*
X138283142Y-74624380D01*
X138235523Y-74648190D01*
X138092666Y-74648190D01*
X138045047Y-74624380D01*
X138021238Y-74600571D01*
X138640285Y-74148190D02*
X138687904Y-74148190D01*
X138735523Y-74172000D01*
X138759333Y-74195809D01*
X138783142Y-74243428D01*
X138806952Y-74338666D01*
X138806952Y-74457714D01*
X138783142Y-74552952D01*
X138759333Y-74600571D01*
X138735523Y-74624380D01*
X138687904Y-74648190D01*
X138640285Y-74648190D01*
X138592666Y-74624380D01*
X138568857Y-74600571D01*
X138545047Y-74552952D01*
X138521238Y-74457714D01*
X138521238Y-74338666D01*
X138545047Y-74243428D01*
X138568857Y-74195809D01*
X138592666Y-74172000D01*
X138640285Y-74148190D01*
%TO.C,C28*%
X141059671Y-80331428D02*
X141083480Y-80355238D01*
X141107290Y-80426666D01*
X141107290Y-80474285D01*
X141083480Y-80545714D01*
X141035861Y-80593333D01*
X140988242Y-80617142D01*
X140893004Y-80640952D01*
X140821576Y-80640952D01*
X140726338Y-80617142D01*
X140678719Y-80593333D01*
X140631100Y-80545714D01*
X140607290Y-80474285D01*
X140607290Y-80426666D01*
X140631100Y-80355238D01*
X140654909Y-80331428D01*
X140654909Y-80140952D02*
X140631100Y-80117142D01*
X140607290Y-80069523D01*
X140607290Y-79950476D01*
X140631100Y-79902857D01*
X140654909Y-79879047D01*
X140702528Y-79855238D01*
X140750147Y-79855238D01*
X140821576Y-79879047D01*
X141107290Y-80164761D01*
X141107290Y-79855238D01*
X140821576Y-79569523D02*
X140797766Y-79617142D01*
X140773957Y-79640952D01*
X140726338Y-79664761D01*
X140702528Y-79664761D01*
X140654909Y-79640952D01*
X140631100Y-79617142D01*
X140607290Y-79569523D01*
X140607290Y-79474285D01*
X140631100Y-79426666D01*
X140654909Y-79402857D01*
X140702528Y-79379047D01*
X140726338Y-79379047D01*
X140773957Y-79402857D01*
X140797766Y-79426666D01*
X140821576Y-79474285D01*
X140821576Y-79569523D01*
X140845385Y-79617142D01*
X140869195Y-79640952D01*
X140916814Y-79664761D01*
X141012052Y-79664761D01*
X141059671Y-79640952D01*
X141083480Y-79617142D01*
X141107290Y-79569523D01*
X141107290Y-79474285D01*
X141083480Y-79426666D01*
X141059671Y-79402857D01*
X141012052Y-79379047D01*
X140916814Y-79379047D01*
X140869195Y-79402857D01*
X140845385Y-79426666D01*
X140821576Y-79474285D01*
%TO.C,U28*%
X111676690Y-139049047D02*
X112081452Y-139049047D01*
X112129071Y-139025238D01*
X112152880Y-139001428D01*
X112176690Y-138953809D01*
X112176690Y-138858571D01*
X112152880Y-138810952D01*
X112129071Y-138787142D01*
X112081452Y-138763333D01*
X111676690Y-138763333D01*
X111724309Y-138549047D02*
X111700500Y-138525238D01*
X111676690Y-138477619D01*
X111676690Y-138358571D01*
X111700500Y-138310952D01*
X111724309Y-138287142D01*
X111771928Y-138263333D01*
X111819547Y-138263333D01*
X111890976Y-138287142D01*
X112176690Y-138572857D01*
X112176690Y-138263333D01*
X111890976Y-137977619D02*
X111867166Y-138025238D01*
X111843357Y-138049047D01*
X111795738Y-138072857D01*
X111771928Y-138072857D01*
X111724309Y-138049047D01*
X111700500Y-138025238D01*
X111676690Y-137977619D01*
X111676690Y-137882380D01*
X111700500Y-137834761D01*
X111724309Y-137810952D01*
X111771928Y-137787142D01*
X111795738Y-137787142D01*
X111843357Y-137810952D01*
X111867166Y-137834761D01*
X111890976Y-137882380D01*
X111890976Y-137977619D01*
X111914785Y-138025238D01*
X111938595Y-138049047D01*
X111986214Y-138072857D01*
X112081452Y-138072857D01*
X112129071Y-138049047D01*
X112152880Y-138025238D01*
X112176690Y-137977619D01*
X112176690Y-137882380D01*
X112152880Y-137834761D01*
X112129071Y-137810952D01*
X112081452Y-137787142D01*
X111986214Y-137787142D01*
X111938595Y-137810952D01*
X111914785Y-137834761D01*
X111890976Y-137882380D01*
D13*
X112839500Y-136294880D02*
X112839500Y-136532976D01*
X112601404Y-136437738D02*
X112839500Y-136532976D01*
X113077595Y-136437738D01*
X112696642Y-136723452D02*
X112839500Y-136532976D01*
X112982357Y-136723452D01*
%TO.C,U27*%
D15*
X153142190Y-82153047D02*
X153546952Y-82153047D01*
X153594571Y-82129238D01*
X153618380Y-82105428D01*
X153642190Y-82057809D01*
X153642190Y-81962571D01*
X153618380Y-81914952D01*
X153594571Y-81891142D01*
X153546952Y-81867333D01*
X153142190Y-81867333D01*
X153189809Y-81653047D02*
X153166000Y-81629238D01*
X153142190Y-81581619D01*
X153142190Y-81462571D01*
X153166000Y-81414952D01*
X153189809Y-81391142D01*
X153237428Y-81367333D01*
X153285047Y-81367333D01*
X153356476Y-81391142D01*
X153642190Y-81676857D01*
X153642190Y-81367333D01*
X153142190Y-81200666D02*
X153142190Y-80867333D01*
X153642190Y-81081619D01*
%TO.C,TP15*%
X118604452Y-135203690D02*
X118890166Y-135203690D01*
X118747309Y-135703690D02*
X118747309Y-135203690D01*
X119056833Y-135703690D02*
X119056833Y-135203690D01*
X119247309Y-135203690D01*
X119294928Y-135227500D01*
X119318738Y-135251309D01*
X119342547Y-135298928D01*
X119342547Y-135370357D01*
X119318738Y-135417976D01*
X119294928Y-135441785D01*
X119247309Y-135465595D01*
X119056833Y-135465595D01*
X119818738Y-135703690D02*
X119533023Y-135703690D01*
X119675880Y-135703690D02*
X119675880Y-135203690D01*
X119628261Y-135275119D01*
X119580642Y-135322738D01*
X119533023Y-135346547D01*
X120271119Y-135203690D02*
X120033023Y-135203690D01*
X120009214Y-135441785D01*
X120033023Y-135417976D01*
X120080642Y-135394166D01*
X120199690Y-135394166D01*
X120247309Y-135417976D01*
X120271119Y-135441785D01*
X120294928Y-135489404D01*
X120294928Y-135608452D01*
X120271119Y-135656071D01*
X120247309Y-135679880D01*
X120199690Y-135703690D01*
X120080642Y-135703690D01*
X120033023Y-135679880D01*
X120009214Y-135656071D01*
%TO.C,J17*%
X118109690Y-141057261D02*
X118466833Y-141057261D01*
X118538261Y-141081071D01*
X118585880Y-141128690D01*
X118609690Y-141200119D01*
X118609690Y-141247738D01*
X118609690Y-140557261D02*
X118609690Y-140842976D01*
X118609690Y-140700119D02*
X118109690Y-140700119D01*
X118181119Y-140747738D01*
X118228738Y-140795357D01*
X118252547Y-140842976D01*
X118109690Y-140390595D02*
X118109690Y-140057261D01*
X118609690Y-140271547D01*
%TO.C,C51*%
X114169071Y-142769071D02*
X114145261Y-142792880D01*
X114073833Y-142816690D01*
X114026214Y-142816690D01*
X113954785Y-142792880D01*
X113907166Y-142745261D01*
X113883357Y-142697642D01*
X113859547Y-142602404D01*
X113859547Y-142530976D01*
X113883357Y-142435738D01*
X113907166Y-142388119D01*
X113954785Y-142340500D01*
X114026214Y-142316690D01*
X114073833Y-142316690D01*
X114145261Y-142340500D01*
X114169071Y-142364309D01*
X114621452Y-142316690D02*
X114383357Y-142316690D01*
X114359547Y-142554785D01*
X114383357Y-142530976D01*
X114430976Y-142507166D01*
X114550023Y-142507166D01*
X114597642Y-142530976D01*
X114621452Y-142554785D01*
X114645261Y-142602404D01*
X114645261Y-142721452D01*
X114621452Y-142769071D01*
X114597642Y-142792880D01*
X114550023Y-142816690D01*
X114430976Y-142816690D01*
X114383357Y-142792880D01*
X114359547Y-142769071D01*
X115121452Y-142816690D02*
X114835738Y-142816690D01*
X114978595Y-142816690D02*
X114978595Y-142316690D01*
X114930976Y-142388119D01*
X114883357Y-142435738D01*
X114835738Y-142459547D01*
%TO.C,U22*%
X158666690Y-72564547D02*
X159071452Y-72564547D01*
X159119071Y-72540738D01*
X159142880Y-72516928D01*
X159166690Y-72469309D01*
X159166690Y-72374071D01*
X159142880Y-72326452D01*
X159119071Y-72302642D01*
X159071452Y-72278833D01*
X158666690Y-72278833D01*
X158714309Y-72064547D02*
X158690500Y-72040738D01*
X158666690Y-71993119D01*
X158666690Y-71874071D01*
X158690500Y-71826452D01*
X158714309Y-71802642D01*
X158761928Y-71778833D01*
X158809547Y-71778833D01*
X158880976Y-71802642D01*
X159166690Y-72088357D01*
X159166690Y-71778833D01*
X158714309Y-71588357D02*
X158690500Y-71564547D01*
X158666690Y-71516928D01*
X158666690Y-71397880D01*
X158690500Y-71350261D01*
X158714309Y-71326452D01*
X158761928Y-71302642D01*
X158809547Y-71302642D01*
X158880976Y-71326452D01*
X159166690Y-71612166D01*
X159166690Y-71302642D01*
%TO.C,U10*%
X199825052Y-70058790D02*
X199825052Y-70463552D01*
X199848861Y-70511171D01*
X199872671Y-70534980D01*
X199920290Y-70558790D01*
X200015528Y-70558790D01*
X200063147Y-70534980D01*
X200086957Y-70511171D01*
X200110766Y-70463552D01*
X200110766Y-70058790D01*
X200610766Y-70558790D02*
X200325052Y-70558790D01*
X200467909Y-70558790D02*
X200467909Y-70058790D01*
X200420290Y-70130219D01*
X200372671Y-70177838D01*
X200325052Y-70201647D01*
X200920290Y-70058790D02*
X200967909Y-70058790D01*
X201015528Y-70082600D01*
X201039338Y-70106409D01*
X201063147Y-70154028D01*
X201086957Y-70249266D01*
X201086957Y-70368314D01*
X201063147Y-70463552D01*
X201039338Y-70511171D01*
X201015528Y-70534980D01*
X200967909Y-70558790D01*
X200920290Y-70558790D01*
X200872671Y-70534980D01*
X200848861Y-70511171D01*
X200825052Y-70463552D01*
X200801242Y-70368314D01*
X200801242Y-70249266D01*
X200825052Y-70154028D01*
X200848861Y-70106409D01*
X200872671Y-70082600D01*
X200920290Y-70058790D01*
%TO.C,U9*%
X195491147Y-70058790D02*
X195491147Y-70463552D01*
X195514957Y-70511171D01*
X195538766Y-70534980D01*
X195586385Y-70558790D01*
X195681623Y-70558790D01*
X195729242Y-70534980D01*
X195753052Y-70511171D01*
X195776861Y-70463552D01*
X195776861Y-70058790D01*
X196038766Y-70558790D02*
X196134004Y-70558790D01*
X196181623Y-70534980D01*
X196205433Y-70511171D01*
X196253052Y-70439742D01*
X196276861Y-70344504D01*
X196276861Y-70154028D01*
X196253052Y-70106409D01*
X196229242Y-70082600D01*
X196181623Y-70058790D01*
X196086385Y-70058790D01*
X196038766Y-70082600D01*
X196014957Y-70106409D01*
X195991147Y-70154028D01*
X195991147Y-70273076D01*
X196014957Y-70320695D01*
X196038766Y-70344504D01*
X196086385Y-70368314D01*
X196181623Y-70368314D01*
X196229242Y-70344504D01*
X196253052Y-70320695D01*
X196276861Y-70273076D01*
%TO.C,U8*%
X190919147Y-70058790D02*
X190919147Y-70463552D01*
X190942957Y-70511171D01*
X190966766Y-70534980D01*
X191014385Y-70558790D01*
X191109623Y-70558790D01*
X191157242Y-70534980D01*
X191181052Y-70511171D01*
X191204861Y-70463552D01*
X191204861Y-70058790D01*
X191514385Y-70273076D02*
X191466766Y-70249266D01*
X191442957Y-70225457D01*
X191419147Y-70177838D01*
X191419147Y-70154028D01*
X191442957Y-70106409D01*
X191466766Y-70082600D01*
X191514385Y-70058790D01*
X191609623Y-70058790D01*
X191657242Y-70082600D01*
X191681052Y-70106409D01*
X191704861Y-70154028D01*
X191704861Y-70177838D01*
X191681052Y-70225457D01*
X191657242Y-70249266D01*
X191609623Y-70273076D01*
X191514385Y-70273076D01*
X191466766Y-70296885D01*
X191442957Y-70320695D01*
X191419147Y-70368314D01*
X191419147Y-70463552D01*
X191442957Y-70511171D01*
X191466766Y-70534980D01*
X191514385Y-70558790D01*
X191609623Y-70558790D01*
X191657242Y-70534980D01*
X191681052Y-70511171D01*
X191704861Y-70463552D01*
X191704861Y-70368314D01*
X191681052Y-70320695D01*
X191657242Y-70296885D01*
X191609623Y-70273076D01*
%TO.C,U7*%
X181775147Y-70058790D02*
X181775147Y-70463552D01*
X181798957Y-70511171D01*
X181822766Y-70534980D01*
X181870385Y-70558790D01*
X181965623Y-70558790D01*
X182013242Y-70534980D01*
X182037052Y-70511171D01*
X182060861Y-70463552D01*
X182060861Y-70058790D01*
X182251338Y-70058790D02*
X182584671Y-70058790D01*
X182370385Y-70558790D01*
%TO.C,U6*%
X186347147Y-70058790D02*
X186347147Y-70463552D01*
X186370957Y-70511171D01*
X186394766Y-70534980D01*
X186442385Y-70558790D01*
X186537623Y-70558790D01*
X186585242Y-70534980D01*
X186609052Y-70511171D01*
X186632861Y-70463552D01*
X186632861Y-70058790D01*
X187085242Y-70058790D02*
X186990004Y-70058790D01*
X186942385Y-70082600D01*
X186918576Y-70106409D01*
X186870957Y-70177838D01*
X186847147Y-70273076D01*
X186847147Y-70463552D01*
X186870957Y-70511171D01*
X186894766Y-70534980D01*
X186942385Y-70558790D01*
X187037623Y-70558790D01*
X187085242Y-70534980D01*
X187109052Y-70511171D01*
X187132861Y-70463552D01*
X187132861Y-70344504D01*
X187109052Y-70296885D01*
X187085242Y-70273076D01*
X187037623Y-70249266D01*
X186942385Y-70249266D01*
X186894766Y-70273076D01*
X186870957Y-70296885D01*
X186847147Y-70344504D01*
%TO.C,U5*%
X177203147Y-70058790D02*
X177203147Y-70463552D01*
X177226957Y-70511171D01*
X177250766Y-70534980D01*
X177298385Y-70558790D01*
X177393623Y-70558790D01*
X177441242Y-70534980D01*
X177465052Y-70511171D01*
X177488861Y-70463552D01*
X177488861Y-70058790D01*
X177965052Y-70058790D02*
X177726957Y-70058790D01*
X177703147Y-70296885D01*
X177726957Y-70273076D01*
X177774576Y-70249266D01*
X177893623Y-70249266D01*
X177941242Y-70273076D01*
X177965052Y-70296885D01*
X177988861Y-70344504D01*
X177988861Y-70463552D01*
X177965052Y-70511171D01*
X177941242Y-70534980D01*
X177893623Y-70558790D01*
X177774576Y-70558790D01*
X177726957Y-70534980D01*
X177703147Y-70511171D01*
%TO.C,U4*%
X180759147Y-45940990D02*
X180759147Y-46345752D01*
X180782957Y-46393371D01*
X180806766Y-46417180D01*
X180854385Y-46440990D01*
X180949623Y-46440990D01*
X180997242Y-46417180D01*
X181021052Y-46393371D01*
X181044861Y-46345752D01*
X181044861Y-45940990D01*
X181497242Y-46107657D02*
X181497242Y-46440990D01*
X181378195Y-45917180D02*
X181259147Y-46274323D01*
X181568671Y-46274323D01*
X179556766Y-63538371D02*
X179532957Y-63562180D01*
X179461528Y-63585990D01*
X179413909Y-63585990D01*
X179342480Y-63562180D01*
X179294861Y-63514561D01*
X179271052Y-63466942D01*
X179247242Y-63371704D01*
X179247242Y-63300276D01*
X179271052Y-63205038D01*
X179294861Y-63157419D01*
X179342480Y-63109800D01*
X179413909Y-63085990D01*
X179461528Y-63085990D01*
X179532957Y-63109800D01*
X179556766Y-63133609D01*
X179771052Y-63585990D02*
X179771052Y-63085990D01*
X179890100Y-63085990D01*
X179961528Y-63109800D01*
X180009147Y-63157419D01*
X180032957Y-63205038D01*
X180056766Y-63300276D01*
X180056766Y-63371704D01*
X180032957Y-63466942D01*
X180009147Y-63514561D01*
X179961528Y-63562180D01*
X179890100Y-63585990D01*
X179771052Y-63585990D01*
X180485338Y-63252657D02*
X180485338Y-63585990D01*
X180366290Y-63062180D02*
X180247242Y-63419323D01*
X180556766Y-63419323D01*
X180985338Y-63085990D02*
X180747242Y-63085990D01*
X180723433Y-63324085D01*
X180747242Y-63300276D01*
X180794861Y-63276466D01*
X180913909Y-63276466D01*
X180961528Y-63300276D01*
X180985338Y-63324085D01*
X181009147Y-63371704D01*
X181009147Y-63490752D01*
X180985338Y-63538371D01*
X180961528Y-63562180D01*
X180913909Y-63585990D01*
X180794861Y-63585990D01*
X180747242Y-63562180D01*
X180723433Y-63538371D01*
X181485338Y-63585990D02*
X181199623Y-63585990D01*
X181342480Y-63585990D02*
X181342480Y-63085990D01*
X181294861Y-63157419D01*
X181247242Y-63205038D01*
X181199623Y-63228847D01*
X181913909Y-63252657D02*
X181913909Y-63585990D01*
X181794861Y-63062180D02*
X181675814Y-63419323D01*
X181985338Y-63419323D01*
X182342480Y-63324085D02*
X182413909Y-63347895D01*
X182437719Y-63371704D01*
X182461528Y-63419323D01*
X182461528Y-63490752D01*
X182437719Y-63538371D01*
X182413909Y-63562180D01*
X182366290Y-63585990D01*
X182175814Y-63585990D01*
X182175814Y-63085990D01*
X182342480Y-63085990D01*
X182390100Y-63109800D01*
X182413909Y-63133609D01*
X182437719Y-63181228D01*
X182437719Y-63228847D01*
X182413909Y-63276466D01*
X182390100Y-63300276D01*
X182342480Y-63324085D01*
X182175814Y-63324085D01*
X182675814Y-63585990D02*
X182675814Y-63085990D01*
X182842480Y-63443133D01*
X183009147Y-63085990D01*
X183009147Y-63585990D01*
D13*
X185915300Y-62977780D02*
X185915300Y-63215876D01*
X185677204Y-63120638D02*
X185915300Y-63215876D01*
X186153395Y-63120638D01*
X185772442Y-63406352D02*
X185915300Y-63215876D01*
X186058157Y-63406352D01*
X185915300Y-62977780D02*
X185915300Y-63215876D01*
X185677204Y-63120638D02*
X185915300Y-63215876D01*
X186153395Y-63120638D01*
X185772442Y-63406352D02*
X185915300Y-63215876D01*
X186058157Y-63406352D01*
%TO.C,U3*%
D15*
X166535147Y-48861990D02*
X166535147Y-49266752D01*
X166558957Y-49314371D01*
X166582766Y-49338180D01*
X166630385Y-49361990D01*
X166725623Y-49361990D01*
X166773242Y-49338180D01*
X166797052Y-49314371D01*
X166820861Y-49266752D01*
X166820861Y-48861990D01*
X167011338Y-48861990D02*
X167320861Y-48861990D01*
X167154195Y-49052466D01*
X167225623Y-49052466D01*
X167273242Y-49076276D01*
X167297052Y-49100085D01*
X167320861Y-49147704D01*
X167320861Y-49266752D01*
X167297052Y-49314371D01*
X167273242Y-49338180D01*
X167225623Y-49361990D01*
X167082766Y-49361990D01*
X167035147Y-49338180D01*
X167011338Y-49314371D01*
D13*
X169532300Y-60437780D02*
X169532300Y-60675876D01*
X169294204Y-60580638D02*
X169532300Y-60675876D01*
X169770395Y-60580638D01*
X169389442Y-60866352D02*
X169532300Y-60675876D01*
X169675157Y-60866352D01*
X169532300Y-60437780D02*
X169532300Y-60675876D01*
X169294204Y-60580638D02*
X169532300Y-60675876D01*
X169770395Y-60580638D01*
X169389442Y-60866352D02*
X169532300Y-60675876D01*
X169675157Y-60866352D01*
%TO.C,TP5*%
D15*
X157865047Y-78466190D02*
X158150761Y-78466190D01*
X158007904Y-78966190D02*
X158007904Y-78466190D01*
X158317428Y-78966190D02*
X158317428Y-78466190D01*
X158507904Y-78466190D01*
X158555523Y-78490000D01*
X158579333Y-78513809D01*
X158603142Y-78561428D01*
X158603142Y-78632857D01*
X158579333Y-78680476D01*
X158555523Y-78704285D01*
X158507904Y-78728095D01*
X158317428Y-78728095D01*
X159055523Y-78466190D02*
X158817428Y-78466190D01*
X158793619Y-78704285D01*
X158817428Y-78680476D01*
X158865047Y-78656666D01*
X158984095Y-78656666D01*
X159031714Y-78680476D01*
X159055523Y-78704285D01*
X159079333Y-78751904D01*
X159079333Y-78870952D01*
X159055523Y-78918571D01*
X159031714Y-78942380D01*
X158984095Y-78966190D01*
X158865047Y-78966190D01*
X158817428Y-78942380D01*
X158793619Y-78918571D01*
%TO.C,TP4*%
X155231547Y-78466190D02*
X155517261Y-78466190D01*
X155374404Y-78966190D02*
X155374404Y-78466190D01*
X155683928Y-78966190D02*
X155683928Y-78466190D01*
X155874404Y-78466190D01*
X155922023Y-78490000D01*
X155945833Y-78513809D01*
X155969642Y-78561428D01*
X155969642Y-78632857D01*
X155945833Y-78680476D01*
X155922023Y-78704285D01*
X155874404Y-78728095D01*
X155683928Y-78728095D01*
X156398214Y-78632857D02*
X156398214Y-78966190D01*
X156279166Y-78442380D02*
X156160119Y-78799523D01*
X156469642Y-78799523D01*
%TO.C,TP3*%
X138434047Y-68262190D02*
X138719761Y-68262190D01*
X138576904Y-68762190D02*
X138576904Y-68262190D01*
X138886428Y-68762190D02*
X138886428Y-68262190D01*
X139076904Y-68262190D01*
X139124523Y-68286000D01*
X139148333Y-68309809D01*
X139172142Y-68357428D01*
X139172142Y-68428857D01*
X139148333Y-68476476D01*
X139124523Y-68500285D01*
X139076904Y-68524095D01*
X138886428Y-68524095D01*
X139338809Y-68262190D02*
X139648333Y-68262190D01*
X139481666Y-68452666D01*
X139553095Y-68452666D01*
X139600714Y-68476476D01*
X139624523Y-68500285D01*
X139648333Y-68547904D01*
X139648333Y-68666952D01*
X139624523Y-68714571D01*
X139600714Y-68738380D01*
X139553095Y-68762190D01*
X139410238Y-68762190D01*
X139362619Y-68738380D01*
X139338809Y-68714571D01*
%TO.C,TP2*%
X143514047Y-68262190D02*
X143799761Y-68262190D01*
X143656904Y-68762190D02*
X143656904Y-68262190D01*
X143966428Y-68762190D02*
X143966428Y-68262190D01*
X144156904Y-68262190D01*
X144204523Y-68286000D01*
X144228333Y-68309809D01*
X144252142Y-68357428D01*
X144252142Y-68428857D01*
X144228333Y-68476476D01*
X144204523Y-68500285D01*
X144156904Y-68524095D01*
X143966428Y-68524095D01*
X144442619Y-68309809D02*
X144466428Y-68286000D01*
X144514047Y-68262190D01*
X144633095Y-68262190D01*
X144680714Y-68286000D01*
X144704523Y-68309809D01*
X144728333Y-68357428D01*
X144728333Y-68405047D01*
X144704523Y-68476476D01*
X144418809Y-68762190D01*
X144728333Y-68762190D01*
%TO.C,TP1*%
X161137047Y-66337690D02*
X161422761Y-66337690D01*
X161279904Y-66837690D02*
X161279904Y-66337690D01*
X161589428Y-66837690D02*
X161589428Y-66337690D01*
X161779904Y-66337690D01*
X161827523Y-66361500D01*
X161851333Y-66385309D01*
X161875142Y-66432928D01*
X161875142Y-66504357D01*
X161851333Y-66551976D01*
X161827523Y-66575785D01*
X161779904Y-66599595D01*
X161589428Y-66599595D01*
X162351333Y-66837690D02*
X162065619Y-66837690D01*
X162208476Y-66837690D02*
X162208476Y-66337690D01*
X162160857Y-66409119D01*
X162113238Y-66456738D01*
X162065619Y-66480547D01*
%TO.C,R26*%
X150594190Y-72393928D02*
X150356095Y-72560595D01*
X150594190Y-72679642D02*
X150094190Y-72679642D01*
X150094190Y-72489166D01*
X150118000Y-72441547D01*
X150141809Y-72417738D01*
X150189428Y-72393928D01*
X150260857Y-72393928D01*
X150308476Y-72417738D01*
X150332285Y-72441547D01*
X150356095Y-72489166D01*
X150356095Y-72679642D01*
X150141809Y-72203452D02*
X150118000Y-72179642D01*
X150094190Y-72132023D01*
X150094190Y-72012976D01*
X150118000Y-71965357D01*
X150141809Y-71941547D01*
X150189428Y-71917738D01*
X150237047Y-71917738D01*
X150308476Y-71941547D01*
X150594190Y-72227261D01*
X150594190Y-71917738D01*
X150094190Y-71489166D02*
X150094190Y-71584404D01*
X150118000Y-71632023D01*
X150141809Y-71655833D01*
X150213238Y-71703452D01*
X150308476Y-71727261D01*
X150498952Y-71727261D01*
X150546571Y-71703452D01*
X150570380Y-71679642D01*
X150594190Y-71632023D01*
X150594190Y-71536785D01*
X150570380Y-71489166D01*
X150546571Y-71465357D01*
X150498952Y-71441547D01*
X150379904Y-71441547D01*
X150332285Y-71465357D01*
X150308476Y-71489166D01*
X150284666Y-71536785D01*
X150284666Y-71632023D01*
X150308476Y-71679642D01*
X150332285Y-71703452D01*
X150379904Y-71727261D01*
%TO.C,R25*%
X150594190Y-69345928D02*
X150356095Y-69512595D01*
X150594190Y-69631642D02*
X150094190Y-69631642D01*
X150094190Y-69441166D01*
X150118000Y-69393547D01*
X150141809Y-69369738D01*
X150189428Y-69345928D01*
X150260857Y-69345928D01*
X150308476Y-69369738D01*
X150332285Y-69393547D01*
X150356095Y-69441166D01*
X150356095Y-69631642D01*
X150141809Y-69155452D02*
X150118000Y-69131642D01*
X150094190Y-69084023D01*
X150094190Y-68964976D01*
X150118000Y-68917357D01*
X150141809Y-68893547D01*
X150189428Y-68869738D01*
X150237047Y-68869738D01*
X150308476Y-68893547D01*
X150594190Y-69179261D01*
X150594190Y-68869738D01*
X150094190Y-68417357D02*
X150094190Y-68655452D01*
X150332285Y-68679261D01*
X150308476Y-68655452D01*
X150284666Y-68607833D01*
X150284666Y-68488785D01*
X150308476Y-68441166D01*
X150332285Y-68417357D01*
X150379904Y-68393547D01*
X150498952Y-68393547D01*
X150546571Y-68417357D01*
X150570380Y-68441166D01*
X150594190Y-68488785D01*
X150594190Y-68607833D01*
X150570380Y-68655452D01*
X150546571Y-68679261D01*
%TO.C,R24*%
X146363571Y-69187190D02*
X146196904Y-68949095D01*
X146077857Y-69187190D02*
X146077857Y-68687190D01*
X146268333Y-68687190D01*
X146315952Y-68711000D01*
X146339761Y-68734809D01*
X146363571Y-68782428D01*
X146363571Y-68853857D01*
X146339761Y-68901476D01*
X146315952Y-68925285D01*
X146268333Y-68949095D01*
X146077857Y-68949095D01*
X146554047Y-68734809D02*
X146577857Y-68711000D01*
X146625476Y-68687190D01*
X146744523Y-68687190D01*
X146792142Y-68711000D01*
X146815952Y-68734809D01*
X146839761Y-68782428D01*
X146839761Y-68830047D01*
X146815952Y-68901476D01*
X146530238Y-69187190D01*
X146839761Y-69187190D01*
X147268333Y-68853857D02*
X147268333Y-69187190D01*
X147149285Y-68663380D02*
X147030238Y-69020523D01*
X147339761Y-69020523D01*
%TO.C,R23*%
X155888571Y-66605190D02*
X155721904Y-66367095D01*
X155602857Y-66605190D02*
X155602857Y-66105190D01*
X155793333Y-66105190D01*
X155840952Y-66129000D01*
X155864761Y-66152809D01*
X155888571Y-66200428D01*
X155888571Y-66271857D01*
X155864761Y-66319476D01*
X155840952Y-66343285D01*
X155793333Y-66367095D01*
X155602857Y-66367095D01*
X156079047Y-66152809D02*
X156102857Y-66129000D01*
X156150476Y-66105190D01*
X156269523Y-66105190D01*
X156317142Y-66129000D01*
X156340952Y-66152809D01*
X156364761Y-66200428D01*
X156364761Y-66248047D01*
X156340952Y-66319476D01*
X156055238Y-66605190D01*
X156364761Y-66605190D01*
X156531428Y-66105190D02*
X156840952Y-66105190D01*
X156674285Y-66295666D01*
X156745714Y-66295666D01*
X156793333Y-66319476D01*
X156817142Y-66343285D01*
X156840952Y-66390904D01*
X156840952Y-66509952D01*
X156817142Y-66557571D01*
X156793333Y-66581380D01*
X156745714Y-66605190D01*
X156602857Y-66605190D01*
X156555238Y-66581380D01*
X156531428Y-66557571D01*
%TO.C,R22*%
X148890871Y-74673590D02*
X148724204Y-74435495D01*
X148605157Y-74673590D02*
X148605157Y-74173590D01*
X148795633Y-74173590D01*
X148843252Y-74197400D01*
X148867061Y-74221209D01*
X148890871Y-74268828D01*
X148890871Y-74340257D01*
X148867061Y-74387876D01*
X148843252Y-74411685D01*
X148795633Y-74435495D01*
X148605157Y-74435495D01*
X149081347Y-74221209D02*
X149105157Y-74197400D01*
X149152776Y-74173590D01*
X149271823Y-74173590D01*
X149319442Y-74197400D01*
X149343252Y-74221209D01*
X149367061Y-74268828D01*
X149367061Y-74316447D01*
X149343252Y-74387876D01*
X149057538Y-74673590D01*
X149367061Y-74673590D01*
X149557538Y-74221209D02*
X149581347Y-74197400D01*
X149628966Y-74173590D01*
X149748014Y-74173590D01*
X149795633Y-74197400D01*
X149819442Y-74221209D01*
X149843252Y-74268828D01*
X149843252Y-74316447D01*
X149819442Y-74387876D01*
X149533728Y-74673590D01*
X149843252Y-74673590D01*
%TO.C,R21*%
X160309690Y-71758428D02*
X160071595Y-71925095D01*
X160309690Y-72044142D02*
X159809690Y-72044142D01*
X159809690Y-71853666D01*
X159833500Y-71806047D01*
X159857309Y-71782238D01*
X159904928Y-71758428D01*
X159976357Y-71758428D01*
X160023976Y-71782238D01*
X160047785Y-71806047D01*
X160071595Y-71853666D01*
X160071595Y-72044142D01*
X159857309Y-71567952D02*
X159833500Y-71544142D01*
X159809690Y-71496523D01*
X159809690Y-71377476D01*
X159833500Y-71329857D01*
X159857309Y-71306047D01*
X159904928Y-71282238D01*
X159952547Y-71282238D01*
X160023976Y-71306047D01*
X160309690Y-71591761D01*
X160309690Y-71282238D01*
X160309690Y-70806047D02*
X160309690Y-71091761D01*
X160309690Y-70948904D02*
X159809690Y-70948904D01*
X159881119Y-70996523D01*
X159928738Y-71044142D01*
X159952547Y-71091761D01*
%TO.C,R19*%
X152003890Y-78883628D02*
X151765795Y-79050295D01*
X152003890Y-79169342D02*
X151503890Y-79169342D01*
X151503890Y-78978866D01*
X151527700Y-78931247D01*
X151551509Y-78907438D01*
X151599128Y-78883628D01*
X151670557Y-78883628D01*
X151718176Y-78907438D01*
X151741985Y-78931247D01*
X151765795Y-78978866D01*
X151765795Y-79169342D01*
X152003890Y-78407438D02*
X152003890Y-78693152D01*
X152003890Y-78550295D02*
X151503890Y-78550295D01*
X151575319Y-78597914D01*
X151622938Y-78645533D01*
X151646747Y-78693152D01*
X152003890Y-78169342D02*
X152003890Y-78074104D01*
X151980080Y-78026485D01*
X151956271Y-78002676D01*
X151884842Y-77955057D01*
X151789604Y-77931247D01*
X151599128Y-77931247D01*
X151551509Y-77955057D01*
X151527700Y-77978866D01*
X151503890Y-78026485D01*
X151503890Y-78121723D01*
X151527700Y-78169342D01*
X151551509Y-78193152D01*
X151599128Y-78216961D01*
X151718176Y-78216961D01*
X151765795Y-78193152D01*
X151789604Y-78169342D01*
X151813414Y-78121723D01*
X151813414Y-78026485D01*
X151789604Y-77978866D01*
X151765795Y-77955057D01*
X151718176Y-77931247D01*
%TO.C,R17*%
X165516690Y-73981428D02*
X165278595Y-74148095D01*
X165516690Y-74267142D02*
X165016690Y-74267142D01*
X165016690Y-74076666D01*
X165040500Y-74029047D01*
X165064309Y-74005238D01*
X165111928Y-73981428D01*
X165183357Y-73981428D01*
X165230976Y-74005238D01*
X165254785Y-74029047D01*
X165278595Y-74076666D01*
X165278595Y-74267142D01*
X165516690Y-73505238D02*
X165516690Y-73790952D01*
X165516690Y-73648095D02*
X165016690Y-73648095D01*
X165088119Y-73695714D01*
X165135738Y-73743333D01*
X165159547Y-73790952D01*
X165016690Y-73338571D02*
X165016690Y-73005238D01*
X165516690Y-73219523D01*
%TO.C,R16*%
X134806571Y-69855190D02*
X134639904Y-69617095D01*
X134520857Y-69855190D02*
X134520857Y-69355190D01*
X134711333Y-69355190D01*
X134758952Y-69379000D01*
X134782761Y-69402809D01*
X134806571Y-69450428D01*
X134806571Y-69521857D01*
X134782761Y-69569476D01*
X134758952Y-69593285D01*
X134711333Y-69617095D01*
X134520857Y-69617095D01*
X135282761Y-69855190D02*
X134997047Y-69855190D01*
X135139904Y-69855190D02*
X135139904Y-69355190D01*
X135092285Y-69426619D01*
X135044666Y-69474238D01*
X134997047Y-69498047D01*
X135711333Y-69355190D02*
X135616095Y-69355190D01*
X135568476Y-69379000D01*
X135544666Y-69402809D01*
X135497047Y-69474238D01*
X135473238Y-69569476D01*
X135473238Y-69759952D01*
X135497047Y-69807571D01*
X135520857Y-69831380D01*
X135568476Y-69855190D01*
X135663714Y-69855190D01*
X135711333Y-69831380D01*
X135735142Y-69807571D01*
X135758952Y-69759952D01*
X135758952Y-69640904D01*
X135735142Y-69593285D01*
X135711333Y-69569476D01*
X135663714Y-69545666D01*
X135568476Y-69545666D01*
X135520857Y-69569476D01*
X135497047Y-69593285D01*
X135473238Y-69640904D01*
%TO.C,R15*%
X131250571Y-69855190D02*
X131083904Y-69617095D01*
X130964857Y-69855190D02*
X130964857Y-69355190D01*
X131155333Y-69355190D01*
X131202952Y-69379000D01*
X131226761Y-69402809D01*
X131250571Y-69450428D01*
X131250571Y-69521857D01*
X131226761Y-69569476D01*
X131202952Y-69593285D01*
X131155333Y-69617095D01*
X130964857Y-69617095D01*
X131726761Y-69855190D02*
X131441047Y-69855190D01*
X131583904Y-69855190D02*
X131583904Y-69355190D01*
X131536285Y-69426619D01*
X131488666Y-69474238D01*
X131441047Y-69498047D01*
X132179142Y-69355190D02*
X131941047Y-69355190D01*
X131917238Y-69593285D01*
X131941047Y-69569476D01*
X131988666Y-69545666D01*
X132107714Y-69545666D01*
X132155333Y-69569476D01*
X132179142Y-69593285D01*
X132202952Y-69640904D01*
X132202952Y-69759952D01*
X132179142Y-69807571D01*
X132155333Y-69831380D01*
X132107714Y-69855190D01*
X131988666Y-69855190D01*
X131941047Y-69831380D01*
X131917238Y-69807571D01*
%TO.C,R14*%
X127694571Y-69855190D02*
X127527904Y-69617095D01*
X127408857Y-69855190D02*
X127408857Y-69355190D01*
X127599333Y-69355190D01*
X127646952Y-69379000D01*
X127670761Y-69402809D01*
X127694571Y-69450428D01*
X127694571Y-69521857D01*
X127670761Y-69569476D01*
X127646952Y-69593285D01*
X127599333Y-69617095D01*
X127408857Y-69617095D01*
X128170761Y-69855190D02*
X127885047Y-69855190D01*
X128027904Y-69855190D02*
X128027904Y-69355190D01*
X127980285Y-69426619D01*
X127932666Y-69474238D01*
X127885047Y-69498047D01*
X128599333Y-69521857D02*
X128599333Y-69855190D01*
X128480285Y-69331380D02*
X128361238Y-69688523D01*
X128670761Y-69688523D01*
%TO.C,R13*%
X124138571Y-69855190D02*
X123971904Y-69617095D01*
X123852857Y-69855190D02*
X123852857Y-69355190D01*
X124043333Y-69355190D01*
X124090952Y-69379000D01*
X124114761Y-69402809D01*
X124138571Y-69450428D01*
X124138571Y-69521857D01*
X124114761Y-69569476D01*
X124090952Y-69593285D01*
X124043333Y-69617095D01*
X123852857Y-69617095D01*
X124614761Y-69855190D02*
X124329047Y-69855190D01*
X124471904Y-69855190D02*
X124471904Y-69355190D01*
X124424285Y-69426619D01*
X124376666Y-69474238D01*
X124329047Y-69498047D01*
X124781428Y-69355190D02*
X125090952Y-69355190D01*
X124924285Y-69545666D01*
X124995714Y-69545666D01*
X125043333Y-69569476D01*
X125067142Y-69593285D01*
X125090952Y-69640904D01*
X125090952Y-69759952D01*
X125067142Y-69807571D01*
X125043333Y-69831380D01*
X124995714Y-69855190D01*
X124852857Y-69855190D01*
X124805238Y-69831380D01*
X124781428Y-69807571D01*
%TO.C,R12*%
X120582571Y-69855190D02*
X120415904Y-69617095D01*
X120296857Y-69855190D02*
X120296857Y-69355190D01*
X120487333Y-69355190D01*
X120534952Y-69379000D01*
X120558761Y-69402809D01*
X120582571Y-69450428D01*
X120582571Y-69521857D01*
X120558761Y-69569476D01*
X120534952Y-69593285D01*
X120487333Y-69617095D01*
X120296857Y-69617095D01*
X121058761Y-69855190D02*
X120773047Y-69855190D01*
X120915904Y-69855190D02*
X120915904Y-69355190D01*
X120868285Y-69426619D01*
X120820666Y-69474238D01*
X120773047Y-69498047D01*
X121249238Y-69402809D02*
X121273047Y-69379000D01*
X121320666Y-69355190D01*
X121439714Y-69355190D01*
X121487333Y-69379000D01*
X121511142Y-69402809D01*
X121534952Y-69450428D01*
X121534952Y-69498047D01*
X121511142Y-69569476D01*
X121225428Y-69855190D01*
X121534952Y-69855190D01*
%TO.C,R11*%
X117026571Y-69855190D02*
X116859904Y-69617095D01*
X116740857Y-69855190D02*
X116740857Y-69355190D01*
X116931333Y-69355190D01*
X116978952Y-69379000D01*
X117002761Y-69402809D01*
X117026571Y-69450428D01*
X117026571Y-69521857D01*
X117002761Y-69569476D01*
X116978952Y-69593285D01*
X116931333Y-69617095D01*
X116740857Y-69617095D01*
X117502761Y-69855190D02*
X117217047Y-69855190D01*
X117359904Y-69855190D02*
X117359904Y-69355190D01*
X117312285Y-69426619D01*
X117264666Y-69474238D01*
X117217047Y-69498047D01*
X117978952Y-69855190D02*
X117693238Y-69855190D01*
X117836095Y-69855190D02*
X117836095Y-69355190D01*
X117788476Y-69426619D01*
X117740857Y-69474238D01*
X117693238Y-69498047D01*
%TO.C,R10*%
X113470571Y-69855190D02*
X113303904Y-69617095D01*
X113184857Y-69855190D02*
X113184857Y-69355190D01*
X113375333Y-69355190D01*
X113422952Y-69379000D01*
X113446761Y-69402809D01*
X113470571Y-69450428D01*
X113470571Y-69521857D01*
X113446761Y-69569476D01*
X113422952Y-69593285D01*
X113375333Y-69617095D01*
X113184857Y-69617095D01*
X113946761Y-69855190D02*
X113661047Y-69855190D01*
X113803904Y-69855190D02*
X113803904Y-69355190D01*
X113756285Y-69426619D01*
X113708666Y-69474238D01*
X113661047Y-69498047D01*
X114256285Y-69355190D02*
X114303904Y-69355190D01*
X114351523Y-69379000D01*
X114375333Y-69402809D01*
X114399142Y-69450428D01*
X114422952Y-69545666D01*
X114422952Y-69664714D01*
X114399142Y-69759952D01*
X114375333Y-69807571D01*
X114351523Y-69831380D01*
X114303904Y-69855190D01*
X114256285Y-69855190D01*
X114208666Y-69831380D01*
X114184857Y-69807571D01*
X114161047Y-69759952D01*
X114137238Y-69664714D01*
X114137238Y-69545666D01*
X114161047Y-69450428D01*
X114184857Y-69402809D01*
X114208666Y-69379000D01*
X114256285Y-69355190D01*
%TO.C,R9*%
X110152666Y-69855190D02*
X109986000Y-69617095D01*
X109866952Y-69855190D02*
X109866952Y-69355190D01*
X110057428Y-69355190D01*
X110105047Y-69379000D01*
X110128857Y-69402809D01*
X110152666Y-69450428D01*
X110152666Y-69521857D01*
X110128857Y-69569476D01*
X110105047Y-69593285D01*
X110057428Y-69617095D01*
X109866952Y-69617095D01*
X110390761Y-69855190D02*
X110486000Y-69855190D01*
X110533619Y-69831380D01*
X110557428Y-69807571D01*
X110605047Y-69736142D01*
X110628857Y-69640904D01*
X110628857Y-69450428D01*
X110605047Y-69402809D01*
X110581238Y-69379000D01*
X110533619Y-69355190D01*
X110438380Y-69355190D01*
X110390761Y-69379000D01*
X110366952Y-69402809D01*
X110343142Y-69450428D01*
X110343142Y-69569476D01*
X110366952Y-69617095D01*
X110390761Y-69640904D01*
X110438380Y-69664714D01*
X110533619Y-69664714D01*
X110581238Y-69640904D01*
X110605047Y-69617095D01*
X110628857Y-69569476D01*
%TO.C,R6*%
X152372190Y-115907333D02*
X152134095Y-116074000D01*
X152372190Y-116193047D02*
X151872190Y-116193047D01*
X151872190Y-116002571D01*
X151896000Y-115954952D01*
X151919809Y-115931142D01*
X151967428Y-115907333D01*
X152038857Y-115907333D01*
X152086476Y-115931142D01*
X152110285Y-115954952D01*
X152134095Y-116002571D01*
X152134095Y-116193047D01*
X151872190Y-115478761D02*
X151872190Y-115574000D01*
X151896000Y-115621619D01*
X151919809Y-115645428D01*
X151991238Y-115693047D01*
X152086476Y-115716857D01*
X152276952Y-115716857D01*
X152324571Y-115693047D01*
X152348380Y-115669238D01*
X152372190Y-115621619D01*
X152372190Y-115526380D01*
X152348380Y-115478761D01*
X152324571Y-115454952D01*
X152276952Y-115431142D01*
X152157904Y-115431142D01*
X152110285Y-115454952D01*
X152086476Y-115478761D01*
X152062666Y-115526380D01*
X152062666Y-115621619D01*
X152086476Y-115669238D01*
X152110285Y-115693047D01*
X152157904Y-115716857D01*
%TO.C,R5*%
X152372190Y-118447333D02*
X152134095Y-118614000D01*
X152372190Y-118733047D02*
X151872190Y-118733047D01*
X151872190Y-118542571D01*
X151896000Y-118494952D01*
X151919809Y-118471142D01*
X151967428Y-118447333D01*
X152038857Y-118447333D01*
X152086476Y-118471142D01*
X152110285Y-118494952D01*
X152134095Y-118542571D01*
X152134095Y-118733047D01*
X151872190Y-117994952D02*
X151872190Y-118233047D01*
X152110285Y-118256857D01*
X152086476Y-118233047D01*
X152062666Y-118185428D01*
X152062666Y-118066380D01*
X152086476Y-118018761D01*
X152110285Y-117994952D01*
X152157904Y-117971142D01*
X152276952Y-117971142D01*
X152324571Y-117994952D01*
X152348380Y-118018761D01*
X152372190Y-118066380D01*
X152372190Y-118185428D01*
X152348380Y-118233047D01*
X152324571Y-118256857D01*
%TO.C,R4*%
X152372190Y-120987333D02*
X152134095Y-121154000D01*
X152372190Y-121273047D02*
X151872190Y-121273047D01*
X151872190Y-121082571D01*
X151896000Y-121034952D01*
X151919809Y-121011142D01*
X151967428Y-120987333D01*
X152038857Y-120987333D01*
X152086476Y-121011142D01*
X152110285Y-121034952D01*
X152134095Y-121082571D01*
X152134095Y-121273047D01*
X152038857Y-120558761D02*
X152372190Y-120558761D01*
X151848380Y-120677809D02*
X152205523Y-120796857D01*
X152205523Y-120487333D01*
%TO.C,R2*%
X94968190Y-118447333D02*
X94730095Y-118614000D01*
X94968190Y-118733047D02*
X94468190Y-118733047D01*
X94468190Y-118542571D01*
X94492000Y-118494952D01*
X94515809Y-118471142D01*
X94563428Y-118447333D01*
X94634857Y-118447333D01*
X94682476Y-118471142D01*
X94706285Y-118494952D01*
X94730095Y-118542571D01*
X94730095Y-118733047D01*
X94515809Y-118256857D02*
X94492000Y-118233047D01*
X94468190Y-118185428D01*
X94468190Y-118066380D01*
X94492000Y-118018761D01*
X94515809Y-117994952D01*
X94563428Y-117971142D01*
X94611047Y-117971142D01*
X94682476Y-117994952D01*
X94968190Y-118280666D01*
X94968190Y-117971142D01*
%TO.C,R1*%
X94968190Y-115907333D02*
X94730095Y-116074000D01*
X94968190Y-116193047D02*
X94468190Y-116193047D01*
X94468190Y-116002571D01*
X94492000Y-115954952D01*
X94515809Y-115931142D01*
X94563428Y-115907333D01*
X94634857Y-115907333D01*
X94682476Y-115931142D01*
X94706285Y-115954952D01*
X94730095Y-116002571D01*
X94730095Y-116193047D01*
X94968190Y-115431142D02*
X94968190Y-115716857D01*
X94968190Y-115574000D02*
X94468190Y-115574000D01*
X94539619Y-115621619D01*
X94587238Y-115669238D01*
X94611047Y-115716857D01*
%TO.C,J7*%
X204684690Y-80798966D02*
X205041833Y-80798966D01*
X205113261Y-80822776D01*
X205160880Y-80870395D01*
X205184690Y-80941823D01*
X205184690Y-80989442D01*
X204684690Y-80608490D02*
X204684690Y-80275157D01*
X205184690Y-80489442D01*
%TO.C,J6*%
X204684690Y-85243966D02*
X205041833Y-85243966D01*
X205113261Y-85267776D01*
X205160880Y-85315395D01*
X205184690Y-85386823D01*
X205184690Y-85434442D01*
X204684690Y-84791585D02*
X204684690Y-84886823D01*
X204708500Y-84934442D01*
X204732309Y-84958252D01*
X204803738Y-85005871D01*
X204898976Y-85029680D01*
X205089452Y-85029680D01*
X205137071Y-85005871D01*
X205160880Y-84982061D01*
X205184690Y-84934442D01*
X205184690Y-84839204D01*
X205160880Y-84791585D01*
X205137071Y-84767776D01*
X205089452Y-84743966D01*
X204970404Y-84743966D01*
X204922785Y-84767776D01*
X204898976Y-84791585D01*
X204875166Y-84839204D01*
X204875166Y-84934442D01*
X204898976Y-84982061D01*
X204922785Y-85005871D01*
X204970404Y-85029680D01*
%TO.C,J5*%
X204684690Y-89688966D02*
X205041833Y-89688966D01*
X205113261Y-89712776D01*
X205160880Y-89760395D01*
X205184690Y-89831823D01*
X205184690Y-89879442D01*
X204684690Y-89212776D02*
X204684690Y-89450871D01*
X204922785Y-89474680D01*
X204898976Y-89450871D01*
X204875166Y-89403252D01*
X204875166Y-89284204D01*
X204898976Y-89236585D01*
X204922785Y-89212776D01*
X204970404Y-89188966D01*
X205089452Y-89188966D01*
X205137071Y-89212776D01*
X205160880Y-89236585D01*
X205184690Y-89284204D01*
X205184690Y-89403252D01*
X205160880Y-89450871D01*
X205137071Y-89474680D01*
%TO.C,J4*%
X208450690Y-80748166D02*
X208807833Y-80748166D01*
X208879261Y-80771976D01*
X208926880Y-80819595D01*
X208950690Y-80891023D01*
X208950690Y-80938642D01*
X208617357Y-80295785D02*
X208950690Y-80295785D01*
X208426880Y-80414833D02*
X208784023Y-80533880D01*
X208784023Y-80224357D01*
%TO.C,J3*%
X164999333Y-78037690D02*
X164999333Y-78394833D01*
X164975523Y-78466261D01*
X164927904Y-78513880D01*
X164856476Y-78537690D01*
X164808857Y-78537690D01*
X165189809Y-78037690D02*
X165499333Y-78037690D01*
X165332666Y-78228166D01*
X165404095Y-78228166D01*
X165451714Y-78251976D01*
X165475523Y-78275785D01*
X165499333Y-78323404D01*
X165499333Y-78442452D01*
X165475523Y-78490071D01*
X165451714Y-78513880D01*
X165404095Y-78537690D01*
X165261238Y-78537690D01*
X165213619Y-78513880D01*
X165189809Y-78490071D01*
%TO.C,J2*%
X146551533Y-98034790D02*
X146551533Y-98391933D01*
X146527723Y-98463361D01*
X146480104Y-98510980D01*
X146408676Y-98534790D01*
X146361057Y-98534790D01*
X146765819Y-98082409D02*
X146789628Y-98058600D01*
X146837247Y-98034790D01*
X146956295Y-98034790D01*
X147003914Y-98058600D01*
X147027723Y-98082409D01*
X147051533Y-98130028D01*
X147051533Y-98177647D01*
X147027723Y-98249076D01*
X146742009Y-98534790D01*
X147051533Y-98534790D01*
%TO.C,J1*%
X100051533Y-98034790D02*
X100051533Y-98391933D01*
X100027723Y-98463361D01*
X99980104Y-98510980D01*
X99908676Y-98534790D01*
X99861057Y-98534790D01*
X100551533Y-98534790D02*
X100265819Y-98534790D01*
X100408676Y-98534790D02*
X100408676Y-98034790D01*
X100361057Y-98106219D01*
X100313438Y-98153838D01*
X100265819Y-98177647D01*
%TO.C,FB1*%
X96103333Y-99118285D02*
X95936666Y-99118285D01*
X95936666Y-99380190D02*
X95936666Y-98880190D01*
X96174761Y-98880190D01*
X96531904Y-99118285D02*
X96603333Y-99142095D01*
X96627142Y-99165904D01*
X96650952Y-99213523D01*
X96650952Y-99284952D01*
X96627142Y-99332571D01*
X96603333Y-99356380D01*
X96555714Y-99380190D01*
X96365238Y-99380190D01*
X96365238Y-98880190D01*
X96531904Y-98880190D01*
X96579523Y-98904000D01*
X96603333Y-98927809D01*
X96627142Y-98975428D01*
X96627142Y-99023047D01*
X96603333Y-99070666D01*
X96579523Y-99094476D01*
X96531904Y-99118285D01*
X96365238Y-99118285D01*
X97127142Y-99380190D02*
X96841428Y-99380190D01*
X96984285Y-99380190D02*
X96984285Y-98880190D01*
X96936666Y-98951619D01*
X96889047Y-98999238D01*
X96841428Y-99023047D01*
%TO.C,C33*%
X156261571Y-75441928D02*
X156285380Y-75465738D01*
X156309190Y-75537166D01*
X156309190Y-75584785D01*
X156285380Y-75656214D01*
X156237761Y-75703833D01*
X156190142Y-75727642D01*
X156094904Y-75751452D01*
X156023476Y-75751452D01*
X155928238Y-75727642D01*
X155880619Y-75703833D01*
X155833000Y-75656214D01*
X155809190Y-75584785D01*
X155809190Y-75537166D01*
X155833000Y-75465738D01*
X155856809Y-75441928D01*
X155809190Y-75275261D02*
X155809190Y-74965738D01*
X155999666Y-75132404D01*
X155999666Y-75060976D01*
X156023476Y-75013357D01*
X156047285Y-74989547D01*
X156094904Y-74965738D01*
X156213952Y-74965738D01*
X156261571Y-74989547D01*
X156285380Y-75013357D01*
X156309190Y-75060976D01*
X156309190Y-75203833D01*
X156285380Y-75251452D01*
X156261571Y-75275261D01*
X155809190Y-74799071D02*
X155809190Y-74489547D01*
X155999666Y-74656214D01*
X155999666Y-74584785D01*
X156023476Y-74537166D01*
X156047285Y-74513357D01*
X156094904Y-74489547D01*
X156213952Y-74489547D01*
X156261571Y-74513357D01*
X156285380Y-74537166D01*
X156309190Y-74584785D01*
X156309190Y-74727642D01*
X156285380Y-74775261D01*
X156261571Y-74799071D01*
%TO.C,C32*%
X150364071Y-74625971D02*
X150340261Y-74649780D01*
X150268833Y-74673590D01*
X150221214Y-74673590D01*
X150149785Y-74649780D01*
X150102166Y-74602161D01*
X150078357Y-74554542D01*
X150054547Y-74459304D01*
X150054547Y-74387876D01*
X150078357Y-74292638D01*
X150102166Y-74245019D01*
X150149785Y-74197400D01*
X150221214Y-74173590D01*
X150268833Y-74173590D01*
X150340261Y-74197400D01*
X150364071Y-74221209D01*
X150530738Y-74173590D02*
X150840261Y-74173590D01*
X150673595Y-74364066D01*
X150745023Y-74364066D01*
X150792642Y-74387876D01*
X150816452Y-74411685D01*
X150840261Y-74459304D01*
X150840261Y-74578352D01*
X150816452Y-74625971D01*
X150792642Y-74649780D01*
X150745023Y-74673590D01*
X150602166Y-74673590D01*
X150554547Y-74649780D01*
X150530738Y-74625971D01*
X151030738Y-74221209D02*
X151054547Y-74197400D01*
X151102166Y-74173590D01*
X151221214Y-74173590D01*
X151268833Y-74197400D01*
X151292642Y-74221209D01*
X151316452Y-74268828D01*
X151316452Y-74316447D01*
X151292642Y-74387876D01*
X151006928Y-74673590D01*
X151316452Y-74673590D01*
%TO.C,C31*%
X163945071Y-71758928D02*
X163968880Y-71782738D01*
X163992690Y-71854166D01*
X163992690Y-71901785D01*
X163968880Y-71973214D01*
X163921261Y-72020833D01*
X163873642Y-72044642D01*
X163778404Y-72068452D01*
X163706976Y-72068452D01*
X163611738Y-72044642D01*
X163564119Y-72020833D01*
X163516500Y-71973214D01*
X163492690Y-71901785D01*
X163492690Y-71854166D01*
X163516500Y-71782738D01*
X163540309Y-71758928D01*
X163492690Y-71592261D02*
X163492690Y-71282738D01*
X163683166Y-71449404D01*
X163683166Y-71377976D01*
X163706976Y-71330357D01*
X163730785Y-71306547D01*
X163778404Y-71282738D01*
X163897452Y-71282738D01*
X163945071Y-71306547D01*
X163968880Y-71330357D01*
X163992690Y-71377976D01*
X163992690Y-71520833D01*
X163968880Y-71568452D01*
X163945071Y-71592261D01*
X163992690Y-70806547D02*
X163992690Y-71092261D01*
X163992690Y-70949404D02*
X163492690Y-70949404D01*
X163564119Y-70997023D01*
X163611738Y-71044642D01*
X163635547Y-71092261D01*
%TO.C,C29*%
X151956271Y-80356828D02*
X151980080Y-80380638D01*
X152003890Y-80452066D01*
X152003890Y-80499685D01*
X151980080Y-80571114D01*
X151932461Y-80618733D01*
X151884842Y-80642542D01*
X151789604Y-80666352D01*
X151718176Y-80666352D01*
X151622938Y-80642542D01*
X151575319Y-80618733D01*
X151527700Y-80571114D01*
X151503890Y-80499685D01*
X151503890Y-80452066D01*
X151527700Y-80380638D01*
X151551509Y-80356828D01*
X151551509Y-80166352D02*
X151527700Y-80142542D01*
X151503890Y-80094923D01*
X151503890Y-79975876D01*
X151527700Y-79928257D01*
X151551509Y-79904447D01*
X151599128Y-79880638D01*
X151646747Y-79880638D01*
X151718176Y-79904447D01*
X152003890Y-80190161D01*
X152003890Y-79880638D01*
X152003890Y-79642542D02*
X152003890Y-79547304D01*
X151980080Y-79499685D01*
X151956271Y-79475876D01*
X151884842Y-79428257D01*
X151789604Y-79404447D01*
X151599128Y-79404447D01*
X151551509Y-79428257D01*
X151527700Y-79452066D01*
X151503890Y-79499685D01*
X151503890Y-79594923D01*
X151527700Y-79642542D01*
X151551509Y-79666352D01*
X151599128Y-79690161D01*
X151718176Y-79690161D01*
X151765795Y-79666352D01*
X151789604Y-79642542D01*
X151813414Y-79594923D01*
X151813414Y-79499685D01*
X151789604Y-79452066D01*
X151765795Y-79428257D01*
X151718176Y-79404447D01*
%TO.C,C27*%
X165469071Y-75441928D02*
X165492880Y-75465738D01*
X165516690Y-75537166D01*
X165516690Y-75584785D01*
X165492880Y-75656214D01*
X165445261Y-75703833D01*
X165397642Y-75727642D01*
X165302404Y-75751452D01*
X165230976Y-75751452D01*
X165135738Y-75727642D01*
X165088119Y-75703833D01*
X165040500Y-75656214D01*
X165016690Y-75584785D01*
X165016690Y-75537166D01*
X165040500Y-75465738D01*
X165064309Y-75441928D01*
X165064309Y-75251452D02*
X165040500Y-75227642D01*
X165016690Y-75180023D01*
X165016690Y-75060976D01*
X165040500Y-75013357D01*
X165064309Y-74989547D01*
X165111928Y-74965738D01*
X165159547Y-74965738D01*
X165230976Y-74989547D01*
X165516690Y-75275261D01*
X165516690Y-74965738D01*
X165016690Y-74799071D02*
X165016690Y-74465738D01*
X165516690Y-74680023D01*
%TO.C,C26*%
X146546071Y-78172428D02*
X146569880Y-78196238D01*
X146593690Y-78267666D01*
X146593690Y-78315285D01*
X146569880Y-78386714D01*
X146522261Y-78434333D01*
X146474642Y-78458142D01*
X146379404Y-78481952D01*
X146307976Y-78481952D01*
X146212738Y-78458142D01*
X146165119Y-78434333D01*
X146117500Y-78386714D01*
X146093690Y-78315285D01*
X146093690Y-78267666D01*
X146117500Y-78196238D01*
X146141309Y-78172428D01*
X146141309Y-77981952D02*
X146117500Y-77958142D01*
X146093690Y-77910523D01*
X146093690Y-77791476D01*
X146117500Y-77743857D01*
X146141309Y-77720047D01*
X146188928Y-77696238D01*
X146236547Y-77696238D01*
X146307976Y-77720047D01*
X146593690Y-78005761D01*
X146593690Y-77696238D01*
X146093690Y-77267666D02*
X146093690Y-77362904D01*
X146117500Y-77410523D01*
X146141309Y-77434333D01*
X146212738Y-77481952D01*
X146307976Y-77505761D01*
X146498452Y-77505761D01*
X146546071Y-77481952D01*
X146569880Y-77458142D01*
X146593690Y-77410523D01*
X146593690Y-77315285D01*
X146569880Y-77267666D01*
X146546071Y-77243857D01*
X146498452Y-77220047D01*
X146379404Y-77220047D01*
X146331785Y-77243857D01*
X146307976Y-77267666D01*
X146284166Y-77315285D01*
X146284166Y-77410523D01*
X146307976Y-77458142D01*
X146331785Y-77481952D01*
X146379404Y-77505761D01*
%TO.C,C25*%
X159436571Y-81855428D02*
X159460380Y-81879238D01*
X159484190Y-81950666D01*
X159484190Y-81998285D01*
X159460380Y-82069714D01*
X159412761Y-82117333D01*
X159365142Y-82141142D01*
X159269904Y-82164952D01*
X159198476Y-82164952D01*
X159103238Y-82141142D01*
X159055619Y-82117333D01*
X159008000Y-82069714D01*
X158984190Y-81998285D01*
X158984190Y-81950666D01*
X159008000Y-81879238D01*
X159031809Y-81855428D01*
X159031809Y-81664952D02*
X159008000Y-81641142D01*
X158984190Y-81593523D01*
X158984190Y-81474476D01*
X159008000Y-81426857D01*
X159031809Y-81403047D01*
X159079428Y-81379238D01*
X159127047Y-81379238D01*
X159198476Y-81403047D01*
X159484190Y-81688761D01*
X159484190Y-81379238D01*
X158984190Y-80926857D02*
X158984190Y-81164952D01*
X159222285Y-81188761D01*
X159198476Y-81164952D01*
X159174666Y-81117333D01*
X159174666Y-80998285D01*
X159198476Y-80950666D01*
X159222285Y-80926857D01*
X159269904Y-80903047D01*
X159388952Y-80903047D01*
X159436571Y-80926857D01*
X159460380Y-80950666D01*
X159484190Y-80998285D01*
X159484190Y-81117333D01*
X159460380Y-81164952D01*
X159436571Y-81188761D01*
%TO.C,C24*%
X153150071Y-72266928D02*
X153173880Y-72290738D01*
X153197690Y-72362166D01*
X153197690Y-72409785D01*
X153173880Y-72481214D01*
X153126261Y-72528833D01*
X153078642Y-72552642D01*
X152983404Y-72576452D01*
X152911976Y-72576452D01*
X152816738Y-72552642D01*
X152769119Y-72528833D01*
X152721500Y-72481214D01*
X152697690Y-72409785D01*
X152697690Y-72362166D01*
X152721500Y-72290738D01*
X152745309Y-72266928D01*
X152745309Y-72076452D02*
X152721500Y-72052642D01*
X152697690Y-72005023D01*
X152697690Y-71885976D01*
X152721500Y-71838357D01*
X152745309Y-71814547D01*
X152792928Y-71790738D01*
X152840547Y-71790738D01*
X152911976Y-71814547D01*
X153197690Y-72100261D01*
X153197690Y-71790738D01*
X152864357Y-71362166D02*
X153197690Y-71362166D01*
X152673880Y-71481214D02*
X153031023Y-71600261D01*
X153031023Y-71290738D01*
%TO.C,C23*%
X134489071Y-59551071D02*
X134465261Y-59574880D01*
X134393833Y-59598690D01*
X134346214Y-59598690D01*
X134274785Y-59574880D01*
X134227166Y-59527261D01*
X134203357Y-59479642D01*
X134179547Y-59384404D01*
X134179547Y-59312976D01*
X134203357Y-59217738D01*
X134227166Y-59170119D01*
X134274785Y-59122500D01*
X134346214Y-59098690D01*
X134393833Y-59098690D01*
X134465261Y-59122500D01*
X134489071Y-59146309D01*
X134679547Y-59146309D02*
X134703357Y-59122500D01*
X134750976Y-59098690D01*
X134870023Y-59098690D01*
X134917642Y-59122500D01*
X134941452Y-59146309D01*
X134965261Y-59193928D01*
X134965261Y-59241547D01*
X134941452Y-59312976D01*
X134655738Y-59598690D01*
X134965261Y-59598690D01*
X135131928Y-59098690D02*
X135441452Y-59098690D01*
X135274785Y-59289166D01*
X135346214Y-59289166D01*
X135393833Y-59312976D01*
X135417642Y-59336785D01*
X135441452Y-59384404D01*
X135441452Y-59503452D01*
X135417642Y-59551071D01*
X135393833Y-59574880D01*
X135346214Y-59598690D01*
X135203357Y-59598690D01*
X135155738Y-59574880D01*
X135131928Y-59551071D01*
%TO.C,C22*%
X130933071Y-59551071D02*
X130909261Y-59574880D01*
X130837833Y-59598690D01*
X130790214Y-59598690D01*
X130718785Y-59574880D01*
X130671166Y-59527261D01*
X130647357Y-59479642D01*
X130623547Y-59384404D01*
X130623547Y-59312976D01*
X130647357Y-59217738D01*
X130671166Y-59170119D01*
X130718785Y-59122500D01*
X130790214Y-59098690D01*
X130837833Y-59098690D01*
X130909261Y-59122500D01*
X130933071Y-59146309D01*
X131123547Y-59146309D02*
X131147357Y-59122500D01*
X131194976Y-59098690D01*
X131314023Y-59098690D01*
X131361642Y-59122500D01*
X131385452Y-59146309D01*
X131409261Y-59193928D01*
X131409261Y-59241547D01*
X131385452Y-59312976D01*
X131099738Y-59598690D01*
X131409261Y-59598690D01*
X131599738Y-59146309D02*
X131623547Y-59122500D01*
X131671166Y-59098690D01*
X131790214Y-59098690D01*
X131837833Y-59122500D01*
X131861642Y-59146309D01*
X131885452Y-59193928D01*
X131885452Y-59241547D01*
X131861642Y-59312976D01*
X131575928Y-59598690D01*
X131885452Y-59598690D01*
%TO.C,C21*%
X127377071Y-59551071D02*
X127353261Y-59574880D01*
X127281833Y-59598690D01*
X127234214Y-59598690D01*
X127162785Y-59574880D01*
X127115166Y-59527261D01*
X127091357Y-59479642D01*
X127067547Y-59384404D01*
X127067547Y-59312976D01*
X127091357Y-59217738D01*
X127115166Y-59170119D01*
X127162785Y-59122500D01*
X127234214Y-59098690D01*
X127281833Y-59098690D01*
X127353261Y-59122500D01*
X127377071Y-59146309D01*
X127567547Y-59146309D02*
X127591357Y-59122500D01*
X127638976Y-59098690D01*
X127758023Y-59098690D01*
X127805642Y-59122500D01*
X127829452Y-59146309D01*
X127853261Y-59193928D01*
X127853261Y-59241547D01*
X127829452Y-59312976D01*
X127543738Y-59598690D01*
X127853261Y-59598690D01*
X128329452Y-59598690D02*
X128043738Y-59598690D01*
X128186595Y-59598690D02*
X128186595Y-59098690D01*
X128138976Y-59170119D01*
X128091357Y-59217738D01*
X128043738Y-59241547D01*
%TO.C,C20*%
X123821071Y-59551071D02*
X123797261Y-59574880D01*
X123725833Y-59598690D01*
X123678214Y-59598690D01*
X123606785Y-59574880D01*
X123559166Y-59527261D01*
X123535357Y-59479642D01*
X123511547Y-59384404D01*
X123511547Y-59312976D01*
X123535357Y-59217738D01*
X123559166Y-59170119D01*
X123606785Y-59122500D01*
X123678214Y-59098690D01*
X123725833Y-59098690D01*
X123797261Y-59122500D01*
X123821071Y-59146309D01*
X124011547Y-59146309D02*
X124035357Y-59122500D01*
X124082976Y-59098690D01*
X124202023Y-59098690D01*
X124249642Y-59122500D01*
X124273452Y-59146309D01*
X124297261Y-59193928D01*
X124297261Y-59241547D01*
X124273452Y-59312976D01*
X123987738Y-59598690D01*
X124297261Y-59598690D01*
X124606785Y-59098690D02*
X124654404Y-59098690D01*
X124702023Y-59122500D01*
X124725833Y-59146309D01*
X124749642Y-59193928D01*
X124773452Y-59289166D01*
X124773452Y-59408214D01*
X124749642Y-59503452D01*
X124725833Y-59551071D01*
X124702023Y-59574880D01*
X124654404Y-59598690D01*
X124606785Y-59598690D01*
X124559166Y-59574880D01*
X124535357Y-59551071D01*
X124511547Y-59503452D01*
X124487738Y-59408214D01*
X124487738Y-59289166D01*
X124511547Y-59193928D01*
X124535357Y-59146309D01*
X124559166Y-59122500D01*
X124606785Y-59098690D01*
%TO.C,C19*%
X120265071Y-59551071D02*
X120241261Y-59574880D01*
X120169833Y-59598690D01*
X120122214Y-59598690D01*
X120050785Y-59574880D01*
X120003166Y-59527261D01*
X119979357Y-59479642D01*
X119955547Y-59384404D01*
X119955547Y-59312976D01*
X119979357Y-59217738D01*
X120003166Y-59170119D01*
X120050785Y-59122500D01*
X120122214Y-59098690D01*
X120169833Y-59098690D01*
X120241261Y-59122500D01*
X120265071Y-59146309D01*
X120741261Y-59598690D02*
X120455547Y-59598690D01*
X120598404Y-59598690D02*
X120598404Y-59098690D01*
X120550785Y-59170119D01*
X120503166Y-59217738D01*
X120455547Y-59241547D01*
X120979357Y-59598690D02*
X121074595Y-59598690D01*
X121122214Y-59574880D01*
X121146023Y-59551071D01*
X121193642Y-59479642D01*
X121217452Y-59384404D01*
X121217452Y-59193928D01*
X121193642Y-59146309D01*
X121169833Y-59122500D01*
X121122214Y-59098690D01*
X121026976Y-59098690D01*
X120979357Y-59122500D01*
X120955547Y-59146309D01*
X120931738Y-59193928D01*
X120931738Y-59312976D01*
X120955547Y-59360595D01*
X120979357Y-59384404D01*
X121026976Y-59408214D01*
X121122214Y-59408214D01*
X121169833Y-59384404D01*
X121193642Y-59360595D01*
X121217452Y-59312976D01*
%TO.C,C18*%
X116709071Y-59551071D02*
X116685261Y-59574880D01*
X116613833Y-59598690D01*
X116566214Y-59598690D01*
X116494785Y-59574880D01*
X116447166Y-59527261D01*
X116423357Y-59479642D01*
X116399547Y-59384404D01*
X116399547Y-59312976D01*
X116423357Y-59217738D01*
X116447166Y-59170119D01*
X116494785Y-59122500D01*
X116566214Y-59098690D01*
X116613833Y-59098690D01*
X116685261Y-59122500D01*
X116709071Y-59146309D01*
X117185261Y-59598690D02*
X116899547Y-59598690D01*
X117042404Y-59598690D02*
X117042404Y-59098690D01*
X116994785Y-59170119D01*
X116947166Y-59217738D01*
X116899547Y-59241547D01*
X117470976Y-59312976D02*
X117423357Y-59289166D01*
X117399547Y-59265357D01*
X117375738Y-59217738D01*
X117375738Y-59193928D01*
X117399547Y-59146309D01*
X117423357Y-59122500D01*
X117470976Y-59098690D01*
X117566214Y-59098690D01*
X117613833Y-59122500D01*
X117637642Y-59146309D01*
X117661452Y-59193928D01*
X117661452Y-59217738D01*
X117637642Y-59265357D01*
X117613833Y-59289166D01*
X117566214Y-59312976D01*
X117470976Y-59312976D01*
X117423357Y-59336785D01*
X117399547Y-59360595D01*
X117375738Y-59408214D01*
X117375738Y-59503452D01*
X117399547Y-59551071D01*
X117423357Y-59574880D01*
X117470976Y-59598690D01*
X117566214Y-59598690D01*
X117613833Y-59574880D01*
X117637642Y-59551071D01*
X117661452Y-59503452D01*
X117661452Y-59408214D01*
X117637642Y-59360595D01*
X117613833Y-59336785D01*
X117566214Y-59312976D01*
%TO.C,C17*%
X113153071Y-59551071D02*
X113129261Y-59574880D01*
X113057833Y-59598690D01*
X113010214Y-59598690D01*
X112938785Y-59574880D01*
X112891166Y-59527261D01*
X112867357Y-59479642D01*
X112843547Y-59384404D01*
X112843547Y-59312976D01*
X112867357Y-59217738D01*
X112891166Y-59170119D01*
X112938785Y-59122500D01*
X113010214Y-59098690D01*
X113057833Y-59098690D01*
X113129261Y-59122500D01*
X113153071Y-59146309D01*
X113629261Y-59598690D02*
X113343547Y-59598690D01*
X113486404Y-59598690D02*
X113486404Y-59098690D01*
X113438785Y-59170119D01*
X113391166Y-59217738D01*
X113343547Y-59241547D01*
X113795928Y-59098690D02*
X114129261Y-59098690D01*
X113914976Y-59598690D01*
%TO.C,C16*%
X109597071Y-59551071D02*
X109573261Y-59574880D01*
X109501833Y-59598690D01*
X109454214Y-59598690D01*
X109382785Y-59574880D01*
X109335166Y-59527261D01*
X109311357Y-59479642D01*
X109287547Y-59384404D01*
X109287547Y-59312976D01*
X109311357Y-59217738D01*
X109335166Y-59170119D01*
X109382785Y-59122500D01*
X109454214Y-59098690D01*
X109501833Y-59098690D01*
X109573261Y-59122500D01*
X109597071Y-59146309D01*
X110073261Y-59598690D02*
X109787547Y-59598690D01*
X109930404Y-59598690D02*
X109930404Y-59098690D01*
X109882785Y-59170119D01*
X109835166Y-59217738D01*
X109787547Y-59241547D01*
X110501833Y-59098690D02*
X110406595Y-59098690D01*
X110358976Y-59122500D01*
X110335166Y-59146309D01*
X110287547Y-59217738D01*
X110263738Y-59312976D01*
X110263738Y-59503452D01*
X110287547Y-59551071D01*
X110311357Y-59574880D01*
X110358976Y-59598690D01*
X110454214Y-59598690D01*
X110501833Y-59574880D01*
X110525642Y-59551071D01*
X110549452Y-59503452D01*
X110549452Y-59384404D01*
X110525642Y-59336785D01*
X110501833Y-59312976D01*
X110454214Y-59289166D01*
X110358976Y-59289166D01*
X110311357Y-59312976D01*
X110287547Y-59336785D01*
X110263738Y-59384404D01*
%TO.C,C15*%
X118868071Y-50597571D02*
X118844261Y-50621380D01*
X118772833Y-50645190D01*
X118725214Y-50645190D01*
X118653785Y-50621380D01*
X118606166Y-50573761D01*
X118582357Y-50526142D01*
X118558547Y-50430904D01*
X118558547Y-50359476D01*
X118582357Y-50264238D01*
X118606166Y-50216619D01*
X118653785Y-50169000D01*
X118725214Y-50145190D01*
X118772833Y-50145190D01*
X118844261Y-50169000D01*
X118868071Y-50192809D01*
X119344261Y-50645190D02*
X119058547Y-50645190D01*
X119201404Y-50645190D02*
X119201404Y-50145190D01*
X119153785Y-50216619D01*
X119106166Y-50264238D01*
X119058547Y-50288047D01*
X119796642Y-50145190D02*
X119558547Y-50145190D01*
X119534738Y-50383285D01*
X119558547Y-50359476D01*
X119606166Y-50335666D01*
X119725214Y-50335666D01*
X119772833Y-50359476D01*
X119796642Y-50383285D01*
X119820452Y-50430904D01*
X119820452Y-50549952D01*
X119796642Y-50597571D01*
X119772833Y-50621380D01*
X119725214Y-50645190D01*
X119606166Y-50645190D01*
X119558547Y-50621380D01*
X119534738Y-50597571D01*
%TO.C,C14*%
X206371071Y-75680071D02*
X206347261Y-75703880D01*
X206275833Y-75727690D01*
X206228214Y-75727690D01*
X206156785Y-75703880D01*
X206109166Y-75656261D01*
X206085357Y-75608642D01*
X206061547Y-75513404D01*
X206061547Y-75441976D01*
X206085357Y-75346738D01*
X206109166Y-75299119D01*
X206156785Y-75251500D01*
X206228214Y-75227690D01*
X206275833Y-75227690D01*
X206347261Y-75251500D01*
X206371071Y-75275309D01*
X206847261Y-75727690D02*
X206561547Y-75727690D01*
X206704404Y-75727690D02*
X206704404Y-75227690D01*
X206656785Y-75299119D01*
X206609166Y-75346738D01*
X206561547Y-75370547D01*
X207275833Y-75394357D02*
X207275833Y-75727690D01*
X207156785Y-75203880D02*
X207037738Y-75561023D01*
X207347261Y-75561023D01*
%TO.C,C13*%
X172898571Y-63059428D02*
X172922380Y-63083238D01*
X172946190Y-63154666D01*
X172946190Y-63202285D01*
X172922380Y-63273714D01*
X172874761Y-63321333D01*
X172827142Y-63345142D01*
X172731904Y-63368952D01*
X172660476Y-63368952D01*
X172565238Y-63345142D01*
X172517619Y-63321333D01*
X172470000Y-63273714D01*
X172446190Y-63202285D01*
X172446190Y-63154666D01*
X172470000Y-63083238D01*
X172493809Y-63059428D01*
X172946190Y-62583238D02*
X172946190Y-62868952D01*
X172946190Y-62726095D02*
X172446190Y-62726095D01*
X172517619Y-62773714D01*
X172565238Y-62821333D01*
X172589047Y-62868952D01*
X172446190Y-62416571D02*
X172446190Y-62107047D01*
X172636666Y-62273714D01*
X172636666Y-62202285D01*
X172660476Y-62154666D01*
X172684285Y-62130857D01*
X172731904Y-62107047D01*
X172850952Y-62107047D01*
X172898571Y-62130857D01*
X172922380Y-62154666D01*
X172946190Y-62202285D01*
X172946190Y-62345142D01*
X172922380Y-62392761D01*
X172898571Y-62416571D01*
%TO.C,C11*%
X165189671Y-61637028D02*
X165213480Y-61660838D01*
X165237290Y-61732266D01*
X165237290Y-61779885D01*
X165213480Y-61851314D01*
X165165861Y-61898933D01*
X165118242Y-61922742D01*
X165023004Y-61946552D01*
X164951576Y-61946552D01*
X164856338Y-61922742D01*
X164808719Y-61898933D01*
X164761100Y-61851314D01*
X164737290Y-61779885D01*
X164737290Y-61732266D01*
X164761100Y-61660838D01*
X164784909Y-61637028D01*
X165237290Y-61160838D02*
X165237290Y-61446552D01*
X165237290Y-61303695D02*
X164737290Y-61303695D01*
X164808719Y-61351314D01*
X164856338Y-61398933D01*
X164880147Y-61446552D01*
X165237290Y-60684647D02*
X165237290Y-60970361D01*
X165237290Y-60827504D02*
X164737290Y-60827504D01*
X164808719Y-60875123D01*
X164856338Y-60922742D01*
X164880147Y-60970361D01*
%TO.C,C9*%
X169626766Y-44603171D02*
X169602957Y-44626980D01*
X169531528Y-44650790D01*
X169483909Y-44650790D01*
X169412480Y-44626980D01*
X169364861Y-44579361D01*
X169341052Y-44531742D01*
X169317242Y-44436504D01*
X169317242Y-44365076D01*
X169341052Y-44269838D01*
X169364861Y-44222219D01*
X169412480Y-44174600D01*
X169483909Y-44150790D01*
X169531528Y-44150790D01*
X169602957Y-44174600D01*
X169626766Y-44198409D01*
X169864861Y-44650790D02*
X169960100Y-44650790D01*
X170007719Y-44626980D01*
X170031528Y-44603171D01*
X170079147Y-44531742D01*
X170102957Y-44436504D01*
X170102957Y-44246028D01*
X170079147Y-44198409D01*
X170055338Y-44174600D01*
X170007719Y-44150790D01*
X169912480Y-44150790D01*
X169864861Y-44174600D01*
X169841052Y-44198409D01*
X169817242Y-44246028D01*
X169817242Y-44365076D01*
X169841052Y-44412695D01*
X169864861Y-44436504D01*
X169912480Y-44460314D01*
X170007719Y-44460314D01*
X170055338Y-44436504D01*
X170079147Y-44412695D01*
X170102957Y-44365076D01*
%TO.C,C6*%
X178105571Y-71901833D02*
X178129380Y-71925642D01*
X178153190Y-71997071D01*
X178153190Y-72044690D01*
X178129380Y-72116119D01*
X178081761Y-72163738D01*
X178034142Y-72187547D01*
X177938904Y-72211357D01*
X177867476Y-72211357D01*
X177772238Y-72187547D01*
X177724619Y-72163738D01*
X177677000Y-72116119D01*
X177653190Y-72044690D01*
X177653190Y-71997071D01*
X177677000Y-71925642D01*
X177700809Y-71901833D01*
X177653190Y-71473261D02*
X177653190Y-71568500D01*
X177677000Y-71616119D01*
X177700809Y-71639928D01*
X177772238Y-71687547D01*
X177867476Y-71711357D01*
X178057952Y-71711357D01*
X178105571Y-71687547D01*
X178129380Y-71663738D01*
X178153190Y-71616119D01*
X178153190Y-71520880D01*
X178129380Y-71473261D01*
X178105571Y-71449452D01*
X178057952Y-71425642D01*
X177938904Y-71425642D01*
X177891285Y-71449452D01*
X177867476Y-71473261D01*
X177843666Y-71520880D01*
X177843666Y-71616119D01*
X177867476Y-71663738D01*
X177891285Y-71687547D01*
X177938904Y-71711357D01*
%TO.C,C5*%
X182550571Y-71901833D02*
X182574380Y-71925642D01*
X182598190Y-71997071D01*
X182598190Y-72044690D01*
X182574380Y-72116119D01*
X182526761Y-72163738D01*
X182479142Y-72187547D01*
X182383904Y-72211357D01*
X182312476Y-72211357D01*
X182217238Y-72187547D01*
X182169619Y-72163738D01*
X182122000Y-72116119D01*
X182098190Y-72044690D01*
X182098190Y-71997071D01*
X182122000Y-71925642D01*
X182145809Y-71901833D01*
X182098190Y-71449452D02*
X182098190Y-71687547D01*
X182336285Y-71711357D01*
X182312476Y-71687547D01*
X182288666Y-71639928D01*
X182288666Y-71520880D01*
X182312476Y-71473261D01*
X182336285Y-71449452D01*
X182383904Y-71425642D01*
X182502952Y-71425642D01*
X182550571Y-71449452D01*
X182574380Y-71473261D01*
X182598190Y-71520880D01*
X182598190Y-71639928D01*
X182574380Y-71687547D01*
X182550571Y-71711357D01*
%TO.C,C4*%
X187122571Y-71901833D02*
X187146380Y-71925642D01*
X187170190Y-71997071D01*
X187170190Y-72044690D01*
X187146380Y-72116119D01*
X187098761Y-72163738D01*
X187051142Y-72187547D01*
X186955904Y-72211357D01*
X186884476Y-72211357D01*
X186789238Y-72187547D01*
X186741619Y-72163738D01*
X186694000Y-72116119D01*
X186670190Y-72044690D01*
X186670190Y-71997071D01*
X186694000Y-71925642D01*
X186717809Y-71901833D01*
X186836857Y-71473261D02*
X187170190Y-71473261D01*
X186646380Y-71592309D02*
X187003523Y-71711357D01*
X187003523Y-71401833D01*
%TO.C,C3*%
X191694571Y-71901833D02*
X191718380Y-71925642D01*
X191742190Y-71997071D01*
X191742190Y-72044690D01*
X191718380Y-72116119D01*
X191670761Y-72163738D01*
X191623142Y-72187547D01*
X191527904Y-72211357D01*
X191456476Y-72211357D01*
X191361238Y-72187547D01*
X191313619Y-72163738D01*
X191266000Y-72116119D01*
X191242190Y-72044690D01*
X191242190Y-71997071D01*
X191266000Y-71925642D01*
X191289809Y-71901833D01*
X191242190Y-71735166D02*
X191242190Y-71425642D01*
X191432666Y-71592309D01*
X191432666Y-71520880D01*
X191456476Y-71473261D01*
X191480285Y-71449452D01*
X191527904Y-71425642D01*
X191646952Y-71425642D01*
X191694571Y-71449452D01*
X191718380Y-71473261D01*
X191742190Y-71520880D01*
X191742190Y-71663738D01*
X191718380Y-71711357D01*
X191694571Y-71735166D01*
%TO.C,C2*%
X196393571Y-71965333D02*
X196417380Y-71989142D01*
X196441190Y-72060571D01*
X196441190Y-72108190D01*
X196417380Y-72179619D01*
X196369761Y-72227238D01*
X196322142Y-72251047D01*
X196226904Y-72274857D01*
X196155476Y-72274857D01*
X196060238Y-72251047D01*
X196012619Y-72227238D01*
X195965000Y-72179619D01*
X195941190Y-72108190D01*
X195941190Y-72060571D01*
X195965000Y-71989142D01*
X195988809Y-71965333D01*
X195988809Y-71774857D02*
X195965000Y-71751047D01*
X195941190Y-71703428D01*
X195941190Y-71584380D01*
X195965000Y-71536761D01*
X195988809Y-71512952D01*
X196036428Y-71489142D01*
X196084047Y-71489142D01*
X196155476Y-71512952D01*
X196441190Y-71798666D01*
X196441190Y-71489142D01*
%TO.C,C1*%
X200965571Y-71901833D02*
X200989380Y-71925642D01*
X201013190Y-71997071D01*
X201013190Y-72044690D01*
X200989380Y-72116119D01*
X200941761Y-72163738D01*
X200894142Y-72187547D01*
X200798904Y-72211357D01*
X200727476Y-72211357D01*
X200632238Y-72187547D01*
X200584619Y-72163738D01*
X200537000Y-72116119D01*
X200513190Y-72044690D01*
X200513190Y-71997071D01*
X200537000Y-71925642D01*
X200560809Y-71901833D01*
X201013190Y-71425642D02*
X201013190Y-71711357D01*
X201013190Y-71568500D02*
X200513190Y-71568500D01*
X200584619Y-71616119D01*
X200632238Y-71663738D01*
X200656047Y-71711357D01*
%TD*%
M02*
