%TF.GenerationSoftware,KiCad,Pcbnew,(5.1.10)-1*%
%TF.CreationDate,2023-09-09T18:46:00-05:00*%
%TF.ProjectId,multiplexer cell tester,6d756c74-6970-46c6-9578-65722063656c,B*%
%TF.SameCoordinates,Original*%
%TF.FileFunction,Copper,L2,Bot*%
%TF.FilePolarity,Positive*%
%FSLAX46Y46*%
G04 Gerber Fmt 4.6, Leading zero omitted, Abs format (unit mm)*
G04 Created by KiCad (PCBNEW (5.1.10)-1) date 2023-09-09 18:46:00*
%MOMM*%
%LPD*%
G01*
G04 APERTURE LIST*
%TA.AperFunction,ComponentPad*%
%ADD10C,11.000000*%
%TD*%
%TA.AperFunction,ComponentPad*%
%ADD11C,1.400000*%
%TD*%
%TA.AperFunction,ComponentPad*%
%ADD12R,1.700000X1.700000*%
%TD*%
%TA.AperFunction,ComponentPad*%
%ADD13O,1.700000X1.700000*%
%TD*%
%TA.AperFunction,ViaPad*%
%ADD14C,0.508000*%
%TD*%
%TA.AperFunction,Conductor*%
%ADD15C,0.152400*%
%TD*%
%TA.AperFunction,Conductor*%
%ADD16C,0.254000*%
%TD*%
%TA.AperFunction,Conductor*%
%ADD17C,0.508000*%
%TD*%
%TA.AperFunction,Conductor*%
%ADD18C,0.100000*%
%TD*%
G04 APERTURE END LIST*
D10*
%TO.P,REF\u002A\u002A,1*%
%TO.N,N/C*%
X86360000Y-42240000D03*
%TD*%
%TO.P,REF\u002A\u002A,1*%
%TO.N,N/C*%
X211360000Y-42240000D03*
%TD*%
%TO.P,REF\u002A\u002A,1*%
%TO.N,N/C*%
X211360000Y-142240000D03*
%TD*%
%TO.P,REF\u002A\u002A,1*%
%TO.N,N/C*%
X86360000Y-142240000D03*
%TD*%
D11*
%TO.P,TP17,2*%
%TO.N,READ_VOLTAGE*%
X144665700Y-82092800D03*
%TO.P,TP17,1*%
%TO.N,Net-(C29-Pad1)*%
X147205700Y-82092800D03*
%TD*%
%TO.P,TP16,2*%
%TO.N,READ_VOLTAGE*%
X144665700Y-82092800D03*
%TO.P,TP16,1*%
%TO.N,Net-(C28-Pad1)*%
X142125700Y-82092800D03*
%TD*%
%TO.P,TP15,2*%
%TO.N,Net-(J17-Pad1)*%
X120713500Y-137477500D03*
%TO.P,TP15,1*%
%TO.N,Net-(TP15-Pad1)*%
X118173500Y-137477500D03*
%TD*%
D12*
%TO.P,J17,1*%
%TO.N,Net-(J17-Pad1)*%
X120713500Y-140652500D03*
%TD*%
D11*
%TO.P,TP5,2*%
%TO.N,GND*%
X159702500Y-77216000D03*
%TO.P,TP5,1*%
%TO.N,Net-(C33-Pad1)*%
X157162500Y-77216000D03*
%TD*%
%TO.P,TP4,2*%
%TO.N,Net-(TP4-Pad2)*%
X154622500Y-77216000D03*
%TO.P,TP4,1*%
%TO.N,Net-(C33-Pad1)*%
X157162500Y-77216000D03*
%TD*%
D12*
%TO.P,TP3,1*%
%TO.N,GND*%
X139065000Y-70866000D03*
%TD*%
%TO.P,TP2,1*%
%TO.N,Net-(R24-Pad2)*%
X144145000Y-70866000D03*
%TD*%
D11*
%TO.P,TP1,2*%
%TO.N,Net-(R23-Pad2)*%
X160528000Y-68199000D03*
%TO.P,TP1,1*%
%TO.N,/Curve Tracer/PANEL_VOLTAGE*%
X163068000Y-68199000D03*
%TD*%
D13*
%TO.P,J7,3*%
%TO.N,GND*%
X197548500Y-80632300D03*
%TO.P,J7,2*%
%TO.N,A0*%
X200088500Y-80632300D03*
D12*
%TO.P,J7,1*%
%TO.N,+3V3*%
X202628500Y-80632300D03*
%TD*%
D13*
%TO.P,J6,3*%
%TO.N,GND*%
X197548500Y-85077300D03*
%TO.P,J6,2*%
%TO.N,A1*%
X200088500Y-85077300D03*
D12*
%TO.P,J6,1*%
%TO.N,+3V3*%
X202628500Y-85077300D03*
%TD*%
D13*
%TO.P,J5,3*%
%TO.N,GND*%
X197548500Y-89522300D03*
%TO.P,J5,2*%
%TO.N,A2*%
X200088500Y-89522300D03*
D12*
%TO.P,J5,1*%
%TO.N,+3V3*%
X202628500Y-89522300D03*
%TD*%
D13*
%TO.P,J4,10*%
%TO.N,/Curve Tracer/PANEL_VOLTAGE*%
X206666000Y-103501500D03*
%TO.P,J4,9*%
%TO.N,Net-(J4-Pad9)*%
X206666000Y-100961500D03*
%TO.P,J4,8*%
%TO.N,Net-(J4-Pad8)*%
X206666000Y-98421500D03*
%TO.P,J4,7*%
%TO.N,Net-(J4-Pad7)*%
X206666000Y-95881500D03*
%TO.P,J4,6*%
%TO.N,Net-(J4-Pad6)*%
X206666000Y-93341500D03*
%TO.P,J4,5*%
%TO.N,Net-(J4-Pad5)*%
X206666000Y-90801500D03*
%TO.P,J4,4*%
%TO.N,A2*%
X206666000Y-88261500D03*
%TO.P,J4,3*%
%TO.N,A1*%
X206666000Y-85721500D03*
%TO.P,J4,2*%
%TO.N,A0*%
X206666000Y-83181500D03*
D12*
%TO.P,J4,1*%
%TO.N,+3V3*%
X206666000Y-80641500D03*
%TD*%
D13*
%TO.P,J3,10*%
%TO.N,Net-(J3-Pad10)*%
X165166000Y-103501500D03*
%TO.P,J3,9*%
%TO.N,Net-(J3-Pad9)*%
X165166000Y-100961500D03*
%TO.P,J3,8*%
%TO.N,Net-(J3-Pad8)*%
X165166000Y-98421500D03*
%TO.P,J3,7*%
%TO.N,Net-(J3-Pad7)*%
X165166000Y-95881500D03*
%TO.P,J3,6*%
%TO.N,GND*%
X165166000Y-93341500D03*
%TO.P,J3,5*%
%TO.N,Net-(J3-Pad5)*%
X165166000Y-90801500D03*
%TO.P,J3,4*%
%TO.N,/Perovskite Switches/SCL*%
X165166000Y-88261500D03*
%TO.P,J3,3*%
%TO.N,/Perovskite Switches/SDA*%
X165166000Y-85721500D03*
%TO.P,J3,2*%
%TO.N,Net-(J3-Pad2)*%
X165166000Y-83181500D03*
D12*
%TO.P,J3,1*%
%TO.N,/Curve Tracer/PANEL_VOLTAGE*%
X165166000Y-80641500D03*
%TD*%
D13*
%TO.P,J2,10*%
%TO.N,Net-(J2-Pad10)*%
X146718200Y-123498600D03*
%TO.P,J2,9*%
%TO.N,Net-(J2-Pad9)*%
X146718200Y-120958600D03*
%TO.P,J2,8*%
%TO.N,Net-(J2-Pad8)*%
X146718200Y-118418600D03*
%TO.P,J2,7*%
%TO.N,Net-(J2-Pad7)*%
X146718200Y-115878600D03*
%TO.P,J2,6*%
%TO.N,Net-(J2-Pad6)*%
X146718200Y-113338600D03*
%TO.P,J2,5*%
%TO.N,Net-(J2-Pad5)*%
X146718200Y-110798600D03*
%TO.P,J2,4*%
%TO.N,Net-(J2-Pad4)*%
X146718200Y-108258600D03*
%TO.P,J2,3*%
%TO.N,Net-(J2-Pad3)*%
X146718200Y-105718600D03*
%TO.P,J2,2*%
%TO.N,Net-(J2-Pad2)*%
X146718200Y-103178600D03*
D12*
%TO.P,J2,1*%
%TO.N,GND*%
X146718200Y-100638600D03*
%TD*%
D13*
%TO.P,J1,10*%
%TO.N,/Perovskite Switches/SDA*%
X100218200Y-123498600D03*
%TO.P,J1,9*%
%TO.N,/Perovskite Switches/SCL*%
X100218200Y-120958600D03*
%TO.P,J1,8*%
%TO.N,Net-(J1-Pad8)*%
X100218200Y-118418600D03*
%TO.P,J1,7*%
%TO.N,Net-(J1-Pad7)*%
X100218200Y-115878600D03*
%TO.P,J1,6*%
%TO.N,Net-(J1-Pad6)*%
X100218200Y-113338600D03*
%TO.P,J1,5*%
%TO.N,READ_VOLTAGE*%
X100218200Y-110798600D03*
%TO.P,J1,4*%
%TO.N,Net-(J1-Pad4)*%
X100218200Y-108258600D03*
%TO.P,J1,3*%
%TO.N,Net-(J1-Pad3)*%
X100218200Y-105718600D03*
%TO.P,J1,2*%
%TO.N,READ_CURRENT*%
X100218200Y-103178600D03*
D12*
%TO.P,J1,1*%
%TO.N,Net-(FB1-Pad2)*%
X100218200Y-100638600D03*
%TD*%
D14*
%TO.N,GND*%
X111252000Y-66802000D03*
X114808000Y-66802000D03*
X118364000Y-66802000D03*
X121920000Y-66802000D03*
X125476000Y-66802000D03*
X129032000Y-66802000D03*
X132588000Y-66802000D03*
X136144000Y-66802000D03*
X108458000Y-68199000D03*
X108966000Y-60452000D03*
X112522000Y-60452000D03*
X116078000Y-60452000D03*
X119507000Y-60452000D03*
X123190000Y-60452000D03*
X126619000Y-60452000D03*
X130302000Y-60452000D03*
X133858000Y-60452000D03*
X137096500Y-50419000D03*
X146685000Y-73533000D03*
X148336000Y-72898000D03*
X151765000Y-75565000D03*
X145288000Y-78740000D03*
X148336000Y-80010000D03*
X137160000Y-80010000D03*
X137160000Y-75565000D03*
X158115000Y-83185000D03*
X155575000Y-83693000D03*
X162687000Y-76073000D03*
X159639000Y-75184000D03*
X158623000Y-73279000D03*
X154178000Y-70231000D03*
X163703000Y-70485000D03*
X112776000Y-141097000D03*
X112014000Y-137160000D03*
X207645000Y-76454000D03*
X201866500Y-73596500D03*
X197294500Y-73596500D03*
X192595500Y-73596500D03*
X188023500Y-73596500D03*
X183388000Y-73596500D03*
X179006500Y-73596500D03*
X176911000Y-65913000D03*
X181483000Y-65913000D03*
X186055000Y-65913000D03*
X190627000Y-65913000D03*
X195199000Y-65913000D03*
X199771000Y-65913000D03*
X170688000Y-45720000D03*
X165862000Y-44196000D03*
X170942000Y-50292000D03*
X168656000Y-61214000D03*
X187452000Y-48006000D03*
X173990000Y-64516000D03*
X124307600Y-56540400D03*
X121716800Y-48006000D03*
X124307600Y-48006000D03*
X113334800Y-48006000D03*
X110744000Y-48006000D03*
X115265200Y-48006000D03*
X133350000Y-47955200D03*
X130708400Y-47955200D03*
X135280400Y-47955200D03*
X132689600Y-56489600D03*
X113334800Y-56489600D03*
X115887500Y-51498500D03*
X119189500Y-54203600D03*
X202057000Y-68072000D03*
%TO.N,+3V3*%
X173990000Y-44196000D03*
X173990000Y-40386000D03*
%TO.N,~LADDER_RESET*%
X110744000Y-53086000D03*
X130683000Y-53086000D03*
X92773500Y-53060597D03*
%TO.N,LADDER_CLOCK*%
X114681000Y-56515000D03*
X121031000Y-56388000D03*
X92773500Y-52324000D03*
X114109500Y-52324000D03*
%TO.N,RESET_PANEL_SWITCH*%
X172212000Y-48768000D03*
X172212000Y-42164000D03*
%TO.N,10-19_CLOCK*%
X164592000Y-48895000D03*
X164592000Y-41148000D03*
%TO.N,ENABLE_PANEL_SWITCH*%
X166941500Y-44132500D03*
X166941500Y-41656000D03*
%TO.N,/Curve Tracer/PANEL_VOLTAGE*%
X197866000Y-75057000D03*
X167259000Y-75057000D03*
X176339500Y-75057000D03*
X181038500Y-75057000D03*
X185610500Y-75057000D03*
X190119000Y-75057000D03*
X194627500Y-75057000D03*
%TO.N,Net-(U12-Pad3)*%
X122428000Y-57277000D03*
X134620000Y-57277000D03*
%TO.N,LADDER_UD*%
X131445000Y-53721000D03*
X111379000Y-53721000D03*
X92773500Y-53721000D03*
%TD*%
D15*
%TO.N,+3V3*%
X173990000Y-44196000D02*
X173990000Y-40386000D01*
%TO.N,READ_VOLTAGE*%
X144665700Y-82092800D02*
X144665700Y-94094300D01*
X127961400Y-110798600D02*
X100218200Y-110798600D01*
X144665700Y-94094300D02*
X127961400Y-110798600D01*
%TO.N,~LADDER_RESET*%
X110744000Y-53086000D02*
X130683000Y-53086000D01*
X110718597Y-53060597D02*
X110744000Y-53086000D01*
X92773500Y-53060597D02*
X110718597Y-53060597D01*
%TO.N,LADDER_CLOCK*%
X120904000Y-56515000D02*
X121031000Y-56388000D01*
X114681000Y-56515000D02*
X120904000Y-56515000D01*
X92773500Y-52324000D02*
X114109500Y-52324000D01*
%TO.N,RESET_PANEL_SWITCH*%
X172212000Y-42164000D02*
X172212000Y-48768000D01*
%TO.N,10-19_CLOCK*%
X164592000Y-41148000D02*
X164592000Y-48895000D01*
%TO.N,ENABLE_PANEL_SWITCH*%
X166941500Y-41656000D02*
X166941500Y-44132500D01*
D16*
%TO.N,/Curve Tracer/PANEL_VOLTAGE*%
X206666000Y-103501500D02*
X195449500Y-103501500D01*
X172589500Y-80641500D02*
X165166000Y-80641500D01*
X195449500Y-103501500D02*
X172589500Y-80641500D01*
D17*
X176339500Y-75057000D02*
X167259000Y-75057000D01*
X181038500Y-75057000D02*
X176339500Y-75057000D01*
X185610500Y-75057000D02*
X181038500Y-75057000D01*
X190119000Y-75057000D02*
X185610500Y-75057000D01*
X194627500Y-75057000D02*
X190119000Y-75057000D01*
X197866000Y-75057000D02*
X194627500Y-75057000D01*
D15*
%TO.N,Net-(U12-Pad3)*%
X122428000Y-57277000D02*
X134620000Y-57277000D01*
%TO.N,LADDER_UD*%
X131445000Y-53721000D02*
X111379000Y-53721000D01*
X92773500Y-53721000D02*
X111379000Y-53721000D01*
%TD*%
D16*
%TO.N,GND*%
X212681942Y-33631414D02*
X213784181Y-33853663D01*
X214847331Y-34219736D01*
X215852737Y-34723205D01*
X216782722Y-35355221D01*
X217620947Y-36104682D01*
X218352692Y-36958424D01*
X218965088Y-37901432D01*
X219447391Y-38917159D01*
X219791123Y-39987757D01*
X219990616Y-41096494D01*
X220044001Y-42051360D01*
X220044000Y-142226537D01*
X219968586Y-143361944D01*
X219746338Y-144464177D01*
X219380264Y-145527332D01*
X218876795Y-146532737D01*
X218244779Y-147462721D01*
X217495318Y-148300947D01*
X216641580Y-149032690D01*
X215698568Y-149645088D01*
X214682837Y-150127393D01*
X213612244Y-150471122D01*
X212503506Y-150670616D01*
X211548659Y-150724000D01*
X86373463Y-150724000D01*
X85238056Y-150648586D01*
X84135823Y-150426338D01*
X83072668Y-150060264D01*
X82067263Y-149556795D01*
X81137279Y-148924779D01*
X80299053Y-148175318D01*
X79567310Y-147321580D01*
X78954912Y-146378568D01*
X78472607Y-145362837D01*
X78128878Y-144292244D01*
X77929384Y-143183506D01*
X77876000Y-142228659D01*
X77876000Y-141660772D01*
X80479000Y-141660772D01*
X80479000Y-142819228D01*
X80705003Y-143955425D01*
X81148325Y-145025698D01*
X81791929Y-145988919D01*
X82611081Y-146808071D01*
X83574302Y-147451675D01*
X84644575Y-147894997D01*
X85780772Y-148121000D01*
X86939228Y-148121000D01*
X88075425Y-147894997D01*
X89145698Y-147451675D01*
X90108919Y-146808071D01*
X90928071Y-145988919D01*
X91571675Y-145025698D01*
X92014997Y-143955425D01*
X92241000Y-142819228D01*
X92241000Y-141660772D01*
X92014997Y-140524575D01*
X91715904Y-139802500D01*
X119480657Y-139802500D01*
X119480657Y-141502500D01*
X119488013Y-141577189D01*
X119509799Y-141649008D01*
X119545178Y-141715196D01*
X119592789Y-141773211D01*
X119650804Y-141820822D01*
X119716992Y-141856201D01*
X119788811Y-141877987D01*
X119863500Y-141885343D01*
X121563500Y-141885343D01*
X121638189Y-141877987D01*
X121710008Y-141856201D01*
X121776196Y-141820822D01*
X121834211Y-141773211D01*
X121881822Y-141715196D01*
X121910912Y-141660772D01*
X205479000Y-141660772D01*
X205479000Y-142819228D01*
X205705003Y-143955425D01*
X206148325Y-145025698D01*
X206791929Y-145988919D01*
X207611081Y-146808071D01*
X208574302Y-147451675D01*
X209644575Y-147894997D01*
X210780772Y-148121000D01*
X211939228Y-148121000D01*
X213075425Y-147894997D01*
X214145698Y-147451675D01*
X215108919Y-146808071D01*
X215928071Y-145988919D01*
X216571675Y-145025698D01*
X217014997Y-143955425D01*
X217241000Y-142819228D01*
X217241000Y-141660772D01*
X217014997Y-140524575D01*
X216571675Y-139454302D01*
X215928071Y-138491081D01*
X215108919Y-137671929D01*
X214145698Y-137028325D01*
X213075425Y-136585003D01*
X211939228Y-136359000D01*
X210780772Y-136359000D01*
X209644575Y-136585003D01*
X208574302Y-137028325D01*
X207611081Y-137671929D01*
X206791929Y-138491081D01*
X206148325Y-139454302D01*
X205705003Y-140524575D01*
X205479000Y-141660772D01*
X121910912Y-141660772D01*
X121917201Y-141649008D01*
X121938987Y-141577189D01*
X121946343Y-141502500D01*
X121946343Y-139802500D01*
X121938987Y-139727811D01*
X121917201Y-139655992D01*
X121881822Y-139589804D01*
X121834211Y-139531789D01*
X121776196Y-139484178D01*
X121710008Y-139448799D01*
X121638189Y-139427013D01*
X121563500Y-139419657D01*
X119863500Y-139419657D01*
X119788811Y-139427013D01*
X119716992Y-139448799D01*
X119650804Y-139484178D01*
X119592789Y-139531789D01*
X119545178Y-139589804D01*
X119509799Y-139655992D01*
X119488013Y-139727811D01*
X119480657Y-139802500D01*
X91715904Y-139802500D01*
X91571675Y-139454302D01*
X90928071Y-138491081D01*
X90108919Y-137671929D01*
X89658594Y-137371031D01*
X117092500Y-137371031D01*
X117092500Y-137583969D01*
X117134043Y-137792816D01*
X117215531Y-137989545D01*
X117333833Y-138166597D01*
X117484403Y-138317167D01*
X117661455Y-138435469D01*
X117858184Y-138516957D01*
X118067031Y-138558500D01*
X118279969Y-138558500D01*
X118488816Y-138516957D01*
X118685545Y-138435469D01*
X118862597Y-138317167D01*
X119013167Y-138166597D01*
X119131469Y-137989545D01*
X119212957Y-137792816D01*
X119254500Y-137583969D01*
X119254500Y-137371031D01*
X119632500Y-137371031D01*
X119632500Y-137583969D01*
X119674043Y-137792816D01*
X119755531Y-137989545D01*
X119873833Y-138166597D01*
X120024403Y-138317167D01*
X120201455Y-138435469D01*
X120398184Y-138516957D01*
X120607031Y-138558500D01*
X120819969Y-138558500D01*
X121028816Y-138516957D01*
X121225545Y-138435469D01*
X121402597Y-138317167D01*
X121553167Y-138166597D01*
X121671469Y-137989545D01*
X121752957Y-137792816D01*
X121794500Y-137583969D01*
X121794500Y-137371031D01*
X121752957Y-137162184D01*
X121671469Y-136965455D01*
X121553167Y-136788403D01*
X121402597Y-136637833D01*
X121225545Y-136519531D01*
X121028816Y-136438043D01*
X120819969Y-136396500D01*
X120607031Y-136396500D01*
X120398184Y-136438043D01*
X120201455Y-136519531D01*
X120024403Y-136637833D01*
X119873833Y-136788403D01*
X119755531Y-136965455D01*
X119674043Y-137162184D01*
X119632500Y-137371031D01*
X119254500Y-137371031D01*
X119212957Y-137162184D01*
X119131469Y-136965455D01*
X119013167Y-136788403D01*
X118862597Y-136637833D01*
X118685545Y-136519531D01*
X118488816Y-136438043D01*
X118279969Y-136396500D01*
X118067031Y-136396500D01*
X117858184Y-136438043D01*
X117661455Y-136519531D01*
X117484403Y-136637833D01*
X117333833Y-136788403D01*
X117215531Y-136965455D01*
X117134043Y-137162184D01*
X117092500Y-137371031D01*
X89658594Y-137371031D01*
X89145698Y-137028325D01*
X88075425Y-136585003D01*
X86939228Y-136359000D01*
X85780772Y-136359000D01*
X84644575Y-136585003D01*
X83574302Y-137028325D01*
X82611081Y-137671929D01*
X81791929Y-138491081D01*
X81148325Y-139454302D01*
X80705003Y-140524575D01*
X80479000Y-141660772D01*
X77876000Y-141660772D01*
X77876000Y-123377357D01*
X98987200Y-123377357D01*
X98987200Y-123619843D01*
X99034507Y-123857669D01*
X99127302Y-124081697D01*
X99262020Y-124283317D01*
X99433483Y-124454780D01*
X99635103Y-124589498D01*
X99859131Y-124682293D01*
X100096957Y-124729600D01*
X100339443Y-124729600D01*
X100577269Y-124682293D01*
X100801297Y-124589498D01*
X101002917Y-124454780D01*
X101174380Y-124283317D01*
X101309098Y-124081697D01*
X101401893Y-123857669D01*
X101449200Y-123619843D01*
X101449200Y-123377357D01*
X145487200Y-123377357D01*
X145487200Y-123619843D01*
X145534507Y-123857669D01*
X145627302Y-124081697D01*
X145762020Y-124283317D01*
X145933483Y-124454780D01*
X146135103Y-124589498D01*
X146359131Y-124682293D01*
X146596957Y-124729600D01*
X146839443Y-124729600D01*
X147077269Y-124682293D01*
X147301297Y-124589498D01*
X147502917Y-124454780D01*
X147674380Y-124283317D01*
X147809098Y-124081697D01*
X147901893Y-123857669D01*
X147949200Y-123619843D01*
X147949200Y-123377357D01*
X147901893Y-123139531D01*
X147809098Y-122915503D01*
X147674380Y-122713883D01*
X147502917Y-122542420D01*
X147301297Y-122407702D01*
X147077269Y-122314907D01*
X146839443Y-122267600D01*
X146596957Y-122267600D01*
X146359131Y-122314907D01*
X146135103Y-122407702D01*
X145933483Y-122542420D01*
X145762020Y-122713883D01*
X145627302Y-122915503D01*
X145534507Y-123139531D01*
X145487200Y-123377357D01*
X101449200Y-123377357D01*
X101401893Y-123139531D01*
X101309098Y-122915503D01*
X101174380Y-122713883D01*
X101002917Y-122542420D01*
X100801297Y-122407702D01*
X100577269Y-122314907D01*
X100339443Y-122267600D01*
X100096957Y-122267600D01*
X99859131Y-122314907D01*
X99635103Y-122407702D01*
X99433483Y-122542420D01*
X99262020Y-122713883D01*
X99127302Y-122915503D01*
X99034507Y-123139531D01*
X98987200Y-123377357D01*
X77876000Y-123377357D01*
X77876000Y-120837357D01*
X98987200Y-120837357D01*
X98987200Y-121079843D01*
X99034507Y-121317669D01*
X99127302Y-121541697D01*
X99262020Y-121743317D01*
X99433483Y-121914780D01*
X99635103Y-122049498D01*
X99859131Y-122142293D01*
X100096957Y-122189600D01*
X100339443Y-122189600D01*
X100577269Y-122142293D01*
X100801297Y-122049498D01*
X101002917Y-121914780D01*
X101174380Y-121743317D01*
X101309098Y-121541697D01*
X101401893Y-121317669D01*
X101449200Y-121079843D01*
X101449200Y-120837357D01*
X145487200Y-120837357D01*
X145487200Y-121079843D01*
X145534507Y-121317669D01*
X145627302Y-121541697D01*
X145762020Y-121743317D01*
X145933483Y-121914780D01*
X146135103Y-122049498D01*
X146359131Y-122142293D01*
X146596957Y-122189600D01*
X146839443Y-122189600D01*
X147077269Y-122142293D01*
X147301297Y-122049498D01*
X147502917Y-121914780D01*
X147674380Y-121743317D01*
X147809098Y-121541697D01*
X147901893Y-121317669D01*
X147949200Y-121079843D01*
X147949200Y-120837357D01*
X147901893Y-120599531D01*
X147809098Y-120375503D01*
X147674380Y-120173883D01*
X147502917Y-120002420D01*
X147301297Y-119867702D01*
X147077269Y-119774907D01*
X146839443Y-119727600D01*
X146596957Y-119727600D01*
X146359131Y-119774907D01*
X146135103Y-119867702D01*
X145933483Y-120002420D01*
X145762020Y-120173883D01*
X145627302Y-120375503D01*
X145534507Y-120599531D01*
X145487200Y-120837357D01*
X101449200Y-120837357D01*
X101401893Y-120599531D01*
X101309098Y-120375503D01*
X101174380Y-120173883D01*
X101002917Y-120002420D01*
X100801297Y-119867702D01*
X100577269Y-119774907D01*
X100339443Y-119727600D01*
X100096957Y-119727600D01*
X99859131Y-119774907D01*
X99635103Y-119867702D01*
X99433483Y-120002420D01*
X99262020Y-120173883D01*
X99127302Y-120375503D01*
X99034507Y-120599531D01*
X98987200Y-120837357D01*
X77876000Y-120837357D01*
X77876000Y-118297357D01*
X98987200Y-118297357D01*
X98987200Y-118539843D01*
X99034507Y-118777669D01*
X99127302Y-119001697D01*
X99262020Y-119203317D01*
X99433483Y-119374780D01*
X99635103Y-119509498D01*
X99859131Y-119602293D01*
X100096957Y-119649600D01*
X100339443Y-119649600D01*
X100577269Y-119602293D01*
X100801297Y-119509498D01*
X101002917Y-119374780D01*
X101174380Y-119203317D01*
X101309098Y-119001697D01*
X101401893Y-118777669D01*
X101449200Y-118539843D01*
X101449200Y-118297357D01*
X145487200Y-118297357D01*
X145487200Y-118539843D01*
X145534507Y-118777669D01*
X145627302Y-119001697D01*
X145762020Y-119203317D01*
X145933483Y-119374780D01*
X146135103Y-119509498D01*
X146359131Y-119602293D01*
X146596957Y-119649600D01*
X146839443Y-119649600D01*
X147077269Y-119602293D01*
X147301297Y-119509498D01*
X147502917Y-119374780D01*
X147674380Y-119203317D01*
X147809098Y-119001697D01*
X147901893Y-118777669D01*
X147949200Y-118539843D01*
X147949200Y-118297357D01*
X147901893Y-118059531D01*
X147809098Y-117835503D01*
X147674380Y-117633883D01*
X147502917Y-117462420D01*
X147301297Y-117327702D01*
X147077269Y-117234907D01*
X146839443Y-117187600D01*
X146596957Y-117187600D01*
X146359131Y-117234907D01*
X146135103Y-117327702D01*
X145933483Y-117462420D01*
X145762020Y-117633883D01*
X145627302Y-117835503D01*
X145534507Y-118059531D01*
X145487200Y-118297357D01*
X101449200Y-118297357D01*
X101401893Y-118059531D01*
X101309098Y-117835503D01*
X101174380Y-117633883D01*
X101002917Y-117462420D01*
X100801297Y-117327702D01*
X100577269Y-117234907D01*
X100339443Y-117187600D01*
X100096957Y-117187600D01*
X99859131Y-117234907D01*
X99635103Y-117327702D01*
X99433483Y-117462420D01*
X99262020Y-117633883D01*
X99127302Y-117835503D01*
X99034507Y-118059531D01*
X98987200Y-118297357D01*
X77876000Y-118297357D01*
X77876000Y-115757357D01*
X98987200Y-115757357D01*
X98987200Y-115999843D01*
X99034507Y-116237669D01*
X99127302Y-116461697D01*
X99262020Y-116663317D01*
X99433483Y-116834780D01*
X99635103Y-116969498D01*
X99859131Y-117062293D01*
X100096957Y-117109600D01*
X100339443Y-117109600D01*
X100577269Y-117062293D01*
X100801297Y-116969498D01*
X101002917Y-116834780D01*
X101174380Y-116663317D01*
X101309098Y-116461697D01*
X101401893Y-116237669D01*
X101449200Y-115999843D01*
X101449200Y-115757357D01*
X145487200Y-115757357D01*
X145487200Y-115999843D01*
X145534507Y-116237669D01*
X145627302Y-116461697D01*
X145762020Y-116663317D01*
X145933483Y-116834780D01*
X146135103Y-116969498D01*
X146359131Y-117062293D01*
X146596957Y-117109600D01*
X146839443Y-117109600D01*
X147077269Y-117062293D01*
X147301297Y-116969498D01*
X147502917Y-116834780D01*
X147674380Y-116663317D01*
X147809098Y-116461697D01*
X147901893Y-116237669D01*
X147949200Y-115999843D01*
X147949200Y-115757357D01*
X147901893Y-115519531D01*
X147809098Y-115295503D01*
X147674380Y-115093883D01*
X147502917Y-114922420D01*
X147301297Y-114787702D01*
X147077269Y-114694907D01*
X146839443Y-114647600D01*
X146596957Y-114647600D01*
X146359131Y-114694907D01*
X146135103Y-114787702D01*
X145933483Y-114922420D01*
X145762020Y-115093883D01*
X145627302Y-115295503D01*
X145534507Y-115519531D01*
X145487200Y-115757357D01*
X101449200Y-115757357D01*
X101401893Y-115519531D01*
X101309098Y-115295503D01*
X101174380Y-115093883D01*
X101002917Y-114922420D01*
X100801297Y-114787702D01*
X100577269Y-114694907D01*
X100339443Y-114647600D01*
X100096957Y-114647600D01*
X99859131Y-114694907D01*
X99635103Y-114787702D01*
X99433483Y-114922420D01*
X99262020Y-115093883D01*
X99127302Y-115295503D01*
X99034507Y-115519531D01*
X98987200Y-115757357D01*
X77876000Y-115757357D01*
X77876000Y-113217357D01*
X98987200Y-113217357D01*
X98987200Y-113459843D01*
X99034507Y-113697669D01*
X99127302Y-113921697D01*
X99262020Y-114123317D01*
X99433483Y-114294780D01*
X99635103Y-114429498D01*
X99859131Y-114522293D01*
X100096957Y-114569600D01*
X100339443Y-114569600D01*
X100577269Y-114522293D01*
X100801297Y-114429498D01*
X101002917Y-114294780D01*
X101174380Y-114123317D01*
X101309098Y-113921697D01*
X101401893Y-113697669D01*
X101449200Y-113459843D01*
X101449200Y-113217357D01*
X145487200Y-113217357D01*
X145487200Y-113459843D01*
X145534507Y-113697669D01*
X145627302Y-113921697D01*
X145762020Y-114123317D01*
X145933483Y-114294780D01*
X146135103Y-114429498D01*
X146359131Y-114522293D01*
X146596957Y-114569600D01*
X146839443Y-114569600D01*
X147077269Y-114522293D01*
X147301297Y-114429498D01*
X147502917Y-114294780D01*
X147674380Y-114123317D01*
X147809098Y-113921697D01*
X147901893Y-113697669D01*
X147949200Y-113459843D01*
X147949200Y-113217357D01*
X147901893Y-112979531D01*
X147809098Y-112755503D01*
X147674380Y-112553883D01*
X147502917Y-112382420D01*
X147301297Y-112247702D01*
X147077269Y-112154907D01*
X146839443Y-112107600D01*
X146596957Y-112107600D01*
X146359131Y-112154907D01*
X146135103Y-112247702D01*
X145933483Y-112382420D01*
X145762020Y-112553883D01*
X145627302Y-112755503D01*
X145534507Y-112979531D01*
X145487200Y-113217357D01*
X101449200Y-113217357D01*
X101401893Y-112979531D01*
X101309098Y-112755503D01*
X101174380Y-112553883D01*
X101002917Y-112382420D01*
X100801297Y-112247702D01*
X100577269Y-112154907D01*
X100339443Y-112107600D01*
X100096957Y-112107600D01*
X99859131Y-112154907D01*
X99635103Y-112247702D01*
X99433483Y-112382420D01*
X99262020Y-112553883D01*
X99127302Y-112755503D01*
X99034507Y-112979531D01*
X98987200Y-113217357D01*
X77876000Y-113217357D01*
X77876000Y-110677357D01*
X98987200Y-110677357D01*
X98987200Y-110919843D01*
X99034507Y-111157669D01*
X99127302Y-111381697D01*
X99262020Y-111583317D01*
X99433483Y-111754780D01*
X99635103Y-111889498D01*
X99859131Y-111982293D01*
X100096957Y-112029600D01*
X100339443Y-112029600D01*
X100577269Y-111982293D01*
X100801297Y-111889498D01*
X101002917Y-111754780D01*
X101174380Y-111583317D01*
X101309098Y-111381697D01*
X101361246Y-111255800D01*
X127938950Y-111255800D01*
X127961400Y-111258011D01*
X127983850Y-111255800D01*
X127983860Y-111255800D01*
X128051027Y-111249185D01*
X128137209Y-111223041D01*
X128216636Y-111180587D01*
X128286253Y-111123453D01*
X128300574Y-111106003D01*
X128729220Y-110677357D01*
X145487200Y-110677357D01*
X145487200Y-110919843D01*
X145534507Y-111157669D01*
X145627302Y-111381697D01*
X145762020Y-111583317D01*
X145933483Y-111754780D01*
X146135103Y-111889498D01*
X146359131Y-111982293D01*
X146596957Y-112029600D01*
X146839443Y-112029600D01*
X147077269Y-111982293D01*
X147301297Y-111889498D01*
X147502917Y-111754780D01*
X147674380Y-111583317D01*
X147809098Y-111381697D01*
X147901893Y-111157669D01*
X147949200Y-110919843D01*
X147949200Y-110677357D01*
X147901893Y-110439531D01*
X147809098Y-110215503D01*
X147674380Y-110013883D01*
X147502917Y-109842420D01*
X147301297Y-109707702D01*
X147077269Y-109614907D01*
X146839443Y-109567600D01*
X146596957Y-109567600D01*
X146359131Y-109614907D01*
X146135103Y-109707702D01*
X145933483Y-109842420D01*
X145762020Y-110013883D01*
X145627302Y-110215503D01*
X145534507Y-110439531D01*
X145487200Y-110677357D01*
X128729220Y-110677357D01*
X131269220Y-108137357D01*
X145487200Y-108137357D01*
X145487200Y-108379843D01*
X145534507Y-108617669D01*
X145627302Y-108841697D01*
X145762020Y-109043317D01*
X145933483Y-109214780D01*
X146135103Y-109349498D01*
X146359131Y-109442293D01*
X146596957Y-109489600D01*
X146839443Y-109489600D01*
X147077269Y-109442293D01*
X147301297Y-109349498D01*
X147502917Y-109214780D01*
X147674380Y-109043317D01*
X147809098Y-108841697D01*
X147901893Y-108617669D01*
X147949200Y-108379843D01*
X147949200Y-108137357D01*
X147901893Y-107899531D01*
X147809098Y-107675503D01*
X147674380Y-107473883D01*
X147502917Y-107302420D01*
X147301297Y-107167702D01*
X147077269Y-107074907D01*
X146839443Y-107027600D01*
X146596957Y-107027600D01*
X146359131Y-107074907D01*
X146135103Y-107167702D01*
X145933483Y-107302420D01*
X145762020Y-107473883D01*
X145627302Y-107675503D01*
X145534507Y-107899531D01*
X145487200Y-108137357D01*
X131269220Y-108137357D01*
X133809220Y-105597357D01*
X145487200Y-105597357D01*
X145487200Y-105839843D01*
X145534507Y-106077669D01*
X145627302Y-106301697D01*
X145762020Y-106503317D01*
X145933483Y-106674780D01*
X146135103Y-106809498D01*
X146359131Y-106902293D01*
X146596957Y-106949600D01*
X146839443Y-106949600D01*
X147077269Y-106902293D01*
X147301297Y-106809498D01*
X147502917Y-106674780D01*
X147674380Y-106503317D01*
X147809098Y-106301697D01*
X147901893Y-106077669D01*
X147949200Y-105839843D01*
X147949200Y-105597357D01*
X147901893Y-105359531D01*
X147809098Y-105135503D01*
X147674380Y-104933883D01*
X147502917Y-104762420D01*
X147301297Y-104627702D01*
X147077269Y-104534907D01*
X146839443Y-104487600D01*
X146596957Y-104487600D01*
X146359131Y-104534907D01*
X146135103Y-104627702D01*
X145933483Y-104762420D01*
X145762020Y-104933883D01*
X145627302Y-105135503D01*
X145534507Y-105359531D01*
X145487200Y-105597357D01*
X133809220Y-105597357D01*
X137917978Y-101488600D01*
X145230128Y-101488600D01*
X145242388Y-101613082D01*
X145278698Y-101732780D01*
X145337663Y-101843094D01*
X145417015Y-101939785D01*
X145513706Y-102019137D01*
X145624020Y-102078102D01*
X145743718Y-102114412D01*
X145868200Y-102126672D01*
X146078494Y-102125527D01*
X145933483Y-102222420D01*
X145762020Y-102393883D01*
X145627302Y-102595503D01*
X145534507Y-102819531D01*
X145487200Y-103057357D01*
X145487200Y-103299843D01*
X145534507Y-103537669D01*
X145627302Y-103761697D01*
X145762020Y-103963317D01*
X145933483Y-104134780D01*
X146135103Y-104269498D01*
X146359131Y-104362293D01*
X146596957Y-104409600D01*
X146839443Y-104409600D01*
X147077269Y-104362293D01*
X147301297Y-104269498D01*
X147502917Y-104134780D01*
X147674380Y-103963317D01*
X147809098Y-103761697D01*
X147901893Y-103537669D01*
X147933204Y-103380257D01*
X163935000Y-103380257D01*
X163935000Y-103622743D01*
X163982307Y-103860569D01*
X164075102Y-104084597D01*
X164209820Y-104286217D01*
X164381283Y-104457680D01*
X164582903Y-104592398D01*
X164806931Y-104685193D01*
X165044757Y-104732500D01*
X165287243Y-104732500D01*
X165525069Y-104685193D01*
X165749097Y-104592398D01*
X165950717Y-104457680D01*
X166122180Y-104286217D01*
X166256898Y-104084597D01*
X166349693Y-103860569D01*
X166397000Y-103622743D01*
X166397000Y-103380257D01*
X166349693Y-103142431D01*
X166256898Y-102918403D01*
X166122180Y-102716783D01*
X165950717Y-102545320D01*
X165749097Y-102410602D01*
X165525069Y-102317807D01*
X165287243Y-102270500D01*
X165044757Y-102270500D01*
X164806931Y-102317807D01*
X164582903Y-102410602D01*
X164381283Y-102545320D01*
X164209820Y-102716783D01*
X164075102Y-102918403D01*
X163982307Y-103142431D01*
X163935000Y-103380257D01*
X147933204Y-103380257D01*
X147949200Y-103299843D01*
X147949200Y-103057357D01*
X147901893Y-102819531D01*
X147809098Y-102595503D01*
X147674380Y-102393883D01*
X147502917Y-102222420D01*
X147357906Y-102125527D01*
X147568200Y-102126672D01*
X147692682Y-102114412D01*
X147812380Y-102078102D01*
X147922694Y-102019137D01*
X148019385Y-101939785D01*
X148098737Y-101843094D01*
X148157702Y-101732780D01*
X148194012Y-101613082D01*
X148206272Y-101488600D01*
X148203200Y-100924350D01*
X148119107Y-100840257D01*
X163935000Y-100840257D01*
X163935000Y-101082743D01*
X163982307Y-101320569D01*
X164075102Y-101544597D01*
X164209820Y-101746217D01*
X164381283Y-101917680D01*
X164582903Y-102052398D01*
X164806931Y-102145193D01*
X165044757Y-102192500D01*
X165287243Y-102192500D01*
X165525069Y-102145193D01*
X165749097Y-102052398D01*
X165950717Y-101917680D01*
X166122180Y-101746217D01*
X166256898Y-101544597D01*
X166349693Y-101320569D01*
X166397000Y-101082743D01*
X166397000Y-100840257D01*
X166349693Y-100602431D01*
X166256898Y-100378403D01*
X166122180Y-100176783D01*
X165950717Y-100005320D01*
X165749097Y-99870602D01*
X165525069Y-99777807D01*
X165287243Y-99730500D01*
X165044757Y-99730500D01*
X164806931Y-99777807D01*
X164582903Y-99870602D01*
X164381283Y-100005320D01*
X164209820Y-100176783D01*
X164075102Y-100378403D01*
X163982307Y-100602431D01*
X163935000Y-100840257D01*
X148119107Y-100840257D01*
X148044450Y-100765600D01*
X146845200Y-100765600D01*
X146845200Y-100785600D01*
X146591200Y-100785600D01*
X146591200Y-100765600D01*
X145391950Y-100765600D01*
X145233200Y-100924350D01*
X145230128Y-101488600D01*
X137917978Y-101488600D01*
X139617978Y-99788600D01*
X145230128Y-99788600D01*
X145233200Y-100352850D01*
X145391950Y-100511600D01*
X146591200Y-100511600D01*
X146591200Y-99312350D01*
X146845200Y-99312350D01*
X146845200Y-100511600D01*
X148044450Y-100511600D01*
X148203200Y-100352850D01*
X148206272Y-99788600D01*
X148194012Y-99664118D01*
X148157702Y-99544420D01*
X148098737Y-99434106D01*
X148019385Y-99337415D01*
X147922694Y-99258063D01*
X147812380Y-99199098D01*
X147692682Y-99162788D01*
X147568200Y-99150528D01*
X147003950Y-99153600D01*
X146845200Y-99312350D01*
X146591200Y-99312350D01*
X146432450Y-99153600D01*
X145868200Y-99150528D01*
X145743718Y-99162788D01*
X145624020Y-99199098D01*
X145513706Y-99258063D01*
X145417015Y-99337415D01*
X145337663Y-99434106D01*
X145278698Y-99544420D01*
X145242388Y-99664118D01*
X145230128Y-99788600D01*
X139617978Y-99788600D01*
X141106321Y-98300257D01*
X163935000Y-98300257D01*
X163935000Y-98542743D01*
X163982307Y-98780569D01*
X164075102Y-99004597D01*
X164209820Y-99206217D01*
X164381283Y-99377680D01*
X164582903Y-99512398D01*
X164806931Y-99605193D01*
X165044757Y-99652500D01*
X165287243Y-99652500D01*
X165525069Y-99605193D01*
X165749097Y-99512398D01*
X165950717Y-99377680D01*
X166122180Y-99206217D01*
X166256898Y-99004597D01*
X166349693Y-98780569D01*
X166397000Y-98542743D01*
X166397000Y-98300257D01*
X166349693Y-98062431D01*
X166256898Y-97838403D01*
X166122180Y-97636783D01*
X165950717Y-97465320D01*
X165749097Y-97330602D01*
X165525069Y-97237807D01*
X165287243Y-97190500D01*
X165044757Y-97190500D01*
X164806931Y-97237807D01*
X164582903Y-97330602D01*
X164381283Y-97465320D01*
X164209820Y-97636783D01*
X164075102Y-97838403D01*
X163982307Y-98062431D01*
X163935000Y-98300257D01*
X141106321Y-98300257D01*
X144973114Y-94433465D01*
X144990553Y-94419153D01*
X145004865Y-94401714D01*
X145004871Y-94401708D01*
X145047687Y-94349536D01*
X145090141Y-94270110D01*
X145096226Y-94250051D01*
X145116285Y-94183927D01*
X145122900Y-94116760D01*
X145122900Y-94116750D01*
X145125111Y-94094300D01*
X145122900Y-94071850D01*
X145122900Y-93698390D01*
X163724524Y-93698390D01*
X163769175Y-93845599D01*
X163894359Y-94108420D01*
X164068412Y-94341769D01*
X164284645Y-94536678D01*
X164534748Y-94685657D01*
X164697168Y-94743272D01*
X164582903Y-94790602D01*
X164381283Y-94925320D01*
X164209820Y-95096783D01*
X164075102Y-95298403D01*
X163982307Y-95522431D01*
X163935000Y-95760257D01*
X163935000Y-96002743D01*
X163982307Y-96240569D01*
X164075102Y-96464597D01*
X164209820Y-96666217D01*
X164381283Y-96837680D01*
X164582903Y-96972398D01*
X164806931Y-97065193D01*
X165044757Y-97112500D01*
X165287243Y-97112500D01*
X165525069Y-97065193D01*
X165749097Y-96972398D01*
X165950717Y-96837680D01*
X166122180Y-96666217D01*
X166256898Y-96464597D01*
X166349693Y-96240569D01*
X166397000Y-96002743D01*
X166397000Y-95760257D01*
X166349693Y-95522431D01*
X166256898Y-95298403D01*
X166122180Y-95096783D01*
X165950717Y-94925320D01*
X165749097Y-94790602D01*
X165634832Y-94743272D01*
X165797252Y-94685657D01*
X166047355Y-94536678D01*
X166263588Y-94341769D01*
X166437641Y-94108420D01*
X166562825Y-93845599D01*
X166607476Y-93698390D01*
X166486155Y-93468500D01*
X165293000Y-93468500D01*
X165293000Y-93488500D01*
X165039000Y-93488500D01*
X165039000Y-93468500D01*
X163845845Y-93468500D01*
X163724524Y-93698390D01*
X145122900Y-93698390D01*
X145122900Y-92984610D01*
X163724524Y-92984610D01*
X163845845Y-93214500D01*
X165039000Y-93214500D01*
X165039000Y-93194500D01*
X165293000Y-93194500D01*
X165293000Y-93214500D01*
X166486155Y-93214500D01*
X166607476Y-92984610D01*
X166562825Y-92837401D01*
X166437641Y-92574580D01*
X166263588Y-92341231D01*
X166047355Y-92146322D01*
X165797252Y-91997343D01*
X165634832Y-91939728D01*
X165749097Y-91892398D01*
X165950717Y-91757680D01*
X166122180Y-91586217D01*
X166256898Y-91384597D01*
X166349693Y-91160569D01*
X166397000Y-90922743D01*
X166397000Y-90680257D01*
X166349693Y-90442431D01*
X166256898Y-90218403D01*
X166122180Y-90016783D01*
X165950717Y-89845320D01*
X165749097Y-89710602D01*
X165525069Y-89617807D01*
X165287243Y-89570500D01*
X165044757Y-89570500D01*
X164806931Y-89617807D01*
X164582903Y-89710602D01*
X164381283Y-89845320D01*
X164209820Y-90016783D01*
X164075102Y-90218403D01*
X163982307Y-90442431D01*
X163935000Y-90680257D01*
X163935000Y-90922743D01*
X163982307Y-91160569D01*
X164075102Y-91384597D01*
X164209820Y-91586217D01*
X164381283Y-91757680D01*
X164582903Y-91892398D01*
X164697168Y-91939728D01*
X164534748Y-91997343D01*
X164284645Y-92146322D01*
X164068412Y-92341231D01*
X163894359Y-92574580D01*
X163769175Y-92837401D01*
X163724524Y-92984610D01*
X145122900Y-92984610D01*
X145122900Y-88140257D01*
X163935000Y-88140257D01*
X163935000Y-88382743D01*
X163982307Y-88620569D01*
X164075102Y-88844597D01*
X164209820Y-89046217D01*
X164381283Y-89217680D01*
X164582903Y-89352398D01*
X164806931Y-89445193D01*
X165044757Y-89492500D01*
X165287243Y-89492500D01*
X165525069Y-89445193D01*
X165749097Y-89352398D01*
X165950717Y-89217680D01*
X166122180Y-89046217D01*
X166256898Y-88844597D01*
X166349693Y-88620569D01*
X166397000Y-88382743D01*
X166397000Y-88140257D01*
X166349693Y-87902431D01*
X166256898Y-87678403D01*
X166122180Y-87476783D01*
X165950717Y-87305320D01*
X165749097Y-87170602D01*
X165525069Y-87077807D01*
X165287243Y-87030500D01*
X165044757Y-87030500D01*
X164806931Y-87077807D01*
X164582903Y-87170602D01*
X164381283Y-87305320D01*
X164209820Y-87476783D01*
X164075102Y-87678403D01*
X163982307Y-87902431D01*
X163935000Y-88140257D01*
X145122900Y-88140257D01*
X145122900Y-85600257D01*
X163935000Y-85600257D01*
X163935000Y-85842743D01*
X163982307Y-86080569D01*
X164075102Y-86304597D01*
X164209820Y-86506217D01*
X164381283Y-86677680D01*
X164582903Y-86812398D01*
X164806931Y-86905193D01*
X165044757Y-86952500D01*
X165287243Y-86952500D01*
X165525069Y-86905193D01*
X165749097Y-86812398D01*
X165950717Y-86677680D01*
X166122180Y-86506217D01*
X166256898Y-86304597D01*
X166349693Y-86080569D01*
X166397000Y-85842743D01*
X166397000Y-85600257D01*
X166349693Y-85362431D01*
X166256898Y-85138403D01*
X166122180Y-84936783D01*
X165950717Y-84765320D01*
X165749097Y-84630602D01*
X165525069Y-84537807D01*
X165287243Y-84490500D01*
X165044757Y-84490500D01*
X164806931Y-84537807D01*
X164582903Y-84630602D01*
X164381283Y-84765320D01*
X164209820Y-84936783D01*
X164075102Y-85138403D01*
X163982307Y-85362431D01*
X163935000Y-85600257D01*
X145122900Y-85600257D01*
X145122900Y-83073487D01*
X145177745Y-83050769D01*
X145354797Y-82932467D01*
X145505367Y-82781897D01*
X145623669Y-82604845D01*
X145705157Y-82408116D01*
X145746700Y-82199269D01*
X145746700Y-81986331D01*
X146124700Y-81986331D01*
X146124700Y-82199269D01*
X146166243Y-82408116D01*
X146247731Y-82604845D01*
X146366033Y-82781897D01*
X146516603Y-82932467D01*
X146693655Y-83050769D01*
X146890384Y-83132257D01*
X147099231Y-83173800D01*
X147312169Y-83173800D01*
X147521016Y-83132257D01*
X147694838Y-83060257D01*
X163935000Y-83060257D01*
X163935000Y-83302743D01*
X163982307Y-83540569D01*
X164075102Y-83764597D01*
X164209820Y-83966217D01*
X164381283Y-84137680D01*
X164582903Y-84272398D01*
X164806931Y-84365193D01*
X165044757Y-84412500D01*
X165287243Y-84412500D01*
X165525069Y-84365193D01*
X165749097Y-84272398D01*
X165950717Y-84137680D01*
X166122180Y-83966217D01*
X166256898Y-83764597D01*
X166349693Y-83540569D01*
X166397000Y-83302743D01*
X166397000Y-83060257D01*
X166349693Y-82822431D01*
X166256898Y-82598403D01*
X166122180Y-82396783D01*
X165950717Y-82225320D01*
X165749097Y-82090602D01*
X165525069Y-81997807D01*
X165287243Y-81950500D01*
X165044757Y-81950500D01*
X164806931Y-81997807D01*
X164582903Y-82090602D01*
X164381283Y-82225320D01*
X164209820Y-82396783D01*
X164075102Y-82598403D01*
X163982307Y-82822431D01*
X163935000Y-83060257D01*
X147694838Y-83060257D01*
X147717745Y-83050769D01*
X147894797Y-82932467D01*
X148045367Y-82781897D01*
X148163669Y-82604845D01*
X148245157Y-82408116D01*
X148286700Y-82199269D01*
X148286700Y-81986331D01*
X148245157Y-81777484D01*
X148163669Y-81580755D01*
X148045367Y-81403703D01*
X147894797Y-81253133D01*
X147717745Y-81134831D01*
X147521016Y-81053343D01*
X147312169Y-81011800D01*
X147099231Y-81011800D01*
X146890384Y-81053343D01*
X146693655Y-81134831D01*
X146516603Y-81253133D01*
X146366033Y-81403703D01*
X146247731Y-81580755D01*
X146166243Y-81777484D01*
X146124700Y-81986331D01*
X145746700Y-81986331D01*
X145705157Y-81777484D01*
X145623669Y-81580755D01*
X145505367Y-81403703D01*
X145354797Y-81253133D01*
X145177745Y-81134831D01*
X144981016Y-81053343D01*
X144772169Y-81011800D01*
X144559231Y-81011800D01*
X144350384Y-81053343D01*
X144153655Y-81134831D01*
X143976603Y-81253133D01*
X143826033Y-81403703D01*
X143707731Y-81580755D01*
X143626243Y-81777484D01*
X143584700Y-81986331D01*
X143584700Y-82199269D01*
X143626243Y-82408116D01*
X143707731Y-82604845D01*
X143826033Y-82781897D01*
X143976603Y-82932467D01*
X144153655Y-83050769D01*
X144208500Y-83073487D01*
X144208501Y-93904920D01*
X127772023Y-110341400D01*
X101361246Y-110341400D01*
X101309098Y-110215503D01*
X101174380Y-110013883D01*
X101002917Y-109842420D01*
X100801297Y-109707702D01*
X100577269Y-109614907D01*
X100339443Y-109567600D01*
X100096957Y-109567600D01*
X99859131Y-109614907D01*
X99635103Y-109707702D01*
X99433483Y-109842420D01*
X99262020Y-110013883D01*
X99127302Y-110215503D01*
X99034507Y-110439531D01*
X98987200Y-110677357D01*
X77876000Y-110677357D01*
X77876000Y-108137357D01*
X98987200Y-108137357D01*
X98987200Y-108379843D01*
X99034507Y-108617669D01*
X99127302Y-108841697D01*
X99262020Y-109043317D01*
X99433483Y-109214780D01*
X99635103Y-109349498D01*
X99859131Y-109442293D01*
X100096957Y-109489600D01*
X100339443Y-109489600D01*
X100577269Y-109442293D01*
X100801297Y-109349498D01*
X101002917Y-109214780D01*
X101174380Y-109043317D01*
X101309098Y-108841697D01*
X101401893Y-108617669D01*
X101449200Y-108379843D01*
X101449200Y-108137357D01*
X101401893Y-107899531D01*
X101309098Y-107675503D01*
X101174380Y-107473883D01*
X101002917Y-107302420D01*
X100801297Y-107167702D01*
X100577269Y-107074907D01*
X100339443Y-107027600D01*
X100096957Y-107027600D01*
X99859131Y-107074907D01*
X99635103Y-107167702D01*
X99433483Y-107302420D01*
X99262020Y-107473883D01*
X99127302Y-107675503D01*
X99034507Y-107899531D01*
X98987200Y-108137357D01*
X77876000Y-108137357D01*
X77876000Y-105597357D01*
X98987200Y-105597357D01*
X98987200Y-105839843D01*
X99034507Y-106077669D01*
X99127302Y-106301697D01*
X99262020Y-106503317D01*
X99433483Y-106674780D01*
X99635103Y-106809498D01*
X99859131Y-106902293D01*
X100096957Y-106949600D01*
X100339443Y-106949600D01*
X100577269Y-106902293D01*
X100801297Y-106809498D01*
X101002917Y-106674780D01*
X101174380Y-106503317D01*
X101309098Y-106301697D01*
X101401893Y-106077669D01*
X101449200Y-105839843D01*
X101449200Y-105597357D01*
X101401893Y-105359531D01*
X101309098Y-105135503D01*
X101174380Y-104933883D01*
X101002917Y-104762420D01*
X100801297Y-104627702D01*
X100577269Y-104534907D01*
X100339443Y-104487600D01*
X100096957Y-104487600D01*
X99859131Y-104534907D01*
X99635103Y-104627702D01*
X99433483Y-104762420D01*
X99262020Y-104933883D01*
X99127302Y-105135503D01*
X99034507Y-105359531D01*
X98987200Y-105597357D01*
X77876000Y-105597357D01*
X77876000Y-103057357D01*
X98987200Y-103057357D01*
X98987200Y-103299843D01*
X99034507Y-103537669D01*
X99127302Y-103761697D01*
X99262020Y-103963317D01*
X99433483Y-104134780D01*
X99635103Y-104269498D01*
X99859131Y-104362293D01*
X100096957Y-104409600D01*
X100339443Y-104409600D01*
X100577269Y-104362293D01*
X100801297Y-104269498D01*
X101002917Y-104134780D01*
X101174380Y-103963317D01*
X101309098Y-103761697D01*
X101401893Y-103537669D01*
X101449200Y-103299843D01*
X101449200Y-103057357D01*
X101401893Y-102819531D01*
X101309098Y-102595503D01*
X101174380Y-102393883D01*
X101002917Y-102222420D01*
X100801297Y-102087702D01*
X100577269Y-101994907D01*
X100339443Y-101947600D01*
X100096957Y-101947600D01*
X99859131Y-101994907D01*
X99635103Y-102087702D01*
X99433483Y-102222420D01*
X99262020Y-102393883D01*
X99127302Y-102595503D01*
X99034507Y-102819531D01*
X98987200Y-103057357D01*
X77876000Y-103057357D01*
X77876000Y-99788600D01*
X98985357Y-99788600D01*
X98985357Y-101488600D01*
X98992713Y-101563289D01*
X99014499Y-101635108D01*
X99049878Y-101701296D01*
X99097489Y-101759311D01*
X99155504Y-101806922D01*
X99221692Y-101842301D01*
X99293511Y-101864087D01*
X99368200Y-101871443D01*
X101068200Y-101871443D01*
X101142889Y-101864087D01*
X101214708Y-101842301D01*
X101280896Y-101806922D01*
X101338911Y-101759311D01*
X101386522Y-101701296D01*
X101421901Y-101635108D01*
X101443687Y-101563289D01*
X101451043Y-101488600D01*
X101451043Y-99788600D01*
X101443687Y-99713911D01*
X101421901Y-99642092D01*
X101386522Y-99575904D01*
X101338911Y-99517889D01*
X101280896Y-99470278D01*
X101214708Y-99434899D01*
X101142889Y-99413113D01*
X101068200Y-99405757D01*
X99368200Y-99405757D01*
X99293511Y-99413113D01*
X99221692Y-99434899D01*
X99155504Y-99470278D01*
X99097489Y-99517889D01*
X99049878Y-99575904D01*
X99014499Y-99642092D01*
X98992713Y-99713911D01*
X98985357Y-99788600D01*
X77876000Y-99788600D01*
X77876000Y-81986331D01*
X141044700Y-81986331D01*
X141044700Y-82199269D01*
X141086243Y-82408116D01*
X141167731Y-82604845D01*
X141286033Y-82781897D01*
X141436603Y-82932467D01*
X141613655Y-83050769D01*
X141810384Y-83132257D01*
X142019231Y-83173800D01*
X142232169Y-83173800D01*
X142441016Y-83132257D01*
X142637745Y-83050769D01*
X142814797Y-82932467D01*
X142965367Y-82781897D01*
X143083669Y-82604845D01*
X143165157Y-82408116D01*
X143206700Y-82199269D01*
X143206700Y-81986331D01*
X143165157Y-81777484D01*
X143083669Y-81580755D01*
X142965367Y-81403703D01*
X142814797Y-81253133D01*
X142637745Y-81134831D01*
X142441016Y-81053343D01*
X142232169Y-81011800D01*
X142019231Y-81011800D01*
X141810384Y-81053343D01*
X141613655Y-81134831D01*
X141436603Y-81253133D01*
X141286033Y-81403703D01*
X141167731Y-81580755D01*
X141086243Y-81777484D01*
X141044700Y-81986331D01*
X77876000Y-81986331D01*
X77876000Y-79791500D01*
X163933157Y-79791500D01*
X163933157Y-81491500D01*
X163940513Y-81566189D01*
X163962299Y-81638008D01*
X163997678Y-81704196D01*
X164045289Y-81762211D01*
X164103304Y-81809822D01*
X164169492Y-81845201D01*
X164241311Y-81866987D01*
X164316000Y-81874343D01*
X166016000Y-81874343D01*
X166090689Y-81866987D01*
X166162508Y-81845201D01*
X166228696Y-81809822D01*
X166286711Y-81762211D01*
X166334322Y-81704196D01*
X166369701Y-81638008D01*
X166391487Y-81566189D01*
X166398843Y-81491500D01*
X166398843Y-81149500D01*
X172379080Y-81149500D01*
X195072650Y-103843071D01*
X195088552Y-103862448D01*
X195107929Y-103878350D01*
X195165904Y-103925929D01*
X195213076Y-103951143D01*
X195254157Y-103973101D01*
X195349915Y-104002149D01*
X195424553Y-104009500D01*
X195424555Y-104009500D01*
X195449499Y-104011957D01*
X195474443Y-104009500D01*
X205543996Y-104009500D01*
X205575102Y-104084597D01*
X205709820Y-104286217D01*
X205881283Y-104457680D01*
X206082903Y-104592398D01*
X206306931Y-104685193D01*
X206544757Y-104732500D01*
X206787243Y-104732500D01*
X207025069Y-104685193D01*
X207249097Y-104592398D01*
X207450717Y-104457680D01*
X207622180Y-104286217D01*
X207756898Y-104084597D01*
X207849693Y-103860569D01*
X207897000Y-103622743D01*
X207897000Y-103380257D01*
X207849693Y-103142431D01*
X207756898Y-102918403D01*
X207622180Y-102716783D01*
X207450717Y-102545320D01*
X207249097Y-102410602D01*
X207025069Y-102317807D01*
X206787243Y-102270500D01*
X206544757Y-102270500D01*
X206306931Y-102317807D01*
X206082903Y-102410602D01*
X205881283Y-102545320D01*
X205709820Y-102716783D01*
X205575102Y-102918403D01*
X205543996Y-102993500D01*
X195659921Y-102993500D01*
X193506678Y-100840257D01*
X205435000Y-100840257D01*
X205435000Y-101082743D01*
X205482307Y-101320569D01*
X205575102Y-101544597D01*
X205709820Y-101746217D01*
X205881283Y-101917680D01*
X206082903Y-102052398D01*
X206306931Y-102145193D01*
X206544757Y-102192500D01*
X206787243Y-102192500D01*
X207025069Y-102145193D01*
X207249097Y-102052398D01*
X207450717Y-101917680D01*
X207622180Y-101746217D01*
X207756898Y-101544597D01*
X207849693Y-101320569D01*
X207897000Y-101082743D01*
X207897000Y-100840257D01*
X207849693Y-100602431D01*
X207756898Y-100378403D01*
X207622180Y-100176783D01*
X207450717Y-100005320D01*
X207249097Y-99870602D01*
X207025069Y-99777807D01*
X206787243Y-99730500D01*
X206544757Y-99730500D01*
X206306931Y-99777807D01*
X206082903Y-99870602D01*
X205881283Y-100005320D01*
X205709820Y-100176783D01*
X205575102Y-100378403D01*
X205482307Y-100602431D01*
X205435000Y-100840257D01*
X193506678Y-100840257D01*
X190966678Y-98300257D01*
X205435000Y-98300257D01*
X205435000Y-98542743D01*
X205482307Y-98780569D01*
X205575102Y-99004597D01*
X205709820Y-99206217D01*
X205881283Y-99377680D01*
X206082903Y-99512398D01*
X206306931Y-99605193D01*
X206544757Y-99652500D01*
X206787243Y-99652500D01*
X207025069Y-99605193D01*
X207249097Y-99512398D01*
X207450717Y-99377680D01*
X207622180Y-99206217D01*
X207756898Y-99004597D01*
X207849693Y-98780569D01*
X207897000Y-98542743D01*
X207897000Y-98300257D01*
X207849693Y-98062431D01*
X207756898Y-97838403D01*
X207622180Y-97636783D01*
X207450717Y-97465320D01*
X207249097Y-97330602D01*
X207025069Y-97237807D01*
X206787243Y-97190500D01*
X206544757Y-97190500D01*
X206306931Y-97237807D01*
X206082903Y-97330602D01*
X205881283Y-97465320D01*
X205709820Y-97636783D01*
X205575102Y-97838403D01*
X205482307Y-98062431D01*
X205435000Y-98300257D01*
X190966678Y-98300257D01*
X188426678Y-95760257D01*
X205435000Y-95760257D01*
X205435000Y-96002743D01*
X205482307Y-96240569D01*
X205575102Y-96464597D01*
X205709820Y-96666217D01*
X205881283Y-96837680D01*
X206082903Y-96972398D01*
X206306931Y-97065193D01*
X206544757Y-97112500D01*
X206787243Y-97112500D01*
X207025069Y-97065193D01*
X207249097Y-96972398D01*
X207450717Y-96837680D01*
X207622180Y-96666217D01*
X207756898Y-96464597D01*
X207849693Y-96240569D01*
X207897000Y-96002743D01*
X207897000Y-95760257D01*
X207849693Y-95522431D01*
X207756898Y-95298403D01*
X207622180Y-95096783D01*
X207450717Y-94925320D01*
X207249097Y-94790602D01*
X207025069Y-94697807D01*
X206787243Y-94650500D01*
X206544757Y-94650500D01*
X206306931Y-94697807D01*
X206082903Y-94790602D01*
X205881283Y-94925320D01*
X205709820Y-95096783D01*
X205575102Y-95298403D01*
X205482307Y-95522431D01*
X205435000Y-95760257D01*
X188426678Y-95760257D01*
X185886678Y-93220257D01*
X205435000Y-93220257D01*
X205435000Y-93462743D01*
X205482307Y-93700569D01*
X205575102Y-93924597D01*
X205709820Y-94126217D01*
X205881283Y-94297680D01*
X206082903Y-94432398D01*
X206306931Y-94525193D01*
X206544757Y-94572500D01*
X206787243Y-94572500D01*
X207025069Y-94525193D01*
X207249097Y-94432398D01*
X207450717Y-94297680D01*
X207622180Y-94126217D01*
X207756898Y-93924597D01*
X207849693Y-93700569D01*
X207897000Y-93462743D01*
X207897000Y-93220257D01*
X207849693Y-92982431D01*
X207756898Y-92758403D01*
X207622180Y-92556783D01*
X207450717Y-92385320D01*
X207249097Y-92250602D01*
X207025069Y-92157807D01*
X206787243Y-92110500D01*
X206544757Y-92110500D01*
X206306931Y-92157807D01*
X206082903Y-92250602D01*
X205881283Y-92385320D01*
X205709820Y-92556783D01*
X205575102Y-92758403D01*
X205482307Y-92982431D01*
X205435000Y-93220257D01*
X185886678Y-93220257D01*
X182545612Y-89879191D01*
X196107019Y-89879191D01*
X196204343Y-90153552D01*
X196353322Y-90403655D01*
X196548231Y-90619888D01*
X196781580Y-90793941D01*
X197044401Y-90919125D01*
X197191610Y-90963776D01*
X197421500Y-90842455D01*
X197421500Y-89649300D01*
X196227686Y-89649300D01*
X196107019Y-89879191D01*
X182545612Y-89879191D01*
X181831830Y-89165409D01*
X196107019Y-89165409D01*
X196227686Y-89395300D01*
X197421500Y-89395300D01*
X197421500Y-88202145D01*
X197675500Y-88202145D01*
X197675500Y-89395300D01*
X197695500Y-89395300D01*
X197695500Y-89649300D01*
X197675500Y-89649300D01*
X197675500Y-90842455D01*
X197905390Y-90963776D01*
X198052599Y-90919125D01*
X198315420Y-90793941D01*
X198548769Y-90619888D01*
X198743678Y-90403655D01*
X198892657Y-90153552D01*
X198950272Y-89991132D01*
X198997602Y-90105397D01*
X199132320Y-90307017D01*
X199303783Y-90478480D01*
X199505403Y-90613198D01*
X199729431Y-90705993D01*
X199967257Y-90753300D01*
X200209743Y-90753300D01*
X200447569Y-90705993D01*
X200671597Y-90613198D01*
X200873217Y-90478480D01*
X201044680Y-90307017D01*
X201179398Y-90105397D01*
X201272193Y-89881369D01*
X201319500Y-89643543D01*
X201319500Y-89401057D01*
X201272193Y-89163231D01*
X201179398Y-88939203D01*
X201044680Y-88737583D01*
X200979397Y-88672300D01*
X201395657Y-88672300D01*
X201395657Y-90372300D01*
X201403013Y-90446989D01*
X201424799Y-90518808D01*
X201460178Y-90584996D01*
X201507789Y-90643011D01*
X201565804Y-90690622D01*
X201631992Y-90726001D01*
X201703811Y-90747787D01*
X201778500Y-90755143D01*
X203478500Y-90755143D01*
X203553189Y-90747787D01*
X203625008Y-90726001D01*
X203691196Y-90690622D01*
X203703825Y-90680257D01*
X205435000Y-90680257D01*
X205435000Y-90922743D01*
X205482307Y-91160569D01*
X205575102Y-91384597D01*
X205709820Y-91586217D01*
X205881283Y-91757680D01*
X206082903Y-91892398D01*
X206306931Y-91985193D01*
X206544757Y-92032500D01*
X206787243Y-92032500D01*
X207025069Y-91985193D01*
X207249097Y-91892398D01*
X207450717Y-91757680D01*
X207622180Y-91586217D01*
X207756898Y-91384597D01*
X207849693Y-91160569D01*
X207897000Y-90922743D01*
X207897000Y-90680257D01*
X207849693Y-90442431D01*
X207756898Y-90218403D01*
X207622180Y-90016783D01*
X207450717Y-89845320D01*
X207249097Y-89710602D01*
X207025069Y-89617807D01*
X206787243Y-89570500D01*
X206544757Y-89570500D01*
X206306931Y-89617807D01*
X206082903Y-89710602D01*
X205881283Y-89845320D01*
X205709820Y-90016783D01*
X205575102Y-90218403D01*
X205482307Y-90442431D01*
X205435000Y-90680257D01*
X203703825Y-90680257D01*
X203749211Y-90643011D01*
X203796822Y-90584996D01*
X203832201Y-90518808D01*
X203853987Y-90446989D01*
X203861343Y-90372300D01*
X203861343Y-88672300D01*
X203853987Y-88597611D01*
X203832201Y-88525792D01*
X203796822Y-88459604D01*
X203749211Y-88401589D01*
X203691196Y-88353978D01*
X203625008Y-88318599D01*
X203553189Y-88296813D01*
X203478500Y-88289457D01*
X201778500Y-88289457D01*
X201703811Y-88296813D01*
X201631992Y-88318599D01*
X201565804Y-88353978D01*
X201507789Y-88401589D01*
X201460178Y-88459604D01*
X201424799Y-88525792D01*
X201403013Y-88597611D01*
X201395657Y-88672300D01*
X200979397Y-88672300D01*
X200873217Y-88566120D01*
X200671597Y-88431402D01*
X200447569Y-88338607D01*
X200209743Y-88291300D01*
X199967257Y-88291300D01*
X199729431Y-88338607D01*
X199505403Y-88431402D01*
X199303783Y-88566120D01*
X199132320Y-88737583D01*
X198997602Y-88939203D01*
X198950272Y-89053468D01*
X198892657Y-88891048D01*
X198743678Y-88640945D01*
X198548769Y-88424712D01*
X198315420Y-88250659D01*
X198083634Y-88140257D01*
X205435000Y-88140257D01*
X205435000Y-88382743D01*
X205482307Y-88620569D01*
X205575102Y-88844597D01*
X205709820Y-89046217D01*
X205881283Y-89217680D01*
X206082903Y-89352398D01*
X206306931Y-89445193D01*
X206544757Y-89492500D01*
X206787243Y-89492500D01*
X207025069Y-89445193D01*
X207249097Y-89352398D01*
X207450717Y-89217680D01*
X207622180Y-89046217D01*
X207756898Y-88844597D01*
X207849693Y-88620569D01*
X207897000Y-88382743D01*
X207897000Y-88140257D01*
X207849693Y-87902431D01*
X207756898Y-87678403D01*
X207622180Y-87476783D01*
X207450717Y-87305320D01*
X207249097Y-87170602D01*
X207025069Y-87077807D01*
X206787243Y-87030500D01*
X206544757Y-87030500D01*
X206306931Y-87077807D01*
X206082903Y-87170602D01*
X205881283Y-87305320D01*
X205709820Y-87476783D01*
X205575102Y-87678403D01*
X205482307Y-87902431D01*
X205435000Y-88140257D01*
X198083634Y-88140257D01*
X198052599Y-88125475D01*
X197905390Y-88080824D01*
X197675500Y-88202145D01*
X197421500Y-88202145D01*
X197191610Y-88080824D01*
X197044401Y-88125475D01*
X196781580Y-88250659D01*
X196548231Y-88424712D01*
X196353322Y-88640945D01*
X196204343Y-88891048D01*
X196107019Y-89165409D01*
X181831830Y-89165409D01*
X178100612Y-85434191D01*
X196107019Y-85434191D01*
X196204343Y-85708552D01*
X196353322Y-85958655D01*
X196548231Y-86174888D01*
X196781580Y-86348941D01*
X197044401Y-86474125D01*
X197191610Y-86518776D01*
X197421500Y-86397455D01*
X197421500Y-85204300D01*
X196227686Y-85204300D01*
X196107019Y-85434191D01*
X178100612Y-85434191D01*
X177386830Y-84720409D01*
X196107019Y-84720409D01*
X196227686Y-84950300D01*
X197421500Y-84950300D01*
X197421500Y-83757145D01*
X197675500Y-83757145D01*
X197675500Y-84950300D01*
X197695500Y-84950300D01*
X197695500Y-85204300D01*
X197675500Y-85204300D01*
X197675500Y-86397455D01*
X197905390Y-86518776D01*
X198052599Y-86474125D01*
X198315420Y-86348941D01*
X198548769Y-86174888D01*
X198743678Y-85958655D01*
X198892657Y-85708552D01*
X198950272Y-85546132D01*
X198997602Y-85660397D01*
X199132320Y-85862017D01*
X199303783Y-86033480D01*
X199505403Y-86168198D01*
X199729431Y-86260993D01*
X199967257Y-86308300D01*
X200209743Y-86308300D01*
X200447569Y-86260993D01*
X200671597Y-86168198D01*
X200873217Y-86033480D01*
X201044680Y-85862017D01*
X201179398Y-85660397D01*
X201272193Y-85436369D01*
X201319500Y-85198543D01*
X201319500Y-84956057D01*
X201272193Y-84718231D01*
X201179398Y-84494203D01*
X201044680Y-84292583D01*
X200979397Y-84227300D01*
X201395657Y-84227300D01*
X201395657Y-85927300D01*
X201403013Y-86001989D01*
X201424799Y-86073808D01*
X201460178Y-86139996D01*
X201507789Y-86198011D01*
X201565804Y-86245622D01*
X201631992Y-86281001D01*
X201703811Y-86302787D01*
X201778500Y-86310143D01*
X203478500Y-86310143D01*
X203553189Y-86302787D01*
X203625008Y-86281001D01*
X203691196Y-86245622D01*
X203749211Y-86198011D01*
X203796822Y-86139996D01*
X203832201Y-86073808D01*
X203853987Y-86001989D01*
X203861343Y-85927300D01*
X203861343Y-85600257D01*
X205435000Y-85600257D01*
X205435000Y-85842743D01*
X205482307Y-86080569D01*
X205575102Y-86304597D01*
X205709820Y-86506217D01*
X205881283Y-86677680D01*
X206082903Y-86812398D01*
X206306931Y-86905193D01*
X206544757Y-86952500D01*
X206787243Y-86952500D01*
X207025069Y-86905193D01*
X207249097Y-86812398D01*
X207450717Y-86677680D01*
X207622180Y-86506217D01*
X207756898Y-86304597D01*
X207849693Y-86080569D01*
X207897000Y-85842743D01*
X207897000Y-85600257D01*
X207849693Y-85362431D01*
X207756898Y-85138403D01*
X207622180Y-84936783D01*
X207450717Y-84765320D01*
X207249097Y-84630602D01*
X207025069Y-84537807D01*
X206787243Y-84490500D01*
X206544757Y-84490500D01*
X206306931Y-84537807D01*
X206082903Y-84630602D01*
X205881283Y-84765320D01*
X205709820Y-84936783D01*
X205575102Y-85138403D01*
X205482307Y-85362431D01*
X205435000Y-85600257D01*
X203861343Y-85600257D01*
X203861343Y-84227300D01*
X203853987Y-84152611D01*
X203832201Y-84080792D01*
X203796822Y-84014604D01*
X203749211Y-83956589D01*
X203691196Y-83908978D01*
X203625008Y-83873599D01*
X203553189Y-83851813D01*
X203478500Y-83844457D01*
X201778500Y-83844457D01*
X201703811Y-83851813D01*
X201631992Y-83873599D01*
X201565804Y-83908978D01*
X201507789Y-83956589D01*
X201460178Y-84014604D01*
X201424799Y-84080792D01*
X201403013Y-84152611D01*
X201395657Y-84227300D01*
X200979397Y-84227300D01*
X200873217Y-84121120D01*
X200671597Y-83986402D01*
X200447569Y-83893607D01*
X200209743Y-83846300D01*
X199967257Y-83846300D01*
X199729431Y-83893607D01*
X199505403Y-83986402D01*
X199303783Y-84121120D01*
X199132320Y-84292583D01*
X198997602Y-84494203D01*
X198950272Y-84608468D01*
X198892657Y-84446048D01*
X198743678Y-84195945D01*
X198548769Y-83979712D01*
X198315420Y-83805659D01*
X198052599Y-83680475D01*
X197905390Y-83635824D01*
X197675500Y-83757145D01*
X197421500Y-83757145D01*
X197191610Y-83635824D01*
X197044401Y-83680475D01*
X196781580Y-83805659D01*
X196548231Y-83979712D01*
X196353322Y-84195945D01*
X196204343Y-84446048D01*
X196107019Y-84720409D01*
X177386830Y-84720409D01*
X175726678Y-83060257D01*
X205435000Y-83060257D01*
X205435000Y-83302743D01*
X205482307Y-83540569D01*
X205575102Y-83764597D01*
X205709820Y-83966217D01*
X205881283Y-84137680D01*
X206082903Y-84272398D01*
X206306931Y-84365193D01*
X206544757Y-84412500D01*
X206787243Y-84412500D01*
X207025069Y-84365193D01*
X207249097Y-84272398D01*
X207450717Y-84137680D01*
X207622180Y-83966217D01*
X207756898Y-83764597D01*
X207849693Y-83540569D01*
X207897000Y-83302743D01*
X207897000Y-83060257D01*
X207849693Y-82822431D01*
X207756898Y-82598403D01*
X207622180Y-82396783D01*
X207450717Y-82225320D01*
X207249097Y-82090602D01*
X207025069Y-81997807D01*
X206787243Y-81950500D01*
X206544757Y-81950500D01*
X206306931Y-81997807D01*
X206082903Y-82090602D01*
X205881283Y-82225320D01*
X205709820Y-82396783D01*
X205575102Y-82598403D01*
X205482307Y-82822431D01*
X205435000Y-83060257D01*
X175726678Y-83060257D01*
X173655612Y-80989191D01*
X196107019Y-80989191D01*
X196204343Y-81263552D01*
X196353322Y-81513655D01*
X196548231Y-81729888D01*
X196781580Y-81903941D01*
X197044401Y-82029125D01*
X197191610Y-82073776D01*
X197421500Y-81952455D01*
X197421500Y-80759300D01*
X196227686Y-80759300D01*
X196107019Y-80989191D01*
X173655612Y-80989191D01*
X172966355Y-80299935D01*
X172950448Y-80280552D01*
X172944182Y-80275409D01*
X196107019Y-80275409D01*
X196227686Y-80505300D01*
X197421500Y-80505300D01*
X197421500Y-79312145D01*
X197675500Y-79312145D01*
X197675500Y-80505300D01*
X197695500Y-80505300D01*
X197695500Y-80759300D01*
X197675500Y-80759300D01*
X197675500Y-81952455D01*
X197905390Y-82073776D01*
X198052599Y-82029125D01*
X198315420Y-81903941D01*
X198548769Y-81729888D01*
X198743678Y-81513655D01*
X198892657Y-81263552D01*
X198950272Y-81101132D01*
X198997602Y-81215397D01*
X199132320Y-81417017D01*
X199303783Y-81588480D01*
X199505403Y-81723198D01*
X199729431Y-81815993D01*
X199967257Y-81863300D01*
X200209743Y-81863300D01*
X200447569Y-81815993D01*
X200671597Y-81723198D01*
X200873217Y-81588480D01*
X201044680Y-81417017D01*
X201179398Y-81215397D01*
X201272193Y-80991369D01*
X201319500Y-80753543D01*
X201319500Y-80511057D01*
X201272193Y-80273231D01*
X201179398Y-80049203D01*
X201044680Y-79847583D01*
X200979397Y-79782300D01*
X201395657Y-79782300D01*
X201395657Y-81482300D01*
X201403013Y-81556989D01*
X201424799Y-81628808D01*
X201460178Y-81694996D01*
X201507789Y-81753011D01*
X201565804Y-81800622D01*
X201631992Y-81836001D01*
X201703811Y-81857787D01*
X201778500Y-81865143D01*
X203478500Y-81865143D01*
X203553189Y-81857787D01*
X203625008Y-81836001D01*
X203691196Y-81800622D01*
X203749211Y-81753011D01*
X203796822Y-81694996D01*
X203832201Y-81628808D01*
X203853987Y-81556989D01*
X203861343Y-81482300D01*
X203861343Y-79791500D01*
X205433157Y-79791500D01*
X205433157Y-81491500D01*
X205440513Y-81566189D01*
X205462299Y-81638008D01*
X205497678Y-81704196D01*
X205545289Y-81762211D01*
X205603304Y-81809822D01*
X205669492Y-81845201D01*
X205741311Y-81866987D01*
X205816000Y-81874343D01*
X207516000Y-81874343D01*
X207590689Y-81866987D01*
X207662508Y-81845201D01*
X207728696Y-81809822D01*
X207786711Y-81762211D01*
X207834322Y-81704196D01*
X207869701Y-81638008D01*
X207891487Y-81566189D01*
X207898843Y-81491500D01*
X207898843Y-79791500D01*
X207891487Y-79716811D01*
X207869701Y-79644992D01*
X207834322Y-79578804D01*
X207786711Y-79520789D01*
X207728696Y-79473178D01*
X207662508Y-79437799D01*
X207590689Y-79416013D01*
X207516000Y-79408657D01*
X205816000Y-79408657D01*
X205741311Y-79416013D01*
X205669492Y-79437799D01*
X205603304Y-79473178D01*
X205545289Y-79520789D01*
X205497678Y-79578804D01*
X205462299Y-79644992D01*
X205440513Y-79716811D01*
X205433157Y-79791500D01*
X203861343Y-79791500D01*
X203861343Y-79782300D01*
X203853987Y-79707611D01*
X203832201Y-79635792D01*
X203796822Y-79569604D01*
X203749211Y-79511589D01*
X203691196Y-79463978D01*
X203625008Y-79428599D01*
X203553189Y-79406813D01*
X203478500Y-79399457D01*
X201778500Y-79399457D01*
X201703811Y-79406813D01*
X201631992Y-79428599D01*
X201565804Y-79463978D01*
X201507789Y-79511589D01*
X201460178Y-79569604D01*
X201424799Y-79635792D01*
X201403013Y-79707611D01*
X201395657Y-79782300D01*
X200979397Y-79782300D01*
X200873217Y-79676120D01*
X200671597Y-79541402D01*
X200447569Y-79448607D01*
X200209743Y-79401300D01*
X199967257Y-79401300D01*
X199729431Y-79448607D01*
X199505403Y-79541402D01*
X199303783Y-79676120D01*
X199132320Y-79847583D01*
X198997602Y-80049203D01*
X198950272Y-80163468D01*
X198892657Y-80001048D01*
X198743678Y-79750945D01*
X198548769Y-79534712D01*
X198315420Y-79360659D01*
X198052599Y-79235475D01*
X197905390Y-79190824D01*
X197675500Y-79312145D01*
X197421500Y-79312145D01*
X197191610Y-79190824D01*
X197044401Y-79235475D01*
X196781580Y-79360659D01*
X196548231Y-79534712D01*
X196353322Y-79750945D01*
X196204343Y-80001048D01*
X196107019Y-80275409D01*
X172944182Y-80275409D01*
X172873095Y-80217071D01*
X172784843Y-80169899D01*
X172689085Y-80140851D01*
X172614447Y-80133500D01*
X172614444Y-80133500D01*
X172589500Y-80131043D01*
X172564556Y-80133500D01*
X166398843Y-80133500D01*
X166398843Y-79791500D01*
X166391487Y-79716811D01*
X166369701Y-79644992D01*
X166334322Y-79578804D01*
X166286711Y-79520789D01*
X166228696Y-79473178D01*
X166162508Y-79437799D01*
X166090689Y-79416013D01*
X166016000Y-79408657D01*
X164316000Y-79408657D01*
X164241311Y-79416013D01*
X164169492Y-79437799D01*
X164103304Y-79473178D01*
X164045289Y-79520789D01*
X163997678Y-79578804D01*
X163962299Y-79644992D01*
X163940513Y-79716811D01*
X163933157Y-79791500D01*
X77876000Y-79791500D01*
X77876000Y-77109531D01*
X153541500Y-77109531D01*
X153541500Y-77322469D01*
X153583043Y-77531316D01*
X153664531Y-77728045D01*
X153782833Y-77905097D01*
X153933403Y-78055667D01*
X154110455Y-78173969D01*
X154307184Y-78255457D01*
X154516031Y-78297000D01*
X154728969Y-78297000D01*
X154937816Y-78255457D01*
X155134545Y-78173969D01*
X155311597Y-78055667D01*
X155462167Y-77905097D01*
X155580469Y-77728045D01*
X155661957Y-77531316D01*
X155703500Y-77322469D01*
X155703500Y-77109531D01*
X156081500Y-77109531D01*
X156081500Y-77322469D01*
X156123043Y-77531316D01*
X156204531Y-77728045D01*
X156322833Y-77905097D01*
X156473403Y-78055667D01*
X156650455Y-78173969D01*
X156847184Y-78255457D01*
X157056031Y-78297000D01*
X157268969Y-78297000D01*
X157477816Y-78255457D01*
X157674545Y-78173969D01*
X157729470Y-78137269D01*
X158960836Y-78137269D01*
X159020297Y-78371037D01*
X159258742Y-78481934D01*
X159514240Y-78544183D01*
X159776973Y-78555390D01*
X160036844Y-78515125D01*
X160283866Y-78424935D01*
X160384703Y-78371037D01*
X160444164Y-78137269D01*
X159702500Y-77395605D01*
X158960836Y-78137269D01*
X157729470Y-78137269D01*
X157851597Y-78055667D01*
X158002167Y-77905097D01*
X158120469Y-77728045D01*
X158201957Y-77531316D01*
X158243500Y-77322469D01*
X158243500Y-77290473D01*
X158363110Y-77290473D01*
X158403375Y-77550344D01*
X158493565Y-77797366D01*
X158547463Y-77898203D01*
X158781231Y-77957664D01*
X159522895Y-77216000D01*
X159882105Y-77216000D01*
X160623769Y-77957664D01*
X160857537Y-77898203D01*
X160968434Y-77659758D01*
X161030683Y-77404260D01*
X161041890Y-77141527D01*
X161001625Y-76881656D01*
X160911435Y-76634634D01*
X160857537Y-76533797D01*
X160623769Y-76474336D01*
X159882105Y-77216000D01*
X159522895Y-77216000D01*
X158781231Y-76474336D01*
X158547463Y-76533797D01*
X158436566Y-76772242D01*
X158374317Y-77027740D01*
X158363110Y-77290473D01*
X158243500Y-77290473D01*
X158243500Y-77109531D01*
X158201957Y-76900684D01*
X158120469Y-76703955D01*
X158002167Y-76526903D01*
X157851597Y-76376333D01*
X157729471Y-76294731D01*
X158960836Y-76294731D01*
X159702500Y-77036395D01*
X160444164Y-76294731D01*
X160384703Y-76060963D01*
X160146258Y-75950066D01*
X159890760Y-75887817D01*
X159628027Y-75876610D01*
X159368156Y-75916875D01*
X159121134Y-76007065D01*
X159020297Y-76060963D01*
X158960836Y-76294731D01*
X157729471Y-76294731D01*
X157674545Y-76258031D01*
X157477816Y-76176543D01*
X157268969Y-76135000D01*
X157056031Y-76135000D01*
X156847184Y-76176543D01*
X156650455Y-76258031D01*
X156473403Y-76376333D01*
X156322833Y-76526903D01*
X156204531Y-76703955D01*
X156123043Y-76900684D01*
X156081500Y-77109531D01*
X155703500Y-77109531D01*
X155661957Y-76900684D01*
X155580469Y-76703955D01*
X155462167Y-76526903D01*
X155311597Y-76376333D01*
X155134545Y-76258031D01*
X154937816Y-76176543D01*
X154728969Y-76135000D01*
X154516031Y-76135000D01*
X154307184Y-76176543D01*
X154110455Y-76258031D01*
X153933403Y-76376333D01*
X153782833Y-76526903D01*
X153664531Y-76703955D01*
X153583043Y-76900684D01*
X153541500Y-77109531D01*
X77876000Y-77109531D01*
X77876000Y-75057000D01*
X166620928Y-75057000D01*
X166624000Y-75088192D01*
X166624000Y-75119542D01*
X166630116Y-75150287D01*
X166633188Y-75181482D01*
X166642288Y-75211480D01*
X166648403Y-75242223D01*
X166660398Y-75271180D01*
X166669498Y-75301180D01*
X166684277Y-75328828D01*
X166696271Y-75357785D01*
X166713686Y-75383848D01*
X166728463Y-75411494D01*
X166748348Y-75435724D01*
X166765764Y-75461789D01*
X166787930Y-75483955D01*
X166807815Y-75508185D01*
X166832045Y-75528070D01*
X166854211Y-75550236D01*
X166880276Y-75567652D01*
X166904506Y-75587537D01*
X166932152Y-75602314D01*
X166958215Y-75619729D01*
X166987172Y-75631723D01*
X167014820Y-75646502D01*
X167044820Y-75655602D01*
X167073777Y-75667597D01*
X167104520Y-75673712D01*
X167134518Y-75682812D01*
X167165713Y-75685884D01*
X167196458Y-75692000D01*
X197928542Y-75692000D01*
X197959287Y-75685884D01*
X197990482Y-75682812D01*
X198020480Y-75673712D01*
X198051223Y-75667597D01*
X198080180Y-75655602D01*
X198110180Y-75646502D01*
X198137828Y-75631723D01*
X198166785Y-75619729D01*
X198192848Y-75602314D01*
X198220494Y-75587537D01*
X198244724Y-75567652D01*
X198270789Y-75550236D01*
X198292955Y-75528070D01*
X198317185Y-75508185D01*
X198337070Y-75483955D01*
X198359236Y-75461789D01*
X198376652Y-75435724D01*
X198396537Y-75411494D01*
X198411314Y-75383848D01*
X198428729Y-75357785D01*
X198440723Y-75328828D01*
X198455502Y-75301180D01*
X198464602Y-75271180D01*
X198476597Y-75242223D01*
X198482712Y-75211480D01*
X198491812Y-75181482D01*
X198494884Y-75150287D01*
X198501000Y-75119542D01*
X198501000Y-75088192D01*
X198504072Y-75057000D01*
X198501000Y-75025808D01*
X198501000Y-74994458D01*
X198494884Y-74963713D01*
X198491812Y-74932518D01*
X198482712Y-74902520D01*
X198476597Y-74871777D01*
X198464602Y-74842820D01*
X198455502Y-74812820D01*
X198440723Y-74785172D01*
X198428729Y-74756215D01*
X198411314Y-74730152D01*
X198396537Y-74702506D01*
X198376652Y-74678276D01*
X198359236Y-74652211D01*
X198337070Y-74630045D01*
X198317185Y-74605815D01*
X198292955Y-74585930D01*
X198270789Y-74563764D01*
X198244724Y-74546348D01*
X198220494Y-74526463D01*
X198192848Y-74511686D01*
X198166785Y-74494271D01*
X198137828Y-74482277D01*
X198110180Y-74467498D01*
X198080180Y-74458398D01*
X198051223Y-74446403D01*
X198020480Y-74440288D01*
X197990482Y-74431188D01*
X197959287Y-74428116D01*
X197928542Y-74422000D01*
X167196458Y-74422000D01*
X167165713Y-74428116D01*
X167134518Y-74431188D01*
X167104520Y-74440288D01*
X167073777Y-74446403D01*
X167044820Y-74458398D01*
X167014820Y-74467498D01*
X166987172Y-74482277D01*
X166958215Y-74494271D01*
X166932152Y-74511686D01*
X166904506Y-74526463D01*
X166880276Y-74546348D01*
X166854211Y-74563764D01*
X166832045Y-74585930D01*
X166807815Y-74605815D01*
X166787930Y-74630045D01*
X166765764Y-74652211D01*
X166748348Y-74678276D01*
X166728463Y-74702506D01*
X166713686Y-74730152D01*
X166696271Y-74756215D01*
X166684277Y-74785172D01*
X166669498Y-74812820D01*
X166660398Y-74842820D01*
X166648403Y-74871777D01*
X166642288Y-74902520D01*
X166633188Y-74932518D01*
X166630116Y-74963713D01*
X166624000Y-74994458D01*
X166624000Y-75025808D01*
X166620928Y-75057000D01*
X77876000Y-75057000D01*
X77876000Y-71716000D01*
X137576928Y-71716000D01*
X137589188Y-71840482D01*
X137625498Y-71960180D01*
X137684463Y-72070494D01*
X137763815Y-72167185D01*
X137860506Y-72246537D01*
X137970820Y-72305502D01*
X138090518Y-72341812D01*
X138215000Y-72354072D01*
X138779250Y-72351000D01*
X138938000Y-72192250D01*
X138938000Y-70993000D01*
X139192000Y-70993000D01*
X139192000Y-72192250D01*
X139350750Y-72351000D01*
X139915000Y-72354072D01*
X140039482Y-72341812D01*
X140159180Y-72305502D01*
X140269494Y-72246537D01*
X140366185Y-72167185D01*
X140445537Y-72070494D01*
X140504502Y-71960180D01*
X140540812Y-71840482D01*
X140553072Y-71716000D01*
X140550000Y-71151750D01*
X140391250Y-70993000D01*
X139192000Y-70993000D01*
X138938000Y-70993000D01*
X137738750Y-70993000D01*
X137580000Y-71151750D01*
X137576928Y-71716000D01*
X77876000Y-71716000D01*
X77876000Y-70016000D01*
X137576928Y-70016000D01*
X137580000Y-70580250D01*
X137738750Y-70739000D01*
X138938000Y-70739000D01*
X138938000Y-69539750D01*
X139192000Y-69539750D01*
X139192000Y-70739000D01*
X140391250Y-70739000D01*
X140550000Y-70580250D01*
X140553072Y-70016000D01*
X142912157Y-70016000D01*
X142912157Y-71716000D01*
X142919513Y-71790689D01*
X142941299Y-71862508D01*
X142976678Y-71928696D01*
X143024289Y-71986711D01*
X143082304Y-72034322D01*
X143148492Y-72069701D01*
X143220311Y-72091487D01*
X143295000Y-72098843D01*
X144995000Y-72098843D01*
X145069689Y-72091487D01*
X145141508Y-72069701D01*
X145207696Y-72034322D01*
X145265711Y-71986711D01*
X145313322Y-71928696D01*
X145348701Y-71862508D01*
X145370487Y-71790689D01*
X145377843Y-71716000D01*
X145377843Y-70016000D01*
X145370487Y-69941311D01*
X145348701Y-69869492D01*
X145313322Y-69803304D01*
X145265711Y-69745289D01*
X145207696Y-69697678D01*
X145141508Y-69662299D01*
X145069689Y-69640513D01*
X144995000Y-69633157D01*
X143295000Y-69633157D01*
X143220311Y-69640513D01*
X143148492Y-69662299D01*
X143082304Y-69697678D01*
X143024289Y-69745289D01*
X142976678Y-69803304D01*
X142941299Y-69869492D01*
X142919513Y-69941311D01*
X142912157Y-70016000D01*
X140553072Y-70016000D01*
X140540812Y-69891518D01*
X140504502Y-69771820D01*
X140445537Y-69661506D01*
X140366185Y-69564815D01*
X140269494Y-69485463D01*
X140159180Y-69426498D01*
X140039482Y-69390188D01*
X139915000Y-69377928D01*
X139350750Y-69381000D01*
X139192000Y-69539750D01*
X138938000Y-69539750D01*
X138779250Y-69381000D01*
X138215000Y-69377928D01*
X138090518Y-69390188D01*
X137970820Y-69426498D01*
X137860506Y-69485463D01*
X137763815Y-69564815D01*
X137684463Y-69661506D01*
X137625498Y-69771820D01*
X137589188Y-69891518D01*
X137576928Y-70016000D01*
X77876000Y-70016000D01*
X77876000Y-68092531D01*
X159447000Y-68092531D01*
X159447000Y-68305469D01*
X159488543Y-68514316D01*
X159570031Y-68711045D01*
X159688333Y-68888097D01*
X159838903Y-69038667D01*
X160015955Y-69156969D01*
X160212684Y-69238457D01*
X160421531Y-69280000D01*
X160634469Y-69280000D01*
X160843316Y-69238457D01*
X161040045Y-69156969D01*
X161217097Y-69038667D01*
X161367667Y-68888097D01*
X161485969Y-68711045D01*
X161567457Y-68514316D01*
X161609000Y-68305469D01*
X161609000Y-68092531D01*
X161987000Y-68092531D01*
X161987000Y-68305469D01*
X162028543Y-68514316D01*
X162110031Y-68711045D01*
X162228333Y-68888097D01*
X162378903Y-69038667D01*
X162555955Y-69156969D01*
X162752684Y-69238457D01*
X162961531Y-69280000D01*
X163174469Y-69280000D01*
X163383316Y-69238457D01*
X163580045Y-69156969D01*
X163757097Y-69038667D01*
X163907667Y-68888097D01*
X164025969Y-68711045D01*
X164107457Y-68514316D01*
X164149000Y-68305469D01*
X164149000Y-68092531D01*
X164107457Y-67883684D01*
X164025969Y-67686955D01*
X163907667Y-67509903D01*
X163757097Y-67359333D01*
X163580045Y-67241031D01*
X163383316Y-67159543D01*
X163174469Y-67118000D01*
X162961531Y-67118000D01*
X162752684Y-67159543D01*
X162555955Y-67241031D01*
X162378903Y-67359333D01*
X162228333Y-67509903D01*
X162110031Y-67686955D01*
X162028543Y-67883684D01*
X161987000Y-68092531D01*
X161609000Y-68092531D01*
X161567457Y-67883684D01*
X161485969Y-67686955D01*
X161367667Y-67509903D01*
X161217097Y-67359333D01*
X161040045Y-67241031D01*
X160843316Y-67159543D01*
X160634469Y-67118000D01*
X160421531Y-67118000D01*
X160212684Y-67159543D01*
X160015955Y-67241031D01*
X159838903Y-67359333D01*
X159688333Y-67509903D01*
X159570031Y-67686955D01*
X159488543Y-67883684D01*
X159447000Y-68092531D01*
X77876000Y-68092531D01*
X77876000Y-57214458D01*
X121793000Y-57214458D01*
X121793000Y-57339542D01*
X121817403Y-57462223D01*
X121865271Y-57577785D01*
X121934764Y-57681789D01*
X122023211Y-57770236D01*
X122127215Y-57839729D01*
X122242777Y-57887597D01*
X122365458Y-57912000D01*
X122490542Y-57912000D01*
X122613223Y-57887597D01*
X122728785Y-57839729D01*
X122832789Y-57770236D01*
X122868825Y-57734200D01*
X134179175Y-57734200D01*
X134215211Y-57770236D01*
X134319215Y-57839729D01*
X134434777Y-57887597D01*
X134557458Y-57912000D01*
X134682542Y-57912000D01*
X134805223Y-57887597D01*
X134920785Y-57839729D01*
X135024789Y-57770236D01*
X135113236Y-57681789D01*
X135182729Y-57577785D01*
X135230597Y-57462223D01*
X135255000Y-57339542D01*
X135255000Y-57214458D01*
X135230597Y-57091777D01*
X135182729Y-56976215D01*
X135113236Y-56872211D01*
X135024789Y-56783764D01*
X134920785Y-56714271D01*
X134805223Y-56666403D01*
X134682542Y-56642000D01*
X134557458Y-56642000D01*
X134434777Y-56666403D01*
X134319215Y-56714271D01*
X134215211Y-56783764D01*
X134179175Y-56819800D01*
X122868825Y-56819800D01*
X122832789Y-56783764D01*
X122728785Y-56714271D01*
X122613223Y-56666403D01*
X122490542Y-56642000D01*
X122365458Y-56642000D01*
X122242777Y-56666403D01*
X122127215Y-56714271D01*
X122023211Y-56783764D01*
X121934764Y-56872211D01*
X121865271Y-56976215D01*
X121817403Y-57091777D01*
X121793000Y-57214458D01*
X77876000Y-57214458D01*
X77876000Y-56452458D01*
X114046000Y-56452458D01*
X114046000Y-56577542D01*
X114070403Y-56700223D01*
X114118271Y-56815785D01*
X114187764Y-56919789D01*
X114276211Y-57008236D01*
X114380215Y-57077729D01*
X114495777Y-57125597D01*
X114618458Y-57150000D01*
X114743542Y-57150000D01*
X114866223Y-57125597D01*
X114981785Y-57077729D01*
X115085789Y-57008236D01*
X115121825Y-56972200D01*
X120782050Y-56972200D01*
X120845777Y-56998597D01*
X120968458Y-57023000D01*
X121093542Y-57023000D01*
X121216223Y-56998597D01*
X121331785Y-56950729D01*
X121435789Y-56881236D01*
X121524236Y-56792789D01*
X121593729Y-56688785D01*
X121641597Y-56573223D01*
X121666000Y-56450542D01*
X121666000Y-56325458D01*
X121641597Y-56202777D01*
X121593729Y-56087215D01*
X121524236Y-55983211D01*
X121435789Y-55894764D01*
X121331785Y-55825271D01*
X121216223Y-55777403D01*
X121093542Y-55753000D01*
X120968458Y-55753000D01*
X120845777Y-55777403D01*
X120730215Y-55825271D01*
X120626211Y-55894764D01*
X120537764Y-55983211D01*
X120487925Y-56057800D01*
X115121825Y-56057800D01*
X115085789Y-56021764D01*
X114981785Y-55952271D01*
X114866223Y-55904403D01*
X114743542Y-55880000D01*
X114618458Y-55880000D01*
X114495777Y-55904403D01*
X114380215Y-55952271D01*
X114276211Y-56021764D01*
X114187764Y-56110211D01*
X114118271Y-56214215D01*
X114070403Y-56329777D01*
X114046000Y-56452458D01*
X77876000Y-56452458D01*
X77876000Y-52261458D01*
X92138500Y-52261458D01*
X92138500Y-52386542D01*
X92162903Y-52509223D01*
X92210771Y-52624785D01*
X92255882Y-52692299D01*
X92210771Y-52759812D01*
X92162903Y-52875374D01*
X92138500Y-52998055D01*
X92138500Y-53123139D01*
X92162903Y-53245820D01*
X92210771Y-53361382D01*
X92230426Y-53390798D01*
X92210771Y-53420215D01*
X92162903Y-53535777D01*
X92138500Y-53658458D01*
X92138500Y-53783542D01*
X92162903Y-53906223D01*
X92210771Y-54021785D01*
X92280264Y-54125789D01*
X92368711Y-54214236D01*
X92472715Y-54283729D01*
X92588277Y-54331597D01*
X92710958Y-54356000D01*
X92836042Y-54356000D01*
X92958723Y-54331597D01*
X93074285Y-54283729D01*
X93178289Y-54214236D01*
X93214325Y-54178200D01*
X110938175Y-54178200D01*
X110974211Y-54214236D01*
X111078215Y-54283729D01*
X111193777Y-54331597D01*
X111316458Y-54356000D01*
X111441542Y-54356000D01*
X111564223Y-54331597D01*
X111679785Y-54283729D01*
X111783789Y-54214236D01*
X111819825Y-54178200D01*
X131004175Y-54178200D01*
X131040211Y-54214236D01*
X131144215Y-54283729D01*
X131259777Y-54331597D01*
X131382458Y-54356000D01*
X131507542Y-54356000D01*
X131630223Y-54331597D01*
X131745785Y-54283729D01*
X131849789Y-54214236D01*
X131938236Y-54125789D01*
X132007729Y-54021785D01*
X132055597Y-53906223D01*
X132080000Y-53783542D01*
X132080000Y-53658458D01*
X132055597Y-53535777D01*
X132007729Y-53420215D01*
X131938236Y-53316211D01*
X131849789Y-53227764D01*
X131745785Y-53158271D01*
X131630223Y-53110403D01*
X131507542Y-53086000D01*
X131382458Y-53086000D01*
X131318000Y-53098822D01*
X131318000Y-53023458D01*
X131293597Y-52900777D01*
X131245729Y-52785215D01*
X131176236Y-52681211D01*
X131087789Y-52592764D01*
X130983785Y-52523271D01*
X130868223Y-52475403D01*
X130745542Y-52451000D01*
X130620458Y-52451000D01*
X130497777Y-52475403D01*
X130382215Y-52523271D01*
X130278211Y-52592764D01*
X130242175Y-52628800D01*
X114669546Y-52628800D01*
X114672229Y-52624785D01*
X114720097Y-52509223D01*
X114744500Y-52386542D01*
X114744500Y-52261458D01*
X114720097Y-52138777D01*
X114672229Y-52023215D01*
X114602736Y-51919211D01*
X114514289Y-51830764D01*
X114410285Y-51761271D01*
X114294723Y-51713403D01*
X114172042Y-51689000D01*
X114046958Y-51689000D01*
X113924277Y-51713403D01*
X113808715Y-51761271D01*
X113704711Y-51830764D01*
X113668675Y-51866800D01*
X93214325Y-51866800D01*
X93178289Y-51830764D01*
X93074285Y-51761271D01*
X92958723Y-51713403D01*
X92836042Y-51689000D01*
X92710958Y-51689000D01*
X92588277Y-51713403D01*
X92472715Y-51761271D01*
X92368711Y-51830764D01*
X92280264Y-51919211D01*
X92210771Y-52023215D01*
X92162903Y-52138777D01*
X92138500Y-52261458D01*
X77876000Y-52261458D01*
X77876000Y-42053462D01*
X77902082Y-41660772D01*
X80479000Y-41660772D01*
X80479000Y-42819228D01*
X80705003Y-43955425D01*
X81148325Y-45025698D01*
X81791929Y-45988919D01*
X82611081Y-46808071D01*
X83574302Y-47451675D01*
X84644575Y-47894997D01*
X85780772Y-48121000D01*
X86939228Y-48121000D01*
X88075425Y-47894997D01*
X89145698Y-47451675D01*
X90108919Y-46808071D01*
X90928071Y-45988919D01*
X91571675Y-45025698D01*
X92014997Y-43955425D01*
X92241000Y-42819228D01*
X92241000Y-41660772D01*
X92126564Y-41085458D01*
X163957000Y-41085458D01*
X163957000Y-41210542D01*
X163981403Y-41333223D01*
X164029271Y-41448785D01*
X164098764Y-41552789D01*
X164134800Y-41588825D01*
X164134801Y-48454174D01*
X164098764Y-48490211D01*
X164029271Y-48594215D01*
X163981403Y-48709777D01*
X163957000Y-48832458D01*
X163957000Y-48957542D01*
X163981403Y-49080223D01*
X164029271Y-49195785D01*
X164098764Y-49299789D01*
X164187211Y-49388236D01*
X164291215Y-49457729D01*
X164406777Y-49505597D01*
X164529458Y-49530000D01*
X164654542Y-49530000D01*
X164777223Y-49505597D01*
X164892785Y-49457729D01*
X164996789Y-49388236D01*
X165085236Y-49299789D01*
X165154729Y-49195785D01*
X165202597Y-49080223D01*
X165227000Y-48957542D01*
X165227000Y-48832458D01*
X165202597Y-48709777D01*
X165154729Y-48594215D01*
X165085236Y-48490211D01*
X165049200Y-48454175D01*
X165049200Y-41593458D01*
X166306500Y-41593458D01*
X166306500Y-41718542D01*
X166330903Y-41841223D01*
X166378771Y-41956785D01*
X166448264Y-42060789D01*
X166484300Y-42096825D01*
X166484301Y-43691674D01*
X166448264Y-43727711D01*
X166378771Y-43831715D01*
X166330903Y-43947277D01*
X166306500Y-44069958D01*
X166306500Y-44195042D01*
X166330903Y-44317723D01*
X166378771Y-44433285D01*
X166448264Y-44537289D01*
X166536711Y-44625736D01*
X166640715Y-44695229D01*
X166756277Y-44743097D01*
X166878958Y-44767500D01*
X167004042Y-44767500D01*
X167126723Y-44743097D01*
X167242285Y-44695229D01*
X167346289Y-44625736D01*
X167434736Y-44537289D01*
X167504229Y-44433285D01*
X167552097Y-44317723D01*
X167576500Y-44195042D01*
X167576500Y-44069958D01*
X167552097Y-43947277D01*
X167504229Y-43831715D01*
X167434736Y-43727711D01*
X167398700Y-43691675D01*
X167398700Y-42101458D01*
X171577000Y-42101458D01*
X171577000Y-42226542D01*
X171601403Y-42349223D01*
X171649271Y-42464785D01*
X171718764Y-42568789D01*
X171754800Y-42604825D01*
X171754801Y-48327174D01*
X171718764Y-48363211D01*
X171649271Y-48467215D01*
X171601403Y-48582777D01*
X171577000Y-48705458D01*
X171577000Y-48830542D01*
X171601403Y-48953223D01*
X171649271Y-49068785D01*
X171718764Y-49172789D01*
X171807211Y-49261236D01*
X171911215Y-49330729D01*
X172026777Y-49378597D01*
X172149458Y-49403000D01*
X172274542Y-49403000D01*
X172397223Y-49378597D01*
X172512785Y-49330729D01*
X172616789Y-49261236D01*
X172705236Y-49172789D01*
X172774729Y-49068785D01*
X172822597Y-48953223D01*
X172847000Y-48830542D01*
X172847000Y-48705458D01*
X172822597Y-48582777D01*
X172774729Y-48467215D01*
X172705236Y-48363211D01*
X172669200Y-48327175D01*
X172669200Y-42604825D01*
X172705236Y-42568789D01*
X172774729Y-42464785D01*
X172822597Y-42349223D01*
X172847000Y-42226542D01*
X172847000Y-42101458D01*
X172822597Y-41978777D01*
X172774729Y-41863215D01*
X172705236Y-41759211D01*
X172616789Y-41670764D01*
X172512785Y-41601271D01*
X172397223Y-41553403D01*
X172274542Y-41529000D01*
X172149458Y-41529000D01*
X172026777Y-41553403D01*
X171911215Y-41601271D01*
X171807211Y-41670764D01*
X171718764Y-41759211D01*
X171649271Y-41863215D01*
X171601403Y-41978777D01*
X171577000Y-42101458D01*
X167398700Y-42101458D01*
X167398700Y-42096825D01*
X167434736Y-42060789D01*
X167504229Y-41956785D01*
X167552097Y-41841223D01*
X167576500Y-41718542D01*
X167576500Y-41593458D01*
X167552097Y-41470777D01*
X167504229Y-41355215D01*
X167434736Y-41251211D01*
X167346289Y-41162764D01*
X167242285Y-41093271D01*
X167126723Y-41045403D01*
X167004042Y-41021000D01*
X166878958Y-41021000D01*
X166756277Y-41045403D01*
X166640715Y-41093271D01*
X166536711Y-41162764D01*
X166448264Y-41251211D01*
X166378771Y-41355215D01*
X166330903Y-41470777D01*
X166306500Y-41593458D01*
X165049200Y-41593458D01*
X165049200Y-41588825D01*
X165085236Y-41552789D01*
X165154729Y-41448785D01*
X165202597Y-41333223D01*
X165227000Y-41210542D01*
X165227000Y-41085458D01*
X165202597Y-40962777D01*
X165154729Y-40847215D01*
X165085236Y-40743211D01*
X164996789Y-40654764D01*
X164892785Y-40585271D01*
X164777223Y-40537403D01*
X164654542Y-40513000D01*
X164529458Y-40513000D01*
X164406777Y-40537403D01*
X164291215Y-40585271D01*
X164187211Y-40654764D01*
X164098764Y-40743211D01*
X164029271Y-40847215D01*
X163981403Y-40962777D01*
X163957000Y-41085458D01*
X92126564Y-41085458D01*
X92014997Y-40524575D01*
X91931692Y-40323458D01*
X173355000Y-40323458D01*
X173355000Y-40448542D01*
X173379403Y-40571223D01*
X173427271Y-40686785D01*
X173496764Y-40790789D01*
X173532801Y-40826826D01*
X173532800Y-43755175D01*
X173496764Y-43791211D01*
X173427271Y-43895215D01*
X173379403Y-44010777D01*
X173355000Y-44133458D01*
X173355000Y-44258542D01*
X173379403Y-44381223D01*
X173427271Y-44496785D01*
X173496764Y-44600789D01*
X173585211Y-44689236D01*
X173689215Y-44758729D01*
X173804777Y-44806597D01*
X173927458Y-44831000D01*
X174052542Y-44831000D01*
X174175223Y-44806597D01*
X174290785Y-44758729D01*
X174394789Y-44689236D01*
X174483236Y-44600789D01*
X174552729Y-44496785D01*
X174600597Y-44381223D01*
X174625000Y-44258542D01*
X174625000Y-44133458D01*
X174600597Y-44010777D01*
X174552729Y-43895215D01*
X174483236Y-43791211D01*
X174447200Y-43755175D01*
X174447200Y-41660772D01*
X205479000Y-41660772D01*
X205479000Y-42819228D01*
X205705003Y-43955425D01*
X206148325Y-45025698D01*
X206791929Y-45988919D01*
X207611081Y-46808071D01*
X208574302Y-47451675D01*
X209644575Y-47894997D01*
X210780772Y-48121000D01*
X211939228Y-48121000D01*
X213075425Y-47894997D01*
X214145698Y-47451675D01*
X215108919Y-46808071D01*
X215928071Y-45988919D01*
X216571675Y-45025698D01*
X217014997Y-43955425D01*
X217241000Y-42819228D01*
X217241000Y-41660772D01*
X217014997Y-40524575D01*
X216571675Y-39454302D01*
X215928071Y-38491081D01*
X215108919Y-37671929D01*
X214145698Y-37028325D01*
X213075425Y-36585003D01*
X211939228Y-36359000D01*
X210780772Y-36359000D01*
X209644575Y-36585003D01*
X208574302Y-37028325D01*
X207611081Y-37671929D01*
X206791929Y-38491081D01*
X206148325Y-39454302D01*
X205705003Y-40524575D01*
X205479000Y-41660772D01*
X174447200Y-41660772D01*
X174447200Y-40826825D01*
X174483236Y-40790789D01*
X174552729Y-40686785D01*
X174600597Y-40571223D01*
X174625000Y-40448542D01*
X174625000Y-40323458D01*
X174600597Y-40200777D01*
X174552729Y-40085215D01*
X174483236Y-39981211D01*
X174394789Y-39892764D01*
X174290785Y-39823271D01*
X174175223Y-39775403D01*
X174052542Y-39751000D01*
X173927458Y-39751000D01*
X173804777Y-39775403D01*
X173689215Y-39823271D01*
X173585211Y-39892764D01*
X173496764Y-39981211D01*
X173427271Y-40085215D01*
X173379403Y-40200777D01*
X173355000Y-40323458D01*
X91931692Y-40323458D01*
X91571675Y-39454302D01*
X90928071Y-38491081D01*
X90108919Y-37671929D01*
X89145698Y-37028325D01*
X88075425Y-36585003D01*
X86939228Y-36359000D01*
X85780772Y-36359000D01*
X84644575Y-36585003D01*
X83574302Y-37028325D01*
X82611081Y-37671929D01*
X81791929Y-38491081D01*
X81148325Y-39454302D01*
X80705003Y-40524575D01*
X80479000Y-41660772D01*
X77902082Y-41660772D01*
X77951414Y-40918058D01*
X78173663Y-39815819D01*
X78539736Y-38752669D01*
X79043205Y-37747263D01*
X79675221Y-36817278D01*
X80424682Y-35979053D01*
X81278424Y-35247308D01*
X82221432Y-34634912D01*
X83237159Y-34152609D01*
X84307757Y-33808877D01*
X85416494Y-33609384D01*
X86371342Y-33556000D01*
X211546538Y-33556000D01*
X212681942Y-33631414D01*
%TA.AperFunction,Conductor*%
D18*
G36*
X212681942Y-33631414D02*
G01*
X213784181Y-33853663D01*
X214847331Y-34219736D01*
X215852737Y-34723205D01*
X216782722Y-35355221D01*
X217620947Y-36104682D01*
X218352692Y-36958424D01*
X218965088Y-37901432D01*
X219447391Y-38917159D01*
X219791123Y-39987757D01*
X219990616Y-41096494D01*
X220044001Y-42051360D01*
X220044000Y-142226537D01*
X219968586Y-143361944D01*
X219746338Y-144464177D01*
X219380264Y-145527332D01*
X218876795Y-146532737D01*
X218244779Y-147462721D01*
X217495318Y-148300947D01*
X216641580Y-149032690D01*
X215698568Y-149645088D01*
X214682837Y-150127393D01*
X213612244Y-150471122D01*
X212503506Y-150670616D01*
X211548659Y-150724000D01*
X86373463Y-150724000D01*
X85238056Y-150648586D01*
X84135823Y-150426338D01*
X83072668Y-150060264D01*
X82067263Y-149556795D01*
X81137279Y-148924779D01*
X80299053Y-148175318D01*
X79567310Y-147321580D01*
X78954912Y-146378568D01*
X78472607Y-145362837D01*
X78128878Y-144292244D01*
X77929384Y-143183506D01*
X77876000Y-142228659D01*
X77876000Y-141660772D01*
X80479000Y-141660772D01*
X80479000Y-142819228D01*
X80705003Y-143955425D01*
X81148325Y-145025698D01*
X81791929Y-145988919D01*
X82611081Y-146808071D01*
X83574302Y-147451675D01*
X84644575Y-147894997D01*
X85780772Y-148121000D01*
X86939228Y-148121000D01*
X88075425Y-147894997D01*
X89145698Y-147451675D01*
X90108919Y-146808071D01*
X90928071Y-145988919D01*
X91571675Y-145025698D01*
X92014997Y-143955425D01*
X92241000Y-142819228D01*
X92241000Y-141660772D01*
X92014997Y-140524575D01*
X91715904Y-139802500D01*
X119480657Y-139802500D01*
X119480657Y-141502500D01*
X119488013Y-141577189D01*
X119509799Y-141649008D01*
X119545178Y-141715196D01*
X119592789Y-141773211D01*
X119650804Y-141820822D01*
X119716992Y-141856201D01*
X119788811Y-141877987D01*
X119863500Y-141885343D01*
X121563500Y-141885343D01*
X121638189Y-141877987D01*
X121710008Y-141856201D01*
X121776196Y-141820822D01*
X121834211Y-141773211D01*
X121881822Y-141715196D01*
X121910912Y-141660772D01*
X205479000Y-141660772D01*
X205479000Y-142819228D01*
X205705003Y-143955425D01*
X206148325Y-145025698D01*
X206791929Y-145988919D01*
X207611081Y-146808071D01*
X208574302Y-147451675D01*
X209644575Y-147894997D01*
X210780772Y-148121000D01*
X211939228Y-148121000D01*
X213075425Y-147894997D01*
X214145698Y-147451675D01*
X215108919Y-146808071D01*
X215928071Y-145988919D01*
X216571675Y-145025698D01*
X217014997Y-143955425D01*
X217241000Y-142819228D01*
X217241000Y-141660772D01*
X217014997Y-140524575D01*
X216571675Y-139454302D01*
X215928071Y-138491081D01*
X215108919Y-137671929D01*
X214145698Y-137028325D01*
X213075425Y-136585003D01*
X211939228Y-136359000D01*
X210780772Y-136359000D01*
X209644575Y-136585003D01*
X208574302Y-137028325D01*
X207611081Y-137671929D01*
X206791929Y-138491081D01*
X206148325Y-139454302D01*
X205705003Y-140524575D01*
X205479000Y-141660772D01*
X121910912Y-141660772D01*
X121917201Y-141649008D01*
X121938987Y-141577189D01*
X121946343Y-141502500D01*
X121946343Y-139802500D01*
X121938987Y-139727811D01*
X121917201Y-139655992D01*
X121881822Y-139589804D01*
X121834211Y-139531789D01*
X121776196Y-139484178D01*
X121710008Y-139448799D01*
X121638189Y-139427013D01*
X121563500Y-139419657D01*
X119863500Y-139419657D01*
X119788811Y-139427013D01*
X119716992Y-139448799D01*
X119650804Y-139484178D01*
X119592789Y-139531789D01*
X119545178Y-139589804D01*
X119509799Y-139655992D01*
X119488013Y-139727811D01*
X119480657Y-139802500D01*
X91715904Y-139802500D01*
X91571675Y-139454302D01*
X90928071Y-138491081D01*
X90108919Y-137671929D01*
X89658594Y-137371031D01*
X117092500Y-137371031D01*
X117092500Y-137583969D01*
X117134043Y-137792816D01*
X117215531Y-137989545D01*
X117333833Y-138166597D01*
X117484403Y-138317167D01*
X117661455Y-138435469D01*
X117858184Y-138516957D01*
X118067031Y-138558500D01*
X118279969Y-138558500D01*
X118488816Y-138516957D01*
X118685545Y-138435469D01*
X118862597Y-138317167D01*
X119013167Y-138166597D01*
X119131469Y-137989545D01*
X119212957Y-137792816D01*
X119254500Y-137583969D01*
X119254500Y-137371031D01*
X119632500Y-137371031D01*
X119632500Y-137583969D01*
X119674043Y-137792816D01*
X119755531Y-137989545D01*
X119873833Y-138166597D01*
X120024403Y-138317167D01*
X120201455Y-138435469D01*
X120398184Y-138516957D01*
X120607031Y-138558500D01*
X120819969Y-138558500D01*
X121028816Y-138516957D01*
X121225545Y-138435469D01*
X121402597Y-138317167D01*
X121553167Y-138166597D01*
X121671469Y-137989545D01*
X121752957Y-137792816D01*
X121794500Y-137583969D01*
X121794500Y-137371031D01*
X121752957Y-137162184D01*
X121671469Y-136965455D01*
X121553167Y-136788403D01*
X121402597Y-136637833D01*
X121225545Y-136519531D01*
X121028816Y-136438043D01*
X120819969Y-136396500D01*
X120607031Y-136396500D01*
X120398184Y-136438043D01*
X120201455Y-136519531D01*
X120024403Y-136637833D01*
X119873833Y-136788403D01*
X119755531Y-136965455D01*
X119674043Y-137162184D01*
X119632500Y-137371031D01*
X119254500Y-137371031D01*
X119212957Y-137162184D01*
X119131469Y-136965455D01*
X119013167Y-136788403D01*
X118862597Y-136637833D01*
X118685545Y-136519531D01*
X118488816Y-136438043D01*
X118279969Y-136396500D01*
X118067031Y-136396500D01*
X117858184Y-136438043D01*
X117661455Y-136519531D01*
X117484403Y-136637833D01*
X117333833Y-136788403D01*
X117215531Y-136965455D01*
X117134043Y-137162184D01*
X117092500Y-137371031D01*
X89658594Y-137371031D01*
X89145698Y-137028325D01*
X88075425Y-136585003D01*
X86939228Y-136359000D01*
X85780772Y-136359000D01*
X84644575Y-136585003D01*
X83574302Y-137028325D01*
X82611081Y-137671929D01*
X81791929Y-138491081D01*
X81148325Y-139454302D01*
X80705003Y-140524575D01*
X80479000Y-141660772D01*
X77876000Y-141660772D01*
X77876000Y-123377357D01*
X98987200Y-123377357D01*
X98987200Y-123619843D01*
X99034507Y-123857669D01*
X99127302Y-124081697D01*
X99262020Y-124283317D01*
X99433483Y-124454780D01*
X99635103Y-124589498D01*
X99859131Y-124682293D01*
X100096957Y-124729600D01*
X100339443Y-124729600D01*
X100577269Y-124682293D01*
X100801297Y-124589498D01*
X101002917Y-124454780D01*
X101174380Y-124283317D01*
X101309098Y-124081697D01*
X101401893Y-123857669D01*
X101449200Y-123619843D01*
X101449200Y-123377357D01*
X145487200Y-123377357D01*
X145487200Y-123619843D01*
X145534507Y-123857669D01*
X145627302Y-124081697D01*
X145762020Y-124283317D01*
X145933483Y-124454780D01*
X146135103Y-124589498D01*
X146359131Y-124682293D01*
X146596957Y-124729600D01*
X146839443Y-124729600D01*
X147077269Y-124682293D01*
X147301297Y-124589498D01*
X147502917Y-124454780D01*
X147674380Y-124283317D01*
X147809098Y-124081697D01*
X147901893Y-123857669D01*
X147949200Y-123619843D01*
X147949200Y-123377357D01*
X147901893Y-123139531D01*
X147809098Y-122915503D01*
X147674380Y-122713883D01*
X147502917Y-122542420D01*
X147301297Y-122407702D01*
X147077269Y-122314907D01*
X146839443Y-122267600D01*
X146596957Y-122267600D01*
X146359131Y-122314907D01*
X146135103Y-122407702D01*
X145933483Y-122542420D01*
X145762020Y-122713883D01*
X145627302Y-122915503D01*
X145534507Y-123139531D01*
X145487200Y-123377357D01*
X101449200Y-123377357D01*
X101401893Y-123139531D01*
X101309098Y-122915503D01*
X101174380Y-122713883D01*
X101002917Y-122542420D01*
X100801297Y-122407702D01*
X100577269Y-122314907D01*
X100339443Y-122267600D01*
X100096957Y-122267600D01*
X99859131Y-122314907D01*
X99635103Y-122407702D01*
X99433483Y-122542420D01*
X99262020Y-122713883D01*
X99127302Y-122915503D01*
X99034507Y-123139531D01*
X98987200Y-123377357D01*
X77876000Y-123377357D01*
X77876000Y-120837357D01*
X98987200Y-120837357D01*
X98987200Y-121079843D01*
X99034507Y-121317669D01*
X99127302Y-121541697D01*
X99262020Y-121743317D01*
X99433483Y-121914780D01*
X99635103Y-122049498D01*
X99859131Y-122142293D01*
X100096957Y-122189600D01*
X100339443Y-122189600D01*
X100577269Y-122142293D01*
X100801297Y-122049498D01*
X101002917Y-121914780D01*
X101174380Y-121743317D01*
X101309098Y-121541697D01*
X101401893Y-121317669D01*
X101449200Y-121079843D01*
X101449200Y-120837357D01*
X145487200Y-120837357D01*
X145487200Y-121079843D01*
X145534507Y-121317669D01*
X145627302Y-121541697D01*
X145762020Y-121743317D01*
X145933483Y-121914780D01*
X146135103Y-122049498D01*
X146359131Y-122142293D01*
X146596957Y-122189600D01*
X146839443Y-122189600D01*
X147077269Y-122142293D01*
X147301297Y-122049498D01*
X147502917Y-121914780D01*
X147674380Y-121743317D01*
X147809098Y-121541697D01*
X147901893Y-121317669D01*
X147949200Y-121079843D01*
X147949200Y-120837357D01*
X147901893Y-120599531D01*
X147809098Y-120375503D01*
X147674380Y-120173883D01*
X147502917Y-120002420D01*
X147301297Y-119867702D01*
X147077269Y-119774907D01*
X146839443Y-119727600D01*
X146596957Y-119727600D01*
X146359131Y-119774907D01*
X146135103Y-119867702D01*
X145933483Y-120002420D01*
X145762020Y-120173883D01*
X145627302Y-120375503D01*
X145534507Y-120599531D01*
X145487200Y-120837357D01*
X101449200Y-120837357D01*
X101401893Y-120599531D01*
X101309098Y-120375503D01*
X101174380Y-120173883D01*
X101002917Y-120002420D01*
X100801297Y-119867702D01*
X100577269Y-119774907D01*
X100339443Y-119727600D01*
X100096957Y-119727600D01*
X99859131Y-119774907D01*
X99635103Y-119867702D01*
X99433483Y-120002420D01*
X99262020Y-120173883D01*
X99127302Y-120375503D01*
X99034507Y-120599531D01*
X98987200Y-120837357D01*
X77876000Y-120837357D01*
X77876000Y-118297357D01*
X98987200Y-118297357D01*
X98987200Y-118539843D01*
X99034507Y-118777669D01*
X99127302Y-119001697D01*
X99262020Y-119203317D01*
X99433483Y-119374780D01*
X99635103Y-119509498D01*
X99859131Y-119602293D01*
X100096957Y-119649600D01*
X100339443Y-119649600D01*
X100577269Y-119602293D01*
X100801297Y-119509498D01*
X101002917Y-119374780D01*
X101174380Y-119203317D01*
X101309098Y-119001697D01*
X101401893Y-118777669D01*
X101449200Y-118539843D01*
X101449200Y-118297357D01*
X145487200Y-118297357D01*
X145487200Y-118539843D01*
X145534507Y-118777669D01*
X145627302Y-119001697D01*
X145762020Y-119203317D01*
X145933483Y-119374780D01*
X146135103Y-119509498D01*
X146359131Y-119602293D01*
X146596957Y-119649600D01*
X146839443Y-119649600D01*
X147077269Y-119602293D01*
X147301297Y-119509498D01*
X147502917Y-119374780D01*
X147674380Y-119203317D01*
X147809098Y-119001697D01*
X147901893Y-118777669D01*
X147949200Y-118539843D01*
X147949200Y-118297357D01*
X147901893Y-118059531D01*
X147809098Y-117835503D01*
X147674380Y-117633883D01*
X147502917Y-117462420D01*
X147301297Y-117327702D01*
X147077269Y-117234907D01*
X146839443Y-117187600D01*
X146596957Y-117187600D01*
X146359131Y-117234907D01*
X146135103Y-117327702D01*
X145933483Y-117462420D01*
X145762020Y-117633883D01*
X145627302Y-117835503D01*
X145534507Y-118059531D01*
X145487200Y-118297357D01*
X101449200Y-118297357D01*
X101401893Y-118059531D01*
X101309098Y-117835503D01*
X101174380Y-117633883D01*
X101002917Y-117462420D01*
X100801297Y-117327702D01*
X100577269Y-117234907D01*
X100339443Y-117187600D01*
X100096957Y-117187600D01*
X99859131Y-117234907D01*
X99635103Y-117327702D01*
X99433483Y-117462420D01*
X99262020Y-117633883D01*
X99127302Y-117835503D01*
X99034507Y-118059531D01*
X98987200Y-118297357D01*
X77876000Y-118297357D01*
X77876000Y-115757357D01*
X98987200Y-115757357D01*
X98987200Y-115999843D01*
X99034507Y-116237669D01*
X99127302Y-116461697D01*
X99262020Y-116663317D01*
X99433483Y-116834780D01*
X99635103Y-116969498D01*
X99859131Y-117062293D01*
X100096957Y-117109600D01*
X100339443Y-117109600D01*
X100577269Y-117062293D01*
X100801297Y-116969498D01*
X101002917Y-116834780D01*
X101174380Y-116663317D01*
X101309098Y-116461697D01*
X101401893Y-116237669D01*
X101449200Y-115999843D01*
X101449200Y-115757357D01*
X145487200Y-115757357D01*
X145487200Y-115999843D01*
X145534507Y-116237669D01*
X145627302Y-116461697D01*
X145762020Y-116663317D01*
X145933483Y-116834780D01*
X146135103Y-116969498D01*
X146359131Y-117062293D01*
X146596957Y-117109600D01*
X146839443Y-117109600D01*
X147077269Y-117062293D01*
X147301297Y-116969498D01*
X147502917Y-116834780D01*
X147674380Y-116663317D01*
X147809098Y-116461697D01*
X147901893Y-116237669D01*
X147949200Y-115999843D01*
X147949200Y-115757357D01*
X147901893Y-115519531D01*
X147809098Y-115295503D01*
X147674380Y-115093883D01*
X147502917Y-114922420D01*
X147301297Y-114787702D01*
X147077269Y-114694907D01*
X146839443Y-114647600D01*
X146596957Y-114647600D01*
X146359131Y-114694907D01*
X146135103Y-114787702D01*
X145933483Y-114922420D01*
X145762020Y-115093883D01*
X145627302Y-115295503D01*
X145534507Y-115519531D01*
X145487200Y-115757357D01*
X101449200Y-115757357D01*
X101401893Y-115519531D01*
X101309098Y-115295503D01*
X101174380Y-115093883D01*
X101002917Y-114922420D01*
X100801297Y-114787702D01*
X100577269Y-114694907D01*
X100339443Y-114647600D01*
X100096957Y-114647600D01*
X99859131Y-114694907D01*
X99635103Y-114787702D01*
X99433483Y-114922420D01*
X99262020Y-115093883D01*
X99127302Y-115295503D01*
X99034507Y-115519531D01*
X98987200Y-115757357D01*
X77876000Y-115757357D01*
X77876000Y-113217357D01*
X98987200Y-113217357D01*
X98987200Y-113459843D01*
X99034507Y-113697669D01*
X99127302Y-113921697D01*
X99262020Y-114123317D01*
X99433483Y-114294780D01*
X99635103Y-114429498D01*
X99859131Y-114522293D01*
X100096957Y-114569600D01*
X100339443Y-114569600D01*
X100577269Y-114522293D01*
X100801297Y-114429498D01*
X101002917Y-114294780D01*
X101174380Y-114123317D01*
X101309098Y-113921697D01*
X101401893Y-113697669D01*
X101449200Y-113459843D01*
X101449200Y-113217357D01*
X145487200Y-113217357D01*
X145487200Y-113459843D01*
X145534507Y-113697669D01*
X145627302Y-113921697D01*
X145762020Y-114123317D01*
X145933483Y-114294780D01*
X146135103Y-114429498D01*
X146359131Y-114522293D01*
X146596957Y-114569600D01*
X146839443Y-114569600D01*
X147077269Y-114522293D01*
X147301297Y-114429498D01*
X147502917Y-114294780D01*
X147674380Y-114123317D01*
X147809098Y-113921697D01*
X147901893Y-113697669D01*
X147949200Y-113459843D01*
X147949200Y-113217357D01*
X147901893Y-112979531D01*
X147809098Y-112755503D01*
X147674380Y-112553883D01*
X147502917Y-112382420D01*
X147301297Y-112247702D01*
X147077269Y-112154907D01*
X146839443Y-112107600D01*
X146596957Y-112107600D01*
X146359131Y-112154907D01*
X146135103Y-112247702D01*
X145933483Y-112382420D01*
X145762020Y-112553883D01*
X145627302Y-112755503D01*
X145534507Y-112979531D01*
X145487200Y-113217357D01*
X101449200Y-113217357D01*
X101401893Y-112979531D01*
X101309098Y-112755503D01*
X101174380Y-112553883D01*
X101002917Y-112382420D01*
X100801297Y-112247702D01*
X100577269Y-112154907D01*
X100339443Y-112107600D01*
X100096957Y-112107600D01*
X99859131Y-112154907D01*
X99635103Y-112247702D01*
X99433483Y-112382420D01*
X99262020Y-112553883D01*
X99127302Y-112755503D01*
X99034507Y-112979531D01*
X98987200Y-113217357D01*
X77876000Y-113217357D01*
X77876000Y-110677357D01*
X98987200Y-110677357D01*
X98987200Y-110919843D01*
X99034507Y-111157669D01*
X99127302Y-111381697D01*
X99262020Y-111583317D01*
X99433483Y-111754780D01*
X99635103Y-111889498D01*
X99859131Y-111982293D01*
X100096957Y-112029600D01*
X100339443Y-112029600D01*
X100577269Y-111982293D01*
X100801297Y-111889498D01*
X101002917Y-111754780D01*
X101174380Y-111583317D01*
X101309098Y-111381697D01*
X101361246Y-111255800D01*
X127938950Y-111255800D01*
X127961400Y-111258011D01*
X127983850Y-111255800D01*
X127983860Y-111255800D01*
X128051027Y-111249185D01*
X128137209Y-111223041D01*
X128216636Y-111180587D01*
X128286253Y-111123453D01*
X128300574Y-111106003D01*
X128729220Y-110677357D01*
X145487200Y-110677357D01*
X145487200Y-110919843D01*
X145534507Y-111157669D01*
X145627302Y-111381697D01*
X145762020Y-111583317D01*
X145933483Y-111754780D01*
X146135103Y-111889498D01*
X146359131Y-111982293D01*
X146596957Y-112029600D01*
X146839443Y-112029600D01*
X147077269Y-111982293D01*
X147301297Y-111889498D01*
X147502917Y-111754780D01*
X147674380Y-111583317D01*
X147809098Y-111381697D01*
X147901893Y-111157669D01*
X147949200Y-110919843D01*
X147949200Y-110677357D01*
X147901893Y-110439531D01*
X147809098Y-110215503D01*
X147674380Y-110013883D01*
X147502917Y-109842420D01*
X147301297Y-109707702D01*
X147077269Y-109614907D01*
X146839443Y-109567600D01*
X146596957Y-109567600D01*
X146359131Y-109614907D01*
X146135103Y-109707702D01*
X145933483Y-109842420D01*
X145762020Y-110013883D01*
X145627302Y-110215503D01*
X145534507Y-110439531D01*
X145487200Y-110677357D01*
X128729220Y-110677357D01*
X131269220Y-108137357D01*
X145487200Y-108137357D01*
X145487200Y-108379843D01*
X145534507Y-108617669D01*
X145627302Y-108841697D01*
X145762020Y-109043317D01*
X145933483Y-109214780D01*
X146135103Y-109349498D01*
X146359131Y-109442293D01*
X146596957Y-109489600D01*
X146839443Y-109489600D01*
X147077269Y-109442293D01*
X147301297Y-109349498D01*
X147502917Y-109214780D01*
X147674380Y-109043317D01*
X147809098Y-108841697D01*
X147901893Y-108617669D01*
X147949200Y-108379843D01*
X147949200Y-108137357D01*
X147901893Y-107899531D01*
X147809098Y-107675503D01*
X147674380Y-107473883D01*
X147502917Y-107302420D01*
X147301297Y-107167702D01*
X147077269Y-107074907D01*
X146839443Y-107027600D01*
X146596957Y-107027600D01*
X146359131Y-107074907D01*
X146135103Y-107167702D01*
X145933483Y-107302420D01*
X145762020Y-107473883D01*
X145627302Y-107675503D01*
X145534507Y-107899531D01*
X145487200Y-108137357D01*
X131269220Y-108137357D01*
X133809220Y-105597357D01*
X145487200Y-105597357D01*
X145487200Y-105839843D01*
X145534507Y-106077669D01*
X145627302Y-106301697D01*
X145762020Y-106503317D01*
X145933483Y-106674780D01*
X146135103Y-106809498D01*
X146359131Y-106902293D01*
X146596957Y-106949600D01*
X146839443Y-106949600D01*
X147077269Y-106902293D01*
X147301297Y-106809498D01*
X147502917Y-106674780D01*
X147674380Y-106503317D01*
X147809098Y-106301697D01*
X147901893Y-106077669D01*
X147949200Y-105839843D01*
X147949200Y-105597357D01*
X147901893Y-105359531D01*
X147809098Y-105135503D01*
X147674380Y-104933883D01*
X147502917Y-104762420D01*
X147301297Y-104627702D01*
X147077269Y-104534907D01*
X146839443Y-104487600D01*
X146596957Y-104487600D01*
X146359131Y-104534907D01*
X146135103Y-104627702D01*
X145933483Y-104762420D01*
X145762020Y-104933883D01*
X145627302Y-105135503D01*
X145534507Y-105359531D01*
X145487200Y-105597357D01*
X133809220Y-105597357D01*
X137917978Y-101488600D01*
X145230128Y-101488600D01*
X145242388Y-101613082D01*
X145278698Y-101732780D01*
X145337663Y-101843094D01*
X145417015Y-101939785D01*
X145513706Y-102019137D01*
X145624020Y-102078102D01*
X145743718Y-102114412D01*
X145868200Y-102126672D01*
X146078494Y-102125527D01*
X145933483Y-102222420D01*
X145762020Y-102393883D01*
X145627302Y-102595503D01*
X145534507Y-102819531D01*
X145487200Y-103057357D01*
X145487200Y-103299843D01*
X145534507Y-103537669D01*
X145627302Y-103761697D01*
X145762020Y-103963317D01*
X145933483Y-104134780D01*
X146135103Y-104269498D01*
X146359131Y-104362293D01*
X146596957Y-104409600D01*
X146839443Y-104409600D01*
X147077269Y-104362293D01*
X147301297Y-104269498D01*
X147502917Y-104134780D01*
X147674380Y-103963317D01*
X147809098Y-103761697D01*
X147901893Y-103537669D01*
X147933204Y-103380257D01*
X163935000Y-103380257D01*
X163935000Y-103622743D01*
X163982307Y-103860569D01*
X164075102Y-104084597D01*
X164209820Y-104286217D01*
X164381283Y-104457680D01*
X164582903Y-104592398D01*
X164806931Y-104685193D01*
X165044757Y-104732500D01*
X165287243Y-104732500D01*
X165525069Y-104685193D01*
X165749097Y-104592398D01*
X165950717Y-104457680D01*
X166122180Y-104286217D01*
X166256898Y-104084597D01*
X166349693Y-103860569D01*
X166397000Y-103622743D01*
X166397000Y-103380257D01*
X166349693Y-103142431D01*
X166256898Y-102918403D01*
X166122180Y-102716783D01*
X165950717Y-102545320D01*
X165749097Y-102410602D01*
X165525069Y-102317807D01*
X165287243Y-102270500D01*
X165044757Y-102270500D01*
X164806931Y-102317807D01*
X164582903Y-102410602D01*
X164381283Y-102545320D01*
X164209820Y-102716783D01*
X164075102Y-102918403D01*
X163982307Y-103142431D01*
X163935000Y-103380257D01*
X147933204Y-103380257D01*
X147949200Y-103299843D01*
X147949200Y-103057357D01*
X147901893Y-102819531D01*
X147809098Y-102595503D01*
X147674380Y-102393883D01*
X147502917Y-102222420D01*
X147357906Y-102125527D01*
X147568200Y-102126672D01*
X147692682Y-102114412D01*
X147812380Y-102078102D01*
X147922694Y-102019137D01*
X148019385Y-101939785D01*
X148098737Y-101843094D01*
X148157702Y-101732780D01*
X148194012Y-101613082D01*
X148206272Y-101488600D01*
X148203200Y-100924350D01*
X148119107Y-100840257D01*
X163935000Y-100840257D01*
X163935000Y-101082743D01*
X163982307Y-101320569D01*
X164075102Y-101544597D01*
X164209820Y-101746217D01*
X164381283Y-101917680D01*
X164582903Y-102052398D01*
X164806931Y-102145193D01*
X165044757Y-102192500D01*
X165287243Y-102192500D01*
X165525069Y-102145193D01*
X165749097Y-102052398D01*
X165950717Y-101917680D01*
X166122180Y-101746217D01*
X166256898Y-101544597D01*
X166349693Y-101320569D01*
X166397000Y-101082743D01*
X166397000Y-100840257D01*
X166349693Y-100602431D01*
X166256898Y-100378403D01*
X166122180Y-100176783D01*
X165950717Y-100005320D01*
X165749097Y-99870602D01*
X165525069Y-99777807D01*
X165287243Y-99730500D01*
X165044757Y-99730500D01*
X164806931Y-99777807D01*
X164582903Y-99870602D01*
X164381283Y-100005320D01*
X164209820Y-100176783D01*
X164075102Y-100378403D01*
X163982307Y-100602431D01*
X163935000Y-100840257D01*
X148119107Y-100840257D01*
X148044450Y-100765600D01*
X146845200Y-100765600D01*
X146845200Y-100785600D01*
X146591200Y-100785600D01*
X146591200Y-100765600D01*
X145391950Y-100765600D01*
X145233200Y-100924350D01*
X145230128Y-101488600D01*
X137917978Y-101488600D01*
X139617978Y-99788600D01*
X145230128Y-99788600D01*
X145233200Y-100352850D01*
X145391950Y-100511600D01*
X146591200Y-100511600D01*
X146591200Y-99312350D01*
X146845200Y-99312350D01*
X146845200Y-100511600D01*
X148044450Y-100511600D01*
X148203200Y-100352850D01*
X148206272Y-99788600D01*
X148194012Y-99664118D01*
X148157702Y-99544420D01*
X148098737Y-99434106D01*
X148019385Y-99337415D01*
X147922694Y-99258063D01*
X147812380Y-99199098D01*
X147692682Y-99162788D01*
X147568200Y-99150528D01*
X147003950Y-99153600D01*
X146845200Y-99312350D01*
X146591200Y-99312350D01*
X146432450Y-99153600D01*
X145868200Y-99150528D01*
X145743718Y-99162788D01*
X145624020Y-99199098D01*
X145513706Y-99258063D01*
X145417015Y-99337415D01*
X145337663Y-99434106D01*
X145278698Y-99544420D01*
X145242388Y-99664118D01*
X145230128Y-99788600D01*
X139617978Y-99788600D01*
X141106321Y-98300257D01*
X163935000Y-98300257D01*
X163935000Y-98542743D01*
X163982307Y-98780569D01*
X164075102Y-99004597D01*
X164209820Y-99206217D01*
X164381283Y-99377680D01*
X164582903Y-99512398D01*
X164806931Y-99605193D01*
X165044757Y-99652500D01*
X165287243Y-99652500D01*
X165525069Y-99605193D01*
X165749097Y-99512398D01*
X165950717Y-99377680D01*
X166122180Y-99206217D01*
X166256898Y-99004597D01*
X166349693Y-98780569D01*
X166397000Y-98542743D01*
X166397000Y-98300257D01*
X166349693Y-98062431D01*
X166256898Y-97838403D01*
X166122180Y-97636783D01*
X165950717Y-97465320D01*
X165749097Y-97330602D01*
X165525069Y-97237807D01*
X165287243Y-97190500D01*
X165044757Y-97190500D01*
X164806931Y-97237807D01*
X164582903Y-97330602D01*
X164381283Y-97465320D01*
X164209820Y-97636783D01*
X164075102Y-97838403D01*
X163982307Y-98062431D01*
X163935000Y-98300257D01*
X141106321Y-98300257D01*
X144973114Y-94433465D01*
X144990553Y-94419153D01*
X145004865Y-94401714D01*
X145004871Y-94401708D01*
X145047687Y-94349536D01*
X145090141Y-94270110D01*
X145096226Y-94250051D01*
X145116285Y-94183927D01*
X145122900Y-94116760D01*
X145122900Y-94116750D01*
X145125111Y-94094300D01*
X145122900Y-94071850D01*
X145122900Y-93698390D01*
X163724524Y-93698390D01*
X163769175Y-93845599D01*
X163894359Y-94108420D01*
X164068412Y-94341769D01*
X164284645Y-94536678D01*
X164534748Y-94685657D01*
X164697168Y-94743272D01*
X164582903Y-94790602D01*
X164381283Y-94925320D01*
X164209820Y-95096783D01*
X164075102Y-95298403D01*
X163982307Y-95522431D01*
X163935000Y-95760257D01*
X163935000Y-96002743D01*
X163982307Y-96240569D01*
X164075102Y-96464597D01*
X164209820Y-96666217D01*
X164381283Y-96837680D01*
X164582903Y-96972398D01*
X164806931Y-97065193D01*
X165044757Y-97112500D01*
X165287243Y-97112500D01*
X165525069Y-97065193D01*
X165749097Y-96972398D01*
X165950717Y-96837680D01*
X166122180Y-96666217D01*
X166256898Y-96464597D01*
X166349693Y-96240569D01*
X166397000Y-96002743D01*
X166397000Y-95760257D01*
X166349693Y-95522431D01*
X166256898Y-95298403D01*
X166122180Y-95096783D01*
X165950717Y-94925320D01*
X165749097Y-94790602D01*
X165634832Y-94743272D01*
X165797252Y-94685657D01*
X166047355Y-94536678D01*
X166263588Y-94341769D01*
X166437641Y-94108420D01*
X166562825Y-93845599D01*
X166607476Y-93698390D01*
X166486155Y-93468500D01*
X165293000Y-93468500D01*
X165293000Y-93488500D01*
X165039000Y-93488500D01*
X165039000Y-93468500D01*
X163845845Y-93468500D01*
X163724524Y-93698390D01*
X145122900Y-93698390D01*
X145122900Y-92984610D01*
X163724524Y-92984610D01*
X163845845Y-93214500D01*
X165039000Y-93214500D01*
X165039000Y-93194500D01*
X165293000Y-93194500D01*
X165293000Y-93214500D01*
X166486155Y-93214500D01*
X166607476Y-92984610D01*
X166562825Y-92837401D01*
X166437641Y-92574580D01*
X166263588Y-92341231D01*
X166047355Y-92146322D01*
X165797252Y-91997343D01*
X165634832Y-91939728D01*
X165749097Y-91892398D01*
X165950717Y-91757680D01*
X166122180Y-91586217D01*
X166256898Y-91384597D01*
X166349693Y-91160569D01*
X166397000Y-90922743D01*
X166397000Y-90680257D01*
X166349693Y-90442431D01*
X166256898Y-90218403D01*
X166122180Y-90016783D01*
X165950717Y-89845320D01*
X165749097Y-89710602D01*
X165525069Y-89617807D01*
X165287243Y-89570500D01*
X165044757Y-89570500D01*
X164806931Y-89617807D01*
X164582903Y-89710602D01*
X164381283Y-89845320D01*
X164209820Y-90016783D01*
X164075102Y-90218403D01*
X163982307Y-90442431D01*
X163935000Y-90680257D01*
X163935000Y-90922743D01*
X163982307Y-91160569D01*
X164075102Y-91384597D01*
X164209820Y-91586217D01*
X164381283Y-91757680D01*
X164582903Y-91892398D01*
X164697168Y-91939728D01*
X164534748Y-91997343D01*
X164284645Y-92146322D01*
X164068412Y-92341231D01*
X163894359Y-92574580D01*
X163769175Y-92837401D01*
X163724524Y-92984610D01*
X145122900Y-92984610D01*
X145122900Y-88140257D01*
X163935000Y-88140257D01*
X163935000Y-88382743D01*
X163982307Y-88620569D01*
X164075102Y-88844597D01*
X164209820Y-89046217D01*
X164381283Y-89217680D01*
X164582903Y-89352398D01*
X164806931Y-89445193D01*
X165044757Y-89492500D01*
X165287243Y-89492500D01*
X165525069Y-89445193D01*
X165749097Y-89352398D01*
X165950717Y-89217680D01*
X166122180Y-89046217D01*
X166256898Y-88844597D01*
X166349693Y-88620569D01*
X166397000Y-88382743D01*
X166397000Y-88140257D01*
X166349693Y-87902431D01*
X166256898Y-87678403D01*
X166122180Y-87476783D01*
X165950717Y-87305320D01*
X165749097Y-87170602D01*
X165525069Y-87077807D01*
X165287243Y-87030500D01*
X165044757Y-87030500D01*
X164806931Y-87077807D01*
X164582903Y-87170602D01*
X164381283Y-87305320D01*
X164209820Y-87476783D01*
X164075102Y-87678403D01*
X163982307Y-87902431D01*
X163935000Y-88140257D01*
X145122900Y-88140257D01*
X145122900Y-85600257D01*
X163935000Y-85600257D01*
X163935000Y-85842743D01*
X163982307Y-86080569D01*
X164075102Y-86304597D01*
X164209820Y-86506217D01*
X164381283Y-86677680D01*
X164582903Y-86812398D01*
X164806931Y-86905193D01*
X165044757Y-86952500D01*
X165287243Y-86952500D01*
X165525069Y-86905193D01*
X165749097Y-86812398D01*
X165950717Y-86677680D01*
X166122180Y-86506217D01*
X166256898Y-86304597D01*
X166349693Y-86080569D01*
X166397000Y-85842743D01*
X166397000Y-85600257D01*
X166349693Y-85362431D01*
X166256898Y-85138403D01*
X166122180Y-84936783D01*
X165950717Y-84765320D01*
X165749097Y-84630602D01*
X165525069Y-84537807D01*
X165287243Y-84490500D01*
X165044757Y-84490500D01*
X164806931Y-84537807D01*
X164582903Y-84630602D01*
X164381283Y-84765320D01*
X164209820Y-84936783D01*
X164075102Y-85138403D01*
X163982307Y-85362431D01*
X163935000Y-85600257D01*
X145122900Y-85600257D01*
X145122900Y-83073487D01*
X145177745Y-83050769D01*
X145354797Y-82932467D01*
X145505367Y-82781897D01*
X145623669Y-82604845D01*
X145705157Y-82408116D01*
X145746700Y-82199269D01*
X145746700Y-81986331D01*
X146124700Y-81986331D01*
X146124700Y-82199269D01*
X146166243Y-82408116D01*
X146247731Y-82604845D01*
X146366033Y-82781897D01*
X146516603Y-82932467D01*
X146693655Y-83050769D01*
X146890384Y-83132257D01*
X147099231Y-83173800D01*
X147312169Y-83173800D01*
X147521016Y-83132257D01*
X147694838Y-83060257D01*
X163935000Y-83060257D01*
X163935000Y-83302743D01*
X163982307Y-83540569D01*
X164075102Y-83764597D01*
X164209820Y-83966217D01*
X164381283Y-84137680D01*
X164582903Y-84272398D01*
X164806931Y-84365193D01*
X165044757Y-84412500D01*
X165287243Y-84412500D01*
X165525069Y-84365193D01*
X165749097Y-84272398D01*
X165950717Y-84137680D01*
X166122180Y-83966217D01*
X166256898Y-83764597D01*
X166349693Y-83540569D01*
X166397000Y-83302743D01*
X166397000Y-83060257D01*
X166349693Y-82822431D01*
X166256898Y-82598403D01*
X166122180Y-82396783D01*
X165950717Y-82225320D01*
X165749097Y-82090602D01*
X165525069Y-81997807D01*
X165287243Y-81950500D01*
X165044757Y-81950500D01*
X164806931Y-81997807D01*
X164582903Y-82090602D01*
X164381283Y-82225320D01*
X164209820Y-82396783D01*
X164075102Y-82598403D01*
X163982307Y-82822431D01*
X163935000Y-83060257D01*
X147694838Y-83060257D01*
X147717745Y-83050769D01*
X147894797Y-82932467D01*
X148045367Y-82781897D01*
X148163669Y-82604845D01*
X148245157Y-82408116D01*
X148286700Y-82199269D01*
X148286700Y-81986331D01*
X148245157Y-81777484D01*
X148163669Y-81580755D01*
X148045367Y-81403703D01*
X147894797Y-81253133D01*
X147717745Y-81134831D01*
X147521016Y-81053343D01*
X147312169Y-81011800D01*
X147099231Y-81011800D01*
X146890384Y-81053343D01*
X146693655Y-81134831D01*
X146516603Y-81253133D01*
X146366033Y-81403703D01*
X146247731Y-81580755D01*
X146166243Y-81777484D01*
X146124700Y-81986331D01*
X145746700Y-81986331D01*
X145705157Y-81777484D01*
X145623669Y-81580755D01*
X145505367Y-81403703D01*
X145354797Y-81253133D01*
X145177745Y-81134831D01*
X144981016Y-81053343D01*
X144772169Y-81011800D01*
X144559231Y-81011800D01*
X144350384Y-81053343D01*
X144153655Y-81134831D01*
X143976603Y-81253133D01*
X143826033Y-81403703D01*
X143707731Y-81580755D01*
X143626243Y-81777484D01*
X143584700Y-81986331D01*
X143584700Y-82199269D01*
X143626243Y-82408116D01*
X143707731Y-82604845D01*
X143826033Y-82781897D01*
X143976603Y-82932467D01*
X144153655Y-83050769D01*
X144208500Y-83073487D01*
X144208501Y-93904920D01*
X127772023Y-110341400D01*
X101361246Y-110341400D01*
X101309098Y-110215503D01*
X101174380Y-110013883D01*
X101002917Y-109842420D01*
X100801297Y-109707702D01*
X100577269Y-109614907D01*
X100339443Y-109567600D01*
X100096957Y-109567600D01*
X99859131Y-109614907D01*
X99635103Y-109707702D01*
X99433483Y-109842420D01*
X99262020Y-110013883D01*
X99127302Y-110215503D01*
X99034507Y-110439531D01*
X98987200Y-110677357D01*
X77876000Y-110677357D01*
X77876000Y-108137357D01*
X98987200Y-108137357D01*
X98987200Y-108379843D01*
X99034507Y-108617669D01*
X99127302Y-108841697D01*
X99262020Y-109043317D01*
X99433483Y-109214780D01*
X99635103Y-109349498D01*
X99859131Y-109442293D01*
X100096957Y-109489600D01*
X100339443Y-109489600D01*
X100577269Y-109442293D01*
X100801297Y-109349498D01*
X101002917Y-109214780D01*
X101174380Y-109043317D01*
X101309098Y-108841697D01*
X101401893Y-108617669D01*
X101449200Y-108379843D01*
X101449200Y-108137357D01*
X101401893Y-107899531D01*
X101309098Y-107675503D01*
X101174380Y-107473883D01*
X101002917Y-107302420D01*
X100801297Y-107167702D01*
X100577269Y-107074907D01*
X100339443Y-107027600D01*
X100096957Y-107027600D01*
X99859131Y-107074907D01*
X99635103Y-107167702D01*
X99433483Y-107302420D01*
X99262020Y-107473883D01*
X99127302Y-107675503D01*
X99034507Y-107899531D01*
X98987200Y-108137357D01*
X77876000Y-108137357D01*
X77876000Y-105597357D01*
X98987200Y-105597357D01*
X98987200Y-105839843D01*
X99034507Y-106077669D01*
X99127302Y-106301697D01*
X99262020Y-106503317D01*
X99433483Y-106674780D01*
X99635103Y-106809498D01*
X99859131Y-106902293D01*
X100096957Y-106949600D01*
X100339443Y-106949600D01*
X100577269Y-106902293D01*
X100801297Y-106809498D01*
X101002917Y-106674780D01*
X101174380Y-106503317D01*
X101309098Y-106301697D01*
X101401893Y-106077669D01*
X101449200Y-105839843D01*
X101449200Y-105597357D01*
X101401893Y-105359531D01*
X101309098Y-105135503D01*
X101174380Y-104933883D01*
X101002917Y-104762420D01*
X100801297Y-104627702D01*
X100577269Y-104534907D01*
X100339443Y-104487600D01*
X100096957Y-104487600D01*
X99859131Y-104534907D01*
X99635103Y-104627702D01*
X99433483Y-104762420D01*
X99262020Y-104933883D01*
X99127302Y-105135503D01*
X99034507Y-105359531D01*
X98987200Y-105597357D01*
X77876000Y-105597357D01*
X77876000Y-103057357D01*
X98987200Y-103057357D01*
X98987200Y-103299843D01*
X99034507Y-103537669D01*
X99127302Y-103761697D01*
X99262020Y-103963317D01*
X99433483Y-104134780D01*
X99635103Y-104269498D01*
X99859131Y-104362293D01*
X100096957Y-104409600D01*
X100339443Y-104409600D01*
X100577269Y-104362293D01*
X100801297Y-104269498D01*
X101002917Y-104134780D01*
X101174380Y-103963317D01*
X101309098Y-103761697D01*
X101401893Y-103537669D01*
X101449200Y-103299843D01*
X101449200Y-103057357D01*
X101401893Y-102819531D01*
X101309098Y-102595503D01*
X101174380Y-102393883D01*
X101002917Y-102222420D01*
X100801297Y-102087702D01*
X100577269Y-101994907D01*
X100339443Y-101947600D01*
X100096957Y-101947600D01*
X99859131Y-101994907D01*
X99635103Y-102087702D01*
X99433483Y-102222420D01*
X99262020Y-102393883D01*
X99127302Y-102595503D01*
X99034507Y-102819531D01*
X98987200Y-103057357D01*
X77876000Y-103057357D01*
X77876000Y-99788600D01*
X98985357Y-99788600D01*
X98985357Y-101488600D01*
X98992713Y-101563289D01*
X99014499Y-101635108D01*
X99049878Y-101701296D01*
X99097489Y-101759311D01*
X99155504Y-101806922D01*
X99221692Y-101842301D01*
X99293511Y-101864087D01*
X99368200Y-101871443D01*
X101068200Y-101871443D01*
X101142889Y-101864087D01*
X101214708Y-101842301D01*
X101280896Y-101806922D01*
X101338911Y-101759311D01*
X101386522Y-101701296D01*
X101421901Y-101635108D01*
X101443687Y-101563289D01*
X101451043Y-101488600D01*
X101451043Y-99788600D01*
X101443687Y-99713911D01*
X101421901Y-99642092D01*
X101386522Y-99575904D01*
X101338911Y-99517889D01*
X101280896Y-99470278D01*
X101214708Y-99434899D01*
X101142889Y-99413113D01*
X101068200Y-99405757D01*
X99368200Y-99405757D01*
X99293511Y-99413113D01*
X99221692Y-99434899D01*
X99155504Y-99470278D01*
X99097489Y-99517889D01*
X99049878Y-99575904D01*
X99014499Y-99642092D01*
X98992713Y-99713911D01*
X98985357Y-99788600D01*
X77876000Y-99788600D01*
X77876000Y-81986331D01*
X141044700Y-81986331D01*
X141044700Y-82199269D01*
X141086243Y-82408116D01*
X141167731Y-82604845D01*
X141286033Y-82781897D01*
X141436603Y-82932467D01*
X141613655Y-83050769D01*
X141810384Y-83132257D01*
X142019231Y-83173800D01*
X142232169Y-83173800D01*
X142441016Y-83132257D01*
X142637745Y-83050769D01*
X142814797Y-82932467D01*
X142965367Y-82781897D01*
X143083669Y-82604845D01*
X143165157Y-82408116D01*
X143206700Y-82199269D01*
X143206700Y-81986331D01*
X143165157Y-81777484D01*
X143083669Y-81580755D01*
X142965367Y-81403703D01*
X142814797Y-81253133D01*
X142637745Y-81134831D01*
X142441016Y-81053343D01*
X142232169Y-81011800D01*
X142019231Y-81011800D01*
X141810384Y-81053343D01*
X141613655Y-81134831D01*
X141436603Y-81253133D01*
X141286033Y-81403703D01*
X141167731Y-81580755D01*
X141086243Y-81777484D01*
X141044700Y-81986331D01*
X77876000Y-81986331D01*
X77876000Y-79791500D01*
X163933157Y-79791500D01*
X163933157Y-81491500D01*
X163940513Y-81566189D01*
X163962299Y-81638008D01*
X163997678Y-81704196D01*
X164045289Y-81762211D01*
X164103304Y-81809822D01*
X164169492Y-81845201D01*
X164241311Y-81866987D01*
X164316000Y-81874343D01*
X166016000Y-81874343D01*
X166090689Y-81866987D01*
X166162508Y-81845201D01*
X166228696Y-81809822D01*
X166286711Y-81762211D01*
X166334322Y-81704196D01*
X166369701Y-81638008D01*
X166391487Y-81566189D01*
X166398843Y-81491500D01*
X166398843Y-81149500D01*
X172379080Y-81149500D01*
X195072650Y-103843071D01*
X195088552Y-103862448D01*
X195107929Y-103878350D01*
X195165904Y-103925929D01*
X195213076Y-103951143D01*
X195254157Y-103973101D01*
X195349915Y-104002149D01*
X195424553Y-104009500D01*
X195424555Y-104009500D01*
X195449499Y-104011957D01*
X195474443Y-104009500D01*
X205543996Y-104009500D01*
X205575102Y-104084597D01*
X205709820Y-104286217D01*
X205881283Y-104457680D01*
X206082903Y-104592398D01*
X206306931Y-104685193D01*
X206544757Y-104732500D01*
X206787243Y-104732500D01*
X207025069Y-104685193D01*
X207249097Y-104592398D01*
X207450717Y-104457680D01*
X207622180Y-104286217D01*
X207756898Y-104084597D01*
X207849693Y-103860569D01*
X207897000Y-103622743D01*
X207897000Y-103380257D01*
X207849693Y-103142431D01*
X207756898Y-102918403D01*
X207622180Y-102716783D01*
X207450717Y-102545320D01*
X207249097Y-102410602D01*
X207025069Y-102317807D01*
X206787243Y-102270500D01*
X206544757Y-102270500D01*
X206306931Y-102317807D01*
X206082903Y-102410602D01*
X205881283Y-102545320D01*
X205709820Y-102716783D01*
X205575102Y-102918403D01*
X205543996Y-102993500D01*
X195659921Y-102993500D01*
X193506678Y-100840257D01*
X205435000Y-100840257D01*
X205435000Y-101082743D01*
X205482307Y-101320569D01*
X205575102Y-101544597D01*
X205709820Y-101746217D01*
X205881283Y-101917680D01*
X206082903Y-102052398D01*
X206306931Y-102145193D01*
X206544757Y-102192500D01*
X206787243Y-102192500D01*
X207025069Y-102145193D01*
X207249097Y-102052398D01*
X207450717Y-101917680D01*
X207622180Y-101746217D01*
X207756898Y-101544597D01*
X207849693Y-101320569D01*
X207897000Y-101082743D01*
X207897000Y-100840257D01*
X207849693Y-100602431D01*
X207756898Y-100378403D01*
X207622180Y-100176783D01*
X207450717Y-100005320D01*
X207249097Y-99870602D01*
X207025069Y-99777807D01*
X206787243Y-99730500D01*
X206544757Y-99730500D01*
X206306931Y-99777807D01*
X206082903Y-99870602D01*
X205881283Y-100005320D01*
X205709820Y-100176783D01*
X205575102Y-100378403D01*
X205482307Y-100602431D01*
X205435000Y-100840257D01*
X193506678Y-100840257D01*
X190966678Y-98300257D01*
X205435000Y-98300257D01*
X205435000Y-98542743D01*
X205482307Y-98780569D01*
X205575102Y-99004597D01*
X205709820Y-99206217D01*
X205881283Y-99377680D01*
X206082903Y-99512398D01*
X206306931Y-99605193D01*
X206544757Y-99652500D01*
X206787243Y-99652500D01*
X207025069Y-99605193D01*
X207249097Y-99512398D01*
X207450717Y-99377680D01*
X207622180Y-99206217D01*
X207756898Y-99004597D01*
X207849693Y-98780569D01*
X207897000Y-98542743D01*
X207897000Y-98300257D01*
X207849693Y-98062431D01*
X207756898Y-97838403D01*
X207622180Y-97636783D01*
X207450717Y-97465320D01*
X207249097Y-97330602D01*
X207025069Y-97237807D01*
X206787243Y-97190500D01*
X206544757Y-97190500D01*
X206306931Y-97237807D01*
X206082903Y-97330602D01*
X205881283Y-97465320D01*
X205709820Y-97636783D01*
X205575102Y-97838403D01*
X205482307Y-98062431D01*
X205435000Y-98300257D01*
X190966678Y-98300257D01*
X188426678Y-95760257D01*
X205435000Y-95760257D01*
X205435000Y-96002743D01*
X205482307Y-96240569D01*
X205575102Y-96464597D01*
X205709820Y-96666217D01*
X205881283Y-96837680D01*
X206082903Y-96972398D01*
X206306931Y-97065193D01*
X206544757Y-97112500D01*
X206787243Y-97112500D01*
X207025069Y-97065193D01*
X207249097Y-96972398D01*
X207450717Y-96837680D01*
X207622180Y-96666217D01*
X207756898Y-96464597D01*
X207849693Y-96240569D01*
X207897000Y-96002743D01*
X207897000Y-95760257D01*
X207849693Y-95522431D01*
X207756898Y-95298403D01*
X207622180Y-95096783D01*
X207450717Y-94925320D01*
X207249097Y-94790602D01*
X207025069Y-94697807D01*
X206787243Y-94650500D01*
X206544757Y-94650500D01*
X206306931Y-94697807D01*
X206082903Y-94790602D01*
X205881283Y-94925320D01*
X205709820Y-95096783D01*
X205575102Y-95298403D01*
X205482307Y-95522431D01*
X205435000Y-95760257D01*
X188426678Y-95760257D01*
X185886678Y-93220257D01*
X205435000Y-93220257D01*
X205435000Y-93462743D01*
X205482307Y-93700569D01*
X205575102Y-93924597D01*
X205709820Y-94126217D01*
X205881283Y-94297680D01*
X206082903Y-94432398D01*
X206306931Y-94525193D01*
X206544757Y-94572500D01*
X206787243Y-94572500D01*
X207025069Y-94525193D01*
X207249097Y-94432398D01*
X207450717Y-94297680D01*
X207622180Y-94126217D01*
X207756898Y-93924597D01*
X207849693Y-93700569D01*
X207897000Y-93462743D01*
X207897000Y-93220257D01*
X207849693Y-92982431D01*
X207756898Y-92758403D01*
X207622180Y-92556783D01*
X207450717Y-92385320D01*
X207249097Y-92250602D01*
X207025069Y-92157807D01*
X206787243Y-92110500D01*
X206544757Y-92110500D01*
X206306931Y-92157807D01*
X206082903Y-92250602D01*
X205881283Y-92385320D01*
X205709820Y-92556783D01*
X205575102Y-92758403D01*
X205482307Y-92982431D01*
X205435000Y-93220257D01*
X185886678Y-93220257D01*
X182545612Y-89879191D01*
X196107019Y-89879191D01*
X196204343Y-90153552D01*
X196353322Y-90403655D01*
X196548231Y-90619888D01*
X196781580Y-90793941D01*
X197044401Y-90919125D01*
X197191610Y-90963776D01*
X197421500Y-90842455D01*
X197421500Y-89649300D01*
X196227686Y-89649300D01*
X196107019Y-89879191D01*
X182545612Y-89879191D01*
X181831830Y-89165409D01*
X196107019Y-89165409D01*
X196227686Y-89395300D01*
X197421500Y-89395300D01*
X197421500Y-88202145D01*
X197675500Y-88202145D01*
X197675500Y-89395300D01*
X197695500Y-89395300D01*
X197695500Y-89649300D01*
X197675500Y-89649300D01*
X197675500Y-90842455D01*
X197905390Y-90963776D01*
X198052599Y-90919125D01*
X198315420Y-90793941D01*
X198548769Y-90619888D01*
X198743678Y-90403655D01*
X198892657Y-90153552D01*
X198950272Y-89991132D01*
X198997602Y-90105397D01*
X199132320Y-90307017D01*
X199303783Y-90478480D01*
X199505403Y-90613198D01*
X199729431Y-90705993D01*
X199967257Y-90753300D01*
X200209743Y-90753300D01*
X200447569Y-90705993D01*
X200671597Y-90613198D01*
X200873217Y-90478480D01*
X201044680Y-90307017D01*
X201179398Y-90105397D01*
X201272193Y-89881369D01*
X201319500Y-89643543D01*
X201319500Y-89401057D01*
X201272193Y-89163231D01*
X201179398Y-88939203D01*
X201044680Y-88737583D01*
X200979397Y-88672300D01*
X201395657Y-88672300D01*
X201395657Y-90372300D01*
X201403013Y-90446989D01*
X201424799Y-90518808D01*
X201460178Y-90584996D01*
X201507789Y-90643011D01*
X201565804Y-90690622D01*
X201631992Y-90726001D01*
X201703811Y-90747787D01*
X201778500Y-90755143D01*
X203478500Y-90755143D01*
X203553189Y-90747787D01*
X203625008Y-90726001D01*
X203691196Y-90690622D01*
X203703825Y-90680257D01*
X205435000Y-90680257D01*
X205435000Y-90922743D01*
X205482307Y-91160569D01*
X205575102Y-91384597D01*
X205709820Y-91586217D01*
X205881283Y-91757680D01*
X206082903Y-91892398D01*
X206306931Y-91985193D01*
X206544757Y-92032500D01*
X206787243Y-92032500D01*
X207025069Y-91985193D01*
X207249097Y-91892398D01*
X207450717Y-91757680D01*
X207622180Y-91586217D01*
X207756898Y-91384597D01*
X207849693Y-91160569D01*
X207897000Y-90922743D01*
X207897000Y-90680257D01*
X207849693Y-90442431D01*
X207756898Y-90218403D01*
X207622180Y-90016783D01*
X207450717Y-89845320D01*
X207249097Y-89710602D01*
X207025069Y-89617807D01*
X206787243Y-89570500D01*
X206544757Y-89570500D01*
X206306931Y-89617807D01*
X206082903Y-89710602D01*
X205881283Y-89845320D01*
X205709820Y-90016783D01*
X205575102Y-90218403D01*
X205482307Y-90442431D01*
X205435000Y-90680257D01*
X203703825Y-90680257D01*
X203749211Y-90643011D01*
X203796822Y-90584996D01*
X203832201Y-90518808D01*
X203853987Y-90446989D01*
X203861343Y-90372300D01*
X203861343Y-88672300D01*
X203853987Y-88597611D01*
X203832201Y-88525792D01*
X203796822Y-88459604D01*
X203749211Y-88401589D01*
X203691196Y-88353978D01*
X203625008Y-88318599D01*
X203553189Y-88296813D01*
X203478500Y-88289457D01*
X201778500Y-88289457D01*
X201703811Y-88296813D01*
X201631992Y-88318599D01*
X201565804Y-88353978D01*
X201507789Y-88401589D01*
X201460178Y-88459604D01*
X201424799Y-88525792D01*
X201403013Y-88597611D01*
X201395657Y-88672300D01*
X200979397Y-88672300D01*
X200873217Y-88566120D01*
X200671597Y-88431402D01*
X200447569Y-88338607D01*
X200209743Y-88291300D01*
X199967257Y-88291300D01*
X199729431Y-88338607D01*
X199505403Y-88431402D01*
X199303783Y-88566120D01*
X199132320Y-88737583D01*
X198997602Y-88939203D01*
X198950272Y-89053468D01*
X198892657Y-88891048D01*
X198743678Y-88640945D01*
X198548769Y-88424712D01*
X198315420Y-88250659D01*
X198083634Y-88140257D01*
X205435000Y-88140257D01*
X205435000Y-88382743D01*
X205482307Y-88620569D01*
X205575102Y-88844597D01*
X205709820Y-89046217D01*
X205881283Y-89217680D01*
X206082903Y-89352398D01*
X206306931Y-89445193D01*
X206544757Y-89492500D01*
X206787243Y-89492500D01*
X207025069Y-89445193D01*
X207249097Y-89352398D01*
X207450717Y-89217680D01*
X207622180Y-89046217D01*
X207756898Y-88844597D01*
X207849693Y-88620569D01*
X207897000Y-88382743D01*
X207897000Y-88140257D01*
X207849693Y-87902431D01*
X207756898Y-87678403D01*
X207622180Y-87476783D01*
X207450717Y-87305320D01*
X207249097Y-87170602D01*
X207025069Y-87077807D01*
X206787243Y-87030500D01*
X206544757Y-87030500D01*
X206306931Y-87077807D01*
X206082903Y-87170602D01*
X205881283Y-87305320D01*
X205709820Y-87476783D01*
X205575102Y-87678403D01*
X205482307Y-87902431D01*
X205435000Y-88140257D01*
X198083634Y-88140257D01*
X198052599Y-88125475D01*
X197905390Y-88080824D01*
X197675500Y-88202145D01*
X197421500Y-88202145D01*
X197191610Y-88080824D01*
X197044401Y-88125475D01*
X196781580Y-88250659D01*
X196548231Y-88424712D01*
X196353322Y-88640945D01*
X196204343Y-88891048D01*
X196107019Y-89165409D01*
X181831830Y-89165409D01*
X178100612Y-85434191D01*
X196107019Y-85434191D01*
X196204343Y-85708552D01*
X196353322Y-85958655D01*
X196548231Y-86174888D01*
X196781580Y-86348941D01*
X197044401Y-86474125D01*
X197191610Y-86518776D01*
X197421500Y-86397455D01*
X197421500Y-85204300D01*
X196227686Y-85204300D01*
X196107019Y-85434191D01*
X178100612Y-85434191D01*
X177386830Y-84720409D01*
X196107019Y-84720409D01*
X196227686Y-84950300D01*
X197421500Y-84950300D01*
X197421500Y-83757145D01*
X197675500Y-83757145D01*
X197675500Y-84950300D01*
X197695500Y-84950300D01*
X197695500Y-85204300D01*
X197675500Y-85204300D01*
X197675500Y-86397455D01*
X197905390Y-86518776D01*
X198052599Y-86474125D01*
X198315420Y-86348941D01*
X198548769Y-86174888D01*
X198743678Y-85958655D01*
X198892657Y-85708552D01*
X198950272Y-85546132D01*
X198997602Y-85660397D01*
X199132320Y-85862017D01*
X199303783Y-86033480D01*
X199505403Y-86168198D01*
X199729431Y-86260993D01*
X199967257Y-86308300D01*
X200209743Y-86308300D01*
X200447569Y-86260993D01*
X200671597Y-86168198D01*
X200873217Y-86033480D01*
X201044680Y-85862017D01*
X201179398Y-85660397D01*
X201272193Y-85436369D01*
X201319500Y-85198543D01*
X201319500Y-84956057D01*
X201272193Y-84718231D01*
X201179398Y-84494203D01*
X201044680Y-84292583D01*
X200979397Y-84227300D01*
X201395657Y-84227300D01*
X201395657Y-85927300D01*
X201403013Y-86001989D01*
X201424799Y-86073808D01*
X201460178Y-86139996D01*
X201507789Y-86198011D01*
X201565804Y-86245622D01*
X201631992Y-86281001D01*
X201703811Y-86302787D01*
X201778500Y-86310143D01*
X203478500Y-86310143D01*
X203553189Y-86302787D01*
X203625008Y-86281001D01*
X203691196Y-86245622D01*
X203749211Y-86198011D01*
X203796822Y-86139996D01*
X203832201Y-86073808D01*
X203853987Y-86001989D01*
X203861343Y-85927300D01*
X203861343Y-85600257D01*
X205435000Y-85600257D01*
X205435000Y-85842743D01*
X205482307Y-86080569D01*
X205575102Y-86304597D01*
X205709820Y-86506217D01*
X205881283Y-86677680D01*
X206082903Y-86812398D01*
X206306931Y-86905193D01*
X206544757Y-86952500D01*
X206787243Y-86952500D01*
X207025069Y-86905193D01*
X207249097Y-86812398D01*
X207450717Y-86677680D01*
X207622180Y-86506217D01*
X207756898Y-86304597D01*
X207849693Y-86080569D01*
X207897000Y-85842743D01*
X207897000Y-85600257D01*
X207849693Y-85362431D01*
X207756898Y-85138403D01*
X207622180Y-84936783D01*
X207450717Y-84765320D01*
X207249097Y-84630602D01*
X207025069Y-84537807D01*
X206787243Y-84490500D01*
X206544757Y-84490500D01*
X206306931Y-84537807D01*
X206082903Y-84630602D01*
X205881283Y-84765320D01*
X205709820Y-84936783D01*
X205575102Y-85138403D01*
X205482307Y-85362431D01*
X205435000Y-85600257D01*
X203861343Y-85600257D01*
X203861343Y-84227300D01*
X203853987Y-84152611D01*
X203832201Y-84080792D01*
X203796822Y-84014604D01*
X203749211Y-83956589D01*
X203691196Y-83908978D01*
X203625008Y-83873599D01*
X203553189Y-83851813D01*
X203478500Y-83844457D01*
X201778500Y-83844457D01*
X201703811Y-83851813D01*
X201631992Y-83873599D01*
X201565804Y-83908978D01*
X201507789Y-83956589D01*
X201460178Y-84014604D01*
X201424799Y-84080792D01*
X201403013Y-84152611D01*
X201395657Y-84227300D01*
X200979397Y-84227300D01*
X200873217Y-84121120D01*
X200671597Y-83986402D01*
X200447569Y-83893607D01*
X200209743Y-83846300D01*
X199967257Y-83846300D01*
X199729431Y-83893607D01*
X199505403Y-83986402D01*
X199303783Y-84121120D01*
X199132320Y-84292583D01*
X198997602Y-84494203D01*
X198950272Y-84608468D01*
X198892657Y-84446048D01*
X198743678Y-84195945D01*
X198548769Y-83979712D01*
X198315420Y-83805659D01*
X198052599Y-83680475D01*
X197905390Y-83635824D01*
X197675500Y-83757145D01*
X197421500Y-83757145D01*
X197191610Y-83635824D01*
X197044401Y-83680475D01*
X196781580Y-83805659D01*
X196548231Y-83979712D01*
X196353322Y-84195945D01*
X196204343Y-84446048D01*
X196107019Y-84720409D01*
X177386830Y-84720409D01*
X175726678Y-83060257D01*
X205435000Y-83060257D01*
X205435000Y-83302743D01*
X205482307Y-83540569D01*
X205575102Y-83764597D01*
X205709820Y-83966217D01*
X205881283Y-84137680D01*
X206082903Y-84272398D01*
X206306931Y-84365193D01*
X206544757Y-84412500D01*
X206787243Y-84412500D01*
X207025069Y-84365193D01*
X207249097Y-84272398D01*
X207450717Y-84137680D01*
X207622180Y-83966217D01*
X207756898Y-83764597D01*
X207849693Y-83540569D01*
X207897000Y-83302743D01*
X207897000Y-83060257D01*
X207849693Y-82822431D01*
X207756898Y-82598403D01*
X207622180Y-82396783D01*
X207450717Y-82225320D01*
X207249097Y-82090602D01*
X207025069Y-81997807D01*
X206787243Y-81950500D01*
X206544757Y-81950500D01*
X206306931Y-81997807D01*
X206082903Y-82090602D01*
X205881283Y-82225320D01*
X205709820Y-82396783D01*
X205575102Y-82598403D01*
X205482307Y-82822431D01*
X205435000Y-83060257D01*
X175726678Y-83060257D01*
X173655612Y-80989191D01*
X196107019Y-80989191D01*
X196204343Y-81263552D01*
X196353322Y-81513655D01*
X196548231Y-81729888D01*
X196781580Y-81903941D01*
X197044401Y-82029125D01*
X197191610Y-82073776D01*
X197421500Y-81952455D01*
X197421500Y-80759300D01*
X196227686Y-80759300D01*
X196107019Y-80989191D01*
X173655612Y-80989191D01*
X172966355Y-80299935D01*
X172950448Y-80280552D01*
X172944182Y-80275409D01*
X196107019Y-80275409D01*
X196227686Y-80505300D01*
X197421500Y-80505300D01*
X197421500Y-79312145D01*
X197675500Y-79312145D01*
X197675500Y-80505300D01*
X197695500Y-80505300D01*
X197695500Y-80759300D01*
X197675500Y-80759300D01*
X197675500Y-81952455D01*
X197905390Y-82073776D01*
X198052599Y-82029125D01*
X198315420Y-81903941D01*
X198548769Y-81729888D01*
X198743678Y-81513655D01*
X198892657Y-81263552D01*
X198950272Y-81101132D01*
X198997602Y-81215397D01*
X199132320Y-81417017D01*
X199303783Y-81588480D01*
X199505403Y-81723198D01*
X199729431Y-81815993D01*
X199967257Y-81863300D01*
X200209743Y-81863300D01*
X200447569Y-81815993D01*
X200671597Y-81723198D01*
X200873217Y-81588480D01*
X201044680Y-81417017D01*
X201179398Y-81215397D01*
X201272193Y-80991369D01*
X201319500Y-80753543D01*
X201319500Y-80511057D01*
X201272193Y-80273231D01*
X201179398Y-80049203D01*
X201044680Y-79847583D01*
X200979397Y-79782300D01*
X201395657Y-79782300D01*
X201395657Y-81482300D01*
X201403013Y-81556989D01*
X201424799Y-81628808D01*
X201460178Y-81694996D01*
X201507789Y-81753011D01*
X201565804Y-81800622D01*
X201631992Y-81836001D01*
X201703811Y-81857787D01*
X201778500Y-81865143D01*
X203478500Y-81865143D01*
X203553189Y-81857787D01*
X203625008Y-81836001D01*
X203691196Y-81800622D01*
X203749211Y-81753011D01*
X203796822Y-81694996D01*
X203832201Y-81628808D01*
X203853987Y-81556989D01*
X203861343Y-81482300D01*
X203861343Y-79791500D01*
X205433157Y-79791500D01*
X205433157Y-81491500D01*
X205440513Y-81566189D01*
X205462299Y-81638008D01*
X205497678Y-81704196D01*
X205545289Y-81762211D01*
X205603304Y-81809822D01*
X205669492Y-81845201D01*
X205741311Y-81866987D01*
X205816000Y-81874343D01*
X207516000Y-81874343D01*
X207590689Y-81866987D01*
X207662508Y-81845201D01*
X207728696Y-81809822D01*
X207786711Y-81762211D01*
X207834322Y-81704196D01*
X207869701Y-81638008D01*
X207891487Y-81566189D01*
X207898843Y-81491500D01*
X207898843Y-79791500D01*
X207891487Y-79716811D01*
X207869701Y-79644992D01*
X207834322Y-79578804D01*
X207786711Y-79520789D01*
X207728696Y-79473178D01*
X207662508Y-79437799D01*
X207590689Y-79416013D01*
X207516000Y-79408657D01*
X205816000Y-79408657D01*
X205741311Y-79416013D01*
X205669492Y-79437799D01*
X205603304Y-79473178D01*
X205545289Y-79520789D01*
X205497678Y-79578804D01*
X205462299Y-79644992D01*
X205440513Y-79716811D01*
X205433157Y-79791500D01*
X203861343Y-79791500D01*
X203861343Y-79782300D01*
X203853987Y-79707611D01*
X203832201Y-79635792D01*
X203796822Y-79569604D01*
X203749211Y-79511589D01*
X203691196Y-79463978D01*
X203625008Y-79428599D01*
X203553189Y-79406813D01*
X203478500Y-79399457D01*
X201778500Y-79399457D01*
X201703811Y-79406813D01*
X201631992Y-79428599D01*
X201565804Y-79463978D01*
X201507789Y-79511589D01*
X201460178Y-79569604D01*
X201424799Y-79635792D01*
X201403013Y-79707611D01*
X201395657Y-79782300D01*
X200979397Y-79782300D01*
X200873217Y-79676120D01*
X200671597Y-79541402D01*
X200447569Y-79448607D01*
X200209743Y-79401300D01*
X199967257Y-79401300D01*
X199729431Y-79448607D01*
X199505403Y-79541402D01*
X199303783Y-79676120D01*
X199132320Y-79847583D01*
X198997602Y-80049203D01*
X198950272Y-80163468D01*
X198892657Y-80001048D01*
X198743678Y-79750945D01*
X198548769Y-79534712D01*
X198315420Y-79360659D01*
X198052599Y-79235475D01*
X197905390Y-79190824D01*
X197675500Y-79312145D01*
X197421500Y-79312145D01*
X197191610Y-79190824D01*
X197044401Y-79235475D01*
X196781580Y-79360659D01*
X196548231Y-79534712D01*
X196353322Y-79750945D01*
X196204343Y-80001048D01*
X196107019Y-80275409D01*
X172944182Y-80275409D01*
X172873095Y-80217071D01*
X172784843Y-80169899D01*
X172689085Y-80140851D01*
X172614447Y-80133500D01*
X172614444Y-80133500D01*
X172589500Y-80131043D01*
X172564556Y-80133500D01*
X166398843Y-80133500D01*
X166398843Y-79791500D01*
X166391487Y-79716811D01*
X166369701Y-79644992D01*
X166334322Y-79578804D01*
X166286711Y-79520789D01*
X166228696Y-79473178D01*
X166162508Y-79437799D01*
X166090689Y-79416013D01*
X166016000Y-79408657D01*
X164316000Y-79408657D01*
X164241311Y-79416013D01*
X164169492Y-79437799D01*
X164103304Y-79473178D01*
X164045289Y-79520789D01*
X163997678Y-79578804D01*
X163962299Y-79644992D01*
X163940513Y-79716811D01*
X163933157Y-79791500D01*
X77876000Y-79791500D01*
X77876000Y-77109531D01*
X153541500Y-77109531D01*
X153541500Y-77322469D01*
X153583043Y-77531316D01*
X153664531Y-77728045D01*
X153782833Y-77905097D01*
X153933403Y-78055667D01*
X154110455Y-78173969D01*
X154307184Y-78255457D01*
X154516031Y-78297000D01*
X154728969Y-78297000D01*
X154937816Y-78255457D01*
X155134545Y-78173969D01*
X155311597Y-78055667D01*
X155462167Y-77905097D01*
X155580469Y-77728045D01*
X155661957Y-77531316D01*
X155703500Y-77322469D01*
X155703500Y-77109531D01*
X156081500Y-77109531D01*
X156081500Y-77322469D01*
X156123043Y-77531316D01*
X156204531Y-77728045D01*
X156322833Y-77905097D01*
X156473403Y-78055667D01*
X156650455Y-78173969D01*
X156847184Y-78255457D01*
X157056031Y-78297000D01*
X157268969Y-78297000D01*
X157477816Y-78255457D01*
X157674545Y-78173969D01*
X157729470Y-78137269D01*
X158960836Y-78137269D01*
X159020297Y-78371037D01*
X159258742Y-78481934D01*
X159514240Y-78544183D01*
X159776973Y-78555390D01*
X160036844Y-78515125D01*
X160283866Y-78424935D01*
X160384703Y-78371037D01*
X160444164Y-78137269D01*
X159702500Y-77395605D01*
X158960836Y-78137269D01*
X157729470Y-78137269D01*
X157851597Y-78055667D01*
X158002167Y-77905097D01*
X158120469Y-77728045D01*
X158201957Y-77531316D01*
X158243500Y-77322469D01*
X158243500Y-77290473D01*
X158363110Y-77290473D01*
X158403375Y-77550344D01*
X158493565Y-77797366D01*
X158547463Y-77898203D01*
X158781231Y-77957664D01*
X159522895Y-77216000D01*
X159882105Y-77216000D01*
X160623769Y-77957664D01*
X160857537Y-77898203D01*
X160968434Y-77659758D01*
X161030683Y-77404260D01*
X161041890Y-77141527D01*
X161001625Y-76881656D01*
X160911435Y-76634634D01*
X160857537Y-76533797D01*
X160623769Y-76474336D01*
X159882105Y-77216000D01*
X159522895Y-77216000D01*
X158781231Y-76474336D01*
X158547463Y-76533797D01*
X158436566Y-76772242D01*
X158374317Y-77027740D01*
X158363110Y-77290473D01*
X158243500Y-77290473D01*
X158243500Y-77109531D01*
X158201957Y-76900684D01*
X158120469Y-76703955D01*
X158002167Y-76526903D01*
X157851597Y-76376333D01*
X157729471Y-76294731D01*
X158960836Y-76294731D01*
X159702500Y-77036395D01*
X160444164Y-76294731D01*
X160384703Y-76060963D01*
X160146258Y-75950066D01*
X159890760Y-75887817D01*
X159628027Y-75876610D01*
X159368156Y-75916875D01*
X159121134Y-76007065D01*
X159020297Y-76060963D01*
X158960836Y-76294731D01*
X157729471Y-76294731D01*
X157674545Y-76258031D01*
X157477816Y-76176543D01*
X157268969Y-76135000D01*
X157056031Y-76135000D01*
X156847184Y-76176543D01*
X156650455Y-76258031D01*
X156473403Y-76376333D01*
X156322833Y-76526903D01*
X156204531Y-76703955D01*
X156123043Y-76900684D01*
X156081500Y-77109531D01*
X155703500Y-77109531D01*
X155661957Y-76900684D01*
X155580469Y-76703955D01*
X155462167Y-76526903D01*
X155311597Y-76376333D01*
X155134545Y-76258031D01*
X154937816Y-76176543D01*
X154728969Y-76135000D01*
X154516031Y-76135000D01*
X154307184Y-76176543D01*
X154110455Y-76258031D01*
X153933403Y-76376333D01*
X153782833Y-76526903D01*
X153664531Y-76703955D01*
X153583043Y-76900684D01*
X153541500Y-77109531D01*
X77876000Y-77109531D01*
X77876000Y-75057000D01*
X166620928Y-75057000D01*
X166624000Y-75088192D01*
X166624000Y-75119542D01*
X166630116Y-75150287D01*
X166633188Y-75181482D01*
X166642288Y-75211480D01*
X166648403Y-75242223D01*
X166660398Y-75271180D01*
X166669498Y-75301180D01*
X166684277Y-75328828D01*
X166696271Y-75357785D01*
X166713686Y-75383848D01*
X166728463Y-75411494D01*
X166748348Y-75435724D01*
X166765764Y-75461789D01*
X166787930Y-75483955D01*
X166807815Y-75508185D01*
X166832045Y-75528070D01*
X166854211Y-75550236D01*
X166880276Y-75567652D01*
X166904506Y-75587537D01*
X166932152Y-75602314D01*
X166958215Y-75619729D01*
X166987172Y-75631723D01*
X167014820Y-75646502D01*
X167044820Y-75655602D01*
X167073777Y-75667597D01*
X167104520Y-75673712D01*
X167134518Y-75682812D01*
X167165713Y-75685884D01*
X167196458Y-75692000D01*
X197928542Y-75692000D01*
X197959287Y-75685884D01*
X197990482Y-75682812D01*
X198020480Y-75673712D01*
X198051223Y-75667597D01*
X198080180Y-75655602D01*
X198110180Y-75646502D01*
X198137828Y-75631723D01*
X198166785Y-75619729D01*
X198192848Y-75602314D01*
X198220494Y-75587537D01*
X198244724Y-75567652D01*
X198270789Y-75550236D01*
X198292955Y-75528070D01*
X198317185Y-75508185D01*
X198337070Y-75483955D01*
X198359236Y-75461789D01*
X198376652Y-75435724D01*
X198396537Y-75411494D01*
X198411314Y-75383848D01*
X198428729Y-75357785D01*
X198440723Y-75328828D01*
X198455502Y-75301180D01*
X198464602Y-75271180D01*
X198476597Y-75242223D01*
X198482712Y-75211480D01*
X198491812Y-75181482D01*
X198494884Y-75150287D01*
X198501000Y-75119542D01*
X198501000Y-75088192D01*
X198504072Y-75057000D01*
X198501000Y-75025808D01*
X198501000Y-74994458D01*
X198494884Y-74963713D01*
X198491812Y-74932518D01*
X198482712Y-74902520D01*
X198476597Y-74871777D01*
X198464602Y-74842820D01*
X198455502Y-74812820D01*
X198440723Y-74785172D01*
X198428729Y-74756215D01*
X198411314Y-74730152D01*
X198396537Y-74702506D01*
X198376652Y-74678276D01*
X198359236Y-74652211D01*
X198337070Y-74630045D01*
X198317185Y-74605815D01*
X198292955Y-74585930D01*
X198270789Y-74563764D01*
X198244724Y-74546348D01*
X198220494Y-74526463D01*
X198192848Y-74511686D01*
X198166785Y-74494271D01*
X198137828Y-74482277D01*
X198110180Y-74467498D01*
X198080180Y-74458398D01*
X198051223Y-74446403D01*
X198020480Y-74440288D01*
X197990482Y-74431188D01*
X197959287Y-74428116D01*
X197928542Y-74422000D01*
X167196458Y-74422000D01*
X167165713Y-74428116D01*
X167134518Y-74431188D01*
X167104520Y-74440288D01*
X167073777Y-74446403D01*
X167044820Y-74458398D01*
X167014820Y-74467498D01*
X166987172Y-74482277D01*
X166958215Y-74494271D01*
X166932152Y-74511686D01*
X166904506Y-74526463D01*
X166880276Y-74546348D01*
X166854211Y-74563764D01*
X166832045Y-74585930D01*
X166807815Y-74605815D01*
X166787930Y-74630045D01*
X166765764Y-74652211D01*
X166748348Y-74678276D01*
X166728463Y-74702506D01*
X166713686Y-74730152D01*
X166696271Y-74756215D01*
X166684277Y-74785172D01*
X166669498Y-74812820D01*
X166660398Y-74842820D01*
X166648403Y-74871777D01*
X166642288Y-74902520D01*
X166633188Y-74932518D01*
X166630116Y-74963713D01*
X166624000Y-74994458D01*
X166624000Y-75025808D01*
X166620928Y-75057000D01*
X77876000Y-75057000D01*
X77876000Y-71716000D01*
X137576928Y-71716000D01*
X137589188Y-71840482D01*
X137625498Y-71960180D01*
X137684463Y-72070494D01*
X137763815Y-72167185D01*
X137860506Y-72246537D01*
X137970820Y-72305502D01*
X138090518Y-72341812D01*
X138215000Y-72354072D01*
X138779250Y-72351000D01*
X138938000Y-72192250D01*
X138938000Y-70993000D01*
X139192000Y-70993000D01*
X139192000Y-72192250D01*
X139350750Y-72351000D01*
X139915000Y-72354072D01*
X140039482Y-72341812D01*
X140159180Y-72305502D01*
X140269494Y-72246537D01*
X140366185Y-72167185D01*
X140445537Y-72070494D01*
X140504502Y-71960180D01*
X140540812Y-71840482D01*
X140553072Y-71716000D01*
X140550000Y-71151750D01*
X140391250Y-70993000D01*
X139192000Y-70993000D01*
X138938000Y-70993000D01*
X137738750Y-70993000D01*
X137580000Y-71151750D01*
X137576928Y-71716000D01*
X77876000Y-71716000D01*
X77876000Y-70016000D01*
X137576928Y-70016000D01*
X137580000Y-70580250D01*
X137738750Y-70739000D01*
X138938000Y-70739000D01*
X138938000Y-69539750D01*
X139192000Y-69539750D01*
X139192000Y-70739000D01*
X140391250Y-70739000D01*
X140550000Y-70580250D01*
X140553072Y-70016000D01*
X142912157Y-70016000D01*
X142912157Y-71716000D01*
X142919513Y-71790689D01*
X142941299Y-71862508D01*
X142976678Y-71928696D01*
X143024289Y-71986711D01*
X143082304Y-72034322D01*
X143148492Y-72069701D01*
X143220311Y-72091487D01*
X143295000Y-72098843D01*
X144995000Y-72098843D01*
X145069689Y-72091487D01*
X145141508Y-72069701D01*
X145207696Y-72034322D01*
X145265711Y-71986711D01*
X145313322Y-71928696D01*
X145348701Y-71862508D01*
X145370487Y-71790689D01*
X145377843Y-71716000D01*
X145377843Y-70016000D01*
X145370487Y-69941311D01*
X145348701Y-69869492D01*
X145313322Y-69803304D01*
X145265711Y-69745289D01*
X145207696Y-69697678D01*
X145141508Y-69662299D01*
X145069689Y-69640513D01*
X144995000Y-69633157D01*
X143295000Y-69633157D01*
X143220311Y-69640513D01*
X143148492Y-69662299D01*
X143082304Y-69697678D01*
X143024289Y-69745289D01*
X142976678Y-69803304D01*
X142941299Y-69869492D01*
X142919513Y-69941311D01*
X142912157Y-70016000D01*
X140553072Y-70016000D01*
X140540812Y-69891518D01*
X140504502Y-69771820D01*
X140445537Y-69661506D01*
X140366185Y-69564815D01*
X140269494Y-69485463D01*
X140159180Y-69426498D01*
X140039482Y-69390188D01*
X139915000Y-69377928D01*
X139350750Y-69381000D01*
X139192000Y-69539750D01*
X138938000Y-69539750D01*
X138779250Y-69381000D01*
X138215000Y-69377928D01*
X138090518Y-69390188D01*
X137970820Y-69426498D01*
X137860506Y-69485463D01*
X137763815Y-69564815D01*
X137684463Y-69661506D01*
X137625498Y-69771820D01*
X137589188Y-69891518D01*
X137576928Y-70016000D01*
X77876000Y-70016000D01*
X77876000Y-68092531D01*
X159447000Y-68092531D01*
X159447000Y-68305469D01*
X159488543Y-68514316D01*
X159570031Y-68711045D01*
X159688333Y-68888097D01*
X159838903Y-69038667D01*
X160015955Y-69156969D01*
X160212684Y-69238457D01*
X160421531Y-69280000D01*
X160634469Y-69280000D01*
X160843316Y-69238457D01*
X161040045Y-69156969D01*
X161217097Y-69038667D01*
X161367667Y-68888097D01*
X161485969Y-68711045D01*
X161567457Y-68514316D01*
X161609000Y-68305469D01*
X161609000Y-68092531D01*
X161987000Y-68092531D01*
X161987000Y-68305469D01*
X162028543Y-68514316D01*
X162110031Y-68711045D01*
X162228333Y-68888097D01*
X162378903Y-69038667D01*
X162555955Y-69156969D01*
X162752684Y-69238457D01*
X162961531Y-69280000D01*
X163174469Y-69280000D01*
X163383316Y-69238457D01*
X163580045Y-69156969D01*
X163757097Y-69038667D01*
X163907667Y-68888097D01*
X164025969Y-68711045D01*
X164107457Y-68514316D01*
X164149000Y-68305469D01*
X164149000Y-68092531D01*
X164107457Y-67883684D01*
X164025969Y-67686955D01*
X163907667Y-67509903D01*
X163757097Y-67359333D01*
X163580045Y-67241031D01*
X163383316Y-67159543D01*
X163174469Y-67118000D01*
X162961531Y-67118000D01*
X162752684Y-67159543D01*
X162555955Y-67241031D01*
X162378903Y-67359333D01*
X162228333Y-67509903D01*
X162110031Y-67686955D01*
X162028543Y-67883684D01*
X161987000Y-68092531D01*
X161609000Y-68092531D01*
X161567457Y-67883684D01*
X161485969Y-67686955D01*
X161367667Y-67509903D01*
X161217097Y-67359333D01*
X161040045Y-67241031D01*
X160843316Y-67159543D01*
X160634469Y-67118000D01*
X160421531Y-67118000D01*
X160212684Y-67159543D01*
X160015955Y-67241031D01*
X159838903Y-67359333D01*
X159688333Y-67509903D01*
X159570031Y-67686955D01*
X159488543Y-67883684D01*
X159447000Y-68092531D01*
X77876000Y-68092531D01*
X77876000Y-57214458D01*
X121793000Y-57214458D01*
X121793000Y-57339542D01*
X121817403Y-57462223D01*
X121865271Y-57577785D01*
X121934764Y-57681789D01*
X122023211Y-57770236D01*
X122127215Y-57839729D01*
X122242777Y-57887597D01*
X122365458Y-57912000D01*
X122490542Y-57912000D01*
X122613223Y-57887597D01*
X122728785Y-57839729D01*
X122832789Y-57770236D01*
X122868825Y-57734200D01*
X134179175Y-57734200D01*
X134215211Y-57770236D01*
X134319215Y-57839729D01*
X134434777Y-57887597D01*
X134557458Y-57912000D01*
X134682542Y-57912000D01*
X134805223Y-57887597D01*
X134920785Y-57839729D01*
X135024789Y-57770236D01*
X135113236Y-57681789D01*
X135182729Y-57577785D01*
X135230597Y-57462223D01*
X135255000Y-57339542D01*
X135255000Y-57214458D01*
X135230597Y-57091777D01*
X135182729Y-56976215D01*
X135113236Y-56872211D01*
X135024789Y-56783764D01*
X134920785Y-56714271D01*
X134805223Y-56666403D01*
X134682542Y-56642000D01*
X134557458Y-56642000D01*
X134434777Y-56666403D01*
X134319215Y-56714271D01*
X134215211Y-56783764D01*
X134179175Y-56819800D01*
X122868825Y-56819800D01*
X122832789Y-56783764D01*
X122728785Y-56714271D01*
X122613223Y-56666403D01*
X122490542Y-56642000D01*
X122365458Y-56642000D01*
X122242777Y-56666403D01*
X122127215Y-56714271D01*
X122023211Y-56783764D01*
X121934764Y-56872211D01*
X121865271Y-56976215D01*
X121817403Y-57091777D01*
X121793000Y-57214458D01*
X77876000Y-57214458D01*
X77876000Y-56452458D01*
X114046000Y-56452458D01*
X114046000Y-56577542D01*
X114070403Y-56700223D01*
X114118271Y-56815785D01*
X114187764Y-56919789D01*
X114276211Y-57008236D01*
X114380215Y-57077729D01*
X114495777Y-57125597D01*
X114618458Y-57150000D01*
X114743542Y-57150000D01*
X114866223Y-57125597D01*
X114981785Y-57077729D01*
X115085789Y-57008236D01*
X115121825Y-56972200D01*
X120782050Y-56972200D01*
X120845777Y-56998597D01*
X120968458Y-57023000D01*
X121093542Y-57023000D01*
X121216223Y-56998597D01*
X121331785Y-56950729D01*
X121435789Y-56881236D01*
X121524236Y-56792789D01*
X121593729Y-56688785D01*
X121641597Y-56573223D01*
X121666000Y-56450542D01*
X121666000Y-56325458D01*
X121641597Y-56202777D01*
X121593729Y-56087215D01*
X121524236Y-55983211D01*
X121435789Y-55894764D01*
X121331785Y-55825271D01*
X121216223Y-55777403D01*
X121093542Y-55753000D01*
X120968458Y-55753000D01*
X120845777Y-55777403D01*
X120730215Y-55825271D01*
X120626211Y-55894764D01*
X120537764Y-55983211D01*
X120487925Y-56057800D01*
X115121825Y-56057800D01*
X115085789Y-56021764D01*
X114981785Y-55952271D01*
X114866223Y-55904403D01*
X114743542Y-55880000D01*
X114618458Y-55880000D01*
X114495777Y-55904403D01*
X114380215Y-55952271D01*
X114276211Y-56021764D01*
X114187764Y-56110211D01*
X114118271Y-56214215D01*
X114070403Y-56329777D01*
X114046000Y-56452458D01*
X77876000Y-56452458D01*
X77876000Y-52261458D01*
X92138500Y-52261458D01*
X92138500Y-52386542D01*
X92162903Y-52509223D01*
X92210771Y-52624785D01*
X92255882Y-52692299D01*
X92210771Y-52759812D01*
X92162903Y-52875374D01*
X92138500Y-52998055D01*
X92138500Y-53123139D01*
X92162903Y-53245820D01*
X92210771Y-53361382D01*
X92230426Y-53390798D01*
X92210771Y-53420215D01*
X92162903Y-53535777D01*
X92138500Y-53658458D01*
X92138500Y-53783542D01*
X92162903Y-53906223D01*
X92210771Y-54021785D01*
X92280264Y-54125789D01*
X92368711Y-54214236D01*
X92472715Y-54283729D01*
X92588277Y-54331597D01*
X92710958Y-54356000D01*
X92836042Y-54356000D01*
X92958723Y-54331597D01*
X93074285Y-54283729D01*
X93178289Y-54214236D01*
X93214325Y-54178200D01*
X110938175Y-54178200D01*
X110974211Y-54214236D01*
X111078215Y-54283729D01*
X111193777Y-54331597D01*
X111316458Y-54356000D01*
X111441542Y-54356000D01*
X111564223Y-54331597D01*
X111679785Y-54283729D01*
X111783789Y-54214236D01*
X111819825Y-54178200D01*
X131004175Y-54178200D01*
X131040211Y-54214236D01*
X131144215Y-54283729D01*
X131259777Y-54331597D01*
X131382458Y-54356000D01*
X131507542Y-54356000D01*
X131630223Y-54331597D01*
X131745785Y-54283729D01*
X131849789Y-54214236D01*
X131938236Y-54125789D01*
X132007729Y-54021785D01*
X132055597Y-53906223D01*
X132080000Y-53783542D01*
X132080000Y-53658458D01*
X132055597Y-53535777D01*
X132007729Y-53420215D01*
X131938236Y-53316211D01*
X131849789Y-53227764D01*
X131745785Y-53158271D01*
X131630223Y-53110403D01*
X131507542Y-53086000D01*
X131382458Y-53086000D01*
X131318000Y-53098822D01*
X131318000Y-53023458D01*
X131293597Y-52900777D01*
X131245729Y-52785215D01*
X131176236Y-52681211D01*
X131087789Y-52592764D01*
X130983785Y-52523271D01*
X130868223Y-52475403D01*
X130745542Y-52451000D01*
X130620458Y-52451000D01*
X130497777Y-52475403D01*
X130382215Y-52523271D01*
X130278211Y-52592764D01*
X130242175Y-52628800D01*
X114669546Y-52628800D01*
X114672229Y-52624785D01*
X114720097Y-52509223D01*
X114744500Y-52386542D01*
X114744500Y-52261458D01*
X114720097Y-52138777D01*
X114672229Y-52023215D01*
X114602736Y-51919211D01*
X114514289Y-51830764D01*
X114410285Y-51761271D01*
X114294723Y-51713403D01*
X114172042Y-51689000D01*
X114046958Y-51689000D01*
X113924277Y-51713403D01*
X113808715Y-51761271D01*
X113704711Y-51830764D01*
X113668675Y-51866800D01*
X93214325Y-51866800D01*
X93178289Y-51830764D01*
X93074285Y-51761271D01*
X92958723Y-51713403D01*
X92836042Y-51689000D01*
X92710958Y-51689000D01*
X92588277Y-51713403D01*
X92472715Y-51761271D01*
X92368711Y-51830764D01*
X92280264Y-51919211D01*
X92210771Y-52023215D01*
X92162903Y-52138777D01*
X92138500Y-52261458D01*
X77876000Y-52261458D01*
X77876000Y-42053462D01*
X77902082Y-41660772D01*
X80479000Y-41660772D01*
X80479000Y-42819228D01*
X80705003Y-43955425D01*
X81148325Y-45025698D01*
X81791929Y-45988919D01*
X82611081Y-46808071D01*
X83574302Y-47451675D01*
X84644575Y-47894997D01*
X85780772Y-48121000D01*
X86939228Y-48121000D01*
X88075425Y-47894997D01*
X89145698Y-47451675D01*
X90108919Y-46808071D01*
X90928071Y-45988919D01*
X91571675Y-45025698D01*
X92014997Y-43955425D01*
X92241000Y-42819228D01*
X92241000Y-41660772D01*
X92126564Y-41085458D01*
X163957000Y-41085458D01*
X163957000Y-41210542D01*
X163981403Y-41333223D01*
X164029271Y-41448785D01*
X164098764Y-41552789D01*
X164134800Y-41588825D01*
X164134801Y-48454174D01*
X164098764Y-48490211D01*
X164029271Y-48594215D01*
X163981403Y-48709777D01*
X163957000Y-48832458D01*
X163957000Y-48957542D01*
X163981403Y-49080223D01*
X164029271Y-49195785D01*
X164098764Y-49299789D01*
X164187211Y-49388236D01*
X164291215Y-49457729D01*
X164406777Y-49505597D01*
X164529458Y-49530000D01*
X164654542Y-49530000D01*
X164777223Y-49505597D01*
X164892785Y-49457729D01*
X164996789Y-49388236D01*
X165085236Y-49299789D01*
X165154729Y-49195785D01*
X165202597Y-49080223D01*
X165227000Y-48957542D01*
X165227000Y-48832458D01*
X165202597Y-48709777D01*
X165154729Y-48594215D01*
X165085236Y-48490211D01*
X165049200Y-48454175D01*
X165049200Y-41593458D01*
X166306500Y-41593458D01*
X166306500Y-41718542D01*
X166330903Y-41841223D01*
X166378771Y-41956785D01*
X166448264Y-42060789D01*
X166484300Y-42096825D01*
X166484301Y-43691674D01*
X166448264Y-43727711D01*
X166378771Y-43831715D01*
X166330903Y-43947277D01*
X166306500Y-44069958D01*
X166306500Y-44195042D01*
X166330903Y-44317723D01*
X166378771Y-44433285D01*
X166448264Y-44537289D01*
X166536711Y-44625736D01*
X166640715Y-44695229D01*
X166756277Y-44743097D01*
X166878958Y-44767500D01*
X167004042Y-44767500D01*
X167126723Y-44743097D01*
X167242285Y-44695229D01*
X167346289Y-44625736D01*
X167434736Y-44537289D01*
X167504229Y-44433285D01*
X167552097Y-44317723D01*
X167576500Y-44195042D01*
X167576500Y-44069958D01*
X167552097Y-43947277D01*
X167504229Y-43831715D01*
X167434736Y-43727711D01*
X167398700Y-43691675D01*
X167398700Y-42101458D01*
X171577000Y-42101458D01*
X171577000Y-42226542D01*
X171601403Y-42349223D01*
X171649271Y-42464785D01*
X171718764Y-42568789D01*
X171754800Y-42604825D01*
X171754801Y-48327174D01*
X171718764Y-48363211D01*
X171649271Y-48467215D01*
X171601403Y-48582777D01*
X171577000Y-48705458D01*
X171577000Y-48830542D01*
X171601403Y-48953223D01*
X171649271Y-49068785D01*
X171718764Y-49172789D01*
X171807211Y-49261236D01*
X171911215Y-49330729D01*
X172026777Y-49378597D01*
X172149458Y-49403000D01*
X172274542Y-49403000D01*
X172397223Y-49378597D01*
X172512785Y-49330729D01*
X172616789Y-49261236D01*
X172705236Y-49172789D01*
X172774729Y-49068785D01*
X172822597Y-48953223D01*
X172847000Y-48830542D01*
X172847000Y-48705458D01*
X172822597Y-48582777D01*
X172774729Y-48467215D01*
X172705236Y-48363211D01*
X172669200Y-48327175D01*
X172669200Y-42604825D01*
X172705236Y-42568789D01*
X172774729Y-42464785D01*
X172822597Y-42349223D01*
X172847000Y-42226542D01*
X172847000Y-42101458D01*
X172822597Y-41978777D01*
X172774729Y-41863215D01*
X172705236Y-41759211D01*
X172616789Y-41670764D01*
X172512785Y-41601271D01*
X172397223Y-41553403D01*
X172274542Y-41529000D01*
X172149458Y-41529000D01*
X172026777Y-41553403D01*
X171911215Y-41601271D01*
X171807211Y-41670764D01*
X171718764Y-41759211D01*
X171649271Y-41863215D01*
X171601403Y-41978777D01*
X171577000Y-42101458D01*
X167398700Y-42101458D01*
X167398700Y-42096825D01*
X167434736Y-42060789D01*
X167504229Y-41956785D01*
X167552097Y-41841223D01*
X167576500Y-41718542D01*
X167576500Y-41593458D01*
X167552097Y-41470777D01*
X167504229Y-41355215D01*
X167434736Y-41251211D01*
X167346289Y-41162764D01*
X167242285Y-41093271D01*
X167126723Y-41045403D01*
X167004042Y-41021000D01*
X166878958Y-41021000D01*
X166756277Y-41045403D01*
X166640715Y-41093271D01*
X166536711Y-41162764D01*
X166448264Y-41251211D01*
X166378771Y-41355215D01*
X166330903Y-41470777D01*
X166306500Y-41593458D01*
X165049200Y-41593458D01*
X165049200Y-41588825D01*
X165085236Y-41552789D01*
X165154729Y-41448785D01*
X165202597Y-41333223D01*
X165227000Y-41210542D01*
X165227000Y-41085458D01*
X165202597Y-40962777D01*
X165154729Y-40847215D01*
X165085236Y-40743211D01*
X164996789Y-40654764D01*
X164892785Y-40585271D01*
X164777223Y-40537403D01*
X164654542Y-40513000D01*
X164529458Y-40513000D01*
X164406777Y-40537403D01*
X164291215Y-40585271D01*
X164187211Y-40654764D01*
X164098764Y-40743211D01*
X164029271Y-40847215D01*
X163981403Y-40962777D01*
X163957000Y-41085458D01*
X92126564Y-41085458D01*
X92014997Y-40524575D01*
X91931692Y-40323458D01*
X173355000Y-40323458D01*
X173355000Y-40448542D01*
X173379403Y-40571223D01*
X173427271Y-40686785D01*
X173496764Y-40790789D01*
X173532801Y-40826826D01*
X173532800Y-43755175D01*
X173496764Y-43791211D01*
X173427271Y-43895215D01*
X173379403Y-44010777D01*
X173355000Y-44133458D01*
X173355000Y-44258542D01*
X173379403Y-44381223D01*
X173427271Y-44496785D01*
X173496764Y-44600789D01*
X173585211Y-44689236D01*
X173689215Y-44758729D01*
X173804777Y-44806597D01*
X173927458Y-44831000D01*
X174052542Y-44831000D01*
X174175223Y-44806597D01*
X174290785Y-44758729D01*
X174394789Y-44689236D01*
X174483236Y-44600789D01*
X174552729Y-44496785D01*
X174600597Y-44381223D01*
X174625000Y-44258542D01*
X174625000Y-44133458D01*
X174600597Y-44010777D01*
X174552729Y-43895215D01*
X174483236Y-43791211D01*
X174447200Y-43755175D01*
X174447200Y-41660772D01*
X205479000Y-41660772D01*
X205479000Y-42819228D01*
X205705003Y-43955425D01*
X206148325Y-45025698D01*
X206791929Y-45988919D01*
X207611081Y-46808071D01*
X208574302Y-47451675D01*
X209644575Y-47894997D01*
X210780772Y-48121000D01*
X211939228Y-48121000D01*
X213075425Y-47894997D01*
X214145698Y-47451675D01*
X215108919Y-46808071D01*
X215928071Y-45988919D01*
X216571675Y-45025698D01*
X217014997Y-43955425D01*
X217241000Y-42819228D01*
X217241000Y-41660772D01*
X217014997Y-40524575D01*
X216571675Y-39454302D01*
X215928071Y-38491081D01*
X215108919Y-37671929D01*
X214145698Y-37028325D01*
X213075425Y-36585003D01*
X211939228Y-36359000D01*
X210780772Y-36359000D01*
X209644575Y-36585003D01*
X208574302Y-37028325D01*
X207611081Y-37671929D01*
X206791929Y-38491081D01*
X206148325Y-39454302D01*
X205705003Y-40524575D01*
X205479000Y-41660772D01*
X174447200Y-41660772D01*
X174447200Y-40826825D01*
X174483236Y-40790789D01*
X174552729Y-40686785D01*
X174600597Y-40571223D01*
X174625000Y-40448542D01*
X174625000Y-40323458D01*
X174600597Y-40200777D01*
X174552729Y-40085215D01*
X174483236Y-39981211D01*
X174394789Y-39892764D01*
X174290785Y-39823271D01*
X174175223Y-39775403D01*
X174052542Y-39751000D01*
X173927458Y-39751000D01*
X173804777Y-39775403D01*
X173689215Y-39823271D01*
X173585211Y-39892764D01*
X173496764Y-39981211D01*
X173427271Y-40085215D01*
X173379403Y-40200777D01*
X173355000Y-40323458D01*
X91931692Y-40323458D01*
X91571675Y-39454302D01*
X90928071Y-38491081D01*
X90108919Y-37671929D01*
X89145698Y-37028325D01*
X88075425Y-36585003D01*
X86939228Y-36359000D01*
X85780772Y-36359000D01*
X84644575Y-36585003D01*
X83574302Y-37028325D01*
X82611081Y-37671929D01*
X81791929Y-38491081D01*
X81148325Y-39454302D01*
X80705003Y-40524575D01*
X80479000Y-41660772D01*
X77902082Y-41660772D01*
X77951414Y-40918058D01*
X78173663Y-39815819D01*
X78539736Y-38752669D01*
X79043205Y-37747263D01*
X79675221Y-36817278D01*
X80424682Y-35979053D01*
X81278424Y-35247308D01*
X82221432Y-34634912D01*
X83237159Y-34152609D01*
X84307757Y-33808877D01*
X85416494Y-33609384D01*
X86371342Y-33556000D01*
X211546538Y-33556000D01*
X212681942Y-33631414D01*
G37*
%TD.AperFunction*%
%TD*%
M02*
